G04 #@! TF.GenerationSoftware,KiCad,Pcbnew,7.0.7-7.0.7~ubuntu22.04.1*
G04 #@! TF.CreationDate,2023-09-10T07:26:43+00:00*
G04 #@! TF.ProjectId,hellen-112-17,68656c6c-656e-42d3-9131-322d31372e6b,B*
G04 #@! TF.SameCoordinates,Original*
G04 #@! TF.FileFunction,Soldermask,Top*
G04 #@! TF.FilePolarity,Negative*
%FSLAX46Y46*%
G04 Gerber Fmt 4.6, Leading zero omitted, Abs format (unit mm)*
G04 Created by KiCad (PCBNEW 7.0.7-7.0.7~ubuntu22.04.1) date 2023-09-10 07:26:43*
%MOMM*%
%LPD*%
G01*
G04 APERTURE LIST*
%ADD10R,2.000000X0.650000*%
%ADD11R,4.500000X8.100000*%
%ADD12C,2.100000*%
%ADD13C,1.500000*%
%ADD14C,1.524000*%
%ADD15C,1.700000*%
%ADD16R,0.800000X0.500000*%
%ADD17R,0.800000X0.400000*%
%ADD18R,1.100000X1.100000*%
%ADD19C,1.100000*%
%ADD20O,2.400000X1.100000*%
%ADD21C,0.600000*%
%ADD22O,0.700001X0.200000*%
%ADD23O,1.000001X0.499999*%
%ADD24O,0.499999X0.250000*%
%ADD25C,0.599999*%
G04 APERTURE END LIST*
G04 #@! TO.C,C13*
G36*
G01*
X22160000Y58255001D02*
X22840000Y58255001D01*
G75*
G02*
X22925000Y58170001I0J-85000D01*
G01*
X22925000Y57490001D01*
G75*
G02*
X22840000Y57405001I-85000J0D01*
G01*
X22160000Y57405001D01*
G75*
G02*
X22075000Y57490001I0J85000D01*
G01*
X22075000Y58170001D01*
G75*
G02*
X22160000Y58255001I85000J0D01*
G01*
G37*
G36*
G01*
X22160000Y56674999D02*
X22840000Y56674999D01*
G75*
G02*
X22925000Y56589999I0J-85000D01*
G01*
X22925000Y55909999D01*
G75*
G02*
X22840000Y55824999I-85000J0D01*
G01*
X22160000Y55824999D01*
G75*
G02*
X22075000Y55909999I0J85000D01*
G01*
X22075000Y56589999D01*
G75*
G02*
X22160000Y56674999I85000J0D01*
G01*
G37*
G04 #@! TD*
D10*
G04 #@! TO.C,U1*
X10575000Y61000000D03*
X10575000Y60000000D03*
X10575000Y59000000D03*
X10575000Y58000000D03*
X10575000Y57000000D03*
X10575000Y56000000D03*
X20175000Y56000000D03*
X20175000Y57000000D03*
X20175000Y58000000D03*
X20175000Y59000000D03*
X20175000Y60000000D03*
X20175000Y61000000D03*
D11*
X15375000Y58500000D03*
G04 #@! TD*
D12*
G04 #@! TO.C,J1*
X2154267Y84016479D03*
X84154267Y84016479D03*
D13*
X77404267Y89716479D03*
X74904267Y89716479D03*
X72404267Y89716479D03*
X69904267Y89716479D03*
X67404267Y89716479D03*
X64904267Y89716479D03*
X62404267Y89716479D03*
X59904267Y89716479D03*
X57404267Y89716479D03*
X54904267Y89716479D03*
X52404267Y89716479D03*
X49904267Y89716479D03*
X77404267Y87216479D03*
X74904267Y87216479D03*
X72404267Y87216479D03*
X69904267Y87216479D03*
X67404267Y87216479D03*
X64904267Y87216479D03*
X62404267Y87216479D03*
X59904267Y87216479D03*
X57404267Y87216479D03*
X54904267Y87216479D03*
X52404267Y87216479D03*
X49904267Y87216479D03*
X77404267Y81216479D03*
X74904267Y81216479D03*
X72404267Y81216479D03*
X69904267Y81216479D03*
X67404267Y81216479D03*
X64904267Y81216479D03*
X62404267Y81216479D03*
X59904267Y81216479D03*
X57404267Y81216479D03*
X54904267Y81216479D03*
X52404267Y81216479D03*
X49904267Y81216479D03*
X77404267Y78716479D03*
X74904267Y78716479D03*
X72404267Y78716479D03*
X69904267Y78716479D03*
X67404267Y78716479D03*
X64904267Y78716479D03*
X62404267Y78716479D03*
X59904267Y78716479D03*
X57404267Y78716479D03*
X54904267Y78716479D03*
X52404267Y78716479D03*
X49904267Y78716479D03*
X76779267Y74716479D03*
X73029267Y74716479D03*
X69279267Y74716479D03*
X65529267Y74716479D03*
X61779267Y74716479D03*
X58029267Y74716479D03*
X54279267Y74716479D03*
X50529267Y74716479D03*
X36404267Y89716479D03*
X33904267Y89716479D03*
X31404267Y89716479D03*
X28904267Y89716479D03*
X26404267Y89716479D03*
X23904267Y89716479D03*
X21404267Y89716479D03*
X18904267Y89716479D03*
X16404267Y89716479D03*
X13904267Y89716479D03*
X11404267Y89716479D03*
X8904267Y89716479D03*
X36404267Y87216479D03*
X33904267Y87216479D03*
X31404267Y87216479D03*
X28904267Y87216479D03*
X26404267Y87216479D03*
X23904267Y87216479D03*
X21404267Y87216479D03*
X18904267Y87216479D03*
X16404267Y87216479D03*
X13904267Y87216479D03*
X11404267Y87216479D03*
X8904267Y87216479D03*
X36404267Y81216479D03*
X33904267Y81216479D03*
X31404267Y81216479D03*
X28904267Y81216479D03*
X26404267Y81216479D03*
X23904267Y81216479D03*
X21404267Y81216479D03*
X18904267Y81216479D03*
X16404267Y81216479D03*
X13904267Y81216479D03*
X11404267Y81216479D03*
X8904267Y81216479D03*
X36404267Y78716479D03*
X33904267Y78716479D03*
X31404267Y78716479D03*
X28904267Y78716479D03*
X26404267Y78716479D03*
X23904267Y78716479D03*
X21404267Y78716479D03*
X18904267Y78716479D03*
X16404267Y78716479D03*
X13904267Y78716479D03*
X11404267Y78716479D03*
X8904267Y78716479D03*
X35779267Y74716479D03*
X32029267Y74716479D03*
X28279267Y74716479D03*
X24529267Y74716479D03*
X20779267Y74716479D03*
X17029267Y74716479D03*
X13279267Y74716479D03*
X9529267Y74716479D03*
G04 #@! TD*
D14*
G04 #@! TO.C,R13*
X33500000Y68405000D03*
G36*
G01*
X32875000Y67950001D02*
X34125000Y67950001D01*
G75*
G02*
X34225000Y67850001I0J-100000D01*
G01*
X34225000Y67050001D01*
G75*
G02*
X34125000Y66950001I-100000J0D01*
G01*
X32875000Y66950001D01*
G75*
G02*
X32775000Y67050001I0J100000D01*
G01*
X32775000Y67850001D01*
G75*
G02*
X32875000Y67950001I100000J0D01*
G01*
G37*
G36*
G01*
X32875000Y66049979D02*
X34125000Y66049979D01*
G75*
G02*
X34225000Y65949979I0J-100000D01*
G01*
X34225000Y65149979D01*
G75*
G02*
X34125000Y65049979I-100000J0D01*
G01*
X32875000Y65049979D01*
G75*
G02*
X32775000Y65149979I0J100000D01*
G01*
X32775000Y65949979D01*
G75*
G02*
X32875000Y66049979I100000J0D01*
G01*
G37*
X33500000Y64595000D03*
G04 #@! TD*
G04 #@! TO.C,C4*
G36*
G01*
X18100000Y50500000D02*
X17050000Y50500000D01*
G75*
G02*
X16950000Y50600000I0J100000D01*
G01*
X16950000Y51400000D01*
G75*
G02*
X17050000Y51500000I100000J0D01*
G01*
X18100000Y51500000D01*
G75*
G02*
X18200000Y51400000I0J-100000D01*
G01*
X18200000Y50600000D01*
G75*
G02*
X18100000Y50500000I-100000J0D01*
G01*
G37*
G36*
G01*
X18100000Y52500000D02*
X17050000Y52500000D01*
G75*
G02*
X16950000Y52600000I0J100000D01*
G01*
X16950000Y53400000D01*
G75*
G02*
X17050000Y53500000I100000J0D01*
G01*
X18100000Y53500000D01*
G75*
G02*
X18200000Y53400000I0J-100000D01*
G01*
X18200000Y52600000D01*
G75*
G02*
X18100000Y52500000I-100000J0D01*
G01*
G37*
G04 #@! TD*
D15*
G04 #@! TO.C,G2*
X74692000Y7880000D03*
X74692000Y10420000D03*
X74692000Y12960000D03*
X74692000Y15500000D03*
X74692000Y18040000D03*
X77232000Y7880000D03*
X77232000Y10420000D03*
X77232000Y12960000D03*
X77232000Y15500000D03*
X77232000Y18040000D03*
X79772000Y7880000D03*
X79772000Y10420000D03*
X79772000Y12960000D03*
X79772000Y15500000D03*
X79772000Y18040000D03*
G04 #@! TD*
D14*
G04 #@! TO.C,R11*
X8190000Y68500000D03*
G36*
G01*
X8644999Y67875000D02*
X8644999Y69125000D01*
G75*
G02*
X8744999Y69225000I100000J0D01*
G01*
X9544999Y69225000D01*
G75*
G02*
X9644999Y69125000I0J-100000D01*
G01*
X9644999Y67875000D01*
G75*
G02*
X9544999Y67775000I-100000J0D01*
G01*
X8744999Y67775000D01*
G75*
G02*
X8644999Y67875000I0J100000D01*
G01*
G37*
G36*
G01*
X10545021Y67875000D02*
X10545021Y69125000D01*
G75*
G02*
X10645021Y69225000I100000J0D01*
G01*
X11445021Y69225000D01*
G75*
G02*
X11545021Y69125000I0J-100000D01*
G01*
X11545021Y67875000D01*
G75*
G02*
X11445021Y67775000I-100000J0D01*
G01*
X10645021Y67775000D01*
G75*
G02*
X10545021Y67875000I0J100000D01*
G01*
G37*
X12000000Y68500000D03*
G04 #@! TD*
G04 #@! TO.C,C5*
G36*
G01*
X20100000Y50500000D02*
X19050000Y50500000D01*
G75*
G02*
X18950000Y50600000I0J100000D01*
G01*
X18950000Y51400000D01*
G75*
G02*
X19050000Y51500000I100000J0D01*
G01*
X20100000Y51500000D01*
G75*
G02*
X20200000Y51400000I0J-100000D01*
G01*
X20200000Y50600000D01*
G75*
G02*
X20100000Y50500000I-100000J0D01*
G01*
G37*
G36*
G01*
X20100000Y52500000D02*
X19050000Y52500000D01*
G75*
G02*
X18950000Y52600000I0J100000D01*
G01*
X18950000Y53400000D01*
G75*
G02*
X19050000Y53500000I100000J0D01*
G01*
X20100000Y53500000D01*
G75*
G02*
X20200000Y53400000I0J-100000D01*
G01*
X20200000Y52600000D01*
G75*
G02*
X20100000Y52500000I-100000J0D01*
G01*
G37*
G04 #@! TD*
G04 #@! TO.C,Q10*
G36*
G01*
X58700000Y42325000D02*
X58400000Y42325000D01*
G75*
G02*
X58250000Y42475000I0J150000D01*
G01*
X58250000Y43650000D01*
G75*
G02*
X58400000Y43800000I150000J0D01*
G01*
X58700000Y43800000D01*
G75*
G02*
X58850000Y43650000I0J-150000D01*
G01*
X58850000Y42475000D01*
G75*
G02*
X58700000Y42325000I-150000J0D01*
G01*
G37*
G36*
G01*
X59650000Y44200000D02*
X59350000Y44200000D01*
G75*
G02*
X59200000Y44350000I0J150000D01*
G01*
X59200000Y45525000D01*
G75*
G02*
X59350000Y45675000I150000J0D01*
G01*
X59650000Y45675000D01*
G75*
G02*
X59800000Y45525000I0J-150000D01*
G01*
X59800000Y44350000D01*
G75*
G02*
X59650000Y44200000I-150000J0D01*
G01*
G37*
G36*
G01*
X60600000Y42325000D02*
X60300000Y42325000D01*
G75*
G02*
X60150000Y42475000I0J150000D01*
G01*
X60150000Y43650000D01*
G75*
G02*
X60300000Y43800000I150000J0D01*
G01*
X60600000Y43800000D01*
G75*
G02*
X60750000Y43650000I0J-150000D01*
G01*
X60750000Y42475000D01*
G75*
G02*
X60600000Y42325000I-150000J0D01*
G01*
G37*
G04 #@! TD*
G04 #@! TO.C,R14*
X31500000Y68405000D03*
G36*
G01*
X30875000Y67950001D02*
X32125000Y67950001D01*
G75*
G02*
X32225000Y67850001I0J-100000D01*
G01*
X32225000Y67050001D01*
G75*
G02*
X32125000Y66950001I-100000J0D01*
G01*
X30875000Y66950001D01*
G75*
G02*
X30775000Y67050001I0J100000D01*
G01*
X30775000Y67850001D01*
G75*
G02*
X30875000Y67950001I100000J0D01*
G01*
G37*
G36*
G01*
X30875000Y66049979D02*
X32125000Y66049979D01*
G75*
G02*
X32225000Y65949979I0J-100000D01*
G01*
X32225000Y65149979D01*
G75*
G02*
X32125000Y65049979I-100000J0D01*
G01*
X30875000Y65049979D01*
G75*
G02*
X30775000Y65149979I0J100000D01*
G01*
X30775000Y65949979D01*
G75*
G02*
X30875000Y66049979I100000J0D01*
G01*
G37*
X31500000Y64595000D03*
G04 #@! TD*
G04 #@! TO.C,Q7*
G36*
G01*
X76700000Y38325000D02*
X76400000Y38325000D01*
G75*
G02*
X76250000Y38475000I0J150000D01*
G01*
X76250000Y39650000D01*
G75*
G02*
X76400000Y39800000I150000J0D01*
G01*
X76700000Y39800000D01*
G75*
G02*
X76850000Y39650000I0J-150000D01*
G01*
X76850000Y38475000D01*
G75*
G02*
X76700000Y38325000I-150000J0D01*
G01*
G37*
G36*
G01*
X77650000Y40200000D02*
X77350000Y40200000D01*
G75*
G02*
X77200000Y40350000I0J150000D01*
G01*
X77200000Y41525000D01*
G75*
G02*
X77350000Y41675000I150000J0D01*
G01*
X77650000Y41675000D01*
G75*
G02*
X77800000Y41525000I0J-150000D01*
G01*
X77800000Y40350000D01*
G75*
G02*
X77650000Y40200000I-150000J0D01*
G01*
G37*
G36*
G01*
X78600000Y38325000D02*
X78300000Y38325000D01*
G75*
G02*
X78150000Y38475000I0J150000D01*
G01*
X78150000Y39650000D01*
G75*
G02*
X78300000Y39800000I150000J0D01*
G01*
X78600000Y39800000D01*
G75*
G02*
X78750000Y39650000I0J-150000D01*
G01*
X78750000Y38475000D01*
G75*
G02*
X78600000Y38325000I-150000J0D01*
G01*
G37*
G04 #@! TD*
G04 #@! TO.C,Q9*
G36*
G01*
X64700000Y42387500D02*
X64400000Y42387500D01*
G75*
G02*
X64250000Y42537500I0J150000D01*
G01*
X64250000Y43712500D01*
G75*
G02*
X64400000Y43862500I150000J0D01*
G01*
X64700000Y43862500D01*
G75*
G02*
X64850000Y43712500I0J-150000D01*
G01*
X64850000Y42537500D01*
G75*
G02*
X64700000Y42387500I-150000J0D01*
G01*
G37*
G36*
G01*
X65650000Y44262500D02*
X65350000Y44262500D01*
G75*
G02*
X65200000Y44412500I0J150000D01*
G01*
X65200000Y45587500D01*
G75*
G02*
X65350000Y45737500I150000J0D01*
G01*
X65650000Y45737500D01*
G75*
G02*
X65800000Y45587500I0J-150000D01*
G01*
X65800000Y44412500D01*
G75*
G02*
X65650000Y44262500I-150000J0D01*
G01*
G37*
G36*
G01*
X66600000Y42387500D02*
X66300000Y42387500D01*
G75*
G02*
X66150000Y42537500I0J150000D01*
G01*
X66150000Y43712500D01*
G75*
G02*
X66300000Y43862500I150000J0D01*
G01*
X66600000Y43862500D01*
G75*
G02*
X66750000Y43712500I0J-150000D01*
G01*
X66750000Y42537500D01*
G75*
G02*
X66600000Y42387500I-150000J0D01*
G01*
G37*
G04 #@! TD*
G04 #@! TO.C,C12*
G36*
G01*
X8040000Y54784999D02*
X7360000Y54784999D01*
G75*
G02*
X7275000Y54869999I0J85000D01*
G01*
X7275000Y55549999D01*
G75*
G02*
X7360000Y55634999I85000J0D01*
G01*
X8040000Y55634999D01*
G75*
G02*
X8125000Y55549999I0J-85000D01*
G01*
X8125000Y54869999D01*
G75*
G02*
X8040000Y54784999I-85000J0D01*
G01*
G37*
G36*
G01*
X8040000Y56365001D02*
X7360000Y56365001D01*
G75*
G02*
X7275000Y56450001I0J85000D01*
G01*
X7275000Y57130001D01*
G75*
G02*
X7360000Y57215001I85000J0D01*
G01*
X8040000Y57215001D01*
G75*
G02*
X8125000Y57130001I0J-85000D01*
G01*
X8125000Y56450001D01*
G75*
G02*
X8040000Y56365001I-85000J0D01*
G01*
G37*
G04 #@! TD*
G04 #@! TO.C,U11*
G36*
G01*
X71550000Y52255000D02*
X71550000Y52555000D01*
G75*
G02*
X71700000Y52705000I150000J0D01*
G01*
X73350000Y52705000D01*
G75*
G02*
X73500000Y52555000I0J-150000D01*
G01*
X73500000Y52255000D01*
G75*
G02*
X73350000Y52105000I-150000J0D01*
G01*
X71700000Y52105000D01*
G75*
G02*
X71550000Y52255000I0J150000D01*
G01*
G37*
G36*
G01*
X71550000Y50985000D02*
X71550000Y51285000D01*
G75*
G02*
X71700000Y51435000I150000J0D01*
G01*
X73350000Y51435000D01*
G75*
G02*
X73500000Y51285000I0J-150000D01*
G01*
X73500000Y50985000D01*
G75*
G02*
X73350000Y50835000I-150000J0D01*
G01*
X71700000Y50835000D01*
G75*
G02*
X71550000Y50985000I0J150000D01*
G01*
G37*
G36*
G01*
X71550000Y49715000D02*
X71550000Y50015000D01*
G75*
G02*
X71700000Y50165000I150000J0D01*
G01*
X73350000Y50165000D01*
G75*
G02*
X73500000Y50015000I0J-150000D01*
G01*
X73500000Y49715000D01*
G75*
G02*
X73350000Y49565000I-150000J0D01*
G01*
X71700000Y49565000D01*
G75*
G02*
X71550000Y49715000I0J150000D01*
G01*
G37*
G36*
G01*
X71550000Y48445000D02*
X71550000Y48745000D01*
G75*
G02*
X71700000Y48895000I150000J0D01*
G01*
X73350000Y48895000D01*
G75*
G02*
X73500000Y48745000I0J-150000D01*
G01*
X73500000Y48445000D01*
G75*
G02*
X73350000Y48295000I-150000J0D01*
G01*
X71700000Y48295000D01*
G75*
G02*
X71550000Y48445000I0J150000D01*
G01*
G37*
G36*
G01*
X76500000Y48445000D02*
X76500000Y48745000D01*
G75*
G02*
X76650000Y48895000I150000J0D01*
G01*
X78300000Y48895000D01*
G75*
G02*
X78450000Y48745000I0J-150000D01*
G01*
X78450000Y48445000D01*
G75*
G02*
X78300000Y48295000I-150000J0D01*
G01*
X76650000Y48295000D01*
G75*
G02*
X76500000Y48445000I0J150000D01*
G01*
G37*
G36*
G01*
X76500000Y49715000D02*
X76500000Y50015000D01*
G75*
G02*
X76650000Y50165000I150000J0D01*
G01*
X78300000Y50165000D01*
G75*
G02*
X78450000Y50015000I0J-150000D01*
G01*
X78450000Y49715000D01*
G75*
G02*
X78300000Y49565000I-150000J0D01*
G01*
X76650000Y49565000D01*
G75*
G02*
X76500000Y49715000I0J150000D01*
G01*
G37*
G36*
G01*
X76500000Y50985000D02*
X76500000Y51285000D01*
G75*
G02*
X76650000Y51435000I150000J0D01*
G01*
X78300000Y51435000D01*
G75*
G02*
X78450000Y51285000I0J-150000D01*
G01*
X78450000Y50985000D01*
G75*
G02*
X78300000Y50835000I-150000J0D01*
G01*
X76650000Y50835000D01*
G75*
G02*
X76500000Y50985000I0J150000D01*
G01*
G37*
G36*
G01*
X76500000Y52255000D02*
X76500000Y52555000D01*
G75*
G02*
X76650000Y52705000I150000J0D01*
G01*
X78300000Y52705000D01*
G75*
G02*
X78450000Y52555000I0J-150000D01*
G01*
X78450000Y52255000D01*
G75*
G02*
X78300000Y52105000I-150000J0D01*
G01*
X76650000Y52105000D01*
G75*
G02*
X76500000Y52255000I0J150000D01*
G01*
G37*
G04 #@! TD*
G04 #@! TO.C,R38*
G36*
G01*
X58350000Y41110000D02*
X58350000Y41890000D01*
G75*
G02*
X58420000Y41960000I70000J0D01*
G01*
X58980000Y41960000D01*
G75*
G02*
X59050000Y41890000I0J-70000D01*
G01*
X59050000Y41110000D01*
G75*
G02*
X58980000Y41040000I-70000J0D01*
G01*
X58420000Y41040000D01*
G75*
G02*
X58350000Y41110000I0J70000D01*
G01*
G37*
G36*
G01*
X59950000Y41110000D02*
X59950000Y41890000D01*
G75*
G02*
X60020000Y41960000I70000J0D01*
G01*
X60580000Y41960000D01*
G75*
G02*
X60650000Y41890000I0J-70000D01*
G01*
X60650000Y41110000D01*
G75*
G02*
X60580000Y41040000I-70000J0D01*
G01*
X60020000Y41040000D01*
G75*
G02*
X59950000Y41110000I0J70000D01*
G01*
G37*
G04 #@! TD*
G04 #@! TO.C,R40*
G36*
G01*
X76350000Y31610000D02*
X76350000Y32390000D01*
G75*
G02*
X76420000Y32460000I70000J0D01*
G01*
X76980000Y32460000D01*
G75*
G02*
X77050000Y32390000I0J-70000D01*
G01*
X77050000Y31610000D01*
G75*
G02*
X76980000Y31540000I-70000J0D01*
G01*
X76420000Y31540000D01*
G75*
G02*
X76350000Y31610000I0J70000D01*
G01*
G37*
G36*
G01*
X77950000Y31610000D02*
X77950000Y32390000D01*
G75*
G02*
X78020000Y32460000I70000J0D01*
G01*
X78580000Y32460000D01*
G75*
G02*
X78650000Y32390000I0J-70000D01*
G01*
X78650000Y31610000D01*
G75*
G02*
X78580000Y31540000I-70000J0D01*
G01*
X78020000Y31540000D01*
G75*
G02*
X77950000Y31610000I0J70000D01*
G01*
G37*
G04 #@! TD*
G04 #@! TO.C,Q8*
G36*
G01*
X56650000Y49762500D02*
X56350000Y49762500D01*
G75*
G02*
X56200000Y49912500I0J150000D01*
G01*
X56200000Y51087500D01*
G75*
G02*
X56350000Y51237500I150000J0D01*
G01*
X56650000Y51237500D01*
G75*
G02*
X56800000Y51087500I0J-150000D01*
G01*
X56800000Y49912500D01*
G75*
G02*
X56650000Y49762500I-150000J0D01*
G01*
G37*
G36*
G01*
X57600000Y51637500D02*
X57300000Y51637500D01*
G75*
G02*
X57150000Y51787500I0J150000D01*
G01*
X57150000Y52962500D01*
G75*
G02*
X57300000Y53112500I150000J0D01*
G01*
X57600000Y53112500D01*
G75*
G02*
X57750000Y52962500I0J-150000D01*
G01*
X57750000Y51787500D01*
G75*
G02*
X57600000Y51637500I-150000J0D01*
G01*
G37*
G36*
G01*
X58550000Y49762500D02*
X58250000Y49762500D01*
G75*
G02*
X58100000Y49912500I0J150000D01*
G01*
X58100000Y51087500D01*
G75*
G02*
X58250000Y51237500I150000J0D01*
G01*
X58550000Y51237500D01*
G75*
G02*
X58700000Y51087500I0J-150000D01*
G01*
X58700000Y49912500D01*
G75*
G02*
X58550000Y49762500I-150000J0D01*
G01*
G37*
G04 #@! TD*
G04 #@! TO.C,R12*
X22000000Y68405000D03*
G36*
G01*
X21375000Y67950001D02*
X22625000Y67950001D01*
G75*
G02*
X22725000Y67850001I0J-100000D01*
G01*
X22725000Y67050001D01*
G75*
G02*
X22625000Y66950001I-100000J0D01*
G01*
X21375000Y66950001D01*
G75*
G02*
X21275000Y67050001I0J100000D01*
G01*
X21275000Y67850001D01*
G75*
G02*
X21375000Y67950001I100000J0D01*
G01*
G37*
G36*
G01*
X21375000Y66049979D02*
X22625000Y66049979D01*
G75*
G02*
X22725000Y65949979I0J-100000D01*
G01*
X22725000Y65149979D01*
G75*
G02*
X22625000Y65049979I-100000J0D01*
G01*
X21375000Y65049979D01*
G75*
G02*
X21275000Y65149979I0J100000D01*
G01*
X21275000Y65949979D01*
G75*
G02*
X21375000Y66049979I100000J0D01*
G01*
G37*
X22000000Y64595000D03*
G04 #@! TD*
G04 #@! TO.C,F2*
X53000000Y67450000D03*
G36*
G01*
X52100000Y66105010D02*
X52100000Y66795010D01*
G75*
G02*
X52330000Y67025010I230000J0D01*
G01*
X53670000Y67025010D01*
G75*
G02*
X53900000Y66795010I0J-230000D01*
G01*
X53900000Y66105010D01*
G75*
G02*
X53670000Y65875010I-230000J0D01*
G01*
X52330000Y65875010D01*
G75*
G02*
X52100000Y66105010I0J230000D01*
G01*
G37*
G36*
G01*
X52100000Y63204990D02*
X52100000Y63894990D01*
G75*
G02*
X52330000Y64124990I230000J0D01*
G01*
X53670000Y64124990D01*
G75*
G02*
X53900000Y63894990I0J-230000D01*
G01*
X53900000Y63204990D01*
G75*
G02*
X53670000Y62974990I-230000J0D01*
G01*
X52330000Y62974990D01*
G75*
G02*
X52100000Y63204990I0J230000D01*
G01*
G37*
X53000000Y62550000D03*
G04 #@! TD*
G04 #@! TO.C,R33*
G36*
G01*
X76350000Y42610000D02*
X76350000Y43390000D01*
G75*
G02*
X76420000Y43460000I70000J0D01*
G01*
X76980000Y43460000D01*
G75*
G02*
X77050000Y43390000I0J-70000D01*
G01*
X77050000Y42610000D01*
G75*
G02*
X76980000Y42540000I-70000J0D01*
G01*
X76420000Y42540000D01*
G75*
G02*
X76350000Y42610000I0J70000D01*
G01*
G37*
G36*
G01*
X77950000Y42610000D02*
X77950000Y43390000D01*
G75*
G02*
X78020000Y43460000I70000J0D01*
G01*
X78580000Y43460000D01*
G75*
G02*
X78650000Y43390000I0J-70000D01*
G01*
X78650000Y42610000D01*
G75*
G02*
X78580000Y42540000I-70000J0D01*
G01*
X78020000Y42540000D01*
G75*
G02*
X77950000Y42610000I0J70000D01*
G01*
G37*
G04 #@! TD*
G04 #@! TO.C,R41*
G36*
G01*
X70350000Y31610000D02*
X70350000Y32390000D01*
G75*
G02*
X70420000Y32460000I70000J0D01*
G01*
X70980000Y32460000D01*
G75*
G02*
X71050000Y32390000I0J-70000D01*
G01*
X71050000Y31610000D01*
G75*
G02*
X70980000Y31540000I-70000J0D01*
G01*
X70420000Y31540000D01*
G75*
G02*
X70350000Y31610000I0J70000D01*
G01*
G37*
G36*
G01*
X71950000Y31610000D02*
X71950000Y32390000D01*
G75*
G02*
X72020000Y32460000I70000J0D01*
G01*
X72580000Y32460000D01*
G75*
G02*
X72650000Y32390000I0J-70000D01*
G01*
X72650000Y31610000D01*
G75*
G02*
X72580000Y31540000I-70000J0D01*
G01*
X72020000Y31540000D01*
G75*
G02*
X71950000Y31610000I0J70000D01*
G01*
G37*
G04 #@! TD*
G04 #@! TO.C,R15*
X28250000Y68405000D03*
G36*
G01*
X27625000Y67950001D02*
X28875000Y67950001D01*
G75*
G02*
X28975000Y67850001I0J-100000D01*
G01*
X28975000Y67050001D01*
G75*
G02*
X28875000Y66950001I-100000J0D01*
G01*
X27625000Y66950001D01*
G75*
G02*
X27525000Y67050001I0J100000D01*
G01*
X27525000Y67850001D01*
G75*
G02*
X27625000Y67950001I100000J0D01*
G01*
G37*
G36*
G01*
X27625000Y66049979D02*
X28875000Y66049979D01*
G75*
G02*
X28975000Y65949979I0J-100000D01*
G01*
X28975000Y65149979D01*
G75*
G02*
X28875000Y65049979I-100000J0D01*
G01*
X27625000Y65049979D01*
G75*
G02*
X27525000Y65149979I0J100000D01*
G01*
X27525000Y65949979D01*
G75*
G02*
X27625000Y66049979I100000J0D01*
G01*
G37*
X28250000Y64595000D03*
G04 #@! TD*
G04 #@! TO.C,C14*
G36*
G01*
X7762500Y16400000D02*
X8237500Y16400000D01*
G75*
G02*
X8475000Y16162500I0J-237500D01*
G01*
X8475000Y15562500D01*
G75*
G02*
X8237500Y15325000I-237500J0D01*
G01*
X7762500Y15325000D01*
G75*
G02*
X7525000Y15562500I0J237500D01*
G01*
X7525000Y16162500D01*
G75*
G02*
X7762500Y16400000I237500J0D01*
G01*
G37*
G36*
G01*
X7762500Y14675000D02*
X8237500Y14675000D01*
G75*
G02*
X8475000Y14437500I0J-237500D01*
G01*
X8475000Y13837500D01*
G75*
G02*
X8237500Y13600000I-237500J0D01*
G01*
X7762500Y13600000D01*
G75*
G02*
X7525000Y13837500I0J237500D01*
G01*
X7525000Y14437500D01*
G75*
G02*
X7762500Y14675000I237500J0D01*
G01*
G37*
G04 #@! TD*
G04 #@! TO.C,F1*
X68400000Y67950000D03*
G36*
G01*
X67500000Y66605010D02*
X67500000Y67295010D01*
G75*
G02*
X67730000Y67525010I230000J0D01*
G01*
X69070000Y67525010D01*
G75*
G02*
X69300000Y67295010I0J-230000D01*
G01*
X69300000Y66605010D01*
G75*
G02*
X69070000Y66375010I-230000J0D01*
G01*
X67730000Y66375010D01*
G75*
G02*
X67500000Y66605010I0J230000D01*
G01*
G37*
G36*
G01*
X67500000Y63704990D02*
X67500000Y64394990D01*
G75*
G02*
X67730000Y64624990I230000J0D01*
G01*
X69070000Y64624990D01*
G75*
G02*
X69300000Y64394990I0J-230000D01*
G01*
X69300000Y63704990D01*
G75*
G02*
X69070000Y63474990I-230000J0D01*
G01*
X67730000Y63474990D01*
G75*
G02*
X67500000Y63704990I0J230000D01*
G01*
G37*
X68400000Y63050000D03*
G04 #@! TD*
D16*
G04 #@! TO.C,R45*
X70000000Y26900000D03*
D17*
X70000000Y27700000D03*
X70000000Y28500000D03*
D16*
X70000000Y29300000D03*
X68200000Y29300000D03*
D17*
X68200000Y28500000D03*
X68200000Y27700000D03*
D16*
X68200000Y26900000D03*
G04 #@! TD*
G04 #@! TO.C,U5*
G36*
G01*
X71550000Y24255000D02*
X71550000Y24555000D01*
G75*
G02*
X71700000Y24705000I150000J0D01*
G01*
X73350000Y24705000D01*
G75*
G02*
X73500000Y24555000I0J-150000D01*
G01*
X73500000Y24255000D01*
G75*
G02*
X73350000Y24105000I-150000J0D01*
G01*
X71700000Y24105000D01*
G75*
G02*
X71550000Y24255000I0J150000D01*
G01*
G37*
G36*
G01*
X71550000Y22985000D02*
X71550000Y23285000D01*
G75*
G02*
X71700000Y23435000I150000J0D01*
G01*
X73350000Y23435000D01*
G75*
G02*
X73500000Y23285000I0J-150000D01*
G01*
X73500000Y22985000D01*
G75*
G02*
X73350000Y22835000I-150000J0D01*
G01*
X71700000Y22835000D01*
G75*
G02*
X71550000Y22985000I0J150000D01*
G01*
G37*
G36*
G01*
X71550000Y21715000D02*
X71550000Y22015000D01*
G75*
G02*
X71700000Y22165000I150000J0D01*
G01*
X73350000Y22165000D01*
G75*
G02*
X73500000Y22015000I0J-150000D01*
G01*
X73500000Y21715000D01*
G75*
G02*
X73350000Y21565000I-150000J0D01*
G01*
X71700000Y21565000D01*
G75*
G02*
X71550000Y21715000I0J150000D01*
G01*
G37*
G36*
G01*
X71550000Y20445000D02*
X71550000Y20745000D01*
G75*
G02*
X71700000Y20895000I150000J0D01*
G01*
X73350000Y20895000D01*
G75*
G02*
X73500000Y20745000I0J-150000D01*
G01*
X73500000Y20445000D01*
G75*
G02*
X73350000Y20295000I-150000J0D01*
G01*
X71700000Y20295000D01*
G75*
G02*
X71550000Y20445000I0J150000D01*
G01*
G37*
G36*
G01*
X76500000Y20445000D02*
X76500000Y20745000D01*
G75*
G02*
X76650000Y20895000I150000J0D01*
G01*
X78300000Y20895000D01*
G75*
G02*
X78450000Y20745000I0J-150000D01*
G01*
X78450000Y20445000D01*
G75*
G02*
X78300000Y20295000I-150000J0D01*
G01*
X76650000Y20295000D01*
G75*
G02*
X76500000Y20445000I0J150000D01*
G01*
G37*
G36*
G01*
X76500000Y21715000D02*
X76500000Y22015000D01*
G75*
G02*
X76650000Y22165000I150000J0D01*
G01*
X78300000Y22165000D01*
G75*
G02*
X78450000Y22015000I0J-150000D01*
G01*
X78450000Y21715000D01*
G75*
G02*
X78300000Y21565000I-150000J0D01*
G01*
X76650000Y21565000D01*
G75*
G02*
X76500000Y21715000I0J150000D01*
G01*
G37*
G36*
G01*
X76500000Y22985000D02*
X76500000Y23285000D01*
G75*
G02*
X76650000Y23435000I150000J0D01*
G01*
X78300000Y23435000D01*
G75*
G02*
X78450000Y23285000I0J-150000D01*
G01*
X78450000Y22985000D01*
G75*
G02*
X78300000Y22835000I-150000J0D01*
G01*
X76650000Y22835000D01*
G75*
G02*
X76500000Y22985000I0J150000D01*
G01*
G37*
G36*
G01*
X76500000Y24255000D02*
X76500000Y24555000D01*
G75*
G02*
X76650000Y24705000I150000J0D01*
G01*
X78300000Y24705000D01*
G75*
G02*
X78450000Y24555000I0J-150000D01*
G01*
X78450000Y24255000D01*
G75*
G02*
X78300000Y24105000I-150000J0D01*
G01*
X76650000Y24105000D01*
G75*
G02*
X76500000Y24255000I0J150000D01*
G01*
G37*
G04 #@! TD*
G04 #@! TO.C,Q12*
G36*
G01*
X76700000Y32825000D02*
X76400000Y32825000D01*
G75*
G02*
X76250000Y32975000I0J150000D01*
G01*
X76250000Y34150000D01*
G75*
G02*
X76400000Y34300000I150000J0D01*
G01*
X76700000Y34300000D01*
G75*
G02*
X76850000Y34150000I0J-150000D01*
G01*
X76850000Y32975000D01*
G75*
G02*
X76700000Y32825000I-150000J0D01*
G01*
G37*
G36*
G01*
X77650000Y34700000D02*
X77350000Y34700000D01*
G75*
G02*
X77200000Y34850000I0J150000D01*
G01*
X77200000Y36025000D01*
G75*
G02*
X77350000Y36175000I150000J0D01*
G01*
X77650000Y36175000D01*
G75*
G02*
X77800000Y36025000I0J-150000D01*
G01*
X77800000Y34850000D01*
G75*
G02*
X77650000Y34700000I-150000J0D01*
G01*
G37*
G36*
G01*
X78600000Y32825000D02*
X78300000Y32825000D01*
G75*
G02*
X78150000Y32975000I0J150000D01*
G01*
X78150000Y34150000D01*
G75*
G02*
X78300000Y34300000I150000J0D01*
G01*
X78600000Y34300000D01*
G75*
G02*
X78750000Y34150000I0J-150000D01*
G01*
X78750000Y32975000D01*
G75*
G02*
X78600000Y32825000I-150000J0D01*
G01*
G37*
G04 #@! TD*
G04 #@! TO.C,Q11*
G36*
G01*
X70700000Y43825000D02*
X70400000Y43825000D01*
G75*
G02*
X70250000Y43975000I0J150000D01*
G01*
X70250000Y45150000D01*
G75*
G02*
X70400000Y45300000I150000J0D01*
G01*
X70700000Y45300000D01*
G75*
G02*
X70850000Y45150000I0J-150000D01*
G01*
X70850000Y43975000D01*
G75*
G02*
X70700000Y43825000I-150000J0D01*
G01*
G37*
G36*
G01*
X71650000Y45700000D02*
X71350000Y45700000D01*
G75*
G02*
X71200000Y45850000I0J150000D01*
G01*
X71200000Y47025000D01*
G75*
G02*
X71350000Y47175000I150000J0D01*
G01*
X71650000Y47175000D01*
G75*
G02*
X71800000Y47025000I0J-150000D01*
G01*
X71800000Y45850000D01*
G75*
G02*
X71650000Y45700000I-150000J0D01*
G01*
G37*
G36*
G01*
X72600000Y43825000D02*
X72300000Y43825000D01*
G75*
G02*
X72150000Y43975000I0J150000D01*
G01*
X72150000Y45150000D01*
G75*
G02*
X72300000Y45300000I150000J0D01*
G01*
X72600000Y45300000D01*
G75*
G02*
X72750000Y45150000I0J-150000D01*
G01*
X72750000Y43975000D01*
G75*
G02*
X72600000Y43825000I-150000J0D01*
G01*
G37*
G04 #@! TD*
G04 #@! TO.C,Q5*
G36*
G01*
X76700000Y43825000D02*
X76400000Y43825000D01*
G75*
G02*
X76250000Y43975000I0J150000D01*
G01*
X76250000Y45150000D01*
G75*
G02*
X76400000Y45300000I150000J0D01*
G01*
X76700000Y45300000D01*
G75*
G02*
X76850000Y45150000I0J-150000D01*
G01*
X76850000Y43975000D01*
G75*
G02*
X76700000Y43825000I-150000J0D01*
G01*
G37*
G36*
G01*
X77650000Y45700000D02*
X77350000Y45700000D01*
G75*
G02*
X77200000Y45850000I0J150000D01*
G01*
X77200000Y47025000D01*
G75*
G02*
X77350000Y47175000I150000J0D01*
G01*
X77650000Y47175000D01*
G75*
G02*
X77800000Y47025000I0J-150000D01*
G01*
X77800000Y45850000D01*
G75*
G02*
X77650000Y45700000I-150000J0D01*
G01*
G37*
G36*
G01*
X78600000Y43825000D02*
X78300000Y43825000D01*
G75*
G02*
X78150000Y43975000I0J150000D01*
G01*
X78150000Y45150000D01*
G75*
G02*
X78300000Y45300000I150000J0D01*
G01*
X78600000Y45300000D01*
G75*
G02*
X78750000Y45150000I0J-150000D01*
G01*
X78750000Y43975000D01*
G75*
G02*
X78600000Y43825000I-150000J0D01*
G01*
G37*
G04 #@! TD*
G04 #@! TO.C,C11*
G36*
G01*
X7360000Y60215001D02*
X8040000Y60215001D01*
G75*
G02*
X8125000Y60130001I0J-85000D01*
G01*
X8125000Y59450001D01*
G75*
G02*
X8040000Y59365001I-85000J0D01*
G01*
X7360000Y59365001D01*
G75*
G02*
X7275000Y59450001I0J85000D01*
G01*
X7275000Y60130001D01*
G75*
G02*
X7360000Y60215001I85000J0D01*
G01*
G37*
G36*
G01*
X7360000Y58634999D02*
X8040000Y58634999D01*
G75*
G02*
X8125000Y58549999I0J-85000D01*
G01*
X8125000Y57869999D01*
G75*
G02*
X8040000Y57784999I-85000J0D01*
G01*
X7360000Y57784999D01*
G75*
G02*
X7275000Y57869999I0J85000D01*
G01*
X7275000Y58549999D01*
G75*
G02*
X7360000Y58634999I85000J0D01*
G01*
G37*
G04 #@! TD*
G04 #@! TO.C,D5*
G36*
G01*
X63010000Y41400000D02*
X61990000Y41400000D01*
G75*
G02*
X61900000Y41490000I0J90000D01*
G01*
X61900000Y42210000D01*
G75*
G02*
X61990000Y42300000I90000J0D01*
G01*
X63010000Y42300000D01*
G75*
G02*
X63100000Y42210000I0J-90000D01*
G01*
X63100000Y41490000D01*
G75*
G02*
X63010000Y41400000I-90000J0D01*
G01*
G37*
G36*
G01*
X63010000Y44700000D02*
X61990000Y44700000D01*
G75*
G02*
X61900000Y44790000I0J90000D01*
G01*
X61900000Y45510000D01*
G75*
G02*
X61990000Y45600000I90000J0D01*
G01*
X63010000Y45600000D01*
G75*
G02*
X63100000Y45510000I0J-90000D01*
G01*
X63100000Y44790000D01*
G75*
G02*
X63010000Y44700000I-90000J0D01*
G01*
G37*
G04 #@! TD*
G04 #@! TO.C,Q2*
G36*
G01*
X18300000Y29070000D02*
X18300000Y28370000D01*
G75*
G02*
X18050000Y28120000I-250000J0D01*
G01*
X16350000Y28120000D01*
G75*
G02*
X16100000Y28370000I0J250000D01*
G01*
X16100000Y29070000D01*
G75*
G02*
X16350000Y29320000I250000J0D01*
G01*
X18050000Y29320000D01*
G75*
G02*
X18300000Y29070000I0J-250000D01*
G01*
G37*
G36*
G01*
X14100000Y33650003D02*
X14100000Y28349997D01*
G75*
G02*
X13850003Y28100000I-249997J0D01*
G01*
X7949997Y28100000D01*
G75*
G02*
X7700000Y28349997I0J249997D01*
G01*
X7700000Y33650003D01*
G75*
G02*
X7949997Y33900000I249997J0D01*
G01*
X13850003Y33900000D01*
G75*
G02*
X14100000Y33650003I0J-249997D01*
G01*
G37*
G36*
G01*
X18300000Y33630000D02*
X18300000Y32930000D01*
G75*
G02*
X18050000Y32680000I-250000J0D01*
G01*
X16350000Y32680000D01*
G75*
G02*
X16100000Y32930000I0J250000D01*
G01*
X16100000Y33630000D01*
G75*
G02*
X16350000Y33880000I250000J0D01*
G01*
X18050000Y33880000D01*
G75*
G02*
X18300000Y33630000I0J-250000D01*
G01*
G37*
G04 #@! TD*
G04 #@! TO.C,R20*
G36*
G01*
X18737500Y16512500D02*
X18262500Y16512500D01*
G75*
G02*
X18025000Y16750000I0J237500D01*
G01*
X18025000Y17250000D01*
G75*
G02*
X18262500Y17487500I237500J0D01*
G01*
X18737500Y17487500D01*
G75*
G02*
X18975000Y17250000I0J-237500D01*
G01*
X18975000Y16750000D01*
G75*
G02*
X18737500Y16512500I-237500J0D01*
G01*
G37*
G36*
G01*
X18737500Y18337500D02*
X18262500Y18337500D01*
G75*
G02*
X18025000Y18575000I0J237500D01*
G01*
X18025000Y19075000D01*
G75*
G02*
X18262500Y19312500I237500J0D01*
G01*
X18737500Y19312500D01*
G75*
G02*
X18975000Y19075000I0J-237500D01*
G01*
X18975000Y18575000D01*
G75*
G02*
X18737500Y18337500I-237500J0D01*
G01*
G37*
G04 #@! TD*
G04 #@! TO.C,R39*
G36*
G01*
X70350000Y42610000D02*
X70350000Y43390000D01*
G75*
G02*
X70420000Y43460000I70000J0D01*
G01*
X70980000Y43460000D01*
G75*
G02*
X71050000Y43390000I0J-70000D01*
G01*
X71050000Y42610000D01*
G75*
G02*
X70980000Y42540000I-70000J0D01*
G01*
X70420000Y42540000D01*
G75*
G02*
X70350000Y42610000I0J70000D01*
G01*
G37*
G36*
G01*
X71950000Y42610000D02*
X71950000Y43390000D01*
G75*
G02*
X72020000Y43460000I70000J0D01*
G01*
X72580000Y43460000D01*
G75*
G02*
X72650000Y43390000I0J-70000D01*
G01*
X72650000Y42610000D01*
G75*
G02*
X72580000Y42540000I-70000J0D01*
G01*
X72020000Y42540000D01*
G75*
G02*
X71950000Y42610000I0J70000D01*
G01*
G37*
G04 #@! TD*
G04 #@! TO.C,R36*
G36*
G01*
X56300000Y48547500D02*
X56300000Y49327500D01*
G75*
G02*
X56370000Y49397500I70000J0D01*
G01*
X56930000Y49397500D01*
G75*
G02*
X57000000Y49327500I0J-70000D01*
G01*
X57000000Y48547500D01*
G75*
G02*
X56930000Y48477500I-70000J0D01*
G01*
X56370000Y48477500D01*
G75*
G02*
X56300000Y48547500I0J70000D01*
G01*
G37*
G36*
G01*
X57900000Y48547500D02*
X57900000Y49327500D01*
G75*
G02*
X57970000Y49397500I70000J0D01*
G01*
X58530000Y49397500D01*
G75*
G02*
X58600000Y49327500I0J-70000D01*
G01*
X58600000Y48547500D01*
G75*
G02*
X58530000Y48477500I-70000J0D01*
G01*
X57970000Y48477500D01*
G75*
G02*
X57900000Y48547500I0J70000D01*
G01*
G37*
G04 #@! TD*
G04 #@! TO.C,R44*
X64600000Y29300000D03*
D17*
X64600000Y28500000D03*
X64600000Y27700000D03*
D16*
X64600000Y26900000D03*
X66400000Y26900000D03*
D17*
X66400000Y27700000D03*
X66400000Y28500000D03*
D16*
X66400000Y29300000D03*
G04 #@! TD*
G04 #@! TO.C,Q13*
G36*
G01*
X70700000Y32825000D02*
X70400000Y32825000D01*
G75*
G02*
X70250000Y32975000I0J150000D01*
G01*
X70250000Y34150000D01*
G75*
G02*
X70400000Y34300000I150000J0D01*
G01*
X70700000Y34300000D01*
G75*
G02*
X70850000Y34150000I0J-150000D01*
G01*
X70850000Y32975000D01*
G75*
G02*
X70700000Y32825000I-150000J0D01*
G01*
G37*
G36*
G01*
X71650000Y34700000D02*
X71350000Y34700000D01*
G75*
G02*
X71200000Y34850000I0J150000D01*
G01*
X71200000Y36025000D01*
G75*
G02*
X71350000Y36175000I150000J0D01*
G01*
X71650000Y36175000D01*
G75*
G02*
X71800000Y36025000I0J-150000D01*
G01*
X71800000Y34850000D01*
G75*
G02*
X71650000Y34700000I-150000J0D01*
G01*
G37*
G36*
G01*
X72600000Y32825000D02*
X72300000Y32825000D01*
G75*
G02*
X72150000Y32975000I0J150000D01*
G01*
X72150000Y34150000D01*
G75*
G02*
X72300000Y34300000I150000J0D01*
G01*
X72600000Y34300000D01*
G75*
G02*
X72750000Y34150000I0J-150000D01*
G01*
X72750000Y32975000D01*
G75*
G02*
X72600000Y32825000I-150000J0D01*
G01*
G37*
G04 #@! TD*
D14*
G04 #@! TO.C,F3*
X50500000Y67450000D03*
G36*
G01*
X49600000Y66105010D02*
X49600000Y66795010D01*
G75*
G02*
X49830000Y67025010I230000J0D01*
G01*
X51170000Y67025010D01*
G75*
G02*
X51400000Y66795010I0J-230000D01*
G01*
X51400000Y66105010D01*
G75*
G02*
X51170000Y65875010I-230000J0D01*
G01*
X49830000Y65875010D01*
G75*
G02*
X49600000Y66105010I0J230000D01*
G01*
G37*
G36*
G01*
X49600000Y63204990D02*
X49600000Y63894990D01*
G75*
G02*
X49830000Y64124990I230000J0D01*
G01*
X51170000Y64124990D01*
G75*
G02*
X51400000Y63894990I0J-230000D01*
G01*
X51400000Y63204990D01*
G75*
G02*
X51170000Y62974990I-230000J0D01*
G01*
X49830000Y62974990D01*
G75*
G02*
X49600000Y63204990I0J230000D01*
G01*
G37*
X50500000Y62550000D03*
G04 #@! TD*
G04 #@! TO.C,R37*
G36*
G01*
X63850000Y41110000D02*
X63850000Y41890000D01*
G75*
G02*
X63920000Y41960000I70000J0D01*
G01*
X64480000Y41960000D01*
G75*
G02*
X64550000Y41890000I0J-70000D01*
G01*
X64550000Y41110000D01*
G75*
G02*
X64480000Y41040000I-70000J0D01*
G01*
X63920000Y41040000D01*
G75*
G02*
X63850000Y41110000I0J70000D01*
G01*
G37*
G36*
G01*
X65450000Y41110000D02*
X65450000Y41890000D01*
G75*
G02*
X65520000Y41960000I70000J0D01*
G01*
X66080000Y41960000D01*
G75*
G02*
X66150000Y41890000I0J-70000D01*
G01*
X66150000Y41110000D01*
G75*
G02*
X66080000Y41040000I-70000J0D01*
G01*
X65520000Y41040000D01*
G75*
G02*
X65450000Y41110000I0J70000D01*
G01*
G37*
G04 #@! TD*
G04 #@! TO.C,R1*
X64000000Y67405000D03*
G36*
G01*
X63375000Y66950001D02*
X64625000Y66950001D01*
G75*
G02*
X64725000Y66850001I0J-100000D01*
G01*
X64725000Y66050001D01*
G75*
G02*
X64625000Y65950001I-100000J0D01*
G01*
X63375000Y65950001D01*
G75*
G02*
X63275000Y66050001I0J100000D01*
G01*
X63275000Y66850001D01*
G75*
G02*
X63375000Y66950001I100000J0D01*
G01*
G37*
G36*
G01*
X63375000Y65049979D02*
X64625000Y65049979D01*
G75*
G02*
X64725000Y64949979I0J-100000D01*
G01*
X64725000Y64149979D01*
G75*
G02*
X64625000Y64049979I-100000J0D01*
G01*
X63375000Y64049979D01*
G75*
G02*
X63275000Y64149979I0J100000D01*
G01*
X63275000Y64949979D01*
G75*
G02*
X63375000Y65049979I100000J0D01*
G01*
G37*
X64000000Y63595000D03*
G04 #@! TD*
D15*
G04 #@! TO.C,G1*
X66460000Y7880000D03*
X66460000Y10420000D03*
X66460000Y12960000D03*
X66460000Y15500000D03*
X66460000Y18040000D03*
X69000000Y7880000D03*
X69000000Y10420000D03*
X69000000Y12960000D03*
X69000000Y15500000D03*
X69000000Y18040000D03*
X71540000Y7880000D03*
X71540000Y10420000D03*
X71540000Y12960000D03*
X71540000Y15500000D03*
X71540000Y18040000D03*
G04 #@! TD*
G04 #@! TO.C,D8*
G36*
G01*
X75010000Y31900000D02*
X73990000Y31900000D01*
G75*
G02*
X73900000Y31990000I0J90000D01*
G01*
X73900000Y32710000D01*
G75*
G02*
X73990000Y32800000I90000J0D01*
G01*
X75010000Y32800000D01*
G75*
G02*
X75100000Y32710000I0J-90000D01*
G01*
X75100000Y31990000D01*
G75*
G02*
X75010000Y31900000I-90000J0D01*
G01*
G37*
G36*
G01*
X75010000Y35200000D02*
X73990000Y35200000D01*
G75*
G02*
X73900000Y35290000I0J90000D01*
G01*
X73900000Y36010000D01*
G75*
G02*
X73990000Y36100000I90000J0D01*
G01*
X75010000Y36100000D01*
G75*
G02*
X75100000Y36010000I0J-90000D01*
G01*
X75100000Y35290000D01*
G75*
G02*
X75010000Y35200000I-90000J0D01*
G01*
G37*
G04 #@! TD*
G04 #@! TO.C,U7*
G36*
G01*
X9400000Y17675000D02*
X9400000Y17875000D01*
G75*
G02*
X9500000Y17975000I100000J0D01*
G01*
X10775000Y17975000D01*
G75*
G02*
X10875000Y17875000I0J-100000D01*
G01*
X10875000Y17675000D01*
G75*
G02*
X10775000Y17575000I-100000J0D01*
G01*
X9500000Y17575000D01*
G75*
G02*
X9400000Y17675000I0J100000D01*
G01*
G37*
G36*
G01*
X9400000Y17025000D02*
X9400000Y17225000D01*
G75*
G02*
X9500000Y17325000I100000J0D01*
G01*
X10775000Y17325000D01*
G75*
G02*
X10875000Y17225000I0J-100000D01*
G01*
X10875000Y17025000D01*
G75*
G02*
X10775000Y16925000I-100000J0D01*
G01*
X9500000Y16925000D01*
G75*
G02*
X9400000Y17025000I0J100000D01*
G01*
G37*
G36*
G01*
X9400000Y16375000D02*
X9400000Y16575000D01*
G75*
G02*
X9500000Y16675000I100000J0D01*
G01*
X10775000Y16675000D01*
G75*
G02*
X10875000Y16575000I0J-100000D01*
G01*
X10875000Y16375000D01*
G75*
G02*
X10775000Y16275000I-100000J0D01*
G01*
X9500000Y16275000D01*
G75*
G02*
X9400000Y16375000I0J100000D01*
G01*
G37*
G36*
G01*
X9400000Y15725000D02*
X9400000Y15925000D01*
G75*
G02*
X9500000Y16025000I100000J0D01*
G01*
X10775000Y16025000D01*
G75*
G02*
X10875000Y15925000I0J-100000D01*
G01*
X10875000Y15725000D01*
G75*
G02*
X10775000Y15625000I-100000J0D01*
G01*
X9500000Y15625000D01*
G75*
G02*
X9400000Y15725000I0J100000D01*
G01*
G37*
G36*
G01*
X9400000Y15075000D02*
X9400000Y15275000D01*
G75*
G02*
X9500000Y15375000I100000J0D01*
G01*
X10775000Y15375000D01*
G75*
G02*
X10875000Y15275000I0J-100000D01*
G01*
X10875000Y15075000D01*
G75*
G02*
X10775000Y14975000I-100000J0D01*
G01*
X9500000Y14975000D01*
G75*
G02*
X9400000Y15075000I0J100000D01*
G01*
G37*
G36*
G01*
X9400000Y14425000D02*
X9400000Y14625000D01*
G75*
G02*
X9500000Y14725000I100000J0D01*
G01*
X10775000Y14725000D01*
G75*
G02*
X10875000Y14625000I0J-100000D01*
G01*
X10875000Y14425000D01*
G75*
G02*
X10775000Y14325000I-100000J0D01*
G01*
X9500000Y14325000D01*
G75*
G02*
X9400000Y14425000I0J100000D01*
G01*
G37*
G36*
G01*
X9400000Y13775000D02*
X9400000Y13975000D01*
G75*
G02*
X9500000Y14075000I100000J0D01*
G01*
X10775000Y14075000D01*
G75*
G02*
X10875000Y13975000I0J-100000D01*
G01*
X10875000Y13775000D01*
G75*
G02*
X10775000Y13675000I-100000J0D01*
G01*
X9500000Y13675000D01*
G75*
G02*
X9400000Y13775000I0J100000D01*
G01*
G37*
G36*
G01*
X9400000Y13125000D02*
X9400000Y13325000D01*
G75*
G02*
X9500000Y13425000I100000J0D01*
G01*
X10775000Y13425000D01*
G75*
G02*
X10875000Y13325000I0J-100000D01*
G01*
X10875000Y13125000D01*
G75*
G02*
X10775000Y13025000I-100000J0D01*
G01*
X9500000Y13025000D01*
G75*
G02*
X9400000Y13125000I0J100000D01*
G01*
G37*
G36*
G01*
X15125000Y13125000D02*
X15125000Y13325000D01*
G75*
G02*
X15225000Y13425000I100000J0D01*
G01*
X16500000Y13425000D01*
G75*
G02*
X16600000Y13325000I0J-100000D01*
G01*
X16600000Y13125000D01*
G75*
G02*
X16500000Y13025000I-100000J0D01*
G01*
X15225000Y13025000D01*
G75*
G02*
X15125000Y13125000I0J100000D01*
G01*
G37*
G36*
G01*
X15125000Y13775000D02*
X15125000Y13975000D01*
G75*
G02*
X15225000Y14075000I100000J0D01*
G01*
X16500000Y14075000D01*
G75*
G02*
X16600000Y13975000I0J-100000D01*
G01*
X16600000Y13775000D01*
G75*
G02*
X16500000Y13675000I-100000J0D01*
G01*
X15225000Y13675000D01*
G75*
G02*
X15125000Y13775000I0J100000D01*
G01*
G37*
G36*
G01*
X15125000Y14425000D02*
X15125000Y14625000D01*
G75*
G02*
X15225000Y14725000I100000J0D01*
G01*
X16500000Y14725000D01*
G75*
G02*
X16600000Y14625000I0J-100000D01*
G01*
X16600000Y14425000D01*
G75*
G02*
X16500000Y14325000I-100000J0D01*
G01*
X15225000Y14325000D01*
G75*
G02*
X15125000Y14425000I0J100000D01*
G01*
G37*
G36*
G01*
X15125000Y15075000D02*
X15125000Y15275000D01*
G75*
G02*
X15225000Y15375000I100000J0D01*
G01*
X16500000Y15375000D01*
G75*
G02*
X16600000Y15275000I0J-100000D01*
G01*
X16600000Y15075000D01*
G75*
G02*
X16500000Y14975000I-100000J0D01*
G01*
X15225000Y14975000D01*
G75*
G02*
X15125000Y15075000I0J100000D01*
G01*
G37*
G36*
G01*
X15125000Y15725000D02*
X15125000Y15925000D01*
G75*
G02*
X15225000Y16025000I100000J0D01*
G01*
X16500000Y16025000D01*
G75*
G02*
X16600000Y15925000I0J-100000D01*
G01*
X16600000Y15725000D01*
G75*
G02*
X16500000Y15625000I-100000J0D01*
G01*
X15225000Y15625000D01*
G75*
G02*
X15125000Y15725000I0J100000D01*
G01*
G37*
G36*
G01*
X15125000Y16375000D02*
X15125000Y16575000D01*
G75*
G02*
X15225000Y16675000I100000J0D01*
G01*
X16500000Y16675000D01*
G75*
G02*
X16600000Y16575000I0J-100000D01*
G01*
X16600000Y16375000D01*
G75*
G02*
X16500000Y16275000I-100000J0D01*
G01*
X15225000Y16275000D01*
G75*
G02*
X15125000Y16375000I0J100000D01*
G01*
G37*
G36*
G01*
X15125000Y17025000D02*
X15125000Y17225000D01*
G75*
G02*
X15225000Y17325000I100000J0D01*
G01*
X16500000Y17325000D01*
G75*
G02*
X16600000Y17225000I0J-100000D01*
G01*
X16600000Y17025000D01*
G75*
G02*
X16500000Y16925000I-100000J0D01*
G01*
X15225000Y16925000D01*
G75*
G02*
X15125000Y17025000I0J100000D01*
G01*
G37*
G36*
G01*
X15125000Y17675000D02*
X15125000Y17875000D01*
G75*
G02*
X15225000Y17975000I100000J0D01*
G01*
X16500000Y17975000D01*
G75*
G02*
X16600000Y17875000I0J-100000D01*
G01*
X16600000Y17675000D01*
G75*
G02*
X16500000Y17575000I-100000J0D01*
G01*
X15225000Y17575000D01*
G75*
G02*
X15125000Y17675000I0J100000D01*
G01*
G37*
G04 #@! TD*
G04 #@! TO.C,R34*
G36*
G01*
X70350000Y37110000D02*
X70350000Y37890000D01*
G75*
G02*
X70420000Y37960000I70000J0D01*
G01*
X70980000Y37960000D01*
G75*
G02*
X71050000Y37890000I0J-70000D01*
G01*
X71050000Y37110000D01*
G75*
G02*
X70980000Y37040000I-70000J0D01*
G01*
X70420000Y37040000D01*
G75*
G02*
X70350000Y37110000I0J70000D01*
G01*
G37*
G36*
G01*
X71950000Y37110000D02*
X71950000Y37890000D01*
G75*
G02*
X72020000Y37960000I70000J0D01*
G01*
X72580000Y37960000D01*
G75*
G02*
X72650000Y37890000I0J-70000D01*
G01*
X72650000Y37110000D01*
G75*
G02*
X72580000Y37040000I-70000J0D01*
G01*
X72020000Y37040000D01*
G75*
G02*
X71950000Y37110000I0J70000D01*
G01*
G37*
G04 #@! TD*
G04 #@! TO.C,C6*
G36*
G01*
X10550000Y66500000D02*
X11600000Y66500000D01*
G75*
G02*
X11700000Y66400000I0J-100000D01*
G01*
X11700000Y65600000D01*
G75*
G02*
X11600000Y65500000I-100000J0D01*
G01*
X10550000Y65500000D01*
G75*
G02*
X10450000Y65600000I0J100000D01*
G01*
X10450000Y66400000D01*
G75*
G02*
X10550000Y66500000I100000J0D01*
G01*
G37*
G36*
G01*
X10550000Y64500000D02*
X11600000Y64500000D01*
G75*
G02*
X11700000Y64400000I0J-100000D01*
G01*
X11700000Y63600000D01*
G75*
G02*
X11600000Y63500000I-100000J0D01*
G01*
X10550000Y63500000D01*
G75*
G02*
X10450000Y63600000I0J100000D01*
G01*
X10450000Y64400000D01*
G75*
G02*
X10550000Y64500000I100000J0D01*
G01*
G37*
G04 #@! TD*
D14*
G04 #@! TO.C,R9*
X37500000Y68405000D03*
G36*
G01*
X36875000Y67950001D02*
X38125000Y67950001D01*
G75*
G02*
X38225000Y67850001I0J-100000D01*
G01*
X38225000Y67050001D01*
G75*
G02*
X38125000Y66950001I-100000J0D01*
G01*
X36875000Y66950001D01*
G75*
G02*
X36775000Y67050001I0J100000D01*
G01*
X36775000Y67850001D01*
G75*
G02*
X36875000Y67950001I100000J0D01*
G01*
G37*
G36*
G01*
X36875000Y66049979D02*
X38125000Y66049979D01*
G75*
G02*
X38225000Y65949979I0J-100000D01*
G01*
X38225000Y65149979D01*
G75*
G02*
X38125000Y65049979I-100000J0D01*
G01*
X36875000Y65049979D01*
G75*
G02*
X36775000Y65149979I0J100000D01*
G01*
X36775000Y65949979D01*
G75*
G02*
X36875000Y66049979I100000J0D01*
G01*
G37*
X37500000Y64595000D03*
G04 #@! TD*
G04 #@! TO.C,R6*
X77000000Y67405000D03*
G36*
G01*
X76375000Y66950001D02*
X77625000Y66950001D01*
G75*
G02*
X77725000Y66850001I0J-100000D01*
G01*
X77725000Y66050001D01*
G75*
G02*
X77625000Y65950001I-100000J0D01*
G01*
X76375000Y65950001D01*
G75*
G02*
X76275000Y66050001I0J100000D01*
G01*
X76275000Y66850001D01*
G75*
G02*
X76375000Y66950001I100000J0D01*
G01*
G37*
G36*
G01*
X76375000Y65049979D02*
X77625000Y65049979D01*
G75*
G02*
X77725000Y64949979I0J-100000D01*
G01*
X77725000Y64149979D01*
G75*
G02*
X77625000Y64049979I-100000J0D01*
G01*
X76375000Y64049979D01*
G75*
G02*
X76275000Y64149979I0J100000D01*
G01*
X76275000Y64949979D01*
G75*
G02*
X76375000Y65049979I100000J0D01*
G01*
G37*
X77000000Y63595000D03*
G04 #@! TD*
D18*
G04 #@! TO.C,J2*
X20750000Y36900000D03*
D19*
X22500000Y36100000D03*
X20750000Y35300000D03*
X22500000Y34500000D03*
X20750000Y33700000D03*
D20*
X21625000Y38950000D03*
X21625000Y31650000D03*
G04 #@! TD*
D21*
G04 #@! TO.C,M3*
X24025000Y59425001D03*
X24025000Y60375001D03*
X24025000Y61324999D03*
X32725000Y60325001D03*
X32725000Y59425001D03*
G04 #@! TD*
G04 #@! TO.C,U4*
G36*
G01*
X71550000Y30020000D02*
X71550000Y30320000D01*
G75*
G02*
X71700000Y30470000I150000J0D01*
G01*
X73350000Y30470000D01*
G75*
G02*
X73500000Y30320000I0J-150000D01*
G01*
X73500000Y30020000D01*
G75*
G02*
X73350000Y29870000I-150000J0D01*
G01*
X71700000Y29870000D01*
G75*
G02*
X71550000Y30020000I0J150000D01*
G01*
G37*
G36*
G01*
X71550000Y28750000D02*
X71550000Y29050000D01*
G75*
G02*
X71700000Y29200000I150000J0D01*
G01*
X73350000Y29200000D01*
G75*
G02*
X73500000Y29050000I0J-150000D01*
G01*
X73500000Y28750000D01*
G75*
G02*
X73350000Y28600000I-150000J0D01*
G01*
X71700000Y28600000D01*
G75*
G02*
X71550000Y28750000I0J150000D01*
G01*
G37*
G36*
G01*
X71550000Y27480000D02*
X71550000Y27780000D01*
G75*
G02*
X71700000Y27930000I150000J0D01*
G01*
X73350000Y27930000D01*
G75*
G02*
X73500000Y27780000I0J-150000D01*
G01*
X73500000Y27480000D01*
G75*
G02*
X73350000Y27330000I-150000J0D01*
G01*
X71700000Y27330000D01*
G75*
G02*
X71550000Y27480000I0J150000D01*
G01*
G37*
G36*
G01*
X71550000Y26210000D02*
X71550000Y26510000D01*
G75*
G02*
X71700000Y26660000I150000J0D01*
G01*
X73350000Y26660000D01*
G75*
G02*
X73500000Y26510000I0J-150000D01*
G01*
X73500000Y26210000D01*
G75*
G02*
X73350000Y26060000I-150000J0D01*
G01*
X71700000Y26060000D01*
G75*
G02*
X71550000Y26210000I0J150000D01*
G01*
G37*
G36*
G01*
X76500000Y26210000D02*
X76500000Y26510000D01*
G75*
G02*
X76650000Y26660000I150000J0D01*
G01*
X78300000Y26660000D01*
G75*
G02*
X78450000Y26510000I0J-150000D01*
G01*
X78450000Y26210000D01*
G75*
G02*
X78300000Y26060000I-150000J0D01*
G01*
X76650000Y26060000D01*
G75*
G02*
X76500000Y26210000I0J150000D01*
G01*
G37*
G36*
G01*
X76500000Y27480000D02*
X76500000Y27780000D01*
G75*
G02*
X76650000Y27930000I150000J0D01*
G01*
X78300000Y27930000D01*
G75*
G02*
X78450000Y27780000I0J-150000D01*
G01*
X78450000Y27480000D01*
G75*
G02*
X78300000Y27330000I-150000J0D01*
G01*
X76650000Y27330000D01*
G75*
G02*
X76500000Y27480000I0J150000D01*
G01*
G37*
G36*
G01*
X76500000Y28750000D02*
X76500000Y29050000D01*
G75*
G02*
X76650000Y29200000I150000J0D01*
G01*
X78300000Y29200000D01*
G75*
G02*
X78450000Y29050000I0J-150000D01*
G01*
X78450000Y28750000D01*
G75*
G02*
X78300000Y28600000I-150000J0D01*
G01*
X76650000Y28600000D01*
G75*
G02*
X76500000Y28750000I0J150000D01*
G01*
G37*
G36*
G01*
X76500000Y30020000D02*
X76500000Y30320000D01*
G75*
G02*
X76650000Y30470000I150000J0D01*
G01*
X78300000Y30470000D01*
G75*
G02*
X78450000Y30320000I0J-150000D01*
G01*
X78450000Y30020000D01*
G75*
G02*
X78300000Y29870000I-150000J0D01*
G01*
X76650000Y29870000D01*
G75*
G02*
X76500000Y30020000I0J150000D01*
G01*
G37*
G04 #@! TD*
G04 #@! TO.C,C2*
G36*
G01*
X14100000Y50500000D02*
X13050000Y50500000D01*
G75*
G02*
X12950000Y50600000I0J100000D01*
G01*
X12950000Y51400000D01*
G75*
G02*
X13050000Y51500000I100000J0D01*
G01*
X14100000Y51500000D01*
G75*
G02*
X14200000Y51400000I0J-100000D01*
G01*
X14200000Y50600000D01*
G75*
G02*
X14100000Y50500000I-100000J0D01*
G01*
G37*
G36*
G01*
X14100000Y52500000D02*
X13050000Y52500000D01*
G75*
G02*
X12950000Y52600000I0J100000D01*
G01*
X12950000Y53400000D01*
G75*
G02*
X13050000Y53500000I100000J0D01*
G01*
X14100000Y53500000D01*
G75*
G02*
X14200000Y53400000I0J-100000D01*
G01*
X14200000Y52600000D01*
G75*
G02*
X14100000Y52500000I-100000J0D01*
G01*
G37*
G04 #@! TD*
G04 #@! TO.C,R53*
G36*
G01*
X57950000Y46672500D02*
X57950000Y47452500D01*
G75*
G02*
X58020000Y47522500I70000J0D01*
G01*
X58580000Y47522500D01*
G75*
G02*
X58650000Y47452500I0J-70000D01*
G01*
X58650000Y46672500D01*
G75*
G02*
X58580000Y46602500I-70000J0D01*
G01*
X58020000Y46602500D01*
G75*
G02*
X57950000Y46672500I0J70000D01*
G01*
G37*
G36*
G01*
X59550000Y46672500D02*
X59550000Y47452500D01*
G75*
G02*
X59620000Y47522500I70000J0D01*
G01*
X60180000Y47522500D01*
G75*
G02*
X60250000Y47452500I0J-70000D01*
G01*
X60250000Y46672500D01*
G75*
G02*
X60180000Y46602500I-70000J0D01*
G01*
X59620000Y46602500D01*
G75*
G02*
X59550000Y46672500I0J70000D01*
G01*
G37*
G04 #@! TD*
D14*
G04 #@! TO.C,R4*
X71400000Y67405000D03*
G36*
G01*
X70775000Y66950001D02*
X72025000Y66950001D01*
G75*
G02*
X72125000Y66850001I0J-100000D01*
G01*
X72125000Y66050001D01*
G75*
G02*
X72025000Y65950001I-100000J0D01*
G01*
X70775000Y65950001D01*
G75*
G02*
X70675000Y66050001I0J100000D01*
G01*
X70675000Y66850001D01*
G75*
G02*
X70775000Y66950001I100000J0D01*
G01*
G37*
G36*
G01*
X70775000Y65049979D02*
X72025000Y65049979D01*
G75*
G02*
X72125000Y64949979I0J-100000D01*
G01*
X72125000Y64149979D01*
G75*
G02*
X72025000Y64049979I-100000J0D01*
G01*
X70775000Y64049979D01*
G75*
G02*
X70675000Y64149979I0J100000D01*
G01*
X70675000Y64949979D01*
G75*
G02*
X70775000Y65049979I100000J0D01*
G01*
G37*
X71400000Y63595000D03*
G04 #@! TD*
G04 #@! TO.C,D1*
G36*
G01*
X60200000Y49775000D02*
X59900000Y49775000D01*
G75*
G02*
X59750000Y49925000I0J150000D01*
G01*
X59750000Y51100000D01*
G75*
G02*
X59900000Y51250000I150000J0D01*
G01*
X60200000Y51250000D01*
G75*
G02*
X60350000Y51100000I0J-150000D01*
G01*
X60350000Y49925000D01*
G75*
G02*
X60200000Y49775000I-150000J0D01*
G01*
G37*
G36*
G01*
X61150000Y51650000D02*
X60850000Y51650000D01*
G75*
G02*
X60700000Y51800000I0J150000D01*
G01*
X60700000Y52975000D01*
G75*
G02*
X60850000Y53125000I150000J0D01*
G01*
X61150000Y53125000D01*
G75*
G02*
X61300000Y52975000I0J-150000D01*
G01*
X61300000Y51800000D01*
G75*
G02*
X61150000Y51650000I-150000J0D01*
G01*
G37*
G36*
G01*
X62100000Y49775000D02*
X61800000Y49775000D01*
G75*
G02*
X61650000Y49925000I0J150000D01*
G01*
X61650000Y51100000D01*
G75*
G02*
X61800000Y51250000I150000J0D01*
G01*
X62100000Y51250000D01*
G75*
G02*
X62250000Y51100000I0J-150000D01*
G01*
X62250000Y49925000D01*
G75*
G02*
X62100000Y49775000I-150000J0D01*
G01*
G37*
G04 #@! TD*
G04 #@! TO.C,R8*
X73300000Y67405000D03*
G36*
G01*
X72675000Y66950001D02*
X73925000Y66950001D01*
G75*
G02*
X74025000Y66850001I0J-100000D01*
G01*
X74025000Y66050001D01*
G75*
G02*
X73925000Y65950001I-100000J0D01*
G01*
X72675000Y65950001D01*
G75*
G02*
X72575000Y66050001I0J100000D01*
G01*
X72575000Y66850001D01*
G75*
G02*
X72675000Y66950001I100000J0D01*
G01*
G37*
G36*
G01*
X72675000Y65049979D02*
X73925000Y65049979D01*
G75*
G02*
X74025000Y64949979I0J-100000D01*
G01*
X74025000Y64149979D01*
G75*
G02*
X73925000Y64049979I-100000J0D01*
G01*
X72675000Y64049979D01*
G75*
G02*
X72575000Y64149979I0J100000D01*
G01*
X72575000Y64949979D01*
G75*
G02*
X72675000Y65049979I100000J0D01*
G01*
G37*
X73300000Y63595000D03*
G04 #@! TD*
G04 #@! TO.C,C1*
G36*
G01*
X12100000Y50500000D02*
X11050000Y50500000D01*
G75*
G02*
X10950000Y50600000I0J100000D01*
G01*
X10950000Y51400000D01*
G75*
G02*
X11050000Y51500000I100000J0D01*
G01*
X12100000Y51500000D01*
G75*
G02*
X12200000Y51400000I0J-100000D01*
G01*
X12200000Y50600000D01*
G75*
G02*
X12100000Y50500000I-100000J0D01*
G01*
G37*
G36*
G01*
X12100000Y52500000D02*
X11050000Y52500000D01*
G75*
G02*
X10950000Y52600000I0J100000D01*
G01*
X10950000Y53400000D01*
G75*
G02*
X11050000Y53500000I100000J0D01*
G01*
X12100000Y53500000D01*
G75*
G02*
X12200000Y53400000I0J-100000D01*
G01*
X12200000Y52600000D01*
G75*
G02*
X12100000Y52500000I-100000J0D01*
G01*
G37*
G04 #@! TD*
G04 #@! TO.C,D4*
G36*
G01*
X75010000Y37400000D02*
X73990000Y37400000D01*
G75*
G02*
X73900000Y37490000I0J90000D01*
G01*
X73900000Y38210000D01*
G75*
G02*
X73990000Y38300000I90000J0D01*
G01*
X75010000Y38300000D01*
G75*
G02*
X75100000Y38210000I0J-90000D01*
G01*
X75100000Y37490000D01*
G75*
G02*
X75010000Y37400000I-90000J0D01*
G01*
G37*
G36*
G01*
X75010000Y40700000D02*
X73990000Y40700000D01*
G75*
G02*
X73900000Y40790000I0J90000D01*
G01*
X73900000Y41510000D01*
G75*
G02*
X73990000Y41600000I90000J0D01*
G01*
X75010000Y41600000D01*
G75*
G02*
X75100000Y41510000I0J-90000D01*
G01*
X75100000Y40790000D01*
G75*
G02*
X75010000Y40700000I-90000J0D01*
G01*
G37*
G04 #@! TD*
G04 #@! TO.C,R52*
G36*
G01*
X65550000Y47452500D02*
X65550000Y46672500D01*
G75*
G02*
X65480000Y46602500I-70000J0D01*
G01*
X64920000Y46602500D01*
G75*
G02*
X64850000Y46672500I0J70000D01*
G01*
X64850000Y47452500D01*
G75*
G02*
X64920000Y47522500I70000J0D01*
G01*
X65480000Y47522500D01*
G75*
G02*
X65550000Y47452500I0J-70000D01*
G01*
G37*
G36*
G01*
X63950000Y47452500D02*
X63950000Y46672500D01*
G75*
G02*
X63880000Y46602500I-70000J0D01*
G01*
X63320000Y46602500D01*
G75*
G02*
X63250000Y46672500I0J70000D01*
G01*
X63250000Y47452500D01*
G75*
G02*
X63320000Y47522500I70000J0D01*
G01*
X63880000Y47522500D01*
G75*
G02*
X63950000Y47452500I0J-70000D01*
G01*
G37*
G04 #@! TD*
G04 #@! TO.C,R10*
X35500000Y68405000D03*
G36*
G01*
X34875000Y67950001D02*
X36125000Y67950001D01*
G75*
G02*
X36225000Y67850001I0J-100000D01*
G01*
X36225000Y67050001D01*
G75*
G02*
X36125000Y66950001I-100000J0D01*
G01*
X34875000Y66950001D01*
G75*
G02*
X34775000Y67050001I0J100000D01*
G01*
X34775000Y67850001D01*
G75*
G02*
X34875000Y67950001I100000J0D01*
G01*
G37*
G36*
G01*
X34875000Y66049979D02*
X36125000Y66049979D01*
G75*
G02*
X36225000Y65949979I0J-100000D01*
G01*
X36225000Y65149979D01*
G75*
G02*
X36125000Y65049979I-100000J0D01*
G01*
X34875000Y65049979D01*
G75*
G02*
X34775000Y65149979I0J100000D01*
G01*
X34775000Y65949979D01*
G75*
G02*
X34875000Y66049979I100000J0D01*
G01*
G37*
X35500000Y64595000D03*
G04 #@! TD*
G04 #@! TO.C,C7*
G36*
G01*
X12550000Y66500000D02*
X13600000Y66500000D01*
G75*
G02*
X13700000Y66400000I0J-100000D01*
G01*
X13700000Y65600000D01*
G75*
G02*
X13600000Y65500000I-100000J0D01*
G01*
X12550000Y65500000D01*
G75*
G02*
X12450000Y65600000I0J100000D01*
G01*
X12450000Y66400000D01*
G75*
G02*
X12550000Y66500000I100000J0D01*
G01*
G37*
G36*
G01*
X12550000Y64500000D02*
X13600000Y64500000D01*
G75*
G02*
X13700000Y64400000I0J-100000D01*
G01*
X13700000Y63600000D01*
G75*
G02*
X13600000Y63500000I-100000J0D01*
G01*
X12550000Y63500000D01*
G75*
G02*
X12450000Y63600000I0J100000D01*
G01*
X12450000Y64400000D01*
G75*
G02*
X12550000Y64500000I100000J0D01*
G01*
G37*
G04 #@! TD*
D16*
G04 #@! TO.C,R47*
X69900000Y50800000D03*
D17*
X69900000Y51600000D03*
X69900000Y52400000D03*
D16*
X69900000Y53200000D03*
X68100000Y53200000D03*
D17*
X68100000Y52400000D03*
X68100000Y51600000D03*
D16*
X68100000Y50800000D03*
G04 #@! TD*
G04 #@! TO.C,R46*
X64100000Y53200000D03*
D17*
X64100000Y52400000D03*
X64100000Y51600000D03*
D16*
X64100000Y50800000D03*
X65900000Y50800000D03*
D17*
X65900000Y51600000D03*
X65900000Y52400000D03*
D16*
X65900000Y53200000D03*
G04 #@! TD*
G04 #@! TO.C,D6*
G36*
G01*
X57010000Y41400000D02*
X55990000Y41400000D01*
G75*
G02*
X55900000Y41490000I0J90000D01*
G01*
X55900000Y42210000D01*
G75*
G02*
X55990000Y42300000I90000J0D01*
G01*
X57010000Y42300000D01*
G75*
G02*
X57100000Y42210000I0J-90000D01*
G01*
X57100000Y41490000D01*
G75*
G02*
X57010000Y41400000I-90000J0D01*
G01*
G37*
G36*
G01*
X57010000Y44700000D02*
X55990000Y44700000D01*
G75*
G02*
X55900000Y44790000I0J90000D01*
G01*
X55900000Y45510000D01*
G75*
G02*
X55990000Y45600000I90000J0D01*
G01*
X57010000Y45600000D01*
G75*
G02*
X57100000Y45510000I0J-90000D01*
G01*
X57100000Y44790000D01*
G75*
G02*
X57010000Y44700000I-90000J0D01*
G01*
G37*
G04 #@! TD*
D21*
G04 #@! TO.C,M2*
X30925000Y41675000D03*
X29725000Y41675000D03*
X32125000Y41675000D03*
X33325000Y41675000D03*
X26865000Y56100000D03*
X25865000Y56100000D03*
G04 #@! TD*
D14*
G04 #@! TO.C,R7*
X75100000Y67405000D03*
G36*
G01*
X74475000Y66950001D02*
X75725000Y66950001D01*
G75*
G02*
X75825000Y66850001I0J-100000D01*
G01*
X75825000Y66050001D01*
G75*
G02*
X75725000Y65950001I-100000J0D01*
G01*
X74475000Y65950001D01*
G75*
G02*
X74375000Y66050001I0J100000D01*
G01*
X74375000Y66850001D01*
G75*
G02*
X74475000Y66950001I100000J0D01*
G01*
G37*
G36*
G01*
X74475000Y65049979D02*
X75725000Y65049979D01*
G75*
G02*
X75825000Y64949979I0J-100000D01*
G01*
X75825000Y64149979D01*
G75*
G02*
X75725000Y64049979I-100000J0D01*
G01*
X74475000Y64049979D01*
G75*
G02*
X74375000Y64149979I0J100000D01*
G01*
X74375000Y64949979D01*
G75*
G02*
X74475000Y65049979I100000J0D01*
G01*
G37*
X75100000Y63595000D03*
G04 #@! TD*
G04 #@! TO.C,D2*
G36*
G01*
X75010000Y42900000D02*
X73990000Y42900000D01*
G75*
G02*
X73900000Y42990000I0J90000D01*
G01*
X73900000Y43710000D01*
G75*
G02*
X73990000Y43800000I90000J0D01*
G01*
X75010000Y43800000D01*
G75*
G02*
X75100000Y43710000I0J-90000D01*
G01*
X75100000Y42990000D01*
G75*
G02*
X75010000Y42900000I-90000J0D01*
G01*
G37*
G36*
G01*
X75010000Y46200000D02*
X73990000Y46200000D01*
G75*
G02*
X73900000Y46290000I0J90000D01*
G01*
X73900000Y47010000D01*
G75*
G02*
X73990000Y47100000I90000J0D01*
G01*
X75010000Y47100000D01*
G75*
G02*
X75100000Y47010000I0J-90000D01*
G01*
X75100000Y46290000D01*
G75*
G02*
X75010000Y46200000I-90000J0D01*
G01*
G37*
G04 #@! TD*
G04 #@! TO.C,D7*
G36*
G01*
X69010000Y42900000D02*
X67990000Y42900000D01*
G75*
G02*
X67900000Y42990000I0J90000D01*
G01*
X67900000Y43710000D01*
G75*
G02*
X67990000Y43800000I90000J0D01*
G01*
X69010000Y43800000D01*
G75*
G02*
X69100000Y43710000I0J-90000D01*
G01*
X69100000Y42990000D01*
G75*
G02*
X69010000Y42900000I-90000J0D01*
G01*
G37*
G36*
G01*
X69010000Y46200000D02*
X67990000Y46200000D01*
G75*
G02*
X67900000Y46290000I0J90000D01*
G01*
X67900000Y47010000D01*
G75*
G02*
X67990000Y47100000I90000J0D01*
G01*
X69010000Y47100000D01*
G75*
G02*
X69100000Y47010000I0J-90000D01*
G01*
X69100000Y46290000D01*
G75*
G02*
X69010000Y46200000I-90000J0D01*
G01*
G37*
G04 #@! TD*
G04 #@! TO.C,D12*
G36*
G01*
X21578185Y13200000D02*
X21578185Y12900000D01*
G75*
G02*
X21428185Y12750000I-150000J0D01*
G01*
X20403185Y12750000D01*
G75*
G02*
X20253185Y12900000I0J150000D01*
G01*
X20253185Y13200000D01*
G75*
G02*
X20403185Y13350000I150000J0D01*
G01*
X21428185Y13350000D01*
G75*
G02*
X21578185Y13200000I0J-150000D01*
G01*
G37*
G36*
G01*
X21578185Y14150000D02*
X21578185Y13850000D01*
G75*
G02*
X21428185Y13700000I-150000J0D01*
G01*
X20403185Y13700000D01*
G75*
G02*
X20253185Y13850000I0J150000D01*
G01*
X20253185Y14150000D01*
G75*
G02*
X20403185Y14300000I150000J0D01*
G01*
X21428185Y14300000D01*
G75*
G02*
X21578185Y14150000I0J-150000D01*
G01*
G37*
G36*
G01*
X21578185Y15100000D02*
X21578185Y14800000D01*
G75*
G02*
X21428185Y14650000I-150000J0D01*
G01*
X20403185Y14650000D01*
G75*
G02*
X20253185Y14800000I0J150000D01*
G01*
X20253185Y15100000D01*
G75*
G02*
X20403185Y15250000I150000J0D01*
G01*
X21428185Y15250000D01*
G75*
G02*
X21578185Y15100000I0J-150000D01*
G01*
G37*
G36*
G01*
X19303185Y15100000D02*
X19303185Y14800000D01*
G75*
G02*
X19153185Y14650000I-150000J0D01*
G01*
X18128185Y14650000D01*
G75*
G02*
X17978185Y14800000I0J150000D01*
G01*
X17978185Y15100000D01*
G75*
G02*
X18128185Y15250000I150000J0D01*
G01*
X19153185Y15250000D01*
G75*
G02*
X19303185Y15100000I0J-150000D01*
G01*
G37*
G36*
G01*
X19303185Y14150000D02*
X19303185Y13850000D01*
G75*
G02*
X19153185Y13700000I-150000J0D01*
G01*
X18128185Y13700000D01*
G75*
G02*
X17978185Y13850000I0J150000D01*
G01*
X17978185Y14150000D01*
G75*
G02*
X18128185Y14300000I150000J0D01*
G01*
X19153185Y14300000D01*
G75*
G02*
X19303185Y14150000I0J-150000D01*
G01*
G37*
G36*
G01*
X19303185Y13200000D02*
X19303185Y12900000D01*
G75*
G02*
X19153185Y12750000I-150000J0D01*
G01*
X18128185Y12750000D01*
G75*
G02*
X17978185Y12900000I0J150000D01*
G01*
X17978185Y13200000D01*
G75*
G02*
X18128185Y13350000I150000J0D01*
G01*
X19153185Y13350000D01*
G75*
G02*
X19303185Y13200000I0J-150000D01*
G01*
G37*
G04 #@! TD*
G04 #@! TO.C,R16*
X24500000Y68405000D03*
G36*
G01*
X23875000Y67950001D02*
X25125000Y67950001D01*
G75*
G02*
X25225000Y67850001I0J-100000D01*
G01*
X25225000Y67050001D01*
G75*
G02*
X25125000Y66950001I-100000J0D01*
G01*
X23875000Y66950001D01*
G75*
G02*
X23775000Y67050001I0J100000D01*
G01*
X23775000Y67850001D01*
G75*
G02*
X23875000Y67950001I100000J0D01*
G01*
G37*
G36*
G01*
X23875000Y66049979D02*
X25125000Y66049979D01*
G75*
G02*
X25225000Y65949979I0J-100000D01*
G01*
X25225000Y65149979D01*
G75*
G02*
X25125000Y65049979I-100000J0D01*
G01*
X23875000Y65049979D01*
G75*
G02*
X23775000Y65149979I0J100000D01*
G01*
X23775000Y65949979D01*
G75*
G02*
X23875000Y66049979I100000J0D01*
G01*
G37*
X24500000Y64595000D03*
G04 #@! TD*
G04 #@! TO.C,Q6*
G36*
G01*
X70700000Y38325000D02*
X70400000Y38325000D01*
G75*
G02*
X70250000Y38475000I0J150000D01*
G01*
X70250000Y39650000D01*
G75*
G02*
X70400000Y39800000I150000J0D01*
G01*
X70700000Y39800000D01*
G75*
G02*
X70850000Y39650000I0J-150000D01*
G01*
X70850000Y38475000D01*
G75*
G02*
X70700000Y38325000I-150000J0D01*
G01*
G37*
G36*
G01*
X71650000Y40200000D02*
X71350000Y40200000D01*
G75*
G02*
X71200000Y40350000I0J150000D01*
G01*
X71200000Y41525000D01*
G75*
G02*
X71350000Y41675000I150000J0D01*
G01*
X71650000Y41675000D01*
G75*
G02*
X71800000Y41525000I0J-150000D01*
G01*
X71800000Y40350000D01*
G75*
G02*
X71650000Y40200000I-150000J0D01*
G01*
G37*
G36*
G01*
X72600000Y38325000D02*
X72300000Y38325000D01*
G75*
G02*
X72150000Y38475000I0J150000D01*
G01*
X72150000Y39650000D01*
G75*
G02*
X72300000Y39800000I150000J0D01*
G01*
X72600000Y39800000D01*
G75*
G02*
X72750000Y39650000I0J-150000D01*
G01*
X72750000Y38475000D01*
G75*
G02*
X72600000Y38325000I-150000J0D01*
G01*
G37*
G04 #@! TD*
G04 #@! TO.C,C9*
G36*
G01*
X16550000Y66500000D02*
X17600000Y66500000D01*
G75*
G02*
X17700000Y66400000I0J-100000D01*
G01*
X17700000Y65600000D01*
G75*
G02*
X17600000Y65500000I-100000J0D01*
G01*
X16550000Y65500000D01*
G75*
G02*
X16450000Y65600000I0J100000D01*
G01*
X16450000Y66400000D01*
G75*
G02*
X16550000Y66500000I100000J0D01*
G01*
G37*
G36*
G01*
X16550000Y64500000D02*
X17600000Y64500000D01*
G75*
G02*
X17700000Y64400000I0J-100000D01*
G01*
X17700000Y63600000D01*
G75*
G02*
X17600000Y63500000I-100000J0D01*
G01*
X16550000Y63500000D01*
G75*
G02*
X16450000Y63600000I0J100000D01*
G01*
X16450000Y64400000D01*
G75*
G02*
X16550000Y64500000I100000J0D01*
G01*
G37*
G04 #@! TD*
D13*
G04 #@! TO.C,M1*
X54024999Y45075005D03*
X47625002Y45075005D03*
X45724999Y45075005D03*
X41424999Y45075005D03*
D21*
X39025002Y44625006D03*
X38025001Y44625006D03*
D13*
X35174999Y45075005D03*
X54475001Y60575002D03*
X52625002Y60575002D03*
X47674999Y60575002D03*
X35625001Y60575002D03*
G04 #@! TD*
G04 #@! TO.C,D3*
G36*
G01*
X69010000Y37400000D02*
X67990000Y37400000D01*
G75*
G02*
X67900000Y37490000I0J90000D01*
G01*
X67900000Y38210000D01*
G75*
G02*
X67990000Y38300000I90000J0D01*
G01*
X69010000Y38300000D01*
G75*
G02*
X69100000Y38210000I0J-90000D01*
G01*
X69100000Y37490000D01*
G75*
G02*
X69010000Y37400000I-90000J0D01*
G01*
G37*
G36*
G01*
X69010000Y40700000D02*
X67990000Y40700000D01*
G75*
G02*
X67900000Y40790000I0J90000D01*
G01*
X67900000Y41510000D01*
G75*
G02*
X67990000Y41600000I90000J0D01*
G01*
X69010000Y41600000D01*
G75*
G02*
X69100000Y41510000I0J-90000D01*
G01*
X69100000Y40790000D01*
G75*
G02*
X69010000Y40700000I-90000J0D01*
G01*
G37*
G04 #@! TD*
D14*
G04 #@! TO.C,R5*
X57800000Y67405000D03*
G36*
G01*
X57175000Y66950001D02*
X58425000Y66950001D01*
G75*
G02*
X58525000Y66850001I0J-100000D01*
G01*
X58525000Y66050001D01*
G75*
G02*
X58425000Y65950001I-100000J0D01*
G01*
X57175000Y65950001D01*
G75*
G02*
X57075000Y66050001I0J100000D01*
G01*
X57075000Y66850001D01*
G75*
G02*
X57175000Y66950001I100000J0D01*
G01*
G37*
G36*
G01*
X57175000Y65049979D02*
X58425000Y65049979D01*
G75*
G02*
X58525000Y64949979I0J-100000D01*
G01*
X58525000Y64149979D01*
G75*
G02*
X58425000Y64049979I-100000J0D01*
G01*
X57175000Y64049979D01*
G75*
G02*
X57075000Y64149979I0J100000D01*
G01*
X57075000Y64949979D01*
G75*
G02*
X57175000Y65049979I100000J0D01*
G01*
G37*
X57800000Y63595000D03*
G04 #@! TD*
G04 #@! TO.C,R2*
X60500000Y67405000D03*
G36*
G01*
X59875000Y66950001D02*
X61125000Y66950001D01*
G75*
G02*
X61225000Y66850001I0J-100000D01*
G01*
X61225000Y66050001D01*
G75*
G02*
X61125000Y65950001I-100000J0D01*
G01*
X59875000Y65950001D01*
G75*
G02*
X59775000Y66050001I0J100000D01*
G01*
X59775000Y66850001D01*
G75*
G02*
X59875000Y66950001I100000J0D01*
G01*
G37*
G36*
G01*
X59875000Y65049979D02*
X61125000Y65049979D01*
G75*
G02*
X61225000Y64949979I0J-100000D01*
G01*
X61225000Y64149979D01*
G75*
G02*
X61125000Y64049979I-100000J0D01*
G01*
X59875000Y64049979D01*
G75*
G02*
X59775000Y64149979I0J100000D01*
G01*
X59775000Y64949979D01*
G75*
G02*
X59875000Y65049979I100000J0D01*
G01*
G37*
X60500000Y63595000D03*
G04 #@! TD*
G04 #@! TO.C,R3*
X55300000Y67405000D03*
G36*
G01*
X54675000Y66950001D02*
X55925000Y66950001D01*
G75*
G02*
X56025000Y66850001I0J-100000D01*
G01*
X56025000Y66050001D01*
G75*
G02*
X55925000Y65950001I-100000J0D01*
G01*
X54675000Y65950001D01*
G75*
G02*
X54575000Y66050001I0J100000D01*
G01*
X54575000Y66850001D01*
G75*
G02*
X54675000Y66950001I100000J0D01*
G01*
G37*
G36*
G01*
X54675000Y65049979D02*
X55925000Y65049979D01*
G75*
G02*
X56025000Y64949979I0J-100000D01*
G01*
X56025000Y64149979D01*
G75*
G02*
X55925000Y64049979I-100000J0D01*
G01*
X54675000Y64049979D01*
G75*
G02*
X54575000Y64149979I0J100000D01*
G01*
X54575000Y64949979D01*
G75*
G02*
X54675000Y65049979I100000J0D01*
G01*
G37*
X55300000Y63595000D03*
G04 #@! TD*
G04 #@! TO.C,Q3*
G36*
G01*
X18300000Y36570000D02*
X18300000Y35870000D01*
G75*
G02*
X18050000Y35620000I-250000J0D01*
G01*
X16350000Y35620000D01*
G75*
G02*
X16100000Y35870000I0J250000D01*
G01*
X16100000Y36570000D01*
G75*
G02*
X16350000Y36820000I250000J0D01*
G01*
X18050000Y36820000D01*
G75*
G02*
X18300000Y36570000I0J-250000D01*
G01*
G37*
G36*
G01*
X14100000Y41150003D02*
X14100000Y35849997D01*
G75*
G02*
X13850003Y35600000I-249997J0D01*
G01*
X7949997Y35600000D01*
G75*
G02*
X7700000Y35849997I0J249997D01*
G01*
X7700000Y41150003D01*
G75*
G02*
X7949997Y41400000I249997J0D01*
G01*
X13850003Y41400000D01*
G75*
G02*
X14100000Y41150003I0J-249997D01*
G01*
G37*
G36*
G01*
X18300000Y41130000D02*
X18300000Y40430000D01*
G75*
G02*
X18050000Y40180000I-250000J0D01*
G01*
X16350000Y40180000D01*
G75*
G02*
X16100000Y40430000I0J250000D01*
G01*
X16100000Y41130000D01*
G75*
G02*
X16350000Y41380000I250000J0D01*
G01*
X18050000Y41380000D01*
G75*
G02*
X18300000Y41130000I0J-250000D01*
G01*
G37*
G04 #@! TD*
G04 #@! TO.C,C8*
G36*
G01*
X14550000Y66500000D02*
X15600000Y66500000D01*
G75*
G02*
X15700000Y66400000I0J-100000D01*
G01*
X15700000Y65600000D01*
G75*
G02*
X15600000Y65500000I-100000J0D01*
G01*
X14550000Y65500000D01*
G75*
G02*
X14450000Y65600000I0J100000D01*
G01*
X14450000Y66400000D01*
G75*
G02*
X14550000Y66500000I100000J0D01*
G01*
G37*
G36*
G01*
X14550000Y64500000D02*
X15600000Y64500000D01*
G75*
G02*
X15700000Y64400000I0J-100000D01*
G01*
X15700000Y63600000D01*
G75*
G02*
X15600000Y63500000I-100000J0D01*
G01*
X14550000Y63500000D01*
G75*
G02*
X14450000Y63600000I0J100000D01*
G01*
X14450000Y64400000D01*
G75*
G02*
X14550000Y64500000I100000J0D01*
G01*
G37*
G04 #@! TD*
G04 #@! TO.C,U10*
G36*
G01*
X71550000Y59255000D02*
X71550000Y59555000D01*
G75*
G02*
X71700000Y59705000I150000J0D01*
G01*
X73350000Y59705000D01*
G75*
G02*
X73500000Y59555000I0J-150000D01*
G01*
X73500000Y59255000D01*
G75*
G02*
X73350000Y59105000I-150000J0D01*
G01*
X71700000Y59105000D01*
G75*
G02*
X71550000Y59255000I0J150000D01*
G01*
G37*
G36*
G01*
X71550000Y57985000D02*
X71550000Y58285000D01*
G75*
G02*
X71700000Y58435000I150000J0D01*
G01*
X73350000Y58435000D01*
G75*
G02*
X73500000Y58285000I0J-150000D01*
G01*
X73500000Y57985000D01*
G75*
G02*
X73350000Y57835000I-150000J0D01*
G01*
X71700000Y57835000D01*
G75*
G02*
X71550000Y57985000I0J150000D01*
G01*
G37*
G36*
G01*
X71550000Y56715000D02*
X71550000Y57015000D01*
G75*
G02*
X71700000Y57165000I150000J0D01*
G01*
X73350000Y57165000D01*
G75*
G02*
X73500000Y57015000I0J-150000D01*
G01*
X73500000Y56715000D01*
G75*
G02*
X73350000Y56565000I-150000J0D01*
G01*
X71700000Y56565000D01*
G75*
G02*
X71550000Y56715000I0J150000D01*
G01*
G37*
G36*
G01*
X71550000Y55445000D02*
X71550000Y55745000D01*
G75*
G02*
X71700000Y55895000I150000J0D01*
G01*
X73350000Y55895000D01*
G75*
G02*
X73500000Y55745000I0J-150000D01*
G01*
X73500000Y55445000D01*
G75*
G02*
X73350000Y55295000I-150000J0D01*
G01*
X71700000Y55295000D01*
G75*
G02*
X71550000Y55445000I0J150000D01*
G01*
G37*
G36*
G01*
X76500000Y55445000D02*
X76500000Y55745000D01*
G75*
G02*
X76650000Y55895000I150000J0D01*
G01*
X78300000Y55895000D01*
G75*
G02*
X78450000Y55745000I0J-150000D01*
G01*
X78450000Y55445000D01*
G75*
G02*
X78300000Y55295000I-150000J0D01*
G01*
X76650000Y55295000D01*
G75*
G02*
X76500000Y55445000I0J150000D01*
G01*
G37*
G36*
G01*
X76500000Y56715000D02*
X76500000Y57015000D01*
G75*
G02*
X76650000Y57165000I150000J0D01*
G01*
X78300000Y57165000D01*
G75*
G02*
X78450000Y57015000I0J-150000D01*
G01*
X78450000Y56715000D01*
G75*
G02*
X78300000Y56565000I-150000J0D01*
G01*
X76650000Y56565000D01*
G75*
G02*
X76500000Y56715000I0J150000D01*
G01*
G37*
G36*
G01*
X76500000Y57985000D02*
X76500000Y58285000D01*
G75*
G02*
X76650000Y58435000I150000J0D01*
G01*
X78300000Y58435000D01*
G75*
G02*
X78450000Y58285000I0J-150000D01*
G01*
X78450000Y57985000D01*
G75*
G02*
X78300000Y57835000I-150000J0D01*
G01*
X76650000Y57835000D01*
G75*
G02*
X76500000Y57985000I0J150000D01*
G01*
G37*
G36*
G01*
X76500000Y59255000D02*
X76500000Y59555000D01*
G75*
G02*
X76650000Y59705000I150000J0D01*
G01*
X78300000Y59705000D01*
G75*
G02*
X78450000Y59555000I0J-150000D01*
G01*
X78450000Y59255000D01*
G75*
G02*
X78300000Y59105000I-150000J0D01*
G01*
X76650000Y59105000D01*
G75*
G02*
X76500000Y59255000I0J150000D01*
G01*
G37*
G04 #@! TD*
G04 #@! TO.C,Q4*
G36*
G01*
X18300000Y44070000D02*
X18300000Y43370000D01*
G75*
G02*
X18050000Y43120000I-250000J0D01*
G01*
X16350000Y43120000D01*
G75*
G02*
X16100000Y43370000I0J250000D01*
G01*
X16100000Y44070000D01*
G75*
G02*
X16350000Y44320000I250000J0D01*
G01*
X18050000Y44320000D01*
G75*
G02*
X18300000Y44070000I0J-250000D01*
G01*
G37*
G36*
G01*
X14100000Y48650003D02*
X14100000Y43349997D01*
G75*
G02*
X13850003Y43100000I-249997J0D01*
G01*
X7949997Y43100000D01*
G75*
G02*
X7700000Y43349997I0J249997D01*
G01*
X7700000Y48650003D01*
G75*
G02*
X7949997Y48900000I249997J0D01*
G01*
X13850003Y48900000D01*
G75*
G02*
X14100000Y48650003I0J-249997D01*
G01*
G37*
G36*
G01*
X18300000Y48630000D02*
X18300000Y47930000D01*
G75*
G02*
X18050000Y47680000I-250000J0D01*
G01*
X16350000Y47680000D01*
G75*
G02*
X16100000Y47930000I0J250000D01*
G01*
X16100000Y48630000D01*
G75*
G02*
X16350000Y48880000I250000J0D01*
G01*
X18050000Y48880000D01*
G75*
G02*
X18300000Y48630000I0J-250000D01*
G01*
G37*
G04 #@! TD*
G04 #@! TO.C,Q1*
G36*
G01*
X18300000Y21570000D02*
X18300000Y20870000D01*
G75*
G02*
X18050000Y20620000I-250000J0D01*
G01*
X16350000Y20620000D01*
G75*
G02*
X16100000Y20870000I0J250000D01*
G01*
X16100000Y21570000D01*
G75*
G02*
X16350000Y21820000I250000J0D01*
G01*
X18050000Y21820000D01*
G75*
G02*
X18300000Y21570000I0J-250000D01*
G01*
G37*
G36*
G01*
X14100000Y26150003D02*
X14100000Y20849997D01*
G75*
G02*
X13850003Y20600000I-249997J0D01*
G01*
X7949997Y20600000D01*
G75*
G02*
X7700000Y20849997I0J249997D01*
G01*
X7700000Y26150003D01*
G75*
G02*
X7949997Y26400000I249997J0D01*
G01*
X13850003Y26400000D01*
G75*
G02*
X14100000Y26150003I0J-249997D01*
G01*
G37*
G36*
G01*
X18300000Y26130000D02*
X18300000Y25430000D01*
G75*
G02*
X18050000Y25180000I-250000J0D01*
G01*
X16350000Y25180000D01*
G75*
G02*
X16100000Y25430000I0J250000D01*
G01*
X16100000Y26130000D01*
G75*
G02*
X16350000Y26380000I250000J0D01*
G01*
X18050000Y26380000D01*
G75*
G02*
X18300000Y26130000I0J-250000D01*
G01*
G37*
G04 #@! TD*
G04 #@! TO.C,C3*
G36*
G01*
X16100000Y50500000D02*
X15050000Y50500000D01*
G75*
G02*
X14950000Y50600000I0J100000D01*
G01*
X14950000Y51400000D01*
G75*
G02*
X15050000Y51500000I100000J0D01*
G01*
X16100000Y51500000D01*
G75*
G02*
X16200000Y51400000I0J-100000D01*
G01*
X16200000Y50600000D01*
G75*
G02*
X16100000Y50500000I-100000J0D01*
G01*
G37*
G36*
G01*
X16100000Y52500000D02*
X15050000Y52500000D01*
G75*
G02*
X14950000Y52600000I0J100000D01*
G01*
X14950000Y53400000D01*
G75*
G02*
X15050000Y53500000I100000J0D01*
G01*
X16100000Y53500000D01*
G75*
G02*
X16200000Y53400000I0J-100000D01*
G01*
X16200000Y52600000D01*
G75*
G02*
X16100000Y52500000I-100000J0D01*
G01*
G37*
G04 #@! TD*
G04 #@! TO.C,C10*
G36*
G01*
X18550000Y66500000D02*
X19600000Y66500000D01*
G75*
G02*
X19700000Y66400000I0J-100000D01*
G01*
X19700000Y65600000D01*
G75*
G02*
X19600000Y65500000I-100000J0D01*
G01*
X18550000Y65500000D01*
G75*
G02*
X18450000Y65600000I0J100000D01*
G01*
X18450000Y66400000D01*
G75*
G02*
X18550000Y66500000I100000J0D01*
G01*
G37*
G36*
G01*
X18550000Y64500000D02*
X19600000Y64500000D01*
G75*
G02*
X19700000Y64400000I0J-100000D01*
G01*
X19700000Y63600000D01*
G75*
G02*
X19600000Y63500000I-100000J0D01*
G01*
X18550000Y63500000D01*
G75*
G02*
X18450000Y63600000I0J100000D01*
G01*
X18450000Y64400000D01*
G75*
G02*
X18550000Y64500000I100000J0D01*
G01*
G37*
G04 #@! TD*
G04 #@! TO.C,R35*
G36*
G01*
X76350000Y37110000D02*
X76350000Y37890000D01*
G75*
G02*
X76420000Y37960000I70000J0D01*
G01*
X76980000Y37960000D01*
G75*
G02*
X77050000Y37890000I0J-70000D01*
G01*
X77050000Y37110000D01*
G75*
G02*
X76980000Y37040000I-70000J0D01*
G01*
X76420000Y37040000D01*
G75*
G02*
X76350000Y37110000I0J70000D01*
G01*
G37*
G36*
G01*
X77950000Y37110000D02*
X77950000Y37890000D01*
G75*
G02*
X78020000Y37960000I70000J0D01*
G01*
X78580000Y37960000D01*
G75*
G02*
X78650000Y37890000I0J-70000D01*
G01*
X78650000Y37110000D01*
G75*
G02*
X78580000Y37040000I-70000J0D01*
G01*
X78020000Y37040000D01*
G75*
G02*
X77950000Y37110000I0J70000D01*
G01*
G37*
G04 #@! TD*
D22*
G04 #@! TO.C,M5*
X67650000Y55809992D03*
D23*
X69274990Y59579992D03*
D24*
X57250001Y60984996D03*
D25*
X66500000Y58500000D03*
X60075001Y60329993D03*
X60075001Y59054995D03*
X60075001Y57405006D03*
X60075001Y56504995D03*
G04 #@! TD*
G04 #@! TO.C,D9*
G36*
G01*
X69010000Y31900000D02*
X67990000Y31900000D01*
G75*
G02*
X67900000Y31990000I0J90000D01*
G01*
X67900000Y32710000D01*
G75*
G02*
X67990000Y32800000I90000J0D01*
G01*
X69010000Y32800000D01*
G75*
G02*
X69100000Y32710000I0J-90000D01*
G01*
X69100000Y31990000D01*
G75*
G02*
X69010000Y31900000I-90000J0D01*
G01*
G37*
G36*
G01*
X69010000Y35200000D02*
X67990000Y35200000D01*
G75*
G02*
X67900000Y35290000I0J90000D01*
G01*
X67900000Y36010000D01*
G75*
G02*
X67990000Y36100000I90000J0D01*
G01*
X69010000Y36100000D01*
G75*
G02*
X69100000Y36010000I0J-90000D01*
G01*
X69100000Y35290000D01*
G75*
G02*
X69010000Y35200000I-90000J0D01*
G01*
G37*
G04 #@! TD*
G04 #@! TO.C,R18*
G36*
G01*
X22890000Y59390000D02*
X22110000Y59390000D01*
G75*
G02*
X22040000Y59460000I0J70000D01*
G01*
X22040000Y60020000D01*
G75*
G02*
X22110000Y60090000I70000J0D01*
G01*
X22890000Y60090000D01*
G75*
G02*
X22960000Y60020000I0J-70000D01*
G01*
X22960000Y59460000D01*
G75*
G02*
X22890000Y59390000I-70000J0D01*
G01*
G37*
G36*
G01*
X22890000Y60990000D02*
X22110000Y60990000D01*
G75*
G02*
X22040000Y61060000I0J70000D01*
G01*
X22040000Y61620000D01*
G75*
G02*
X22110000Y61690000I70000J0D01*
G01*
X22890000Y61690000D01*
G75*
G02*
X22960000Y61620000I0J-70000D01*
G01*
X22960000Y61060000D01*
G75*
G02*
X22890000Y60990000I-70000J0D01*
G01*
G37*
G04 #@! TD*
G04 #@! TO.C,R19*
G36*
G01*
X20262500Y19312500D02*
X20737500Y19312500D01*
G75*
G02*
X20975000Y19075000I0J-237500D01*
G01*
X20975000Y18575000D01*
G75*
G02*
X20737500Y18337500I-237500J0D01*
G01*
X20262500Y18337500D01*
G75*
G02*
X20025000Y18575000I0J237500D01*
G01*
X20025000Y19075000D01*
G75*
G02*
X20262500Y19312500I237500J0D01*
G01*
G37*
G36*
G01*
X20262500Y17487500D02*
X20737500Y17487500D01*
G75*
G02*
X20975000Y17250000I0J-237500D01*
G01*
X20975000Y16750000D01*
G75*
G02*
X20737500Y16512500I-237500J0D01*
G01*
X20262500Y16512500D01*
G75*
G02*
X20025000Y16750000I0J237500D01*
G01*
X20025000Y17250000D01*
G75*
G02*
X20262500Y17487500I237500J0D01*
G01*
G37*
G04 #@! TD*
G04 #@! TO.C,R17*
G36*
G01*
X24390000Y19350000D02*
X23610000Y19350000D01*
G75*
G02*
X23540000Y19420000I0J70000D01*
G01*
X23540000Y19980000D01*
G75*
G02*
X23610000Y20050000I70000J0D01*
G01*
X24390000Y20050000D01*
G75*
G02*
X24460000Y19980000I0J-70000D01*
G01*
X24460000Y19420000D01*
G75*
G02*
X24390000Y19350000I-70000J0D01*
G01*
G37*
G36*
G01*
X24390000Y20950000D02*
X23610000Y20950000D01*
G75*
G02*
X23540000Y21020000I0J70000D01*
G01*
X23540000Y21580000D01*
G75*
G02*
X23610000Y21650000I70000J0D01*
G01*
X24390000Y21650000D01*
G75*
G02*
X24460000Y21580000I0J-70000D01*
G01*
X24460000Y21020000D01*
G75*
G02*
X24390000Y20950000I-70000J0D01*
G01*
G37*
G04 #@! TD*
M02*
