M48
; DRILL file {KiCad 7.0.7-7.0.7~ubuntu22.04.1} date Sat Sep 30 00:51:55 2023
; FORMAT={2:4/ absolute / inch / suppress leading zeros}
; #@! TF.CreationDate,2023-09-30T00:51:55+00:00
; #@! TF.GenerationSoftware,Kicad,Pcbnew,7.0.7-7.0.7~ubuntu22.04.1
; #@! TF.FileFunction,MixedPlating,1,4
FMAT,2
INCH,TZ
; #@! TA.AperFunction,Plated,PTH,ComponentDrill
T1C0.0118
; #@! TA.AperFunction,Plated,PTH,ComponentDrill
T2C0.0118
; #@! TA.AperFunction,Plated,PTH,ViaDrill
T3C0.0157
; #@! TA.AperFunction,Plated,PTH,ComponentDrill
T4C0.0276
; #@! TA.AperFunction,Plated,PTH,ComponentDrill
T5C0.0320
; #@! TA.AperFunction,Plated,PTH,ComponentDrill
T6C0.0394
; #@! TA.AperFunction,NonPlated,NPTH,ComponentDrill
T7C0.0827
%
G90
G05
T1
X23652Y23752
X23652Y23250
X23652Y22600
X23652Y22246
X26181Y23031
T2
X9459Y24144
X9459Y23770
X9459Y23396
X10183Y22087
X10325Y15089
X10325Y14774
X10325Y14459
X10325Y14144
X10325Y13829
X10325Y13514
X10325Y13199
X10325Y12884
X10325Y12569
X10325Y12254
X10325Y11939
X10325Y11624
X10325Y10522
X10325Y10207
X10325Y9419
X10325Y9104
X10325Y8789
X10325Y8474
X10325Y8159
X10325Y6467
X10325Y5404
X10325Y5010
X10325Y2096
X10577Y22087
X11703Y16407
X12175Y16407
X12175Y2096
X12648Y16407
X12726Y2096
X12884Y23750
X12884Y23396
X13120Y16407
X13159Y15246
X13474Y15246
X13789Y15246
X14104Y15246
X14419Y15246
X14577Y2096
X14734Y15246
X14892Y2096
X14970Y17569
X15285Y15246
X15364Y17569
X15600Y15246
X15915Y15246
X15915Y2096
X16230Y15246
X16309Y2096
X16545Y15246
X16703Y2096
X16860Y15246
X17096Y2096
X17175Y15246
X17490Y15246
X17490Y2096
X17805Y15246
X17884Y2096
X18120Y15246
X18278Y2096
X18435Y15246
X18671Y2096
X18750Y15246
X19065Y15246
X19380Y15246
X19695Y15246
X20010Y15246
X21703Y15246
X22884Y2096
X23278Y2096
X24262Y12648
X24262Y12175
X24262Y11703
X24262Y11230
X24262Y10758
X24262Y10285
X24262Y9813
X24262Y9341
X24262Y8868
X24262Y8396
X24262Y7923
X24262Y7451
X24262Y6978
X24262Y6506
X24262Y6033
X24262Y5561
X24262Y5089
X24262Y4616
X24262Y4144
X24262Y3671
X24262Y3199
X24262Y2254
T3
X276Y24016
X276Y19961
X394Y28819
X433Y15039
X669Y7362
X748Y3110
X1102Y27638
X1299Y23031
X1496Y472
X2047Y35236
X2283Y31496
X2638Y6299
X2953Y33150
X3071Y30197
X3071Y21220
X3150Y6811
X3274Y18965
X3307Y18150
X3307Y17244
X3307Y15157
X3386Y15984
X3386Y14370
X3386Y12953
X3425Y23219
X3425Y12323
X3425Y11535
X3460Y22362
X3504Y37441
X3504Y236
X3504Y23584
X3543Y9843
X3543Y8858
X3543Y5463
X3562Y23956
X3740Y25945
X3858Y15197
X3898Y21654
X3937Y19921
X3937Y18701
X3937Y17717
X3976Y20433
X3976Y16024
X3976Y4882
X4213Y12992
X4232Y12264
X4232Y11604
X4331Y26417
X4331Y8425
X4350Y9852
X4350Y9193
X4366Y14449
X4488Y33268
X4528Y15748
X4528Y6220
X4685Y18622
X4685Y18031
X4685Y17205
X4685Y5118
X4882Y26417
X4921Y12795
X4921Y11614
X4951Y15217
X5036Y16008
X5039Y14213
X5118Y9252
X5157Y10000
X5157Y8386
X5315Y4488
X5591Y30276
X5630Y32992
X6024Y18268
X6024Y17008
X6024Y10472
X6024Y9803
X6050Y19646
X6063Y19055
X6063Y12953
X6063Y12362
X6102Y24213
X6102Y23543
X6102Y22953
X6102Y22362
X6102Y21732
X6319Y14724
X6319Y13713
X6339Y15236
X6496Y9567
X6535Y12559
X6693Y14803
X6693Y984
X6701Y5911
X6752Y13860
X6772Y10866
X7008Y9567
X7087Y33346
X7136Y15512
X7165Y1024
X7271Y19587
X7323Y23228
X7323Y22835
X7323Y22441
X7323Y18465
X7338Y16414
X7402Y19016
X7480Y30079
X7490Y2000
X7520Y9567
X7598Y37598
X7598Y8819
X7616Y8268
X7750Y1732
X7874Y26654
X7890Y1350
X7898Y26039
X7972Y11942
X8009Y25236
X8031Y12835
X8150Y20079
X8227Y11656
X8228Y27756
X8247Y1218
X8272Y845
X8406Y7490
X8425Y11339
X8484Y23932
X8539Y16491
X8541Y8290
X8543Y22161
X8618Y571
X8622Y15945
X8742Y24501
X8760Y7986
X8760Y5630
X8760Y5197
X8954Y1123
X8976Y2441
X9055Y8425
X9134Y30197
X9173Y17165
X9173Y16069
X9213Y19213
X9252Y21457
X9270Y22621
X9323Y15677
X9409Y6495
X9488Y9409
X9501Y374
X9642Y22994
X9646Y15157
X9646Y5000
X9763Y22401
X9882Y3740
X10000Y11063
X10000Y9803
X10000Y5945
X10002Y22894
X10039Y7323
X10315Y16132
X10349Y24601
X10394Y27638
X10394Y22913
X10827Y37717
X11021Y22345
X11220Y30157
X11260Y1772
X11417Y33386
X11575Y15512
X11811Y22953
X11850Y24606
X12441Y30236
X12441Y1772
X12717Y33386
X12717Y22992
X13070Y22343
X13425Y24968
X13445Y16899
X13504Y32559
X13661Y1732
X13898Y27835
X13940Y16075
X14134Y17205
X14409Y30157
X14449Y33150
X15293Y24278
X15354Y15669
X15472Y1732
X15551Y33465
X15551Y17205
X15650Y25500
X15778Y32795
X15882Y28761
X16142Y33465
X16220Y30354
X16227Y28228
X16260Y37717
X16373Y32804
X16474Y29456
X16591Y27146
X16610Y30341
X16614Y27657
X16673Y26634
X16732Y33465
X16968Y32812
X17047Y25787
X17047Y17283
X17126Y28543
X17204Y29354
X17205Y26496
X17205Y1693
X17322Y32283
X17323Y33465
X17381Y27954
X17503Y27370
X17603Y35512
X17663Y27708
X17717Y26811
X17736Y30322
X17913Y33465
X17971Y29521
X18071Y24291
X18120Y28235
X18184Y34081
X18185Y30341
X18224Y26069
X18504Y32283
X18504Y33465
X18582Y29512
X18898Y29961
X18898Y27756
X19134Y26181
X19213Y1811
X19291Y24331
X19291Y17283
X20118Y37756
X20476Y15512
X20630Y30118
X21024Y33543
X21145Y25719
X21965Y18663
X22102Y23195
X22234Y20488
X22234Y23701
X22244Y22323
X22426Y17375
X22598Y1811
X22598Y18386
X22717Y33189
X22753Y19871
X22762Y17539
X22874Y21535
X22964Y18189
X23308Y16821
X23484Y32480
X23681Y20630
X23898Y1890
X23901Y17343
X24094Y30354
X24528Y24291
X24567Y2638
X24646Y15039
X24646Y13031
X24668Y925
X24796Y18890
X24843Y21142
X24843Y19803
X24956Y2108
X24961Y17349
X25000Y10197
X25026Y18051
X25039Y10758
X25131Y1605
X25148Y37707
X25197Y6496
X25236Y5984
X25322Y16570
X25348Y267
X25368Y18202
X25453Y7480
X25492Y5115
X25709Y11850
X25716Y18929
X25774Y335
X25804Y17185
X25866Y9843
X25926Y24010
X26024Y19142
X26122Y17674
X26220Y18442
X26220Y315
X26260Y33228
X26260Y8386
X26271Y21010
X26280Y20387
X26280Y19970
X26295Y8950
X26408Y10571
X26424Y11248
X26530Y20665
X26575Y10906
X26575Y32485
X26593Y11581
X26614Y1850
X26618Y21593
X26635Y5609
X26654Y315
X26772Y31496
X26969Y13150
X27047Y2047
X27111Y15442
X27312Y13934
X27387Y15698
X27409Y16841
X27480Y8331
X27501Y16329
X27677Y22618
X27705Y14295
X27756Y1260
X27756Y23465
X27819Y15921
X27966Y18728
X27985Y19445
X28064Y13446
X28150Y24134
X28235Y17527
X28425Y14370
X28465Y21260
X28556Y18138
X28583Y37677
X28583Y276
X28740Y2008
X28780Y6654
X28780Y5551
X28780Y4173
X28819Y12559
X28819Y3307
X29094Y30630
X29252Y9331
X29291Y11535
X29331Y13281
X29409Y27165
X29409Y17513
X29567Y33071
X29646Y14035
X29646Y16654
X29646Y15669
X29665Y16095
X29724Y24134
X29744Y18701
X29764Y22638
X29764Y19843
X29887Y1283
X29902Y14351
X29961Y8346
X30174Y13700
X30236Y28504
X30236Y27244
X30261Y1291
X30276Y18282
X30289Y28874
X30335Y30315
X30472Y33228
X30478Y16624
X30512Y13110
X30551Y17559
X30630Y21260
X30630Y15354
X30807Y18735
X30846Y14331
X30866Y16339
X30984Y20118
X31024Y19134
X31063Y37550
X31102Y11417
X31102Y10931
X31102Y9646
X31102Y8583
X31102Y8071
X31102Y1575
X31116Y11909
X31142Y10394
X31142Y9134
X31142Y2008
X31299Y22912
X31299Y21890
X31890Y512
X32412Y24210
X32426Y24803
X32520Y8858
X32520Y8228
X32638Y3150
X32717Y3661
X32933Y12047
X33071Y2874
X33110Y31772
X33195Y34002
X33228Y22835
X33228Y13780
X33268Y15866
X33386Y11378
X33386Y8583
X33408Y7520
X33426Y2756
X33453Y12193
X33465Y28976
X33465Y472
X33583Y5512
X33622Y6890
X33681Y7815
X33683Y4616
T4
X8169Y14528
X8169Y13898
X8169Y13268
X8858Y14213
X8858Y13583
T5
X3224Y26969
X4724Y26969
X8661Y26931
X8661Y25431
X9646Y26931
X9646Y25431
X11122Y26931
X11122Y25431
X12402Y26931
X12402Y25431
X13189Y26931
X13189Y25431
X13976Y26931
X13976Y25431
X14764Y26931
X14764Y25431
X19882Y26555
X19882Y24626
X20866Y26555
X20866Y24626
X21772Y26537
X21772Y25037
X22756Y26537
X22756Y25037
X23819Y26537
X23819Y25037
X25197Y26537
X25197Y25037
X26929Y26752
X26929Y24823
X28110Y26537
X28110Y25037
X28776Y27953
X28858Y26537
X28858Y25037
X29567Y26537
X29567Y25037
X30276Y27953
X30315Y26537
X30315Y25037
T6
X3506Y35321
X3506Y34337
X3506Y31975
X3506Y30991
X3752Y29416
X4490Y35321
X4490Y34337
X4490Y31975
X4490Y30991
X5228Y29416
X5474Y35321
X5474Y34337
X5474Y31975
X5474Y30991
X6458Y35321
X6458Y34337
X6458Y31975
X6458Y30991
X6704Y29416
X7443Y35321
X7443Y34337
X7443Y31975
X7443Y30991
X8181Y29416
X8427Y35321
X8427Y34337
X8427Y31975
X8427Y30991
X9411Y35321
X9411Y34337
X9411Y31975
X9411Y30991
X9657Y29416
X10395Y35321
X10395Y34337
X10395Y31975
X10395Y30991
X11134Y29416
X11380Y35321
X11380Y34337
X11380Y31975
X11380Y30991
X12364Y35321
X12364Y34337
X12364Y31975
X12364Y30991
X12610Y29416
X13348Y35321
X13348Y34337
X13348Y31975
X13348Y30991
X13848Y17746
X14026Y23848
X14086Y29416
X14332Y35321
X14332Y34337
X14332Y31975
X14332Y30991
X16309Y17746
X18002Y17746
X18750Y17746
X18770Y23848
X19647Y35321
X19647Y34337
X19647Y31975
X19647Y30991
X19893Y29416
X20632Y35321
X20632Y34337
X20632Y31975
X20632Y30991
X20719Y23848
X21270Y17746
X21370Y29416
X21447Y23848
X21616Y35321
X21616Y34337
X21616Y31975
X21616Y30991
X22600Y35321
X22600Y34337
X22600Y31975
X22600Y30991
X22846Y29416
X23584Y35321
X23584Y34337
X23584Y31975
X23584Y30991
X24323Y29416
X24569Y35321
X24569Y34337
X24569Y31975
X24569Y30991
X25553Y35321
X25553Y34337
X25553Y31975
X25553Y30991
X25799Y29416
X26165Y7102
X26165Y6102
X26165Y5102
X26165Y4102
X26165Y3102
X26537Y35321
X26537Y34337
X26537Y31975
X26537Y30991
X27165Y7102
X27165Y6102
X27165Y5102
X27165Y4102
X27165Y3102
X27275Y29416
X27521Y35321
X27521Y34337
X27521Y31975
X27521Y30991
X28165Y7102
X28165Y6102
X28165Y5102
X28165Y4102
X28165Y3102
X28506Y35321
X28506Y34337
X28506Y31975
X28506Y30991
X28752Y29416
X29406Y7102
X29406Y6102
X29406Y5102
X29406Y4102
X29406Y3102
X29490Y35321
X29490Y34337
X29490Y31975
X29490Y30991
X30228Y29416
X30406Y7102
X30406Y6102
X30406Y5102
X30406Y4102
X30406Y3102
X30474Y35321
X30474Y34337
X30474Y31975
X30474Y30991
X31406Y7102
X31406Y6102
X31406Y5102
X31406Y4102
X31406Y3102
T7
X848Y33077
X33132Y33077
T4
X8770Y15335G85X8258Y15335
G05
X8770Y12461G85X8258Y12461
G05
T0
M30
