G04 #@! TF.GenerationSoftware,KiCad,Pcbnew,7.0.7-7.0.7~ubuntu22.04.1*
G04 #@! TF.CreationDate,2023-09-24T22:43:11+00:00*
G04 #@! TF.ProjectId,hellen-112-17,68656c6c-656e-42d3-9131-322d31372e6b,a*
G04 #@! TF.SameCoordinates,Original*
G04 #@! TF.FileFunction,Legend,Top*
G04 #@! TF.FilePolarity,Positive*
%FSLAX46Y46*%
G04 Gerber Fmt 4.6, Leading zero omitted, Abs format (unit mm)*
G04 Created by KiCad (PCBNEW 7.0.7-7.0.7~ubuntu22.04.1) date 2023-09-24 22:43:11*
%MOMM*%
%LPD*%
G01*
G04 APERTURE LIST*
%ADD10C,0.250000*%
%ADD11C,0.304800*%
%ADD12C,0.150000*%
%ADD13C,0.200000*%
%ADD14C,0.127000*%
%ADD15C,0.170000*%
%ADD16C,0.099060*%
%ADD17C,0.120000*%
%ADD18C,0.203200*%
%ADD19C,0.002540*%
G04 APERTURE END LIST*
D10*
X63908098Y17384810D02*
X63222384Y17384810D01*
X63565241Y17384810D02*
X63565241Y18984810D01*
X63565241Y18984810D02*
X63450955Y18756239D01*
X63450955Y18756239D02*
X63336670Y18603858D01*
X63336670Y18603858D02*
X63222384Y18527667D01*
X64365241Y18832429D02*
X64422384Y18908620D01*
X64422384Y18908620D02*
X64536670Y18984810D01*
X64536670Y18984810D02*
X64822384Y18984810D01*
X64822384Y18984810D02*
X64936670Y18908620D01*
X64936670Y18908620D02*
X64993812Y18832429D01*
X64993812Y18832429D02*
X65050955Y18680048D01*
X65050955Y18680048D02*
X65050955Y18527667D01*
X65050955Y18527667D02*
X64993812Y18299096D01*
X64993812Y18299096D02*
X64308098Y17384810D01*
X64308098Y17384810D02*
X65050955Y17384810D01*
X64993812Y16408810D02*
X64422384Y16408810D01*
X64422384Y16408810D02*
X64365241Y15646905D01*
X64365241Y15646905D02*
X64422384Y15723096D01*
X64422384Y15723096D02*
X64536670Y15799286D01*
X64536670Y15799286D02*
X64822384Y15799286D01*
X64822384Y15799286D02*
X64936670Y15723096D01*
X64936670Y15723096D02*
X64993812Y15646905D01*
X64993812Y15646905D02*
X65050955Y15494524D01*
X65050955Y15494524D02*
X65050955Y15113572D01*
X65050955Y15113572D02*
X64993812Y14961191D01*
X64993812Y14961191D02*
X64936670Y14885000D01*
X64936670Y14885000D02*
X64822384Y14808810D01*
X64822384Y14808810D02*
X64536670Y14808810D01*
X64536670Y14808810D02*
X64422384Y14885000D01*
X64422384Y14885000D02*
X64365241Y14961191D01*
X62593812Y13832810D02*
X63336669Y13832810D01*
X63336669Y13832810D02*
X62936669Y13223286D01*
X62936669Y13223286D02*
X63108098Y13223286D01*
X63108098Y13223286D02*
X63222384Y13147096D01*
X63222384Y13147096D02*
X63279526Y13070905D01*
X63279526Y13070905D02*
X63336669Y12918524D01*
X63336669Y12918524D02*
X63336669Y12537572D01*
X63336669Y12537572D02*
X63279526Y12385191D01*
X63279526Y12385191D02*
X63222384Y12309000D01*
X63222384Y12309000D02*
X63108098Y12232810D01*
X63108098Y12232810D02*
X62765241Y12232810D01*
X62765241Y12232810D02*
X62650955Y12309000D01*
X62650955Y12309000D02*
X62593812Y12385191D01*
X63850955Y12385191D02*
X63908098Y12309000D01*
X63908098Y12309000D02*
X63850955Y12232810D01*
X63850955Y12232810D02*
X63793812Y12309000D01*
X63793812Y12309000D02*
X63850955Y12385191D01*
X63850955Y12385191D02*
X63850955Y12232810D01*
X64308098Y13832810D02*
X65050955Y13832810D01*
X65050955Y13832810D02*
X64650955Y13223286D01*
X64650955Y13223286D02*
X64822384Y13223286D01*
X64822384Y13223286D02*
X64936670Y13147096D01*
X64936670Y13147096D02*
X64993812Y13070905D01*
X64993812Y13070905D02*
X65050955Y12918524D01*
X65050955Y12918524D02*
X65050955Y12537572D01*
X65050955Y12537572D02*
X64993812Y12385191D01*
X64993812Y12385191D02*
X64936670Y12309000D01*
X64936670Y12309000D02*
X64822384Y12232810D01*
X64822384Y12232810D02*
X64479527Y12232810D01*
X64479527Y12232810D02*
X64365241Y12309000D01*
X64365241Y12309000D02*
X64308098Y12385191D01*
X64993812Y11180620D02*
X64879527Y11256810D01*
X64879527Y11256810D02*
X64708098Y11256810D01*
X64708098Y11256810D02*
X64536669Y11180620D01*
X64536669Y11180620D02*
X64422384Y11028239D01*
X64422384Y11028239D02*
X64365241Y10875858D01*
X64365241Y10875858D02*
X64308098Y10571096D01*
X64308098Y10571096D02*
X64308098Y10342524D01*
X64308098Y10342524D02*
X64365241Y10037762D01*
X64365241Y10037762D02*
X64422384Y9885381D01*
X64422384Y9885381D02*
X64536669Y9733000D01*
X64536669Y9733000D02*
X64708098Y9656810D01*
X64708098Y9656810D02*
X64822384Y9656810D01*
X64822384Y9656810D02*
X64993812Y9733000D01*
X64993812Y9733000D02*
X65050955Y9809191D01*
X65050955Y9809191D02*
X65050955Y10342524D01*
X65050955Y10342524D02*
X64822384Y10342524D01*
X64993812Y8604620D02*
X64879527Y8680810D01*
X64879527Y8680810D02*
X64708098Y8680810D01*
X64708098Y8680810D02*
X64536669Y8604620D01*
X64536669Y8604620D02*
X64422384Y8452239D01*
X64422384Y8452239D02*
X64365241Y8299858D01*
X64365241Y8299858D02*
X64308098Y7995096D01*
X64308098Y7995096D02*
X64308098Y7766524D01*
X64308098Y7766524D02*
X64365241Y7461762D01*
X64365241Y7461762D02*
X64422384Y7309381D01*
X64422384Y7309381D02*
X64536669Y7157000D01*
X64536669Y7157000D02*
X64708098Y7080810D01*
X64708098Y7080810D02*
X64822384Y7080810D01*
X64822384Y7080810D02*
X64993812Y7157000D01*
X64993812Y7157000D02*
X65050955Y7233191D01*
X65050955Y7233191D02*
X65050955Y7766524D01*
X65050955Y7766524D02*
X64822384Y7766524D01*
D11*
X4424191Y33344285D02*
X2392191Y33344285D01*
X4424191Y33997427D02*
X3359810Y33997427D01*
X3359810Y33997427D02*
X3166287Y33924856D01*
X3166287Y33924856D02*
X3069525Y33779713D01*
X3069525Y33779713D02*
X3069525Y33561999D01*
X3069525Y33561999D02*
X3166287Y33416856D01*
X3166287Y33416856D02*
X3263049Y33344285D01*
X4327430Y35303713D02*
X4424191Y35158570D01*
X4424191Y35158570D02*
X4424191Y34868284D01*
X4424191Y34868284D02*
X4327430Y34723142D01*
X4327430Y34723142D02*
X4133906Y34650570D01*
X4133906Y34650570D02*
X3359810Y34650570D01*
X3359810Y34650570D02*
X3166287Y34723142D01*
X3166287Y34723142D02*
X3069525Y34868284D01*
X3069525Y34868284D02*
X3069525Y35158570D01*
X3069525Y35158570D02*
X3166287Y35303713D01*
X3166287Y35303713D02*
X3359810Y35376284D01*
X3359810Y35376284D02*
X3553334Y35376284D01*
X3553334Y35376284D02*
X3746858Y34650570D01*
X4424191Y36247142D02*
X4327430Y36101999D01*
X4327430Y36101999D02*
X4133906Y36029428D01*
X4133906Y36029428D02*
X2392191Y36029428D01*
X4424191Y37045428D02*
X4327430Y36900285D01*
X4327430Y36900285D02*
X4133906Y36827714D01*
X4133906Y36827714D02*
X2392191Y36827714D01*
X4327430Y38206571D02*
X4424191Y38061428D01*
X4424191Y38061428D02*
X4424191Y37771142D01*
X4424191Y37771142D02*
X4327430Y37626000D01*
X4327430Y37626000D02*
X4133906Y37553428D01*
X4133906Y37553428D02*
X3359810Y37553428D01*
X3359810Y37553428D02*
X3166287Y37626000D01*
X3166287Y37626000D02*
X3069525Y37771142D01*
X3069525Y37771142D02*
X3069525Y38061428D01*
X3069525Y38061428D02*
X3166287Y38206571D01*
X3166287Y38206571D02*
X3359810Y38279142D01*
X3359810Y38279142D02*
X3553334Y38279142D01*
X3553334Y38279142D02*
X3746858Y37553428D01*
X3069525Y38932286D02*
X4424191Y38932286D01*
X3263049Y38932286D02*
X3166287Y39004857D01*
X3166287Y39004857D02*
X3069525Y39150000D01*
X3069525Y39150000D02*
X3069525Y39367714D01*
X3069525Y39367714D02*
X3166287Y39512857D01*
X3166287Y39512857D02*
X3359810Y39585428D01*
X3359810Y39585428D02*
X4424191Y39585428D01*
X3650096Y40311143D02*
X3650096Y41472285D01*
X4424191Y42996285D02*
X4424191Y42125428D01*
X4424191Y42560857D02*
X2392191Y42560857D01*
X2392191Y42560857D02*
X2682477Y42415714D01*
X2682477Y42415714D02*
X2876001Y42270571D01*
X2876001Y42270571D02*
X2972763Y42125428D01*
X4424191Y44447714D02*
X4424191Y43576857D01*
X4424191Y44012286D02*
X2392191Y44012286D01*
X2392191Y44012286D02*
X2682477Y43867143D01*
X2682477Y43867143D02*
X2876001Y43722000D01*
X2876001Y43722000D02*
X2972763Y43576857D01*
X2585715Y45028286D02*
X2488953Y45100858D01*
X2488953Y45100858D02*
X2392191Y45246000D01*
X2392191Y45246000D02*
X2392191Y45608858D01*
X2392191Y45608858D02*
X2488953Y45754000D01*
X2488953Y45754000D02*
X2585715Y45826572D01*
X2585715Y45826572D02*
X2779239Y45899143D01*
X2779239Y45899143D02*
X2972763Y45899143D01*
X2972763Y45899143D02*
X3263049Y45826572D01*
X3263049Y45826572D02*
X4424191Y44955715D01*
X4424191Y44955715D02*
X4424191Y45899143D01*
X3650096Y46552287D02*
X3650096Y47713429D01*
X4424191Y49237429D02*
X4424191Y48366572D01*
X4424191Y48802001D02*
X2392191Y48802001D01*
X2392191Y48802001D02*
X2682477Y48656858D01*
X2682477Y48656858D02*
X2876001Y48511715D01*
X2876001Y48511715D02*
X2972763Y48366572D01*
X2392191Y49745430D02*
X2392191Y50761430D01*
X2392191Y50761430D02*
X4424191Y50108287D01*
X4424191Y52503145D02*
X3069525Y52503145D01*
X3456572Y52503145D02*
X3263049Y52575716D01*
X3263049Y52575716D02*
X3166287Y52648287D01*
X3166287Y52648287D02*
X3069525Y52793430D01*
X3069525Y52793430D02*
X3069525Y52938573D01*
X4327430Y54027145D02*
X4424191Y53882002D01*
X4424191Y53882002D02*
X4424191Y53591716D01*
X4424191Y53591716D02*
X4327430Y53446574D01*
X4327430Y53446574D02*
X4133906Y53374002D01*
X4133906Y53374002D02*
X3359810Y53374002D01*
X3359810Y53374002D02*
X3166287Y53446574D01*
X3166287Y53446574D02*
X3069525Y53591716D01*
X3069525Y53591716D02*
X3069525Y53882002D01*
X3069525Y53882002D02*
X3166287Y54027145D01*
X3166287Y54027145D02*
X3359810Y54099716D01*
X3359810Y54099716D02*
X3553334Y54099716D01*
X3553334Y54099716D02*
X3746858Y53374002D01*
X3069525Y54607717D02*
X4424191Y54970574D01*
X4424191Y54970574D02*
X3069525Y55333431D01*
X3843620Y57002574D02*
X3843620Y57728288D01*
X4424191Y56857431D02*
X2392191Y57365431D01*
X2392191Y57365431D02*
X4424191Y57873431D01*
X84724191Y21811145D02*
X82692191Y21811145D01*
X84724191Y22464287D02*
X83659810Y22464287D01*
X83659810Y22464287D02*
X83466287Y22391716D01*
X83466287Y22391716D02*
X83369525Y22246573D01*
X83369525Y22246573D02*
X83369525Y22028859D01*
X83369525Y22028859D02*
X83466287Y21883716D01*
X83466287Y21883716D02*
X83563049Y21811145D01*
X83369525Y22972287D02*
X83369525Y23552859D01*
X82692191Y23190002D02*
X84433906Y23190002D01*
X84433906Y23190002D02*
X84627430Y23262573D01*
X84627430Y23262573D02*
X84724191Y23407716D01*
X84724191Y23407716D02*
X84724191Y23552859D01*
X83369525Y23843144D02*
X83369525Y24423716D01*
X82692191Y24060859D02*
X84433906Y24060859D01*
X84433906Y24060859D02*
X84627430Y24133430D01*
X84627430Y24133430D02*
X84724191Y24278573D01*
X84724191Y24278573D02*
X84724191Y24423716D01*
X83369525Y24931716D02*
X85401525Y24931716D01*
X83466287Y24931716D02*
X83369525Y25076858D01*
X83369525Y25076858D02*
X83369525Y25367144D01*
X83369525Y25367144D02*
X83466287Y25512287D01*
X83466287Y25512287D02*
X83563049Y25584858D01*
X83563049Y25584858D02*
X83756572Y25657430D01*
X83756572Y25657430D02*
X84337144Y25657430D01*
X84337144Y25657430D02*
X84530668Y25584858D01*
X84530668Y25584858D02*
X84627430Y25512287D01*
X84627430Y25512287D02*
X84724191Y25367144D01*
X84724191Y25367144D02*
X84724191Y25076858D01*
X84724191Y25076858D02*
X84627430Y24931716D01*
X84627430Y26238001D02*
X84724191Y26383144D01*
X84724191Y26383144D02*
X84724191Y26673430D01*
X84724191Y26673430D02*
X84627430Y26818573D01*
X84627430Y26818573D02*
X84433906Y26891144D01*
X84433906Y26891144D02*
X84337144Y26891144D01*
X84337144Y26891144D02*
X84143620Y26818573D01*
X84143620Y26818573D02*
X84046858Y26673430D01*
X84046858Y26673430D02*
X84046858Y26455715D01*
X84046858Y26455715D02*
X83950096Y26310573D01*
X83950096Y26310573D02*
X83756572Y26238001D01*
X83756572Y26238001D02*
X83659810Y26238001D01*
X83659810Y26238001D02*
X83466287Y26310573D01*
X83466287Y26310573D02*
X83369525Y26455715D01*
X83369525Y26455715D02*
X83369525Y26673430D01*
X83369525Y26673430D02*
X83466287Y26818573D01*
X84530668Y27544287D02*
X84627430Y27616858D01*
X84627430Y27616858D02*
X84724191Y27544287D01*
X84724191Y27544287D02*
X84627430Y27471715D01*
X84627430Y27471715D02*
X84530668Y27544287D01*
X84530668Y27544287D02*
X84724191Y27544287D01*
X83466287Y27544287D02*
X83563049Y27616858D01*
X83563049Y27616858D02*
X83659810Y27544287D01*
X83659810Y27544287D02*
X83563049Y27471715D01*
X83563049Y27471715D02*
X83466287Y27544287D01*
X83466287Y27544287D02*
X83659810Y27544287D01*
X82595430Y29358572D02*
X85208001Y28052286D01*
X82595430Y30955143D02*
X85208001Y29648857D01*
X84724191Y31463143D02*
X83369525Y31463143D01*
X83756572Y31463143D02*
X83563049Y31535714D01*
X83563049Y31535714D02*
X83466287Y31608285D01*
X83466287Y31608285D02*
X83369525Y31753428D01*
X83369525Y31753428D02*
X83369525Y31898571D01*
X83369525Y33059714D02*
X84724191Y33059714D01*
X83369525Y32406572D02*
X84433906Y32406572D01*
X84433906Y32406572D02*
X84627430Y32479143D01*
X84627430Y32479143D02*
X84724191Y32624286D01*
X84724191Y32624286D02*
X84724191Y32842000D01*
X84724191Y32842000D02*
X84627430Y32987143D01*
X84627430Y32987143D02*
X84530668Y33059714D01*
X84627430Y33712857D02*
X84724191Y33858000D01*
X84724191Y33858000D02*
X84724191Y34148286D01*
X84724191Y34148286D02*
X84627430Y34293429D01*
X84627430Y34293429D02*
X84433906Y34366000D01*
X84433906Y34366000D02*
X84337144Y34366000D01*
X84337144Y34366000D02*
X84143620Y34293429D01*
X84143620Y34293429D02*
X84046858Y34148286D01*
X84046858Y34148286D02*
X84046858Y33930571D01*
X84046858Y33930571D02*
X83950096Y33785429D01*
X83950096Y33785429D02*
X83756572Y33712857D01*
X83756572Y33712857D02*
X83659810Y33712857D01*
X83659810Y33712857D02*
X83466287Y33785429D01*
X83466287Y33785429D02*
X83369525Y33930571D01*
X83369525Y33930571D02*
X83369525Y34148286D01*
X83369525Y34148286D02*
X83466287Y34293429D01*
X84627430Y35599714D02*
X84724191Y35454571D01*
X84724191Y35454571D02*
X84724191Y35164285D01*
X84724191Y35164285D02*
X84627430Y35019143D01*
X84627430Y35019143D02*
X84433906Y34946571D01*
X84433906Y34946571D02*
X83659810Y34946571D01*
X83659810Y34946571D02*
X83466287Y35019143D01*
X83466287Y35019143D02*
X83369525Y35164285D01*
X83369525Y35164285D02*
X83369525Y35454571D01*
X83369525Y35454571D02*
X83466287Y35599714D01*
X83466287Y35599714D02*
X83659810Y35672285D01*
X83659810Y35672285D02*
X83853334Y35672285D01*
X83853334Y35672285D02*
X84046858Y34946571D01*
X83369525Y36107714D02*
X83369525Y36688286D01*
X84724191Y36325429D02*
X82982477Y36325429D01*
X82982477Y36325429D02*
X82788953Y36398000D01*
X82788953Y36398000D02*
X82692191Y36543143D01*
X82692191Y36543143D02*
X82692191Y36688286D01*
X84724191Y37196286D02*
X83369525Y37196286D01*
X82692191Y37196286D02*
X82788953Y37123714D01*
X82788953Y37123714D02*
X82885715Y37196286D01*
X82885715Y37196286D02*
X82788953Y37268857D01*
X82788953Y37268857D02*
X82692191Y37196286D01*
X82692191Y37196286D02*
X82885715Y37196286D01*
X84530668Y37922000D02*
X84627430Y37994571D01*
X84627430Y37994571D02*
X84724191Y37922000D01*
X84724191Y37922000D02*
X84627430Y37849428D01*
X84627430Y37849428D02*
X84530668Y37922000D01*
X84530668Y37922000D02*
X84724191Y37922000D01*
X84627430Y39300856D02*
X84724191Y39155714D01*
X84724191Y39155714D02*
X84724191Y38865428D01*
X84724191Y38865428D02*
X84627430Y38720285D01*
X84627430Y38720285D02*
X84530668Y38647714D01*
X84530668Y38647714D02*
X84337144Y38575142D01*
X84337144Y38575142D02*
X83756572Y38575142D01*
X83756572Y38575142D02*
X83563049Y38647714D01*
X83563049Y38647714D02*
X83466287Y38720285D01*
X83466287Y38720285D02*
X83369525Y38865428D01*
X83369525Y38865428D02*
X83369525Y39155714D01*
X83369525Y39155714D02*
X83466287Y39300856D01*
X84724191Y40171714D02*
X84627430Y40026571D01*
X84627430Y40026571D02*
X84530668Y39954000D01*
X84530668Y39954000D02*
X84337144Y39881428D01*
X84337144Y39881428D02*
X83756572Y39881428D01*
X83756572Y39881428D02*
X83563049Y39954000D01*
X83563049Y39954000D02*
X83466287Y40026571D01*
X83466287Y40026571D02*
X83369525Y40171714D01*
X83369525Y40171714D02*
X83369525Y40389428D01*
X83369525Y40389428D02*
X83466287Y40534571D01*
X83466287Y40534571D02*
X83563049Y40607142D01*
X83563049Y40607142D02*
X83756572Y40679714D01*
X83756572Y40679714D02*
X84337144Y40679714D01*
X84337144Y40679714D02*
X84530668Y40607142D01*
X84530668Y40607142D02*
X84627430Y40534571D01*
X84627430Y40534571D02*
X84724191Y40389428D01*
X84724191Y40389428D02*
X84724191Y40171714D01*
X84724191Y41332857D02*
X83369525Y41332857D01*
X83563049Y41332857D02*
X83466287Y41405428D01*
X83466287Y41405428D02*
X83369525Y41550571D01*
X83369525Y41550571D02*
X83369525Y41768285D01*
X83369525Y41768285D02*
X83466287Y41913428D01*
X83466287Y41913428D02*
X83659810Y41985999D01*
X83659810Y41985999D02*
X84724191Y41985999D01*
X83659810Y41985999D02*
X83466287Y42058571D01*
X83466287Y42058571D02*
X83369525Y42203714D01*
X83369525Y42203714D02*
X83369525Y42421428D01*
X83369525Y42421428D02*
X83466287Y42566571D01*
X83466287Y42566571D02*
X83659810Y42639142D01*
X83659810Y42639142D02*
X84724191Y42639142D01*
X82595430Y44453428D02*
X85208001Y43147142D01*
X84627430Y44888856D02*
X84724191Y45033999D01*
X84724191Y45033999D02*
X84724191Y45324285D01*
X84724191Y45324285D02*
X84627430Y45469428D01*
X84627430Y45469428D02*
X84433906Y45541999D01*
X84433906Y45541999D02*
X84337144Y45541999D01*
X84337144Y45541999D02*
X84143620Y45469428D01*
X84143620Y45469428D02*
X84046858Y45324285D01*
X84046858Y45324285D02*
X84046858Y45106570D01*
X84046858Y45106570D02*
X83950096Y44961428D01*
X83950096Y44961428D02*
X83756572Y44888856D01*
X83756572Y44888856D02*
X83659810Y44888856D01*
X83659810Y44888856D02*
X83466287Y44961428D01*
X83466287Y44961428D02*
X83369525Y45106570D01*
X83369525Y45106570D02*
X83369525Y45324285D01*
X83369525Y45324285D02*
X83466287Y45469428D01*
X82595430Y47283713D02*
X85208001Y45977427D01*
X84724191Y47791713D02*
X82692191Y47791713D01*
X84724191Y48444855D02*
X83659810Y48444855D01*
X83659810Y48444855D02*
X83466287Y48372284D01*
X83466287Y48372284D02*
X83369525Y48227141D01*
X83369525Y48227141D02*
X83369525Y48009427D01*
X83369525Y48009427D02*
X83466287Y47864284D01*
X83466287Y47864284D02*
X83563049Y47791713D01*
X84724191Y49968855D02*
X84724191Y49097998D01*
X84724191Y49533427D02*
X82692191Y49533427D01*
X82692191Y49533427D02*
X82982477Y49388284D01*
X82982477Y49388284D02*
X83176001Y49243141D01*
X83176001Y49243141D02*
X83272763Y49097998D01*
X84724191Y51420284D02*
X84724191Y50549427D01*
X84724191Y50984856D02*
X82692191Y50984856D01*
X82692191Y50984856D02*
X82982477Y50839713D01*
X82982477Y50839713D02*
X83176001Y50694570D01*
X83176001Y50694570D02*
X83272763Y50549427D01*
X82885715Y52000856D02*
X82788953Y52073428D01*
X82788953Y52073428D02*
X82692191Y52218570D01*
X82692191Y52218570D02*
X82692191Y52581428D01*
X82692191Y52581428D02*
X82788953Y52726570D01*
X82788953Y52726570D02*
X82885715Y52799142D01*
X82885715Y52799142D02*
X83079239Y52871713D01*
X83079239Y52871713D02*
X83272763Y52871713D01*
X83272763Y52871713D02*
X83563049Y52799142D01*
X83563049Y52799142D02*
X84724191Y51928285D01*
X84724191Y51928285D02*
X84724191Y52871713D01*
X83950096Y53524857D02*
X83950096Y54685999D01*
X84724191Y56209999D02*
X84724191Y55339142D01*
X84724191Y55774571D02*
X82692191Y55774571D01*
X82692191Y55774571D02*
X82982477Y55629428D01*
X82982477Y55629428D02*
X83176001Y55484285D01*
X83176001Y55484285D02*
X83272763Y55339142D01*
X82692191Y56718000D02*
X82692191Y57734000D01*
X82692191Y57734000D02*
X84724191Y57080857D01*
X4424191Y18158001D02*
X3069525Y18158001D01*
X3456572Y18158001D02*
X3263049Y18230572D01*
X3263049Y18230572D02*
X3166287Y18303143D01*
X3166287Y18303143D02*
X3069525Y18448286D01*
X3069525Y18448286D02*
X3069525Y18593429D01*
X3069525Y19754572D02*
X4424191Y19754572D01*
X3069525Y19101430D02*
X4133906Y19101430D01*
X4133906Y19101430D02*
X4327430Y19174001D01*
X4327430Y19174001D02*
X4424191Y19319144D01*
X4424191Y19319144D02*
X4424191Y19536858D01*
X4424191Y19536858D02*
X4327430Y19682001D01*
X4327430Y19682001D02*
X4230668Y19754572D01*
X4327430Y20407715D02*
X4424191Y20552858D01*
X4424191Y20552858D02*
X4424191Y20843144D01*
X4424191Y20843144D02*
X4327430Y20988287D01*
X4327430Y20988287D02*
X4133906Y21060858D01*
X4133906Y21060858D02*
X4037144Y21060858D01*
X4037144Y21060858D02*
X3843620Y20988287D01*
X3843620Y20988287D02*
X3746858Y20843144D01*
X3746858Y20843144D02*
X3746858Y20625429D01*
X3746858Y20625429D02*
X3650096Y20480287D01*
X3650096Y20480287D02*
X3456572Y20407715D01*
X3456572Y20407715D02*
X3359810Y20407715D01*
X3359810Y20407715D02*
X3166287Y20480287D01*
X3166287Y20480287D02*
X3069525Y20625429D01*
X3069525Y20625429D02*
X3069525Y20843144D01*
X3069525Y20843144D02*
X3166287Y20988287D01*
X3359810Y21714001D02*
X3359810Y22222001D01*
X4424191Y22439715D02*
X4424191Y21714001D01*
X4424191Y21714001D02*
X2392191Y21714001D01*
X2392191Y21714001D02*
X2392191Y22439715D01*
X3359810Y23600858D02*
X3359810Y23092858D01*
X4424191Y23092858D02*
X2392191Y23092858D01*
X2392191Y23092858D02*
X2392191Y23818572D01*
X4424191Y24399144D02*
X2392191Y24399144D01*
X4230668Y25124858D02*
X4327430Y25197429D01*
X4327430Y25197429D02*
X4424191Y25124858D01*
X4424191Y25124858D02*
X4327430Y25052286D01*
X4327430Y25052286D02*
X4230668Y25124858D01*
X4230668Y25124858D02*
X4424191Y25124858D01*
X4327430Y26503714D02*
X4424191Y26358572D01*
X4424191Y26358572D02*
X4424191Y26068286D01*
X4424191Y26068286D02*
X4327430Y25923143D01*
X4327430Y25923143D02*
X4230668Y25850572D01*
X4230668Y25850572D02*
X4037144Y25778000D01*
X4037144Y25778000D02*
X3456572Y25778000D01*
X3456572Y25778000D02*
X3263049Y25850572D01*
X3263049Y25850572D02*
X3166287Y25923143D01*
X3166287Y25923143D02*
X3069525Y26068286D01*
X3069525Y26068286D02*
X3069525Y26358572D01*
X3069525Y26358572D02*
X3166287Y26503714D01*
X4424191Y27374572D02*
X4327430Y27229429D01*
X4327430Y27229429D02*
X4230668Y27156858D01*
X4230668Y27156858D02*
X4037144Y27084286D01*
X4037144Y27084286D02*
X3456572Y27084286D01*
X3456572Y27084286D02*
X3263049Y27156858D01*
X3263049Y27156858D02*
X3166287Y27229429D01*
X3166287Y27229429D02*
X3069525Y27374572D01*
X3069525Y27374572D02*
X3069525Y27592286D01*
X3069525Y27592286D02*
X3166287Y27737429D01*
X3166287Y27737429D02*
X3263049Y27810000D01*
X3263049Y27810000D02*
X3456572Y27882572D01*
X3456572Y27882572D02*
X4037144Y27882572D01*
X4037144Y27882572D02*
X4230668Y27810000D01*
X4230668Y27810000D02*
X4327430Y27737429D01*
X4327430Y27737429D02*
X4424191Y27592286D01*
X4424191Y27592286D02*
X4424191Y27374572D01*
X4424191Y28535715D02*
X3069525Y28535715D01*
X3263049Y28535715D02*
X3166287Y28608286D01*
X3166287Y28608286D02*
X3069525Y28753429D01*
X3069525Y28753429D02*
X3069525Y28971143D01*
X3069525Y28971143D02*
X3166287Y29116286D01*
X3166287Y29116286D02*
X3359810Y29188857D01*
X3359810Y29188857D02*
X4424191Y29188857D01*
X3359810Y29188857D02*
X3166287Y29261429D01*
X3166287Y29261429D02*
X3069525Y29406572D01*
X3069525Y29406572D02*
X3069525Y29624286D01*
X3069525Y29624286D02*
X3166287Y29769429D01*
X3166287Y29769429D02*
X3359810Y29842000D01*
X3359810Y29842000D02*
X4424191Y29842000D01*
D12*
X10712644Y63173638D02*
X10712644Y62364115D01*
X10712644Y62364115D02*
X10760263Y62268877D01*
X10760263Y62268877D02*
X10807882Y62221257D01*
X10807882Y62221257D02*
X10903120Y62173638D01*
X10903120Y62173638D02*
X11093596Y62173638D01*
X11093596Y62173638D02*
X11188834Y62221257D01*
X11188834Y62221257D02*
X11236453Y62268877D01*
X11236453Y62268877D02*
X11284072Y62364115D01*
X11284072Y62364115D02*
X11284072Y63173638D01*
X12284072Y62173638D02*
X11712644Y62173638D01*
X11998358Y62173638D02*
X11998358Y63173638D01*
X11998358Y63173638D02*
X11903120Y63030781D01*
X11903120Y63030781D02*
X11807882Y62935543D01*
X11807882Y62935543D02*
X11712644Y62887924D01*
D13*
X47230652Y85573623D02*
X47159224Y85645051D01*
X47159224Y85645051D02*
X47087795Y85787908D01*
X47087795Y85787908D02*
X47087795Y86145051D01*
X47087795Y86145051D02*
X47159224Y86287908D01*
X47159224Y86287908D02*
X47230652Y86359337D01*
X47230652Y86359337D02*
X47373509Y86430766D01*
X47373509Y86430766D02*
X47516367Y86430766D01*
X47516367Y86430766D02*
X47730652Y86359337D01*
X47730652Y86359337D02*
X48587795Y85502194D01*
X48587795Y85502194D02*
X48587795Y86430766D01*
X47587795Y87716479D02*
X48587795Y87716479D01*
X47016367Y87359337D02*
X48087795Y87002194D01*
X48087795Y87002194D02*
X48087795Y87930765D01*
X39087795Y90645052D02*
X39087795Y89787909D01*
X39087795Y90216480D02*
X37587795Y90216480D01*
X37587795Y90216480D02*
X37802081Y90073623D01*
X37802081Y90073623D02*
X37944938Y89930766D01*
X37944938Y89930766D02*
X38016367Y89787909D01*
X37730652Y81073623D02*
X37659224Y81145051D01*
X37659224Y81145051D02*
X37587795Y81287908D01*
X37587795Y81287908D02*
X37587795Y81645051D01*
X37587795Y81645051D02*
X37659224Y81787908D01*
X37659224Y81787908D02*
X37730652Y81859337D01*
X37730652Y81859337D02*
X37873509Y81930766D01*
X37873509Y81930766D02*
X38016367Y81930766D01*
X38016367Y81930766D02*
X38230652Y81859337D01*
X38230652Y81859337D02*
X39087795Y81002194D01*
X39087795Y81002194D02*
X39087795Y81930766D01*
X37587795Y83287908D02*
X37587795Y82573622D01*
X37587795Y82573622D02*
X38302081Y82502194D01*
X38302081Y82502194D02*
X38230652Y82573622D01*
X38230652Y82573622D02*
X38159224Y82716479D01*
X38159224Y82716479D02*
X38159224Y83073622D01*
X38159224Y83073622D02*
X38230652Y83216479D01*
X38230652Y83216479D02*
X38302081Y83287908D01*
X38302081Y83287908D02*
X38444938Y83359337D01*
X38444938Y83359337D02*
X38802081Y83359337D01*
X38802081Y83359337D02*
X38944938Y83287908D01*
X38944938Y83287908D02*
X39016367Y83216479D01*
X39016367Y83216479D02*
X39087795Y83073622D01*
X39087795Y83073622D02*
X39087795Y82716479D01*
X39087795Y82716479D02*
X39016367Y82573622D01*
X39016367Y82573622D02*
X38944938Y82502194D01*
X79083528Y73571429D02*
X80083528Y73571429D01*
X78512100Y73214287D02*
X79583528Y72857144D01*
X79583528Y72857144D02*
X79583528Y73785715D01*
X80083528Y74428572D02*
X80083528Y74714286D01*
X80083528Y74714286D02*
X80012100Y74857143D01*
X80012100Y74857143D02*
X79940671Y74928572D01*
X79940671Y74928572D02*
X79726385Y75071429D01*
X79726385Y75071429D02*
X79440671Y75142858D01*
X79440671Y75142858D02*
X78869242Y75142858D01*
X78869242Y75142858D02*
X78726385Y75071429D01*
X78726385Y75071429D02*
X78654957Y75000000D01*
X78654957Y75000000D02*
X78583528Y74857143D01*
X78583528Y74857143D02*
X78583528Y74571429D01*
X78583528Y74571429D02*
X78654957Y74428572D01*
X78654957Y74428572D02*
X78726385Y74357143D01*
X78726385Y74357143D02*
X78869242Y74285715D01*
X78869242Y74285715D02*
X79226385Y74285715D01*
X79226385Y74285715D02*
X79369242Y74357143D01*
X79369242Y74357143D02*
X79440671Y74428572D01*
X79440671Y74428572D02*
X79512100Y74571429D01*
X79512100Y74571429D02*
X79512100Y74857143D01*
X79512100Y74857143D02*
X79440671Y75000000D01*
X79440671Y75000000D02*
X79369242Y75071429D01*
X79369242Y75071429D02*
X79226385Y75142858D01*
X23687795Y71359337D02*
X23687795Y70645051D01*
X23687795Y70645051D02*
X24402081Y70573623D01*
X24402081Y70573623D02*
X24330652Y70645051D01*
X24330652Y70645051D02*
X24259224Y70787908D01*
X24259224Y70787908D02*
X24259224Y71145051D01*
X24259224Y71145051D02*
X24330652Y71287908D01*
X24330652Y71287908D02*
X24402081Y71359337D01*
X24402081Y71359337D02*
X24544938Y71430766D01*
X24544938Y71430766D02*
X24902081Y71430766D01*
X24902081Y71430766D02*
X25044938Y71359337D01*
X25044938Y71359337D02*
X25116367Y71287908D01*
X25116367Y71287908D02*
X25187795Y71145051D01*
X25187795Y71145051D02*
X25187795Y70787908D01*
X25187795Y70787908D02*
X25116367Y70645051D01*
X25116367Y70645051D02*
X25044938Y70573623D01*
X23830652Y72002194D02*
X23759224Y72073622D01*
X23759224Y72073622D02*
X23687795Y72216479D01*
X23687795Y72216479D02*
X23687795Y72573622D01*
X23687795Y72573622D02*
X23759224Y72716479D01*
X23759224Y72716479D02*
X23830652Y72787908D01*
X23830652Y72787908D02*
X23973509Y72859337D01*
X23973509Y72859337D02*
X24116367Y72859337D01*
X24116367Y72859337D02*
X24330652Y72787908D01*
X24330652Y72787908D02*
X25187795Y71930765D01*
X25187795Y71930765D02*
X25187795Y72859337D01*
X48587795Y89930766D02*
X48587795Y89073623D01*
X48587795Y89502194D02*
X47087795Y89502194D01*
X47087795Y89502194D02*
X47302081Y89359337D01*
X47302081Y89359337D02*
X47444938Y89216480D01*
X47444938Y89216480D02*
X47516367Y89073623D01*
X47230652Y90502194D02*
X47159224Y90573622D01*
X47159224Y90573622D02*
X47087795Y90716479D01*
X47087795Y90716479D02*
X47087795Y91073622D01*
X47087795Y91073622D02*
X47159224Y91216479D01*
X47159224Y91216479D02*
X47230652Y91287908D01*
X47230652Y91287908D02*
X47373509Y91359337D01*
X47373509Y91359337D02*
X47516367Y91359337D01*
X47516367Y91359337D02*
X47730652Y91287908D01*
X47730652Y91287908D02*
X48587795Y90430765D01*
X48587795Y90430765D02*
X48587795Y91359337D01*
X35487795Y71187908D02*
X36487795Y71187908D01*
X34916367Y70830766D02*
X35987795Y70473623D01*
X35987795Y70473623D02*
X35987795Y71402194D01*
X36487795Y72045051D02*
X36487795Y72330765D01*
X36487795Y72330765D02*
X36416367Y72473622D01*
X36416367Y72473622D02*
X36344938Y72545051D01*
X36344938Y72545051D02*
X36130652Y72687908D01*
X36130652Y72687908D02*
X35844938Y72759337D01*
X35844938Y72759337D02*
X35273509Y72759337D01*
X35273509Y72759337D02*
X35130652Y72687908D01*
X35130652Y72687908D02*
X35059224Y72616479D01*
X35059224Y72616479D02*
X34987795Y72473622D01*
X34987795Y72473622D02*
X34987795Y72187908D01*
X34987795Y72187908D02*
X35059224Y72045051D01*
X35059224Y72045051D02*
X35130652Y71973622D01*
X35130652Y71973622D02*
X35273509Y71902194D01*
X35273509Y71902194D02*
X35630652Y71902194D01*
X35630652Y71902194D02*
X35773509Y71973622D01*
X35773509Y71973622D02*
X35844938Y72045051D01*
X35844938Y72045051D02*
X35916367Y72187908D01*
X35916367Y72187908D02*
X35916367Y72473622D01*
X35916367Y72473622D02*
X35844938Y72616479D01*
X35844938Y72616479D02*
X35773509Y72687908D01*
X35773509Y72687908D02*
X35630652Y72759337D01*
X6587795Y77787908D02*
X7587795Y77787908D01*
X6016367Y77430766D02*
X7087795Y77073623D01*
X7087795Y77073623D02*
X7087795Y78002194D01*
X6730652Y78787908D02*
X6659224Y78645051D01*
X6659224Y78645051D02*
X6587795Y78573622D01*
X6587795Y78573622D02*
X6444938Y78502194D01*
X6444938Y78502194D02*
X6373509Y78502194D01*
X6373509Y78502194D02*
X6230652Y78573622D01*
X6230652Y78573622D02*
X6159224Y78645051D01*
X6159224Y78645051D02*
X6087795Y78787908D01*
X6087795Y78787908D02*
X6087795Y79073622D01*
X6087795Y79073622D02*
X6159224Y79216479D01*
X6159224Y79216479D02*
X6230652Y79287908D01*
X6230652Y79287908D02*
X6373509Y79359337D01*
X6373509Y79359337D02*
X6444938Y79359337D01*
X6444938Y79359337D02*
X6587795Y79287908D01*
X6587795Y79287908D02*
X6659224Y79216479D01*
X6659224Y79216479D02*
X6730652Y79073622D01*
X6730652Y79073622D02*
X6730652Y78787908D01*
X6730652Y78787908D02*
X6802081Y78645051D01*
X6802081Y78645051D02*
X6873509Y78573622D01*
X6873509Y78573622D02*
X7016367Y78502194D01*
X7016367Y78502194D02*
X7302081Y78502194D01*
X7302081Y78502194D02*
X7444938Y78573622D01*
X7444938Y78573622D02*
X7516367Y78645051D01*
X7516367Y78645051D02*
X7587795Y78787908D01*
X7587795Y78787908D02*
X7587795Y79073622D01*
X7587795Y79073622D02*
X7516367Y79216479D01*
X7516367Y79216479D02*
X7444938Y79287908D01*
X7444938Y79287908D02*
X7302081Y79359337D01*
X7302081Y79359337D02*
X7016367Y79359337D01*
X7016367Y79359337D02*
X6873509Y79287908D01*
X6873509Y79287908D02*
X6802081Y79216479D01*
X6802081Y79216479D02*
X6730652Y79073622D01*
X78730652Y81073623D02*
X78659224Y81145051D01*
X78659224Y81145051D02*
X78587795Y81287908D01*
X78587795Y81287908D02*
X78587795Y81645051D01*
X78587795Y81645051D02*
X78659224Y81787908D01*
X78659224Y81787908D02*
X78730652Y81859337D01*
X78730652Y81859337D02*
X78873509Y81930766D01*
X78873509Y81930766D02*
X79016367Y81930766D01*
X79016367Y81930766D02*
X79230652Y81859337D01*
X79230652Y81859337D02*
X80087795Y81002194D01*
X80087795Y81002194D02*
X80087795Y81930766D01*
X78587795Y83287908D02*
X78587795Y82573622D01*
X78587795Y82573622D02*
X79302081Y82502194D01*
X79302081Y82502194D02*
X79230652Y82573622D01*
X79230652Y82573622D02*
X79159224Y82716479D01*
X79159224Y82716479D02*
X79159224Y83073622D01*
X79159224Y83073622D02*
X79230652Y83216479D01*
X79230652Y83216479D02*
X79302081Y83287908D01*
X79302081Y83287908D02*
X79444938Y83359337D01*
X79444938Y83359337D02*
X79802081Y83359337D01*
X79802081Y83359337D02*
X79944938Y83287908D01*
X79944938Y83287908D02*
X80016367Y83216479D01*
X80016367Y83216479D02*
X80087795Y83073622D01*
X80087795Y83073622D02*
X80087795Y82716479D01*
X80087795Y82716479D02*
X80016367Y82573622D01*
X80016367Y82573622D02*
X79944938Y82502194D01*
X49687795Y71359337D02*
X49687795Y70645051D01*
X49687795Y70645051D02*
X50402081Y70573623D01*
X50402081Y70573623D02*
X50330652Y70645051D01*
X50330652Y70645051D02*
X50259224Y70787908D01*
X50259224Y70787908D02*
X50259224Y71145051D01*
X50259224Y71145051D02*
X50330652Y71287908D01*
X50330652Y71287908D02*
X50402081Y71359337D01*
X50402081Y71359337D02*
X50544938Y71430766D01*
X50544938Y71430766D02*
X50902081Y71430766D01*
X50902081Y71430766D02*
X51044938Y71359337D01*
X51044938Y71359337D02*
X51116367Y71287908D01*
X51116367Y71287908D02*
X51187795Y71145051D01*
X51187795Y71145051D02*
X51187795Y70787908D01*
X51187795Y70787908D02*
X51116367Y70645051D01*
X51116367Y70645051D02*
X51044938Y70573623D01*
X49687795Y72716479D02*
X49687795Y72430765D01*
X49687795Y72430765D02*
X49759224Y72287908D01*
X49759224Y72287908D02*
X49830652Y72216479D01*
X49830652Y72216479D02*
X50044938Y72073622D01*
X50044938Y72073622D02*
X50330652Y72002194D01*
X50330652Y72002194D02*
X50902081Y72002194D01*
X50902081Y72002194D02*
X51044938Y72073622D01*
X51044938Y72073622D02*
X51116367Y72145051D01*
X51116367Y72145051D02*
X51187795Y72287908D01*
X51187795Y72287908D02*
X51187795Y72573622D01*
X51187795Y72573622D02*
X51116367Y72716479D01*
X51116367Y72716479D02*
X51044938Y72787908D01*
X51044938Y72787908D02*
X50902081Y72859337D01*
X50902081Y72859337D02*
X50544938Y72859337D01*
X50544938Y72859337D02*
X50402081Y72787908D01*
X50402081Y72787908D02*
X50330652Y72716479D01*
X50330652Y72716479D02*
X50259224Y72573622D01*
X50259224Y72573622D02*
X50259224Y72287908D01*
X50259224Y72287908D02*
X50330652Y72145051D01*
X50330652Y72145051D02*
X50402081Y72073622D01*
X50402081Y72073622D02*
X50544938Y72002194D01*
X12487795Y71359337D02*
X12487795Y70645051D01*
X12487795Y70645051D02*
X13202081Y70573623D01*
X13202081Y70573623D02*
X13130652Y70645051D01*
X13130652Y70645051D02*
X13059224Y70787908D01*
X13059224Y70787908D02*
X13059224Y71145051D01*
X13059224Y71145051D02*
X13130652Y71287908D01*
X13130652Y71287908D02*
X13202081Y71359337D01*
X13202081Y71359337D02*
X13344938Y71430766D01*
X13344938Y71430766D02*
X13702081Y71430766D01*
X13702081Y71430766D02*
X13844938Y71359337D01*
X13844938Y71359337D02*
X13916367Y71287908D01*
X13916367Y71287908D02*
X13987795Y71145051D01*
X13987795Y71145051D02*
X13987795Y70787908D01*
X13987795Y70787908D02*
X13916367Y70645051D01*
X13916367Y70645051D02*
X13844938Y70573623D01*
X12487795Y72787908D02*
X12487795Y72073622D01*
X12487795Y72073622D02*
X13202081Y72002194D01*
X13202081Y72002194D02*
X13130652Y72073622D01*
X13130652Y72073622D02*
X13059224Y72216479D01*
X13059224Y72216479D02*
X13059224Y72573622D01*
X13059224Y72573622D02*
X13130652Y72716479D01*
X13130652Y72716479D02*
X13202081Y72787908D01*
X13202081Y72787908D02*
X13344938Y72859337D01*
X13344938Y72859337D02*
X13702081Y72859337D01*
X13702081Y72859337D02*
X13844938Y72787908D01*
X13844938Y72787908D02*
X13916367Y72716479D01*
X13916367Y72716479D02*
X13987795Y72573622D01*
X13987795Y72573622D02*
X13987795Y72216479D01*
X13987795Y72216479D02*
X13916367Y72073622D01*
X13916367Y72073622D02*
X13844938Y72002194D01*
X78587795Y76502194D02*
X78587795Y77430766D01*
X78587795Y77430766D02*
X79159224Y76930766D01*
X79159224Y76930766D02*
X79159224Y77145051D01*
X79159224Y77145051D02*
X79230652Y77287908D01*
X79230652Y77287908D02*
X79302081Y77359337D01*
X79302081Y77359337D02*
X79444938Y77430766D01*
X79444938Y77430766D02*
X79802081Y77430766D01*
X79802081Y77430766D02*
X79944938Y77359337D01*
X79944938Y77359337D02*
X80016367Y77287908D01*
X80016367Y77287908D02*
X80087795Y77145051D01*
X80087795Y77145051D02*
X80087795Y76716480D01*
X80087795Y76716480D02*
X80016367Y76573623D01*
X80016367Y76573623D02*
X79944938Y76502194D01*
X78587795Y77930765D02*
X78587795Y78930765D01*
X78587795Y78930765D02*
X80087795Y78287908D01*
X57187795Y71359337D02*
X57187795Y70645051D01*
X57187795Y70645051D02*
X57902081Y70573623D01*
X57902081Y70573623D02*
X57830652Y70645051D01*
X57830652Y70645051D02*
X57759224Y70787908D01*
X57759224Y70787908D02*
X57759224Y71145051D01*
X57759224Y71145051D02*
X57830652Y71287908D01*
X57830652Y71287908D02*
X57902081Y71359337D01*
X57902081Y71359337D02*
X58044938Y71430766D01*
X58044938Y71430766D02*
X58402081Y71430766D01*
X58402081Y71430766D02*
X58544938Y71359337D01*
X58544938Y71359337D02*
X58616367Y71287908D01*
X58616367Y71287908D02*
X58687795Y71145051D01*
X58687795Y71145051D02*
X58687795Y70787908D01*
X58687795Y70787908D02*
X58616367Y70645051D01*
X58616367Y70645051D02*
X58544938Y70573623D01*
X57687795Y72716479D02*
X58687795Y72716479D01*
X57116367Y72359337D02*
X58187795Y72002194D01*
X58187795Y72002194D02*
X58187795Y72930765D01*
X8687795Y71359337D02*
X8687795Y70645051D01*
X8687795Y70645051D02*
X9402081Y70573623D01*
X9402081Y70573623D02*
X9330652Y70645051D01*
X9330652Y70645051D02*
X9259224Y70787908D01*
X9259224Y70787908D02*
X9259224Y71145051D01*
X9259224Y71145051D02*
X9330652Y71287908D01*
X9330652Y71287908D02*
X9402081Y71359337D01*
X9402081Y71359337D02*
X9544938Y71430766D01*
X9544938Y71430766D02*
X9902081Y71430766D01*
X9902081Y71430766D02*
X10044938Y71359337D01*
X10044938Y71359337D02*
X10116367Y71287908D01*
X10116367Y71287908D02*
X10187795Y71145051D01*
X10187795Y71145051D02*
X10187795Y70787908D01*
X10187795Y70787908D02*
X10116367Y70645051D01*
X10116367Y70645051D02*
X10044938Y70573623D01*
X8687795Y72716479D02*
X8687795Y72430765D01*
X8687795Y72430765D02*
X8759224Y72287908D01*
X8759224Y72287908D02*
X8830652Y72216479D01*
X8830652Y72216479D02*
X9044938Y72073622D01*
X9044938Y72073622D02*
X9330652Y72002194D01*
X9330652Y72002194D02*
X9902081Y72002194D01*
X9902081Y72002194D02*
X10044938Y72073622D01*
X10044938Y72073622D02*
X10116367Y72145051D01*
X10116367Y72145051D02*
X10187795Y72287908D01*
X10187795Y72287908D02*
X10187795Y72573622D01*
X10187795Y72573622D02*
X10116367Y72716479D01*
X10116367Y72716479D02*
X10044938Y72787908D01*
X10044938Y72787908D02*
X9902081Y72859337D01*
X9902081Y72859337D02*
X9544938Y72859337D01*
X9544938Y72859337D02*
X9402081Y72787908D01*
X9402081Y72787908D02*
X9330652Y72716479D01*
X9330652Y72716479D02*
X9259224Y72573622D01*
X9259224Y72573622D02*
X9259224Y72287908D01*
X9259224Y72287908D02*
X9330652Y72145051D01*
X9330652Y72145051D02*
X9402081Y72073622D01*
X9402081Y72073622D02*
X9544938Y72002194D01*
X60987795Y71359337D02*
X60987795Y70645051D01*
X60987795Y70645051D02*
X61702081Y70573623D01*
X61702081Y70573623D02*
X61630652Y70645051D01*
X61630652Y70645051D02*
X61559224Y70787908D01*
X61559224Y70787908D02*
X61559224Y71145051D01*
X61559224Y71145051D02*
X61630652Y71287908D01*
X61630652Y71287908D02*
X61702081Y71359337D01*
X61702081Y71359337D02*
X61844938Y71430766D01*
X61844938Y71430766D02*
X62202081Y71430766D01*
X62202081Y71430766D02*
X62344938Y71359337D01*
X62344938Y71359337D02*
X62416367Y71287908D01*
X62416367Y71287908D02*
X62487795Y71145051D01*
X62487795Y71145051D02*
X62487795Y70787908D01*
X62487795Y70787908D02*
X62416367Y70645051D01*
X62416367Y70645051D02*
X62344938Y70573623D01*
X60987795Y71930765D02*
X60987795Y72859337D01*
X60987795Y72859337D02*
X61559224Y72359337D01*
X61559224Y72359337D02*
X61559224Y72573622D01*
X61559224Y72573622D02*
X61630652Y72716479D01*
X61630652Y72716479D02*
X61702081Y72787908D01*
X61702081Y72787908D02*
X61844938Y72859337D01*
X61844938Y72859337D02*
X62202081Y72859337D01*
X62202081Y72859337D02*
X62344938Y72787908D01*
X62344938Y72787908D02*
X62416367Y72716479D01*
X62416367Y72716479D02*
X62487795Y72573622D01*
X62487795Y72573622D02*
X62487795Y72145051D01*
X62487795Y72145051D02*
X62416367Y72002194D01*
X62416367Y72002194D02*
X62344938Y71930765D01*
X27587795Y71359337D02*
X27587795Y70645051D01*
X27587795Y70645051D02*
X28302081Y70573623D01*
X28302081Y70573623D02*
X28230652Y70645051D01*
X28230652Y70645051D02*
X28159224Y70787908D01*
X28159224Y70787908D02*
X28159224Y71145051D01*
X28159224Y71145051D02*
X28230652Y71287908D01*
X28230652Y71287908D02*
X28302081Y71359337D01*
X28302081Y71359337D02*
X28444938Y71430766D01*
X28444938Y71430766D02*
X28802081Y71430766D01*
X28802081Y71430766D02*
X28944938Y71359337D01*
X28944938Y71359337D02*
X29016367Y71287908D01*
X29016367Y71287908D02*
X29087795Y71145051D01*
X29087795Y71145051D02*
X29087795Y70787908D01*
X29087795Y70787908D02*
X29016367Y70645051D01*
X29016367Y70645051D02*
X28944938Y70573623D01*
X29087795Y72859337D02*
X29087795Y72002194D01*
X29087795Y72430765D02*
X27587795Y72430765D01*
X27587795Y72430765D02*
X27802081Y72287908D01*
X27802081Y72287908D02*
X27944938Y72145051D01*
X27944938Y72145051D02*
X28016367Y72002194D01*
X19987795Y71359337D02*
X19987795Y70645051D01*
X19987795Y70645051D02*
X20702081Y70573623D01*
X20702081Y70573623D02*
X20630652Y70645051D01*
X20630652Y70645051D02*
X20559224Y70787908D01*
X20559224Y70787908D02*
X20559224Y71145051D01*
X20559224Y71145051D02*
X20630652Y71287908D01*
X20630652Y71287908D02*
X20702081Y71359337D01*
X20702081Y71359337D02*
X20844938Y71430766D01*
X20844938Y71430766D02*
X21202081Y71430766D01*
X21202081Y71430766D02*
X21344938Y71359337D01*
X21344938Y71359337D02*
X21416367Y71287908D01*
X21416367Y71287908D02*
X21487795Y71145051D01*
X21487795Y71145051D02*
X21487795Y70787908D01*
X21487795Y70787908D02*
X21416367Y70645051D01*
X21416367Y70645051D02*
X21344938Y70573623D01*
X19987795Y71930765D02*
X19987795Y72859337D01*
X19987795Y72859337D02*
X20559224Y72359337D01*
X20559224Y72359337D02*
X20559224Y72573622D01*
X20559224Y72573622D02*
X20630652Y72716479D01*
X20630652Y72716479D02*
X20702081Y72787908D01*
X20702081Y72787908D02*
X20844938Y72859337D01*
X20844938Y72859337D02*
X21202081Y72859337D01*
X21202081Y72859337D02*
X21344938Y72787908D01*
X21344938Y72787908D02*
X21416367Y72716479D01*
X21416367Y72716479D02*
X21487795Y72573622D01*
X21487795Y72573622D02*
X21487795Y72145051D01*
X21487795Y72145051D02*
X21416367Y72002194D01*
X21416367Y72002194D02*
X21344938Y71930765D01*
X68587795Y71359337D02*
X68587795Y70645051D01*
X68587795Y70645051D02*
X69302081Y70573623D01*
X69302081Y70573623D02*
X69230652Y70645051D01*
X69230652Y70645051D02*
X69159224Y70787908D01*
X69159224Y70787908D02*
X69159224Y71145051D01*
X69159224Y71145051D02*
X69230652Y71287908D01*
X69230652Y71287908D02*
X69302081Y71359337D01*
X69302081Y71359337D02*
X69444938Y71430766D01*
X69444938Y71430766D02*
X69802081Y71430766D01*
X69802081Y71430766D02*
X69944938Y71359337D01*
X69944938Y71359337D02*
X70016367Y71287908D01*
X70016367Y71287908D02*
X70087795Y71145051D01*
X70087795Y71145051D02*
X70087795Y70787908D01*
X70087795Y70787908D02*
X70016367Y70645051D01*
X70016367Y70645051D02*
X69944938Y70573623D01*
X70087795Y72859337D02*
X70087795Y72002194D01*
X70087795Y72430765D02*
X68587795Y72430765D01*
X68587795Y72430765D02*
X68802081Y72287908D01*
X68802081Y72287908D02*
X68944938Y72145051D01*
X68944938Y72145051D02*
X69016367Y72002194D01*
X6230652Y85573623D02*
X6159224Y85645051D01*
X6159224Y85645051D02*
X6087795Y85787908D01*
X6087795Y85787908D02*
X6087795Y86145051D01*
X6087795Y86145051D02*
X6159224Y86287908D01*
X6159224Y86287908D02*
X6230652Y86359337D01*
X6230652Y86359337D02*
X6373509Y86430766D01*
X6373509Y86430766D02*
X6516367Y86430766D01*
X6516367Y86430766D02*
X6730652Y86359337D01*
X6730652Y86359337D02*
X7587795Y85502194D01*
X7587795Y85502194D02*
X7587795Y86430766D01*
X6587795Y87716479D02*
X7587795Y87716479D01*
X6016367Y87359337D02*
X7087795Y87002194D01*
X7087795Y87002194D02*
X7087795Y87930765D01*
X31187795Y71359337D02*
X31187795Y70645051D01*
X31187795Y70645051D02*
X31902081Y70573623D01*
X31902081Y70573623D02*
X31830652Y70645051D01*
X31830652Y70645051D02*
X31759224Y70787908D01*
X31759224Y70787908D02*
X31759224Y71145051D01*
X31759224Y71145051D02*
X31830652Y71287908D01*
X31830652Y71287908D02*
X31902081Y71359337D01*
X31902081Y71359337D02*
X32044938Y71430766D01*
X32044938Y71430766D02*
X32402081Y71430766D01*
X32402081Y71430766D02*
X32544938Y71359337D01*
X32544938Y71359337D02*
X32616367Y71287908D01*
X32616367Y71287908D02*
X32687795Y71145051D01*
X32687795Y71145051D02*
X32687795Y70787908D01*
X32687795Y70787908D02*
X32616367Y70645051D01*
X32616367Y70645051D02*
X32544938Y70573623D01*
X31187795Y72359337D02*
X31187795Y72502194D01*
X31187795Y72502194D02*
X31259224Y72645051D01*
X31259224Y72645051D02*
X31330652Y72716479D01*
X31330652Y72716479D02*
X31473509Y72787908D01*
X31473509Y72787908D02*
X31759224Y72859337D01*
X31759224Y72859337D02*
X32116367Y72859337D01*
X32116367Y72859337D02*
X32402081Y72787908D01*
X32402081Y72787908D02*
X32544938Y72716479D01*
X32544938Y72716479D02*
X32616367Y72645051D01*
X32616367Y72645051D02*
X32687795Y72502194D01*
X32687795Y72502194D02*
X32687795Y72359337D01*
X32687795Y72359337D02*
X32616367Y72216479D01*
X32616367Y72216479D02*
X32544938Y72145051D01*
X32544938Y72145051D02*
X32402081Y72073622D01*
X32402081Y72073622D02*
X32116367Y72002194D01*
X32116367Y72002194D02*
X31759224Y72002194D01*
X31759224Y72002194D02*
X31473509Y72073622D01*
X31473509Y72073622D02*
X31330652Y72145051D01*
X31330652Y72145051D02*
X31259224Y72216479D01*
X31259224Y72216479D02*
X31187795Y72359337D01*
X80087795Y86430766D02*
X80087795Y85573623D01*
X80087795Y86002194D02*
X78587795Y86002194D01*
X78587795Y86002194D02*
X78802081Y85859337D01*
X78802081Y85859337D02*
X78944938Y85716480D01*
X78944938Y85716480D02*
X79016367Y85573623D01*
X78587795Y86930765D02*
X78587795Y87859337D01*
X78587795Y87859337D02*
X79159224Y87359337D01*
X79159224Y87359337D02*
X79159224Y87573622D01*
X79159224Y87573622D02*
X79230652Y87716479D01*
X79230652Y87716479D02*
X79302081Y87787908D01*
X79302081Y87787908D02*
X79444938Y87859337D01*
X79444938Y87859337D02*
X79802081Y87859337D01*
X79802081Y87859337D02*
X79944938Y87787908D01*
X79944938Y87787908D02*
X80016367Y87716479D01*
X80016367Y87716479D02*
X80087795Y87573622D01*
X80087795Y87573622D02*
X80087795Y87145051D01*
X80087795Y87145051D02*
X80016367Y87002194D01*
X80016367Y87002194D02*
X79944938Y86930765D01*
X37587795Y76502194D02*
X37587795Y77430766D01*
X37587795Y77430766D02*
X38159224Y76930766D01*
X38159224Y76930766D02*
X38159224Y77145051D01*
X38159224Y77145051D02*
X38230652Y77287908D01*
X38230652Y77287908D02*
X38302081Y77359337D01*
X38302081Y77359337D02*
X38444938Y77430766D01*
X38444938Y77430766D02*
X38802081Y77430766D01*
X38802081Y77430766D02*
X38944938Y77359337D01*
X38944938Y77359337D02*
X39016367Y77287908D01*
X39016367Y77287908D02*
X39087795Y77145051D01*
X39087795Y77145051D02*
X39087795Y76716480D01*
X39087795Y76716480D02*
X39016367Y76573623D01*
X39016367Y76573623D02*
X38944938Y76502194D01*
X37587795Y77930765D02*
X37587795Y78930765D01*
X37587795Y78930765D02*
X39087795Y78287908D01*
X39087795Y86430766D02*
X39087795Y85573623D01*
X39087795Y86002194D02*
X37587795Y86002194D01*
X37587795Y86002194D02*
X37802081Y85859337D01*
X37802081Y85859337D02*
X37944938Y85716480D01*
X37944938Y85716480D02*
X38016367Y85573623D01*
X37587795Y86930765D02*
X37587795Y87859337D01*
X37587795Y87859337D02*
X38159224Y87359337D01*
X38159224Y87359337D02*
X38159224Y87573622D01*
X38159224Y87573622D02*
X38230652Y87716479D01*
X38230652Y87716479D02*
X38302081Y87787908D01*
X38302081Y87787908D02*
X38444938Y87859337D01*
X38444938Y87859337D02*
X38802081Y87859337D01*
X38802081Y87859337D02*
X38944938Y87787908D01*
X38944938Y87787908D02*
X39016367Y87716479D01*
X39016367Y87716479D02*
X39087795Y87573622D01*
X39087795Y87573622D02*
X39087795Y87145051D01*
X39087795Y87145051D02*
X39016367Y87002194D01*
X39016367Y87002194D02*
X38944938Y86930765D01*
X7587795Y89930766D02*
X7587795Y89073623D01*
X7587795Y89502194D02*
X6087795Y89502194D01*
X6087795Y89502194D02*
X6302081Y89359337D01*
X6302081Y89359337D02*
X6444938Y89216480D01*
X6444938Y89216480D02*
X6516367Y89073623D01*
X6230652Y90502194D02*
X6159224Y90573622D01*
X6159224Y90573622D02*
X6087795Y90716479D01*
X6087795Y90716479D02*
X6087795Y91073622D01*
X6087795Y91073622D02*
X6159224Y91216479D01*
X6159224Y91216479D02*
X6230652Y91287908D01*
X6230652Y91287908D02*
X6373509Y91359337D01*
X6373509Y91359337D02*
X6516367Y91359337D01*
X6516367Y91359337D02*
X6730652Y91287908D01*
X6730652Y91287908D02*
X7587795Y90430765D01*
X7587795Y90430765D02*
X7587795Y91359337D01*
X47087795Y80502194D02*
X47087795Y81430766D01*
X47087795Y81430766D02*
X47659224Y80930766D01*
X47659224Y80930766D02*
X47659224Y81145051D01*
X47659224Y81145051D02*
X47730652Y81287908D01*
X47730652Y81287908D02*
X47802081Y81359337D01*
X47802081Y81359337D02*
X47944938Y81430766D01*
X47944938Y81430766D02*
X48302081Y81430766D01*
X48302081Y81430766D02*
X48444938Y81359337D01*
X48444938Y81359337D02*
X48516367Y81287908D01*
X48516367Y81287908D02*
X48587795Y81145051D01*
X48587795Y81145051D02*
X48587795Y80716480D01*
X48587795Y80716480D02*
X48516367Y80573623D01*
X48516367Y80573623D02*
X48444938Y80502194D01*
X47087795Y82716479D02*
X47087795Y82430765D01*
X47087795Y82430765D02*
X47159224Y82287908D01*
X47159224Y82287908D02*
X47230652Y82216479D01*
X47230652Y82216479D02*
X47444938Y82073622D01*
X47444938Y82073622D02*
X47730652Y82002194D01*
X47730652Y82002194D02*
X48302081Y82002194D01*
X48302081Y82002194D02*
X48444938Y82073622D01*
X48444938Y82073622D02*
X48516367Y82145051D01*
X48516367Y82145051D02*
X48587795Y82287908D01*
X48587795Y82287908D02*
X48587795Y82573622D01*
X48587795Y82573622D02*
X48516367Y82716479D01*
X48516367Y82716479D02*
X48444938Y82787908D01*
X48444938Y82787908D02*
X48302081Y82859337D01*
X48302081Y82859337D02*
X47944938Y82859337D01*
X47944938Y82859337D02*
X47802081Y82787908D01*
X47802081Y82787908D02*
X47730652Y82716479D01*
X47730652Y82716479D02*
X47659224Y82573622D01*
X47659224Y82573622D02*
X47659224Y82287908D01*
X47659224Y82287908D02*
X47730652Y82145051D01*
X47730652Y82145051D02*
X47802081Y82073622D01*
X47802081Y82073622D02*
X47944938Y82002194D01*
X16187795Y71359337D02*
X16187795Y70645051D01*
X16187795Y70645051D02*
X16902081Y70573623D01*
X16902081Y70573623D02*
X16830652Y70645051D01*
X16830652Y70645051D02*
X16759224Y70787908D01*
X16759224Y70787908D02*
X16759224Y71145051D01*
X16759224Y71145051D02*
X16830652Y71287908D01*
X16830652Y71287908D02*
X16902081Y71359337D01*
X16902081Y71359337D02*
X17044938Y71430766D01*
X17044938Y71430766D02*
X17402081Y71430766D01*
X17402081Y71430766D02*
X17544938Y71359337D01*
X17544938Y71359337D02*
X17616367Y71287908D01*
X17616367Y71287908D02*
X17687795Y71145051D01*
X17687795Y71145051D02*
X17687795Y70787908D01*
X17687795Y70787908D02*
X17616367Y70645051D01*
X17616367Y70645051D02*
X17544938Y70573623D01*
X16687795Y72716479D02*
X17687795Y72716479D01*
X16116367Y72359337D02*
X17187795Y72002194D01*
X17187795Y72002194D02*
X17187795Y72930765D01*
X53487795Y71359337D02*
X53487795Y70645051D01*
X53487795Y70645051D02*
X54202081Y70573623D01*
X54202081Y70573623D02*
X54130652Y70645051D01*
X54130652Y70645051D02*
X54059224Y70787908D01*
X54059224Y70787908D02*
X54059224Y71145051D01*
X54059224Y71145051D02*
X54130652Y71287908D01*
X54130652Y71287908D02*
X54202081Y71359337D01*
X54202081Y71359337D02*
X54344938Y71430766D01*
X54344938Y71430766D02*
X54702081Y71430766D01*
X54702081Y71430766D02*
X54844938Y71359337D01*
X54844938Y71359337D02*
X54916367Y71287908D01*
X54916367Y71287908D02*
X54987795Y71145051D01*
X54987795Y71145051D02*
X54987795Y70787908D01*
X54987795Y70787908D02*
X54916367Y70645051D01*
X54916367Y70645051D02*
X54844938Y70573623D01*
X53487795Y72787908D02*
X53487795Y72073622D01*
X53487795Y72073622D02*
X54202081Y72002194D01*
X54202081Y72002194D02*
X54130652Y72073622D01*
X54130652Y72073622D02*
X54059224Y72216479D01*
X54059224Y72216479D02*
X54059224Y72573622D01*
X54059224Y72573622D02*
X54130652Y72716479D01*
X54130652Y72716479D02*
X54202081Y72787908D01*
X54202081Y72787908D02*
X54344938Y72859337D01*
X54344938Y72859337D02*
X54702081Y72859337D01*
X54702081Y72859337D02*
X54844938Y72787908D01*
X54844938Y72787908D02*
X54916367Y72716479D01*
X54916367Y72716479D02*
X54987795Y72573622D01*
X54987795Y72573622D02*
X54987795Y72216479D01*
X54987795Y72216479D02*
X54916367Y72073622D01*
X54916367Y72073622D02*
X54844938Y72002194D01*
X64687795Y71359337D02*
X64687795Y70645051D01*
X64687795Y70645051D02*
X65402081Y70573623D01*
X65402081Y70573623D02*
X65330652Y70645051D01*
X65330652Y70645051D02*
X65259224Y70787908D01*
X65259224Y70787908D02*
X65259224Y71145051D01*
X65259224Y71145051D02*
X65330652Y71287908D01*
X65330652Y71287908D02*
X65402081Y71359337D01*
X65402081Y71359337D02*
X65544938Y71430766D01*
X65544938Y71430766D02*
X65902081Y71430766D01*
X65902081Y71430766D02*
X66044938Y71359337D01*
X66044938Y71359337D02*
X66116367Y71287908D01*
X66116367Y71287908D02*
X66187795Y71145051D01*
X66187795Y71145051D02*
X66187795Y70787908D01*
X66187795Y70787908D02*
X66116367Y70645051D01*
X66116367Y70645051D02*
X66044938Y70573623D01*
X64830652Y72002194D02*
X64759224Y72073622D01*
X64759224Y72073622D02*
X64687795Y72216479D01*
X64687795Y72216479D02*
X64687795Y72573622D01*
X64687795Y72573622D02*
X64759224Y72716479D01*
X64759224Y72716479D02*
X64830652Y72787908D01*
X64830652Y72787908D02*
X64973509Y72859337D01*
X64973509Y72859337D02*
X65116367Y72859337D01*
X65116367Y72859337D02*
X65330652Y72787908D01*
X65330652Y72787908D02*
X66187795Y71930765D01*
X66187795Y71930765D02*
X66187795Y72859337D01*
X47587795Y77787908D02*
X48587795Y77787908D01*
X47016367Y77430766D02*
X48087795Y77073623D01*
X48087795Y77073623D02*
X48087795Y78002194D01*
X47730652Y78787908D02*
X47659224Y78645051D01*
X47659224Y78645051D02*
X47587795Y78573622D01*
X47587795Y78573622D02*
X47444938Y78502194D01*
X47444938Y78502194D02*
X47373509Y78502194D01*
X47373509Y78502194D02*
X47230652Y78573622D01*
X47230652Y78573622D02*
X47159224Y78645051D01*
X47159224Y78645051D02*
X47087795Y78787908D01*
X47087795Y78787908D02*
X47087795Y79073622D01*
X47087795Y79073622D02*
X47159224Y79216479D01*
X47159224Y79216479D02*
X47230652Y79287908D01*
X47230652Y79287908D02*
X47373509Y79359337D01*
X47373509Y79359337D02*
X47444938Y79359337D01*
X47444938Y79359337D02*
X47587795Y79287908D01*
X47587795Y79287908D02*
X47659224Y79216479D01*
X47659224Y79216479D02*
X47730652Y79073622D01*
X47730652Y79073622D02*
X47730652Y78787908D01*
X47730652Y78787908D02*
X47802081Y78645051D01*
X47802081Y78645051D02*
X47873509Y78573622D01*
X47873509Y78573622D02*
X48016367Y78502194D01*
X48016367Y78502194D02*
X48302081Y78502194D01*
X48302081Y78502194D02*
X48444938Y78573622D01*
X48444938Y78573622D02*
X48516367Y78645051D01*
X48516367Y78645051D02*
X48587795Y78787908D01*
X48587795Y78787908D02*
X48587795Y79073622D01*
X48587795Y79073622D02*
X48516367Y79216479D01*
X48516367Y79216479D02*
X48444938Y79287908D01*
X48444938Y79287908D02*
X48302081Y79359337D01*
X48302081Y79359337D02*
X48016367Y79359337D01*
X48016367Y79359337D02*
X47873509Y79287908D01*
X47873509Y79287908D02*
X47802081Y79216479D01*
X47802081Y79216479D02*
X47730652Y79073622D01*
X6087795Y80502194D02*
X6087795Y81430766D01*
X6087795Y81430766D02*
X6659224Y80930766D01*
X6659224Y80930766D02*
X6659224Y81145051D01*
X6659224Y81145051D02*
X6730652Y81287908D01*
X6730652Y81287908D02*
X6802081Y81359337D01*
X6802081Y81359337D02*
X6944938Y81430766D01*
X6944938Y81430766D02*
X7302081Y81430766D01*
X7302081Y81430766D02*
X7444938Y81359337D01*
X7444938Y81359337D02*
X7516367Y81287908D01*
X7516367Y81287908D02*
X7587795Y81145051D01*
X7587795Y81145051D02*
X7587795Y80716480D01*
X7587795Y80716480D02*
X7516367Y80573623D01*
X7516367Y80573623D02*
X7444938Y80502194D01*
X6087795Y82716479D02*
X6087795Y82430765D01*
X6087795Y82430765D02*
X6159224Y82287908D01*
X6159224Y82287908D02*
X6230652Y82216479D01*
X6230652Y82216479D02*
X6444938Y82073622D01*
X6444938Y82073622D02*
X6730652Y82002194D01*
X6730652Y82002194D02*
X7302081Y82002194D01*
X7302081Y82002194D02*
X7444938Y82073622D01*
X7444938Y82073622D02*
X7516367Y82145051D01*
X7516367Y82145051D02*
X7587795Y82287908D01*
X7587795Y82287908D02*
X7587795Y82573622D01*
X7587795Y82573622D02*
X7516367Y82716479D01*
X7516367Y82716479D02*
X7444938Y82787908D01*
X7444938Y82787908D02*
X7302081Y82859337D01*
X7302081Y82859337D02*
X6944938Y82859337D01*
X6944938Y82859337D02*
X6802081Y82787908D01*
X6802081Y82787908D02*
X6730652Y82716479D01*
X6730652Y82716479D02*
X6659224Y82573622D01*
X6659224Y82573622D02*
X6659224Y82287908D01*
X6659224Y82287908D02*
X6730652Y82145051D01*
X6730652Y82145051D02*
X6802081Y82073622D01*
X6802081Y82073622D02*
X6944938Y82002194D01*
X80087795Y90645052D02*
X80087795Y89787909D01*
X80087795Y90216480D02*
X78587795Y90216480D01*
X78587795Y90216480D02*
X78802081Y90073623D01*
X78802081Y90073623D02*
X78944938Y89930766D01*
X78944938Y89930766D02*
X79016367Y89787909D01*
D14*
X34045911Y62010144D02*
X33683054Y61756144D01*
X34045911Y61574715D02*
X33283911Y61574715D01*
X33283911Y61574715D02*
X33283911Y61865001D01*
X33283911Y61865001D02*
X33320197Y61937572D01*
X33320197Y61937572D02*
X33356483Y61973858D01*
X33356483Y61973858D02*
X33429054Y62010144D01*
X33429054Y62010144D02*
X33537911Y62010144D01*
X33537911Y62010144D02*
X33610483Y61973858D01*
X33610483Y61973858D02*
X33646768Y61937572D01*
X33646768Y61937572D02*
X33683054Y61865001D01*
X33683054Y61865001D02*
X33683054Y61574715D01*
X34045911Y62735858D02*
X34045911Y62300429D01*
X34045911Y62518144D02*
X33283911Y62518144D01*
X33283911Y62518144D02*
X33392768Y62445572D01*
X33392768Y62445572D02*
X33465340Y62373001D01*
X33465340Y62373001D02*
X33501626Y62300429D01*
X33283911Y62989858D02*
X33283911Y63461572D01*
X33283911Y63461572D02*
X33574197Y63207572D01*
X33574197Y63207572D02*
X33574197Y63316429D01*
X33574197Y63316429D02*
X33610483Y63389000D01*
X33610483Y63389000D02*
X33646768Y63425286D01*
X33646768Y63425286D02*
X33719340Y63461572D01*
X33719340Y63461572D02*
X33900768Y63461572D01*
X33900768Y63461572D02*
X33973340Y63425286D01*
X33973340Y63425286D02*
X34009626Y63389000D01*
X34009626Y63389000D02*
X34045911Y63316429D01*
X34045911Y63316429D02*
X34045911Y63098715D01*
X34045911Y63098715D02*
X34009626Y63026143D01*
X34009626Y63026143D02*
X33973340Y62989858D01*
X6940911Y68010144D02*
X6578054Y67756144D01*
X6940911Y67574715D02*
X6178911Y67574715D01*
X6178911Y67574715D02*
X6178911Y67865001D01*
X6178911Y67865001D02*
X6215197Y67937572D01*
X6215197Y67937572D02*
X6251483Y67973858D01*
X6251483Y67973858D02*
X6324054Y68010144D01*
X6324054Y68010144D02*
X6432911Y68010144D01*
X6432911Y68010144D02*
X6505483Y67973858D01*
X6505483Y67973858D02*
X6541768Y67937572D01*
X6541768Y67937572D02*
X6578054Y67865001D01*
X6578054Y67865001D02*
X6578054Y67574715D01*
X6940911Y68735858D02*
X6940911Y68300429D01*
X6940911Y68518144D02*
X6178911Y68518144D01*
X6178911Y68518144D02*
X6287768Y68445572D01*
X6287768Y68445572D02*
X6360340Y68373001D01*
X6360340Y68373001D02*
X6396626Y68300429D01*
X6940911Y69461572D02*
X6940911Y69026143D01*
X6940911Y69243858D02*
X6178911Y69243858D01*
X6178911Y69243858D02*
X6287768Y69171286D01*
X6287768Y69171286D02*
X6360340Y69098715D01*
X6360340Y69098715D02*
X6396626Y69026143D01*
X31010143Y62654089D02*
X30756143Y63016946D01*
X30574714Y62654089D02*
X30574714Y63416089D01*
X30574714Y63416089D02*
X30865000Y63416089D01*
X30865000Y63416089D02*
X30937571Y63379803D01*
X30937571Y63379803D02*
X30973857Y63343517D01*
X30973857Y63343517D02*
X31010143Y63270946D01*
X31010143Y63270946D02*
X31010143Y63162089D01*
X31010143Y63162089D02*
X30973857Y63089517D01*
X30973857Y63089517D02*
X30937571Y63053232D01*
X30937571Y63053232D02*
X30865000Y63016946D01*
X30865000Y63016946D02*
X30574714Y63016946D01*
X31735857Y62654089D02*
X31300428Y62654089D01*
X31518143Y62654089D02*
X31518143Y63416089D01*
X31518143Y63416089D02*
X31445571Y63307232D01*
X31445571Y63307232D02*
X31373000Y63234660D01*
X31373000Y63234660D02*
X31300428Y63198374D01*
X32389000Y63162089D02*
X32389000Y62654089D01*
X32207571Y63452374D02*
X32026142Y62908089D01*
X32026142Y62908089D02*
X32497857Y62908089D01*
D12*
X73761905Y54445181D02*
X73761905Y53635658D01*
X73761905Y53635658D02*
X73809524Y53540420D01*
X73809524Y53540420D02*
X73857143Y53492800D01*
X73857143Y53492800D02*
X73952381Y53445181D01*
X73952381Y53445181D02*
X74142857Y53445181D01*
X74142857Y53445181D02*
X74238095Y53492800D01*
X74238095Y53492800D02*
X74285714Y53540420D01*
X74285714Y53540420D02*
X74333333Y53635658D01*
X74333333Y53635658D02*
X74333333Y54445181D01*
X75333333Y53445181D02*
X74761905Y53445181D01*
X75047619Y53445181D02*
X75047619Y54445181D01*
X75047619Y54445181D02*
X74952381Y54302324D01*
X74952381Y54302324D02*
X74857143Y54207086D01*
X74857143Y54207086D02*
X74761905Y54159467D01*
X76285714Y53445181D02*
X75714286Y53445181D01*
X76000000Y53445181D02*
X76000000Y54445181D01*
X76000000Y54445181D02*
X75904762Y54302324D01*
X75904762Y54302324D02*
X75809524Y54207086D01*
X75809524Y54207086D02*
X75714286Y54159467D01*
D14*
X21510143Y62654089D02*
X21256143Y63016946D01*
X21074714Y62654089D02*
X21074714Y63416089D01*
X21074714Y63416089D02*
X21365000Y63416089D01*
X21365000Y63416089D02*
X21437571Y63379803D01*
X21437571Y63379803D02*
X21473857Y63343517D01*
X21473857Y63343517D02*
X21510143Y63270946D01*
X21510143Y63270946D02*
X21510143Y63162089D01*
X21510143Y63162089D02*
X21473857Y63089517D01*
X21473857Y63089517D02*
X21437571Y63053232D01*
X21437571Y63053232D02*
X21365000Y63016946D01*
X21365000Y63016946D02*
X21074714Y63016946D01*
X22235857Y62654089D02*
X21800428Y62654089D01*
X22018143Y62654089D02*
X22018143Y63416089D01*
X22018143Y63416089D02*
X21945571Y63307232D01*
X21945571Y63307232D02*
X21873000Y63234660D01*
X21873000Y63234660D02*
X21800428Y63198374D01*
X22526142Y63343517D02*
X22562428Y63379803D01*
X22562428Y63379803D02*
X22635000Y63416089D01*
X22635000Y63416089D02*
X22816428Y63416089D01*
X22816428Y63416089D02*
X22889000Y63379803D01*
X22889000Y63379803D02*
X22925285Y63343517D01*
X22925285Y63343517D02*
X22961571Y63270946D01*
X22961571Y63270946D02*
X22961571Y63198374D01*
X22961571Y63198374D02*
X22925285Y63089517D01*
X22925285Y63089517D02*
X22489857Y62654089D01*
X22489857Y62654089D02*
X22961571Y62654089D01*
X52746000Y69053232D02*
X52492000Y69053232D01*
X52492000Y68654089D02*
X52492000Y69416089D01*
X52492000Y69416089D02*
X52854857Y69416089D01*
X53108857Y69343517D02*
X53145143Y69379803D01*
X53145143Y69379803D02*
X53217715Y69416089D01*
X53217715Y69416089D02*
X53399143Y69416089D01*
X53399143Y69416089D02*
X53471715Y69379803D01*
X53471715Y69379803D02*
X53508000Y69343517D01*
X53508000Y69343517D02*
X53544286Y69270946D01*
X53544286Y69270946D02*
X53544286Y69198374D01*
X53544286Y69198374D02*
X53508000Y69089517D01*
X53508000Y69089517D02*
X53072572Y68654089D01*
X53072572Y68654089D02*
X53544286Y68654089D01*
X27760143Y62654089D02*
X27506143Y63016946D01*
X27324714Y62654089D02*
X27324714Y63416089D01*
X27324714Y63416089D02*
X27615000Y63416089D01*
X27615000Y63416089D02*
X27687571Y63379803D01*
X27687571Y63379803D02*
X27723857Y63343517D01*
X27723857Y63343517D02*
X27760143Y63270946D01*
X27760143Y63270946D02*
X27760143Y63162089D01*
X27760143Y63162089D02*
X27723857Y63089517D01*
X27723857Y63089517D02*
X27687571Y63053232D01*
X27687571Y63053232D02*
X27615000Y63016946D01*
X27615000Y63016946D02*
X27324714Y63016946D01*
X28485857Y62654089D02*
X28050428Y62654089D01*
X28268143Y62654089D02*
X28268143Y63416089D01*
X28268143Y63416089D02*
X28195571Y63307232D01*
X28195571Y63307232D02*
X28123000Y63234660D01*
X28123000Y63234660D02*
X28050428Y63198374D01*
X29175285Y63416089D02*
X28812428Y63416089D01*
X28812428Y63416089D02*
X28776142Y63053232D01*
X28776142Y63053232D02*
X28812428Y63089517D01*
X28812428Y63089517D02*
X28885000Y63125803D01*
X28885000Y63125803D02*
X29066428Y63125803D01*
X29066428Y63125803D02*
X29139000Y63089517D01*
X29139000Y63089517D02*
X29175285Y63053232D01*
X29175285Y63053232D02*
X29211571Y62980660D01*
X29211571Y62980660D02*
X29211571Y62799232D01*
X29211571Y62799232D02*
X29175285Y62726660D01*
X29175285Y62726660D02*
X29139000Y62690374D01*
X29139000Y62690374D02*
X29066428Y62654089D01*
X29066428Y62654089D02*
X28885000Y62654089D01*
X28885000Y62654089D02*
X28812428Y62690374D01*
X28812428Y62690374D02*
X28776142Y62726660D01*
X66646000Y69053232D02*
X66392000Y69053232D01*
X66392000Y68654089D02*
X66392000Y69416089D01*
X66392000Y69416089D02*
X66754857Y69416089D01*
X67444286Y68654089D02*
X67008857Y68654089D01*
X67226572Y68654089D02*
X67226572Y69416089D01*
X67226572Y69416089D02*
X67154000Y69307232D01*
X67154000Y69307232D02*
X67081429Y69234660D01*
X67081429Y69234660D02*
X67008857Y69198374D01*
D12*
X69526214Y25099714D02*
X69526214Y24290191D01*
X69526214Y24290191D02*
X69573833Y24194953D01*
X69573833Y24194953D02*
X69621452Y24147333D01*
X69621452Y24147333D02*
X69716690Y24099714D01*
X69716690Y24099714D02*
X69907166Y24099714D01*
X69907166Y24099714D02*
X70002404Y24147333D01*
X70002404Y24147333D02*
X70050023Y24194953D01*
X70050023Y24194953D02*
X70097642Y24290191D01*
X70097642Y24290191D02*
X70097642Y25099714D01*
X71050023Y25099714D02*
X70573833Y25099714D01*
X70573833Y25099714D02*
X70526214Y24623524D01*
X70526214Y24623524D02*
X70573833Y24671143D01*
X70573833Y24671143D02*
X70669071Y24718762D01*
X70669071Y24718762D02*
X70907166Y24718762D01*
X70907166Y24718762D02*
X71002404Y24671143D01*
X71002404Y24671143D02*
X71050023Y24623524D01*
X71050023Y24623524D02*
X71097642Y24528286D01*
X71097642Y24528286D02*
X71097642Y24290191D01*
X71097642Y24290191D02*
X71050023Y24194953D01*
X71050023Y24194953D02*
X71002404Y24147333D01*
X71002404Y24147333D02*
X70907166Y24099714D01*
X70907166Y24099714D02*
X70669071Y24099714D01*
X70669071Y24099714D02*
X70573833Y24147333D01*
X70573833Y24147333D02*
X70526214Y24194953D01*
X17625057Y30979762D02*
X17577438Y30884524D01*
X17577438Y30884524D02*
X17482200Y30789286D01*
X17482200Y30789286D02*
X17339342Y30646429D01*
X17339342Y30646429D02*
X17291723Y30551191D01*
X17291723Y30551191D02*
X17291723Y30455953D01*
X17529819Y30503572D02*
X17482200Y30408334D01*
X17482200Y30408334D02*
X17386961Y30313096D01*
X17386961Y30313096D02*
X17196485Y30265477D01*
X17196485Y30265477D02*
X16863152Y30265477D01*
X16863152Y30265477D02*
X16672676Y30313096D01*
X16672676Y30313096D02*
X16577438Y30408334D01*
X16577438Y30408334D02*
X16529819Y30503572D01*
X16529819Y30503572D02*
X16529819Y30694048D01*
X16529819Y30694048D02*
X16577438Y30789286D01*
X16577438Y30789286D02*
X16672676Y30884524D01*
X16672676Y30884524D02*
X16863152Y30932143D01*
X16863152Y30932143D02*
X17196485Y30932143D01*
X17196485Y30932143D02*
X17386961Y30884524D01*
X17386961Y30884524D02*
X17482200Y30789286D01*
X17482200Y30789286D02*
X17529819Y30694048D01*
X17529819Y30694048D02*
X17529819Y30503572D01*
X16625057Y31313096D02*
X16577438Y31360715D01*
X16577438Y31360715D02*
X16529819Y31455953D01*
X16529819Y31455953D02*
X16529819Y31694048D01*
X16529819Y31694048D02*
X16577438Y31789286D01*
X16577438Y31789286D02*
X16625057Y31836905D01*
X16625057Y31836905D02*
X16720295Y31884524D01*
X16720295Y31884524D02*
X16815533Y31884524D01*
X16815533Y31884524D02*
X16958390Y31836905D01*
X16958390Y31836905D02*
X17529819Y31265477D01*
X17529819Y31265477D02*
X17529819Y31884524D01*
D14*
X50246000Y69053232D02*
X49992000Y69053232D01*
X49992000Y68654089D02*
X49992000Y69416089D01*
X49992000Y69416089D02*
X50354857Y69416089D01*
X50572572Y69416089D02*
X51044286Y69416089D01*
X51044286Y69416089D02*
X50790286Y69125803D01*
X50790286Y69125803D02*
X50899143Y69125803D01*
X50899143Y69125803D02*
X50971715Y69089517D01*
X50971715Y69089517D02*
X51008000Y69053232D01*
X51008000Y69053232D02*
X51044286Y68980660D01*
X51044286Y68980660D02*
X51044286Y68799232D01*
X51044286Y68799232D02*
X51008000Y68726660D01*
X51008000Y68726660D02*
X50971715Y68690374D01*
X50971715Y68690374D02*
X50899143Y68654089D01*
X50899143Y68654089D02*
X50681429Y68654089D01*
X50681429Y68654089D02*
X50608857Y68690374D01*
X50608857Y68690374D02*
X50572572Y68726660D01*
X63873000Y68654089D02*
X63619000Y69016946D01*
X63437571Y68654089D02*
X63437571Y69416089D01*
X63437571Y69416089D02*
X63727857Y69416089D01*
X63727857Y69416089D02*
X63800428Y69379803D01*
X63800428Y69379803D02*
X63836714Y69343517D01*
X63836714Y69343517D02*
X63873000Y69270946D01*
X63873000Y69270946D02*
X63873000Y69162089D01*
X63873000Y69162089D02*
X63836714Y69089517D01*
X63836714Y69089517D02*
X63800428Y69053232D01*
X63800428Y69053232D02*
X63727857Y69016946D01*
X63727857Y69016946D02*
X63437571Y69016946D01*
X64598714Y68654089D02*
X64163285Y68654089D01*
X64381000Y68654089D02*
X64381000Y69416089D01*
X64381000Y69416089D02*
X64308428Y69307232D01*
X64308428Y69307232D02*
X64235857Y69234660D01*
X64235857Y69234660D02*
X64163285Y69198374D01*
X37373000Y62654089D02*
X37119000Y63016946D01*
X36937571Y62654089D02*
X36937571Y63416089D01*
X36937571Y63416089D02*
X37227857Y63416089D01*
X37227857Y63416089D02*
X37300428Y63379803D01*
X37300428Y63379803D02*
X37336714Y63343517D01*
X37336714Y63343517D02*
X37373000Y63270946D01*
X37373000Y63270946D02*
X37373000Y63162089D01*
X37373000Y63162089D02*
X37336714Y63089517D01*
X37336714Y63089517D02*
X37300428Y63053232D01*
X37300428Y63053232D02*
X37227857Y63016946D01*
X37227857Y63016946D02*
X36937571Y63016946D01*
X37735857Y62654089D02*
X37881000Y62654089D01*
X37881000Y62654089D02*
X37953571Y62690374D01*
X37953571Y62690374D02*
X37989857Y62726660D01*
X37989857Y62726660D02*
X38062428Y62835517D01*
X38062428Y62835517D02*
X38098714Y62980660D01*
X38098714Y62980660D02*
X38098714Y63270946D01*
X38098714Y63270946D02*
X38062428Y63343517D01*
X38062428Y63343517D02*
X38026143Y63379803D01*
X38026143Y63379803D02*
X37953571Y63416089D01*
X37953571Y63416089D02*
X37808428Y63416089D01*
X37808428Y63416089D02*
X37735857Y63379803D01*
X37735857Y63379803D02*
X37699571Y63343517D01*
X37699571Y63343517D02*
X37663285Y63270946D01*
X37663285Y63270946D02*
X37663285Y63089517D01*
X37663285Y63089517D02*
X37699571Y63016946D01*
X37699571Y63016946D02*
X37735857Y62980660D01*
X37735857Y62980660D02*
X37808428Y62944374D01*
X37808428Y62944374D02*
X37953571Y62944374D01*
X37953571Y62944374D02*
X38026143Y62980660D01*
X38026143Y62980660D02*
X38062428Y63016946D01*
X38062428Y63016946D02*
X38098714Y63089517D01*
X76873000Y68654089D02*
X76619000Y69016946D01*
X76437571Y68654089D02*
X76437571Y69416089D01*
X76437571Y69416089D02*
X76727857Y69416089D01*
X76727857Y69416089D02*
X76800428Y69379803D01*
X76800428Y69379803D02*
X76836714Y69343517D01*
X76836714Y69343517D02*
X76873000Y69270946D01*
X76873000Y69270946D02*
X76873000Y69162089D01*
X76873000Y69162089D02*
X76836714Y69089517D01*
X76836714Y69089517D02*
X76800428Y69053232D01*
X76800428Y69053232D02*
X76727857Y69016946D01*
X76727857Y69016946D02*
X76437571Y69016946D01*
X77526143Y69416089D02*
X77381000Y69416089D01*
X77381000Y69416089D02*
X77308428Y69379803D01*
X77308428Y69379803D02*
X77272143Y69343517D01*
X77272143Y69343517D02*
X77199571Y69234660D01*
X77199571Y69234660D02*
X77163285Y69089517D01*
X77163285Y69089517D02*
X77163285Y68799232D01*
X77163285Y68799232D02*
X77199571Y68726660D01*
X77199571Y68726660D02*
X77235857Y68690374D01*
X77235857Y68690374D02*
X77308428Y68654089D01*
X77308428Y68654089D02*
X77453571Y68654089D01*
X77453571Y68654089D02*
X77526143Y68690374D01*
X77526143Y68690374D02*
X77562428Y68726660D01*
X77562428Y68726660D02*
X77598714Y68799232D01*
X77598714Y68799232D02*
X77598714Y68980660D01*
X77598714Y68980660D02*
X77562428Y69053232D01*
X77562428Y69053232D02*
X77526143Y69089517D01*
X77526143Y69089517D02*
X77453571Y69125803D01*
X77453571Y69125803D02*
X77308428Y69125803D01*
X77308428Y69125803D02*
X77235857Y69089517D01*
X77235857Y69089517D02*
X77199571Y69053232D01*
X77199571Y69053232D02*
X77163285Y68980660D01*
D12*
X22791666Y40845181D02*
X22791666Y40130896D01*
X22791666Y40130896D02*
X22744047Y39988039D01*
X22744047Y39988039D02*
X22648809Y39892800D01*
X22648809Y39892800D02*
X22505952Y39845181D01*
X22505952Y39845181D02*
X22410714Y39845181D01*
X23220238Y40749943D02*
X23267857Y40797562D01*
X23267857Y40797562D02*
X23363095Y40845181D01*
X23363095Y40845181D02*
X23601190Y40845181D01*
X23601190Y40845181D02*
X23696428Y40797562D01*
X23696428Y40797562D02*
X23744047Y40749943D01*
X23744047Y40749943D02*
X23791666Y40654705D01*
X23791666Y40654705D02*
X23791666Y40559467D01*
X23791666Y40559467D02*
X23744047Y40416610D01*
X23744047Y40416610D02*
X23172619Y39845181D01*
X23172619Y39845181D02*
X23791666Y39845181D01*
X69544896Y30973612D02*
X69544896Y30164089D01*
X69544896Y30164089D02*
X69592515Y30068851D01*
X69592515Y30068851D02*
X69640134Y30021231D01*
X69640134Y30021231D02*
X69735372Y29973612D01*
X69735372Y29973612D02*
X69925848Y29973612D01*
X69925848Y29973612D02*
X70021086Y30021231D01*
X70021086Y30021231D02*
X70068705Y30068851D01*
X70068705Y30068851D02*
X70116324Y30164089D01*
X70116324Y30164089D02*
X70116324Y30973612D01*
X71021086Y30640279D02*
X71021086Y29973612D01*
X70782991Y31021231D02*
X70544896Y30306946D01*
X70544896Y30306946D02*
X71163943Y30306946D01*
D15*
X59379236Y47768973D02*
X59105903Y48159449D01*
X58910665Y47768973D02*
X58910665Y48588973D01*
X58910665Y48588973D02*
X59223046Y48588973D01*
X59223046Y48588973D02*
X59301141Y48549925D01*
X59301141Y48549925D02*
X59340188Y48510878D01*
X59340188Y48510878D02*
X59379236Y48432782D01*
X59379236Y48432782D02*
X59379236Y48315640D01*
X59379236Y48315640D02*
X59340188Y48237544D01*
X59340188Y48237544D02*
X59301141Y48198497D01*
X59301141Y48198497D02*
X59223046Y48159449D01*
X59223046Y48159449D02*
X58910665Y48159449D01*
X60121141Y48588973D02*
X59730665Y48588973D01*
X59730665Y48588973D02*
X59691617Y48198497D01*
X59691617Y48198497D02*
X59730665Y48237544D01*
X59730665Y48237544D02*
X59808760Y48276592D01*
X59808760Y48276592D02*
X60003998Y48276592D01*
X60003998Y48276592D02*
X60082093Y48237544D01*
X60082093Y48237544D02*
X60121141Y48198497D01*
X60121141Y48198497D02*
X60160188Y48120401D01*
X60160188Y48120401D02*
X60160188Y47925163D01*
X60160188Y47925163D02*
X60121141Y47847068D01*
X60121141Y47847068D02*
X60082093Y47808020D01*
X60082093Y47808020D02*
X60003998Y47768973D01*
X60003998Y47768973D02*
X59808760Y47768973D01*
X59808760Y47768973D02*
X59730665Y47808020D01*
X59730665Y47808020D02*
X59691617Y47847068D01*
X60433521Y48588973D02*
X60941140Y48588973D01*
X60941140Y48588973D02*
X60667807Y48276592D01*
X60667807Y48276592D02*
X60784950Y48276592D01*
X60784950Y48276592D02*
X60863045Y48237544D01*
X60863045Y48237544D02*
X60902093Y48198497D01*
X60902093Y48198497D02*
X60941140Y48120401D01*
X60941140Y48120401D02*
X60941140Y47925163D01*
X60941140Y47925163D02*
X60902093Y47847068D01*
X60902093Y47847068D02*
X60863045Y47808020D01*
X60863045Y47808020D02*
X60784950Y47768973D01*
X60784950Y47768973D02*
X60550664Y47768973D01*
X60550664Y47768973D02*
X60472569Y47808020D01*
X60472569Y47808020D02*
X60433521Y47847068D01*
D14*
X71273000Y68654089D02*
X71019000Y69016946D01*
X70837571Y68654089D02*
X70837571Y69416089D01*
X70837571Y69416089D02*
X71127857Y69416089D01*
X71127857Y69416089D02*
X71200428Y69379803D01*
X71200428Y69379803D02*
X71236714Y69343517D01*
X71236714Y69343517D02*
X71273000Y69270946D01*
X71273000Y69270946D02*
X71273000Y69162089D01*
X71273000Y69162089D02*
X71236714Y69089517D01*
X71236714Y69089517D02*
X71200428Y69053232D01*
X71200428Y69053232D02*
X71127857Y69016946D01*
X71127857Y69016946D02*
X70837571Y69016946D01*
X71926143Y69162089D02*
X71926143Y68654089D01*
X71744714Y69452374D02*
X71563285Y68908089D01*
X71563285Y68908089D02*
X72035000Y68908089D01*
X73173000Y68654089D02*
X72919000Y69016946D01*
X72737571Y68654089D02*
X72737571Y69416089D01*
X72737571Y69416089D02*
X73027857Y69416089D01*
X73027857Y69416089D02*
X73100428Y69379803D01*
X73100428Y69379803D02*
X73136714Y69343517D01*
X73136714Y69343517D02*
X73173000Y69270946D01*
X73173000Y69270946D02*
X73173000Y69162089D01*
X73173000Y69162089D02*
X73136714Y69089517D01*
X73136714Y69089517D02*
X73100428Y69053232D01*
X73100428Y69053232D02*
X73027857Y69016946D01*
X73027857Y69016946D02*
X72737571Y69016946D01*
X73608428Y69089517D02*
X73535857Y69125803D01*
X73535857Y69125803D02*
X73499571Y69162089D01*
X73499571Y69162089D02*
X73463285Y69234660D01*
X73463285Y69234660D02*
X73463285Y69270946D01*
X73463285Y69270946D02*
X73499571Y69343517D01*
X73499571Y69343517D02*
X73535857Y69379803D01*
X73535857Y69379803D02*
X73608428Y69416089D01*
X73608428Y69416089D02*
X73753571Y69416089D01*
X73753571Y69416089D02*
X73826143Y69379803D01*
X73826143Y69379803D02*
X73862428Y69343517D01*
X73862428Y69343517D02*
X73898714Y69270946D01*
X73898714Y69270946D02*
X73898714Y69234660D01*
X73898714Y69234660D02*
X73862428Y69162089D01*
X73862428Y69162089D02*
X73826143Y69125803D01*
X73826143Y69125803D02*
X73753571Y69089517D01*
X73753571Y69089517D02*
X73608428Y69089517D01*
X73608428Y69089517D02*
X73535857Y69053232D01*
X73535857Y69053232D02*
X73499571Y69016946D01*
X73499571Y69016946D02*
X73463285Y68944374D01*
X73463285Y68944374D02*
X73463285Y68799232D01*
X73463285Y68799232D02*
X73499571Y68726660D01*
X73499571Y68726660D02*
X73535857Y68690374D01*
X73535857Y68690374D02*
X73608428Y68654089D01*
X73608428Y68654089D02*
X73753571Y68654089D01*
X73753571Y68654089D02*
X73826143Y68690374D01*
X73826143Y68690374D02*
X73862428Y68726660D01*
X73862428Y68726660D02*
X73898714Y68799232D01*
X73898714Y68799232D02*
X73898714Y68944374D01*
X73898714Y68944374D02*
X73862428Y69016946D01*
X73862428Y69016946D02*
X73826143Y69053232D01*
X73826143Y69053232D02*
X73753571Y69089517D01*
D15*
X63887740Y47793882D02*
X63614407Y48184358D01*
X63419169Y47793882D02*
X63419169Y48613882D01*
X63419169Y48613882D02*
X63731550Y48613882D01*
X63731550Y48613882D02*
X63809645Y48574834D01*
X63809645Y48574834D02*
X63848692Y48535787D01*
X63848692Y48535787D02*
X63887740Y48457691D01*
X63887740Y48457691D02*
X63887740Y48340549D01*
X63887740Y48340549D02*
X63848692Y48262453D01*
X63848692Y48262453D02*
X63809645Y48223406D01*
X63809645Y48223406D02*
X63731550Y48184358D01*
X63731550Y48184358D02*
X63419169Y48184358D01*
X64629645Y48613882D02*
X64239169Y48613882D01*
X64239169Y48613882D02*
X64200121Y48223406D01*
X64200121Y48223406D02*
X64239169Y48262453D01*
X64239169Y48262453D02*
X64317264Y48301501D01*
X64317264Y48301501D02*
X64512502Y48301501D01*
X64512502Y48301501D02*
X64590597Y48262453D01*
X64590597Y48262453D02*
X64629645Y48223406D01*
X64629645Y48223406D02*
X64668692Y48145310D01*
X64668692Y48145310D02*
X64668692Y47950072D01*
X64668692Y47950072D02*
X64629645Y47871977D01*
X64629645Y47871977D02*
X64590597Y47832929D01*
X64590597Y47832929D02*
X64512502Y47793882D01*
X64512502Y47793882D02*
X64317264Y47793882D01*
X64317264Y47793882D02*
X64239169Y47832929D01*
X64239169Y47832929D02*
X64200121Y47871977D01*
X64981073Y48535787D02*
X65020121Y48574834D01*
X65020121Y48574834D02*
X65098216Y48613882D01*
X65098216Y48613882D02*
X65293454Y48613882D01*
X65293454Y48613882D02*
X65371549Y48574834D01*
X65371549Y48574834D02*
X65410597Y48535787D01*
X65410597Y48535787D02*
X65449644Y48457691D01*
X65449644Y48457691D02*
X65449644Y48379596D01*
X65449644Y48379596D02*
X65410597Y48262453D01*
X65410597Y48262453D02*
X64942025Y47793882D01*
X64942025Y47793882D02*
X65449644Y47793882D01*
D14*
X35010143Y62654089D02*
X34756143Y63016946D01*
X34574714Y62654089D02*
X34574714Y63416089D01*
X34574714Y63416089D02*
X34865000Y63416089D01*
X34865000Y63416089D02*
X34937571Y63379803D01*
X34937571Y63379803D02*
X34973857Y63343517D01*
X34973857Y63343517D02*
X35010143Y63270946D01*
X35010143Y63270946D02*
X35010143Y63162089D01*
X35010143Y63162089D02*
X34973857Y63089517D01*
X34973857Y63089517D02*
X34937571Y63053232D01*
X34937571Y63053232D02*
X34865000Y63016946D01*
X34865000Y63016946D02*
X34574714Y63016946D01*
X35735857Y62654089D02*
X35300428Y62654089D01*
X35518143Y62654089D02*
X35518143Y63416089D01*
X35518143Y63416089D02*
X35445571Y63307232D01*
X35445571Y63307232D02*
X35373000Y63234660D01*
X35373000Y63234660D02*
X35300428Y63198374D01*
X36207571Y63416089D02*
X36280142Y63416089D01*
X36280142Y63416089D02*
X36352714Y63379803D01*
X36352714Y63379803D02*
X36389000Y63343517D01*
X36389000Y63343517D02*
X36425285Y63270946D01*
X36425285Y63270946D02*
X36461571Y63125803D01*
X36461571Y63125803D02*
X36461571Y62944374D01*
X36461571Y62944374D02*
X36425285Y62799232D01*
X36425285Y62799232D02*
X36389000Y62726660D01*
X36389000Y62726660D02*
X36352714Y62690374D01*
X36352714Y62690374D02*
X36280142Y62654089D01*
X36280142Y62654089D02*
X36207571Y62654089D01*
X36207571Y62654089D02*
X36135000Y62690374D01*
X36135000Y62690374D02*
X36098714Y62726660D01*
X36098714Y62726660D02*
X36062428Y62799232D01*
X36062428Y62799232D02*
X36026142Y62944374D01*
X36026142Y62944374D02*
X36026142Y63125803D01*
X36026142Y63125803D02*
X36062428Y63270946D01*
X36062428Y63270946D02*
X36098714Y63343517D01*
X36098714Y63343517D02*
X36135000Y63379803D01*
X36135000Y63379803D02*
X36207571Y63416089D01*
X74973000Y68654089D02*
X74719000Y69016946D01*
X74537571Y68654089D02*
X74537571Y69416089D01*
X74537571Y69416089D02*
X74827857Y69416089D01*
X74827857Y69416089D02*
X74900428Y69379803D01*
X74900428Y69379803D02*
X74936714Y69343517D01*
X74936714Y69343517D02*
X74973000Y69270946D01*
X74973000Y69270946D02*
X74973000Y69162089D01*
X74973000Y69162089D02*
X74936714Y69089517D01*
X74936714Y69089517D02*
X74900428Y69053232D01*
X74900428Y69053232D02*
X74827857Y69016946D01*
X74827857Y69016946D02*
X74537571Y69016946D01*
X75227000Y69416089D02*
X75735000Y69416089D01*
X75735000Y69416089D02*
X75408428Y68654089D01*
X24010143Y62654089D02*
X23756143Y63016946D01*
X23574714Y62654089D02*
X23574714Y63416089D01*
X23574714Y63416089D02*
X23865000Y63416089D01*
X23865000Y63416089D02*
X23937571Y63379803D01*
X23937571Y63379803D02*
X23973857Y63343517D01*
X23973857Y63343517D02*
X24010143Y63270946D01*
X24010143Y63270946D02*
X24010143Y63162089D01*
X24010143Y63162089D02*
X23973857Y63089517D01*
X23973857Y63089517D02*
X23937571Y63053232D01*
X23937571Y63053232D02*
X23865000Y63016946D01*
X23865000Y63016946D02*
X23574714Y63016946D01*
X24735857Y62654089D02*
X24300428Y62654089D01*
X24518143Y62654089D02*
X24518143Y63416089D01*
X24518143Y63416089D02*
X24445571Y63307232D01*
X24445571Y63307232D02*
X24373000Y63234660D01*
X24373000Y63234660D02*
X24300428Y63198374D01*
X25389000Y63416089D02*
X25243857Y63416089D01*
X25243857Y63416089D02*
X25171285Y63379803D01*
X25171285Y63379803D02*
X25135000Y63343517D01*
X25135000Y63343517D02*
X25062428Y63234660D01*
X25062428Y63234660D02*
X25026142Y63089517D01*
X25026142Y63089517D02*
X25026142Y62799232D01*
X25026142Y62799232D02*
X25062428Y62726660D01*
X25062428Y62726660D02*
X25098714Y62690374D01*
X25098714Y62690374D02*
X25171285Y62654089D01*
X25171285Y62654089D02*
X25316428Y62654089D01*
X25316428Y62654089D02*
X25389000Y62690374D01*
X25389000Y62690374D02*
X25425285Y62726660D01*
X25425285Y62726660D02*
X25461571Y62799232D01*
X25461571Y62799232D02*
X25461571Y62980660D01*
X25461571Y62980660D02*
X25425285Y63053232D01*
X25425285Y63053232D02*
X25389000Y63089517D01*
X25389000Y63089517D02*
X25316428Y63125803D01*
X25316428Y63125803D02*
X25171285Y63125803D01*
X25171285Y63125803D02*
X25098714Y63089517D01*
X25098714Y63089517D02*
X25062428Y63053232D01*
X25062428Y63053232D02*
X25026142Y62980660D01*
X57673000Y68654089D02*
X57419000Y69016946D01*
X57237571Y68654089D02*
X57237571Y69416089D01*
X57237571Y69416089D02*
X57527857Y69416089D01*
X57527857Y69416089D02*
X57600428Y69379803D01*
X57600428Y69379803D02*
X57636714Y69343517D01*
X57636714Y69343517D02*
X57673000Y69270946D01*
X57673000Y69270946D02*
X57673000Y69162089D01*
X57673000Y69162089D02*
X57636714Y69089517D01*
X57636714Y69089517D02*
X57600428Y69053232D01*
X57600428Y69053232D02*
X57527857Y69016946D01*
X57527857Y69016946D02*
X57237571Y69016946D01*
X58362428Y69416089D02*
X57999571Y69416089D01*
X57999571Y69416089D02*
X57963285Y69053232D01*
X57963285Y69053232D02*
X57999571Y69089517D01*
X57999571Y69089517D02*
X58072143Y69125803D01*
X58072143Y69125803D02*
X58253571Y69125803D01*
X58253571Y69125803D02*
X58326143Y69089517D01*
X58326143Y69089517D02*
X58362428Y69053232D01*
X58362428Y69053232D02*
X58398714Y68980660D01*
X58398714Y68980660D02*
X58398714Y68799232D01*
X58398714Y68799232D02*
X58362428Y68726660D01*
X58362428Y68726660D02*
X58326143Y68690374D01*
X58326143Y68690374D02*
X58253571Y68654089D01*
X58253571Y68654089D02*
X58072143Y68654089D01*
X58072143Y68654089D02*
X57999571Y68690374D01*
X57999571Y68690374D02*
X57963285Y68726660D01*
X60373000Y68654089D02*
X60119000Y69016946D01*
X59937571Y68654089D02*
X59937571Y69416089D01*
X59937571Y69416089D02*
X60227857Y69416089D01*
X60227857Y69416089D02*
X60300428Y69379803D01*
X60300428Y69379803D02*
X60336714Y69343517D01*
X60336714Y69343517D02*
X60373000Y69270946D01*
X60373000Y69270946D02*
X60373000Y69162089D01*
X60373000Y69162089D02*
X60336714Y69089517D01*
X60336714Y69089517D02*
X60300428Y69053232D01*
X60300428Y69053232D02*
X60227857Y69016946D01*
X60227857Y69016946D02*
X59937571Y69016946D01*
X60663285Y69343517D02*
X60699571Y69379803D01*
X60699571Y69379803D02*
X60772143Y69416089D01*
X60772143Y69416089D02*
X60953571Y69416089D01*
X60953571Y69416089D02*
X61026143Y69379803D01*
X61026143Y69379803D02*
X61062428Y69343517D01*
X61062428Y69343517D02*
X61098714Y69270946D01*
X61098714Y69270946D02*
X61098714Y69198374D01*
X61098714Y69198374D02*
X61062428Y69089517D01*
X61062428Y69089517D02*
X60627000Y68654089D01*
X60627000Y68654089D02*
X61098714Y68654089D01*
X55173000Y68654089D02*
X54919000Y69016946D01*
X54737571Y68654089D02*
X54737571Y69416089D01*
X54737571Y69416089D02*
X55027857Y69416089D01*
X55027857Y69416089D02*
X55100428Y69379803D01*
X55100428Y69379803D02*
X55136714Y69343517D01*
X55136714Y69343517D02*
X55173000Y69270946D01*
X55173000Y69270946D02*
X55173000Y69162089D01*
X55173000Y69162089D02*
X55136714Y69089517D01*
X55136714Y69089517D02*
X55100428Y69053232D01*
X55100428Y69053232D02*
X55027857Y69016946D01*
X55027857Y69016946D02*
X54737571Y69016946D01*
X55427000Y69416089D02*
X55898714Y69416089D01*
X55898714Y69416089D02*
X55644714Y69125803D01*
X55644714Y69125803D02*
X55753571Y69125803D01*
X55753571Y69125803D02*
X55826143Y69089517D01*
X55826143Y69089517D02*
X55862428Y69053232D01*
X55862428Y69053232D02*
X55898714Y68980660D01*
X55898714Y68980660D02*
X55898714Y68799232D01*
X55898714Y68799232D02*
X55862428Y68726660D01*
X55862428Y68726660D02*
X55826143Y68690374D01*
X55826143Y68690374D02*
X55753571Y68654089D01*
X55753571Y68654089D02*
X55535857Y68654089D01*
X55535857Y68654089D02*
X55463285Y68690374D01*
X55463285Y68690374D02*
X55427000Y68726660D01*
D12*
X17625057Y38429762D02*
X17577438Y38334524D01*
X17577438Y38334524D02*
X17482200Y38239286D01*
X17482200Y38239286D02*
X17339342Y38096429D01*
X17339342Y38096429D02*
X17291723Y38001191D01*
X17291723Y38001191D02*
X17291723Y37905953D01*
X17529819Y37953572D02*
X17482200Y37858334D01*
X17482200Y37858334D02*
X17386961Y37763096D01*
X17386961Y37763096D02*
X17196485Y37715477D01*
X17196485Y37715477D02*
X16863152Y37715477D01*
X16863152Y37715477D02*
X16672676Y37763096D01*
X16672676Y37763096D02*
X16577438Y37858334D01*
X16577438Y37858334D02*
X16529819Y37953572D01*
X16529819Y37953572D02*
X16529819Y38144048D01*
X16529819Y38144048D02*
X16577438Y38239286D01*
X16577438Y38239286D02*
X16672676Y38334524D01*
X16672676Y38334524D02*
X16863152Y38382143D01*
X16863152Y38382143D02*
X17196485Y38382143D01*
X17196485Y38382143D02*
X17386961Y38334524D01*
X17386961Y38334524D02*
X17482200Y38239286D01*
X17482200Y38239286D02*
X17529819Y38144048D01*
X17529819Y38144048D02*
X17529819Y37953572D01*
X16529819Y38715477D02*
X16529819Y39334524D01*
X16529819Y39334524D02*
X16910771Y39001191D01*
X16910771Y39001191D02*
X16910771Y39144048D01*
X16910771Y39144048D02*
X16958390Y39239286D01*
X16958390Y39239286D02*
X17006009Y39286905D01*
X17006009Y39286905D02*
X17101247Y39334524D01*
X17101247Y39334524D02*
X17339342Y39334524D01*
X17339342Y39334524D02*
X17434580Y39286905D01*
X17434580Y39286905D02*
X17482200Y39239286D01*
X17482200Y39239286D02*
X17529819Y39144048D01*
X17529819Y39144048D02*
X17529819Y38858334D01*
X17529819Y38858334D02*
X17482200Y38763096D01*
X17482200Y38763096D02*
X17434580Y38715477D01*
X73761905Y61445181D02*
X73761905Y60635658D01*
X73761905Y60635658D02*
X73809524Y60540420D01*
X73809524Y60540420D02*
X73857143Y60492800D01*
X73857143Y60492800D02*
X73952381Y60445181D01*
X73952381Y60445181D02*
X74142857Y60445181D01*
X74142857Y60445181D02*
X74238095Y60492800D01*
X74238095Y60492800D02*
X74285714Y60540420D01*
X74285714Y60540420D02*
X74333333Y60635658D01*
X74333333Y60635658D02*
X74333333Y61445181D01*
X75333333Y60445181D02*
X74761905Y60445181D01*
X75047619Y60445181D02*
X75047619Y61445181D01*
X75047619Y61445181D02*
X74952381Y61302324D01*
X74952381Y61302324D02*
X74857143Y61207086D01*
X74857143Y61207086D02*
X74761905Y61159467D01*
X75952381Y61445181D02*
X76047619Y61445181D01*
X76047619Y61445181D02*
X76142857Y61397562D01*
X76142857Y61397562D02*
X76190476Y61349943D01*
X76190476Y61349943D02*
X76238095Y61254705D01*
X76238095Y61254705D02*
X76285714Y61064229D01*
X76285714Y61064229D02*
X76285714Y60826134D01*
X76285714Y60826134D02*
X76238095Y60635658D01*
X76238095Y60635658D02*
X76190476Y60540420D01*
X76190476Y60540420D02*
X76142857Y60492800D01*
X76142857Y60492800D02*
X76047619Y60445181D01*
X76047619Y60445181D02*
X75952381Y60445181D01*
X75952381Y60445181D02*
X75857143Y60492800D01*
X75857143Y60492800D02*
X75809524Y60540420D01*
X75809524Y60540420D02*
X75761905Y60635658D01*
X75761905Y60635658D02*
X75714286Y60826134D01*
X75714286Y60826134D02*
X75714286Y61064229D01*
X75714286Y61064229D02*
X75761905Y61254705D01*
X75761905Y61254705D02*
X75809524Y61349943D01*
X75809524Y61349943D02*
X75857143Y61397562D01*
X75857143Y61397562D02*
X75952381Y61445181D01*
X17625057Y45879762D02*
X17577438Y45784524D01*
X17577438Y45784524D02*
X17482200Y45689286D01*
X17482200Y45689286D02*
X17339342Y45546429D01*
X17339342Y45546429D02*
X17291723Y45451191D01*
X17291723Y45451191D02*
X17291723Y45355953D01*
X17529819Y45403572D02*
X17482200Y45308334D01*
X17482200Y45308334D02*
X17386961Y45213096D01*
X17386961Y45213096D02*
X17196485Y45165477D01*
X17196485Y45165477D02*
X16863152Y45165477D01*
X16863152Y45165477D02*
X16672676Y45213096D01*
X16672676Y45213096D02*
X16577438Y45308334D01*
X16577438Y45308334D02*
X16529819Y45403572D01*
X16529819Y45403572D02*
X16529819Y45594048D01*
X16529819Y45594048D02*
X16577438Y45689286D01*
X16577438Y45689286D02*
X16672676Y45784524D01*
X16672676Y45784524D02*
X16863152Y45832143D01*
X16863152Y45832143D02*
X17196485Y45832143D01*
X17196485Y45832143D02*
X17386961Y45784524D01*
X17386961Y45784524D02*
X17482200Y45689286D01*
X17482200Y45689286D02*
X17529819Y45594048D01*
X17529819Y45594048D02*
X17529819Y45403572D01*
X16863152Y46689286D02*
X17529819Y46689286D01*
X16482200Y46451191D02*
X17196485Y46213096D01*
X17196485Y46213096D02*
X17196485Y46832143D01*
X17625057Y23529762D02*
X17577438Y23434524D01*
X17577438Y23434524D02*
X17482200Y23339286D01*
X17482200Y23339286D02*
X17339342Y23196429D01*
X17339342Y23196429D02*
X17291723Y23101191D01*
X17291723Y23101191D02*
X17291723Y23005953D01*
X17529819Y23053572D02*
X17482200Y22958334D01*
X17482200Y22958334D02*
X17386961Y22863096D01*
X17386961Y22863096D02*
X17196485Y22815477D01*
X17196485Y22815477D02*
X16863152Y22815477D01*
X16863152Y22815477D02*
X16672676Y22863096D01*
X16672676Y22863096D02*
X16577438Y22958334D01*
X16577438Y22958334D02*
X16529819Y23053572D01*
X16529819Y23053572D02*
X16529819Y23244048D01*
X16529819Y23244048D02*
X16577438Y23339286D01*
X16577438Y23339286D02*
X16672676Y23434524D01*
X16672676Y23434524D02*
X16863152Y23482143D01*
X16863152Y23482143D02*
X17196485Y23482143D01*
X17196485Y23482143D02*
X17386961Y23434524D01*
X17386961Y23434524D02*
X17482200Y23339286D01*
X17482200Y23339286D02*
X17529819Y23244048D01*
X17529819Y23244048D02*
X17529819Y23053572D01*
X17529819Y24434524D02*
X17529819Y23863096D01*
X17529819Y24148810D02*
X16529819Y24148810D01*
X16529819Y24148810D02*
X16672676Y24053572D01*
X16672676Y24053572D02*
X16767914Y23958334D01*
X16767914Y23958334D02*
X16815533Y23863096D01*
D14*
X71840911Y70510144D02*
X71478054Y70256144D01*
X71840911Y70074715D02*
X71078911Y70074715D01*
X71078911Y70074715D02*
X71078911Y70365001D01*
X71078911Y70365001D02*
X71115197Y70437572D01*
X71115197Y70437572D02*
X71151483Y70473858D01*
X71151483Y70473858D02*
X71224054Y70510144D01*
X71224054Y70510144D02*
X71332911Y70510144D01*
X71332911Y70510144D02*
X71405483Y70473858D01*
X71405483Y70473858D02*
X71441768Y70437572D01*
X71441768Y70437572D02*
X71478054Y70365001D01*
X71478054Y70365001D02*
X71478054Y70074715D01*
X71078911Y71199572D02*
X71078911Y70836715D01*
X71078911Y70836715D02*
X71441768Y70800429D01*
X71441768Y70800429D02*
X71405483Y70836715D01*
X71405483Y70836715D02*
X71369197Y70909286D01*
X71369197Y70909286D02*
X71369197Y71090715D01*
X71369197Y71090715D02*
X71405483Y71163286D01*
X71405483Y71163286D02*
X71441768Y71199572D01*
X71441768Y71199572D02*
X71514340Y71235858D01*
X71514340Y71235858D02*
X71695768Y71235858D01*
X71695768Y71235858D02*
X71768340Y71199572D01*
X71768340Y71199572D02*
X71804626Y71163286D01*
X71804626Y71163286D02*
X71840911Y71090715D01*
X71840911Y71090715D02*
X71840911Y70909286D01*
X71840911Y70909286D02*
X71804626Y70836715D01*
X71804626Y70836715D02*
X71768340Y70800429D01*
X71332911Y71889000D02*
X71840911Y71889000D01*
X71042626Y71707572D02*
X71586911Y71526143D01*
X71586911Y71526143D02*
X71586911Y71997858D01*
D13*
G04 #@! TO.C,C13*
X22849986Y57040000D02*
X22100001Y57040000D01*
D12*
G04 #@! TO.C,U1*
X9575000Y61850000D02*
X12975000Y61850000D01*
X11475000Y55500000D02*
X11475000Y55150000D01*
X11475000Y55150000D02*
X13025000Y55150000D01*
X19275000Y61850000D02*
X17725000Y61850000D01*
X19275000Y61500000D02*
X19275000Y61850000D01*
X19275000Y55500000D02*
X19275000Y55150000D01*
X19275000Y55150000D02*
X17725000Y55150000D01*
G04 #@! TO.C,J1*
X-8595733Y88216479D02*
X-8595733Y69716479D01*
X-8595733Y69716479D02*
X93404267Y69716479D01*
X93404267Y69716479D02*
X93404267Y88716479D01*
D16*
G04 #@! TO.C,R13*
X34300000Y68024000D02*
X34300000Y67008000D01*
X32700000Y67008000D02*
X32700000Y68024000D01*
X34300000Y65992000D02*
X34300000Y64976000D01*
X32700000Y64976000D02*
X32700000Y65992000D01*
D17*
X34300000Y68075000D02*
G75*
G03*
X32696506Y68083602I-800000J330000D01*
G01*
X32698362Y64921000D02*
G75*
G03*
X34300000Y64925000I801638J-326000D01*
G01*
D13*
G04 #@! TO.C,C4*
X17075000Y52000000D02*
X18075000Y52000000D01*
D17*
G04 #@! TO.C,G2*
X73676000Y6864000D02*
X80788000Y6864000D01*
X80788000Y6864000D02*
X80788000Y19056000D01*
X80788000Y19056000D02*
X73676000Y19056000D01*
X73676000Y19056000D02*
X73676000Y6864000D01*
D16*
G04 #@! TO.C,R11*
X8571000Y69300000D02*
X9587000Y69300000D01*
X9587000Y67700000D02*
X8571000Y67700000D01*
X10603000Y69300000D02*
X11619000Y69300000D01*
X11619000Y67700000D02*
X10603000Y67700000D01*
D17*
X8520000Y69300000D02*
G75*
G03*
X8511398Y67696506I-330000J-800000D01*
G01*
X11674000Y67698362D02*
G75*
G03*
X11670000Y69300000I326000J801638D01*
G01*
D13*
G04 #@! TO.C,C5*
X19075000Y52000000D02*
X20075000Y52000000D01*
D17*
G04 #@! TO.C,Q10*
X59950000Y43350000D02*
X59025000Y43350000D01*
X57940000Y44000000D02*
X57940000Y42325000D01*
X57940000Y44000000D02*
X57940000Y44650000D01*
X61060000Y44000000D02*
X61060000Y43350000D01*
X61060000Y44000000D02*
X61060000Y44650000D01*
X59000000Y44750000D02*
X57940000Y44750000D01*
X61050000Y44750000D02*
X60050000Y44750000D01*
D16*
G04 #@! TO.C,R14*
X32300000Y68024000D02*
X32300000Y67008000D01*
X30700000Y67008000D02*
X30700000Y68024000D01*
X32300000Y65992000D02*
X32300000Y64976000D01*
X30700000Y64976000D02*
X30700000Y65992000D01*
D17*
X32300000Y68075000D02*
G75*
G03*
X30696506Y68083602I-800000J330000D01*
G01*
X30698362Y64921000D02*
G75*
G03*
X32300000Y64925000I801638J-326000D01*
G01*
G04 #@! TO.C,Q7*
X77950000Y39350000D02*
X77025000Y39350000D01*
X75940000Y40000000D02*
X75940000Y38325000D01*
X75940000Y40000000D02*
X75940000Y40650000D01*
X79060000Y40000000D02*
X79060000Y39350000D01*
X79060000Y40000000D02*
X79060000Y40650000D01*
X77000000Y40750000D02*
X75940000Y40750000D01*
X79050000Y40750000D02*
X78050000Y40750000D01*
G04 #@! TO.C,Q9*
X65950000Y43412500D02*
X65025000Y43412500D01*
X63940000Y44062500D02*
X63940000Y42387500D01*
X63940000Y44062500D02*
X63940000Y44712500D01*
X67060000Y44062500D02*
X67060000Y43412500D01*
X67060000Y44062500D02*
X67060000Y44712500D01*
X65000000Y44812500D02*
X63940000Y44812500D01*
X67050000Y44812500D02*
X66050000Y44812500D01*
D13*
G04 #@! TO.C,C12*
X7350014Y56000000D02*
X8099999Y56000000D01*
D17*
G04 #@! TO.C,U11*
X75000000Y53060000D02*
X71550000Y53060000D01*
X75000000Y53060000D02*
X76950000Y53060000D01*
X75000000Y47940000D02*
X73050000Y47940000D01*
X75000000Y47940000D02*
X76950000Y47940000D01*
D18*
G04 #@! TO.C,R38*
X59298944Y41129160D02*
X59698943Y41129149D01*
X59300000Y41874995D02*
X59700000Y41874985D01*
G04 #@! TO.C,R40*
X77298944Y31629160D02*
X77698943Y31629149D01*
X77300000Y32374995D02*
X77700000Y32374985D01*
D17*
G04 #@! TO.C,Q8*
X57900000Y50787500D02*
X56975000Y50787500D01*
X55890000Y51437500D02*
X55890000Y49762500D01*
X55890000Y51437500D02*
X55890000Y52087500D01*
X59010000Y51437500D02*
X59010000Y50787500D01*
X59010000Y51437500D02*
X59010000Y52087500D01*
X56950000Y52187500D02*
X55890000Y52187500D01*
X59000000Y52187500D02*
X58000000Y52187500D01*
D16*
G04 #@! TO.C,R12*
X22800000Y68024000D02*
X22800000Y67008000D01*
X21200000Y67008000D02*
X21200000Y68024000D01*
X22800000Y65992000D02*
X22800000Y64976000D01*
X21200000Y64976000D02*
X21200000Y65992000D01*
D17*
X22800000Y68075000D02*
G75*
G03*
X21196506Y68083602I-800000J330000D01*
G01*
X21198362Y64921000D02*
G75*
G03*
X22800000Y64925000I801638J-326000D01*
G01*
G04 #@! TO.C,F2*
X54000000Y67400000D02*
X54000000Y62550000D01*
X52000000Y67400000D02*
X52000000Y62550000D01*
X54000000Y67450000D02*
G75*
G03*
X52000000Y67450000I-1000000J0D01*
G01*
X52000000Y62550000D02*
G75*
G03*
X54000000Y62550000I1000000J0D01*
G01*
D18*
G04 #@! TO.C,R33*
X77298944Y42629160D02*
X77698943Y42629149D01*
X77300000Y43374995D02*
X77700000Y43374985D01*
G04 #@! TO.C,R41*
X71298944Y31629160D02*
X71698943Y31629149D01*
X71300000Y32374995D02*
X71700000Y32374985D01*
D16*
G04 #@! TO.C,R15*
X29050000Y68024000D02*
X29050000Y67008000D01*
X27450000Y67008000D02*
X27450000Y68024000D01*
X29050000Y65992000D02*
X29050000Y64976000D01*
X27450000Y64976000D02*
X27450000Y65992000D01*
D17*
X29050000Y68075000D02*
G75*
G03*
X27446506Y68083602I-800000J330000D01*
G01*
X27448362Y64921000D02*
G75*
G03*
X29050000Y64925000I801638J-326000D01*
G01*
D13*
G04 #@! TO.C,C14*
X8349986Y15000000D02*
X7600001Y15000000D01*
D17*
G04 #@! TO.C,F1*
X69400000Y67900000D02*
X69400000Y63050000D01*
X67400000Y67900000D02*
X67400000Y63050000D01*
X69400000Y67950000D02*
G75*
G03*
X67400000Y67950000I-1000000J0D01*
G01*
X67400000Y63050000D02*
G75*
G03*
X69400000Y63050000I1000000J0D01*
G01*
G04 #@! TO.C,R45*
X68600000Y26420000D02*
X69600000Y26420000D01*
X68600000Y29780000D02*
X69600000Y29780000D01*
G04 #@! TO.C,U5*
X75000000Y25060000D02*
X71550000Y25060000D01*
X75000000Y25060000D02*
X76950000Y25060000D01*
X75000000Y19940000D02*
X73050000Y19940000D01*
X75000000Y19940000D02*
X76950000Y19940000D01*
G04 #@! TO.C,Q12*
X77950000Y33850000D02*
X77025000Y33850000D01*
X75940000Y34500000D02*
X75940000Y32825000D01*
X75940000Y34500000D02*
X75940000Y35150000D01*
X79060000Y34500000D02*
X79060000Y33850000D01*
X79060000Y34500000D02*
X79060000Y35150000D01*
X77000000Y35250000D02*
X75940000Y35250000D01*
X79050000Y35250000D02*
X78050000Y35250000D01*
G04 #@! TO.C,Q11*
X71950000Y44850000D02*
X71025000Y44850000D01*
X69940000Y45500000D02*
X69940000Y43825000D01*
X69940000Y45500000D02*
X69940000Y46150000D01*
X73060000Y45500000D02*
X73060000Y44850000D01*
X73060000Y45500000D02*
X73060000Y46150000D01*
X71000000Y46250000D02*
X69940000Y46250000D01*
X73050000Y46250000D02*
X72050000Y46250000D01*
G04 #@! TO.C,Q5*
X77950000Y44850000D02*
X77025000Y44850000D01*
X75940000Y45500000D02*
X75940000Y43825000D01*
X75940000Y45500000D02*
X75940000Y46150000D01*
X79060000Y45500000D02*
X79060000Y44850000D01*
X79060000Y45500000D02*
X79060000Y46150000D01*
X77000000Y46250000D02*
X75940000Y46250000D01*
X79050000Y46250000D02*
X78050000Y46250000D01*
D13*
G04 #@! TO.C,C11*
X8049986Y59000000D02*
X7300001Y59000000D01*
D17*
G04 #@! TO.C,D5*
X61500000Y41250000D02*
X63500000Y41250000D01*
X61500000Y41250000D02*
X61500000Y45150000D01*
X63500000Y41250000D02*
X63500000Y45150000D01*
D15*
X62500000Y42950000D02*
X62500000Y43150000D01*
X62500000Y43150000D02*
X62150000Y43850000D01*
X62500000Y43150000D02*
X62850000Y43850000D01*
X62850000Y43150000D02*
X62150000Y43150000D01*
X62500000Y43850000D02*
X62500000Y44150000D01*
X62850000Y43850000D02*
X62150000Y43850000D01*
D17*
G04 #@! TO.C,Q2*
X15470000Y27550000D02*
X15470000Y27820000D01*
X15470000Y27820000D02*
X18300000Y27820000D01*
X15470000Y34180000D02*
X16570000Y34180000D01*
X15470000Y34450000D02*
X15470000Y34180000D01*
X9050000Y27550000D02*
X15470000Y27550000D01*
X9050000Y34450000D02*
X15470000Y34450000D01*
D18*
G04 #@! TO.C,R20*
X18870840Y17711444D02*
X18870851Y18111443D01*
X18125005Y17712500D02*
X18125015Y18112500D01*
G04 #@! TO.C,R39*
X71298944Y42629160D02*
X71698943Y42629149D01*
X71300000Y43374995D02*
X71700000Y43374985D01*
G04 #@! TO.C,R36*
X57248944Y48566660D02*
X57648943Y48566649D01*
X57250000Y49312495D02*
X57650000Y49312485D01*
D17*
G04 #@! TO.C,R44*
X66000000Y29780000D02*
X65000000Y29780000D01*
X66000000Y26420000D02*
X65000000Y26420000D01*
G04 #@! TO.C,Q13*
X71950000Y33850000D02*
X71025000Y33850000D01*
X69940000Y34500000D02*
X69940000Y32825000D01*
X69940000Y34500000D02*
X69940000Y35150000D01*
X73060000Y34500000D02*
X73060000Y33850000D01*
X73060000Y34500000D02*
X73060000Y35150000D01*
X71000000Y35250000D02*
X69940000Y35250000D01*
X73050000Y35250000D02*
X72050000Y35250000D01*
G04 #@! TO.C,F3*
X51500000Y67400000D02*
X51500000Y62550000D01*
X49500000Y67400000D02*
X49500000Y62550000D01*
X51500000Y67450000D02*
G75*
G03*
X49500000Y67450000I-1000000J0D01*
G01*
X49500000Y62550000D02*
G75*
G03*
X51500000Y62550000I1000000J0D01*
G01*
D18*
G04 #@! TO.C,R37*
X64798944Y41129160D02*
X65198943Y41129149D01*
X64800000Y41874995D02*
X65200000Y41874985D01*
D16*
G04 #@! TO.C,R1*
X64800000Y67024000D02*
X64800000Y66008000D01*
X63200000Y66008000D02*
X63200000Y67024000D01*
X64800000Y64992000D02*
X64800000Y63976000D01*
X63200000Y63976000D02*
X63200000Y64992000D01*
D17*
X64800000Y67075000D02*
G75*
G03*
X63196506Y67083602I-800000J330000D01*
G01*
X63198362Y63921000D02*
G75*
G03*
X64800000Y63925000I801638J-326000D01*
G01*
G04 #@! TO.C,G1*
X65444000Y6864000D02*
X72556000Y6864000D01*
X72556000Y6864000D02*
X72556000Y19056000D01*
X72556000Y19056000D02*
X65444000Y19056000D01*
X65444000Y19056000D02*
X65444000Y6864000D01*
G04 #@! TO.C,D8*
X73500000Y31750000D02*
X75500000Y31750000D01*
X73500000Y31750000D02*
X73500000Y35650000D01*
X75500000Y31750000D02*
X75500000Y35650000D01*
D15*
X74500000Y33450000D02*
X74500000Y33650000D01*
X74500000Y33650000D02*
X74150000Y34350000D01*
X74500000Y33650000D02*
X74850000Y34350000D01*
X74850000Y33650000D02*
X74150000Y33650000D01*
X74500000Y34350000D02*
X74500000Y34650000D01*
X74850000Y34350000D02*
X74150000Y34350000D01*
D17*
G04 #@! TO.C,U7*
X13000000Y18235000D02*
X9400000Y18235000D01*
X13000000Y18235000D02*
X15200000Y18235000D01*
X13000000Y12765000D02*
X10800000Y12765000D01*
X13000000Y12765000D02*
X15200000Y12765000D01*
D18*
G04 #@! TO.C,R34*
X71298944Y37129160D02*
X71698943Y37129149D01*
X71300000Y37874995D02*
X71700000Y37874985D01*
D13*
G04 #@! TO.C,C6*
X11575000Y65000000D02*
X10575000Y65000000D01*
D16*
G04 #@! TO.C,R9*
X38300000Y68024000D02*
X38300000Y67008000D01*
X36700000Y67008000D02*
X36700000Y68024000D01*
X38300000Y65992000D02*
X38300000Y64976000D01*
X36700000Y64976000D02*
X36700000Y65992000D01*
D17*
X38300000Y68075000D02*
G75*
G03*
X36696506Y68083602I-800000J330000D01*
G01*
X36698362Y64921000D02*
G75*
G03*
X38300000Y64925000I801638J-326000D01*
G01*
D16*
G04 #@! TO.C,R6*
X77800000Y67024000D02*
X77800000Y66008000D01*
X76200000Y66008000D02*
X76200000Y67024000D01*
X77800000Y64992000D02*
X77800000Y63976000D01*
X76200000Y63976000D02*
X76200000Y64992000D01*
D17*
X77800000Y67075000D02*
G75*
G03*
X76196506Y67083602I-800000J330000D01*
G01*
X76198362Y63921000D02*
G75*
G03*
X77800000Y63925000I801638J-326000D01*
G01*
D12*
G04 #@! TO.C,J2*
X23650000Y39200000D02*
X23650000Y31400000D01*
X23050000Y39200000D02*
X23650000Y39200000D01*
X20150000Y39200000D02*
X19550000Y39200000D01*
X19550000Y39200000D02*
X19550000Y31400000D01*
X19250000Y37400000D02*
X19250000Y36400000D01*
X23650000Y31400000D02*
X23050000Y31400000D01*
X19550000Y31400000D02*
X20150000Y31400000D01*
D13*
G04 #@! TO.C,M3*
X32925000Y58824998D02*
X23825000Y58824998D01*
X32925000Y61925001D02*
X32925000Y60924999D01*
X32925000Y61925001D02*
X23825000Y61925001D01*
D17*
G04 #@! TO.C,U4*
X75000000Y30825000D02*
X71550000Y30825000D01*
X75000000Y30825000D02*
X76950000Y30825000D01*
X75000000Y25705000D02*
X73050000Y25705000D01*
X75000000Y25705000D02*
X76950000Y25705000D01*
D13*
G04 #@! TO.C,C2*
X13075000Y52000000D02*
X14075000Y52000000D01*
D18*
G04 #@! TO.C,R53*
X58898944Y46691660D02*
X59298943Y46691649D01*
X58900000Y47437495D02*
X59300000Y47437485D01*
D16*
G04 #@! TO.C,R4*
X72200000Y67024000D02*
X72200000Y66008000D01*
X70600000Y66008000D02*
X70600000Y67024000D01*
X72200000Y64992000D02*
X72200000Y63976000D01*
X70600000Y63976000D02*
X70600000Y64992000D01*
D17*
X72200000Y67075000D02*
G75*
G03*
X70596506Y67083602I-800000J330000D01*
G01*
X70598362Y63921000D02*
G75*
G03*
X72200000Y63925000I801638J-326000D01*
G01*
G04 #@! TO.C,D1*
X61450000Y50800000D02*
X60525000Y50800000D01*
X59440000Y51450000D02*
X59440000Y49775000D01*
X59440000Y51450000D02*
X59440000Y52100000D01*
X62560000Y51450000D02*
X62560000Y50800000D01*
X62560000Y51450000D02*
X62560000Y52100000D01*
X60500000Y52200000D02*
X59440000Y52200000D01*
X62550000Y52200000D02*
X61550000Y52200000D01*
D16*
G04 #@! TO.C,R8*
X74100000Y67024000D02*
X74100000Y66008000D01*
X72500000Y66008000D02*
X72500000Y67024000D01*
X74100000Y64992000D02*
X74100000Y63976000D01*
X72500000Y63976000D02*
X72500000Y64992000D01*
D17*
X74100000Y67075000D02*
G75*
G03*
X72496506Y67083602I-800000J330000D01*
G01*
X72498362Y63921000D02*
G75*
G03*
X74100000Y63925000I801638J-326000D01*
G01*
D13*
G04 #@! TO.C,C1*
X11075000Y52000000D02*
X12075000Y52000000D01*
D17*
G04 #@! TO.C,D4*
X73500000Y37250000D02*
X75500000Y37250000D01*
X73500000Y37250000D02*
X73500000Y41150000D01*
X75500000Y37250000D02*
X75500000Y41150000D01*
D15*
X74500000Y38950000D02*
X74500000Y39150000D01*
X74500000Y39150000D02*
X74150000Y39850000D01*
X74500000Y39150000D02*
X74850000Y39850000D01*
X74850000Y39150000D02*
X74150000Y39150000D01*
X74500000Y39850000D02*
X74500000Y40150000D01*
X74850000Y39850000D02*
X74150000Y39850000D01*
D18*
G04 #@! TO.C,R52*
X64601056Y47433340D02*
X64201057Y47433351D01*
X64600000Y46687505D02*
X64200000Y46687515D01*
G04 #@! TO.C,G4*
D19*
X4640460Y15115440D02*
X4698880Y15123060D01*
X4744600Y15262760D01*
X4767460Y15519300D01*
X4770000Y15615820D01*
X4757300Y15887600D01*
X4724280Y16070480D01*
X4686180Y16123820D01*
X4609980Y16055240D01*
X4599820Y15996820D01*
X4594740Y15935860D01*
X4564260Y15897760D01*
X4482980Y15887600D01*
X4322960Y15902840D01*
X4061340Y15946020D01*
X3672720Y16022220D01*
X3418720Y16073020D01*
X2936120Y16177160D01*
X2605920Y16273680D01*
X2435740Y16354960D01*
X2412880Y16385440D01*
X2318900Y16532760D01*
X2283340Y16563240D01*
X2275720Y16626740D01*
X2407800Y16700400D01*
X2649100Y16774060D01*
X2966600Y16835020D01*
X3103760Y16852800D01*
X3799720Y16850260D01*
X4490600Y16695320D01*
X5143380Y16395600D01*
X5719960Y15966340D01*
X5877440Y15813940D01*
X6294000Y15300860D01*
X6570860Y14775080D01*
X6725800Y14188340D01*
X6774060Y13627000D01*
X6768980Y13032640D01*
X6700400Y12572900D01*
X6664840Y12443360D01*
X6362580Y11765180D01*
X5918080Y11178440D01*
X5331340Y10680600D01*
X4846200Y10391040D01*
X4627760Y10284360D01*
X4429640Y10215780D01*
X4208660Y10177680D01*
X3919100Y10159900D01*
X3510160Y10154820D01*
X3456820Y10154820D01*
X3032640Y10159900D01*
X2727840Y10175140D01*
X2496700Y10213240D01*
X2288420Y10279280D01*
X2057280Y10383420D01*
X2031880Y10398660D01*
X1503560Y10731400D01*
X1005720Y11183520D01*
X594240Y11701680D01*
X406280Y12024260D01*
X297060Y12263020D01*
X223400Y12468760D01*
X182760Y12694820D01*
X164044Y12961520D01*
X2146180Y12961520D01*
X2146180Y12003940D01*
X2148720Y11579760D01*
X2161420Y11297820D01*
X2186820Y11132720D01*
X2227460Y11059060D01*
X2273180Y11043820D01*
X2382400Y11112400D01*
X2400180Y11175900D01*
X2456060Y11272420D01*
X2547500Y11267340D01*
X2687200Y11234320D01*
X2953900Y11175900D01*
X3304420Y11104780D01*
X3647320Y11036200D01*
X4124840Y10934600D01*
X4439800Y10843160D01*
X4587120Y10766960D01*
X4599820Y10741560D01*
X4658240Y10601860D01*
X4686180Y10579000D01*
X4724280Y10634880D01*
X4752220Y10850780D01*
X4767460Y11221620D01*
X4770000Y11546740D01*
X4770000Y12567820D01*
X4516000Y12567820D01*
X4312800Y12529720D01*
X4262000Y12440820D01*
X4325500Y12329060D01*
X4381380Y12313820D01*
X4449960Y12240160D01*
X4518540Y12054740D01*
X4571880Y11821060D01*
X4599820Y11595000D01*
X4587120Y11437520D01*
X4569340Y11409580D01*
X4467740Y11394340D01*
X4249300Y11401960D01*
X4053720Y11422280D01*
X3583820Y11480700D01*
X3583820Y11813440D01*
X3604140Y12021720D01*
X3657480Y12138560D01*
X3675260Y12146180D01*
X3759080Y12179200D01*
X3723520Y12255400D01*
X3604140Y12344300D01*
X3431420Y12407800D01*
X3428880Y12407800D01*
X3235840Y12425580D01*
X3162180Y12369700D01*
X3162180Y12346840D01*
X3210440Y12240160D01*
X3246000Y12230000D01*
X3299340Y12153800D01*
X3329820Y11968380D01*
X3329820Y11904880D01*
X3329820Y11582300D01*
X2865000Y11666120D01*
X2397640Y11749940D01*
X2400180Y12252860D01*
X2405260Y12534800D01*
X2433200Y12679580D01*
X2491620Y12715140D01*
X2527180Y12707520D01*
X2636400Y12717680D01*
X2654180Y12773560D01*
X2577980Y12865000D01*
X2402720Y12923420D01*
X2400180Y12925960D01*
X2146180Y12961520D01*
X164044Y12961520D01*
X162440Y12984380D01*
X157360Y13390780D01*
X157360Y13459360D01*
X159900Y13878460D01*
X175140Y14180720D01*
X192130Y14289940D01*
X2146180Y14289940D01*
X2148720Y13865760D01*
X2161420Y13583820D01*
X2186820Y13418720D01*
X2227460Y13345060D01*
X2273180Y13329820D01*
X2384940Y13398400D01*
X2400180Y13456820D01*
X2395100Y13515240D01*
X2402720Y13553340D01*
X2445900Y13568580D01*
X2550040Y13560960D01*
X2745620Y13525400D01*
X3052960Y13464440D01*
X3500000Y13373000D01*
X3896240Y13291720D01*
X4228980Y13225680D01*
X4462660Y13179960D01*
X4566800Y13162180D01*
X4569340Y13162180D01*
X4597280Y13091060D01*
X4599820Y13035180D01*
X4627760Y12961520D01*
X4645540Y12920880D01*
X4686180Y12908180D01*
X4729360Y12984380D01*
X4759840Y13185040D01*
X4770000Y13416180D01*
X4757300Y13685420D01*
X4724280Y13868300D01*
X4686180Y13924180D01*
X4612520Y13853060D01*
X4599820Y13787020D01*
X4574420Y13705740D01*
X4467740Y13680340D01*
X4241680Y13703200D01*
X4208660Y13708280D01*
X3947040Y13754000D01*
X3748920Y13797180D01*
X3700660Y13812420D01*
X3629540Y13908940D01*
X3588900Y14084200D01*
X3588900Y14274700D01*
X3627000Y14406780D01*
X3670180Y14432180D01*
X3759080Y14472820D01*
X3741300Y14566800D01*
X3637160Y14665860D01*
X3520320Y14709040D01*
X3306960Y14729360D01*
X3246000Y14678560D01*
X3314580Y14582040D01*
X3383160Y14432180D01*
X3413640Y14208660D01*
X3416180Y14190880D01*
X3416180Y13901320D01*
X2974220Y13959740D01*
X2712600Y14000380D01*
X2522100Y14041020D01*
X2466220Y14058800D01*
X2430660Y14160400D01*
X2405260Y14378840D01*
X2400180Y14571880D01*
X2407800Y14841120D01*
X2438280Y14973200D01*
X2499240Y15001140D01*
X2524640Y14993520D01*
X2636400Y15003680D01*
X2654180Y15059560D01*
X2577980Y15151000D01*
X2402720Y15209420D01*
X2400180Y15211960D01*
X2146180Y15247520D01*
X2146180Y14289940D01*
X192130Y14289940D01*
X210700Y14409320D01*
X276740Y14617600D01*
X383420Y14853820D01*
X426600Y14940180D01*
X764420Y15476120D01*
X1211460Y15979040D01*
X1716920Y16387980D01*
X1828680Y16456560D01*
X2146180Y16647060D01*
X2146180Y16139060D01*
X2158880Y15826640D01*
X2204600Y15648840D01*
X2270640Y15585340D01*
X2379860Y15600580D01*
X2397640Y15671700D01*
X2440820Y15763140D01*
X2593220Y15765680D01*
X2631320Y15758060D01*
X2814200Y15722500D01*
X3113920Y15669160D01*
X3482220Y15600580D01*
X3703200Y15562480D01*
X4104520Y15483740D01*
X4366140Y15415160D01*
X4516000Y15346580D01*
X4576960Y15270380D01*
X4579500Y15260220D01*
X4584580Y15247520D01*
X4640460Y15115440D01*
G36*
X4640460Y15115440D02*
G01*
X4698880Y15123060D01*
X4744600Y15262760D01*
X4767460Y15519300D01*
X4770000Y15615820D01*
X4757300Y15887600D01*
X4724280Y16070480D01*
X4686180Y16123820D01*
X4609980Y16055240D01*
X4599820Y15996820D01*
X4594740Y15935860D01*
X4564260Y15897760D01*
X4482980Y15887600D01*
X4322960Y15902840D01*
X4061340Y15946020D01*
X3672720Y16022220D01*
X3418720Y16073020D01*
X2936120Y16177160D01*
X2605920Y16273680D01*
X2435740Y16354960D01*
X2412880Y16385440D01*
X2318900Y16532760D01*
X2283340Y16563240D01*
X2275720Y16626740D01*
X2407800Y16700400D01*
X2649100Y16774060D01*
X2966600Y16835020D01*
X3103760Y16852800D01*
X3799720Y16850260D01*
X4490600Y16695320D01*
X5143380Y16395600D01*
X5719960Y15966340D01*
X5877440Y15813940D01*
X6294000Y15300860D01*
X6570860Y14775080D01*
X6725800Y14188340D01*
X6774060Y13627000D01*
X6768980Y13032640D01*
X6700400Y12572900D01*
X6664840Y12443360D01*
X6362580Y11765180D01*
X5918080Y11178440D01*
X5331340Y10680600D01*
X4846200Y10391040D01*
X4627760Y10284360D01*
X4429640Y10215780D01*
X4208660Y10177680D01*
X3919100Y10159900D01*
X3510160Y10154820D01*
X3456820Y10154820D01*
X3032640Y10159900D01*
X2727840Y10175140D01*
X2496700Y10213240D01*
X2288420Y10279280D01*
X2057280Y10383420D01*
X2031880Y10398660D01*
X1503560Y10731400D01*
X1005720Y11183520D01*
X594240Y11701680D01*
X406280Y12024260D01*
X297060Y12263020D01*
X223400Y12468760D01*
X182760Y12694820D01*
X164044Y12961520D01*
X2146180Y12961520D01*
X2146180Y12003940D01*
X2148720Y11579760D01*
X2161420Y11297820D01*
X2186820Y11132720D01*
X2227460Y11059060D01*
X2273180Y11043820D01*
X2382400Y11112400D01*
X2400180Y11175900D01*
X2456060Y11272420D01*
X2547500Y11267340D01*
X2687200Y11234320D01*
X2953900Y11175900D01*
X3304420Y11104780D01*
X3647320Y11036200D01*
X4124840Y10934600D01*
X4439800Y10843160D01*
X4587120Y10766960D01*
X4599820Y10741560D01*
X4658240Y10601860D01*
X4686180Y10579000D01*
X4724280Y10634880D01*
X4752220Y10850780D01*
X4767460Y11221620D01*
X4770000Y11546740D01*
X4770000Y12567820D01*
X4516000Y12567820D01*
X4312800Y12529720D01*
X4262000Y12440820D01*
X4325500Y12329060D01*
X4381380Y12313820D01*
X4449960Y12240160D01*
X4518540Y12054740D01*
X4571880Y11821060D01*
X4599820Y11595000D01*
X4587120Y11437520D01*
X4569340Y11409580D01*
X4467740Y11394340D01*
X4249300Y11401960D01*
X4053720Y11422280D01*
X3583820Y11480700D01*
X3583820Y11813440D01*
X3604140Y12021720D01*
X3657480Y12138560D01*
X3675260Y12146180D01*
X3759080Y12179200D01*
X3723520Y12255400D01*
X3604140Y12344300D01*
X3431420Y12407800D01*
X3428880Y12407800D01*
X3235840Y12425580D01*
X3162180Y12369700D01*
X3162180Y12346840D01*
X3210440Y12240160D01*
X3246000Y12230000D01*
X3299340Y12153800D01*
X3329820Y11968380D01*
X3329820Y11904880D01*
X3329820Y11582300D01*
X2865000Y11666120D01*
X2397640Y11749940D01*
X2400180Y12252860D01*
X2405260Y12534800D01*
X2433200Y12679580D01*
X2491620Y12715140D01*
X2527180Y12707520D01*
X2636400Y12717680D01*
X2654180Y12773560D01*
X2577980Y12865000D01*
X2402720Y12923420D01*
X2400180Y12925960D01*
X2146180Y12961520D01*
X164044Y12961520D01*
X162440Y12984380D01*
X157360Y13390780D01*
X157360Y13459360D01*
X159900Y13878460D01*
X175140Y14180720D01*
X192130Y14289940D01*
X2146180Y14289940D01*
X2148720Y13865760D01*
X2161420Y13583820D01*
X2186820Y13418720D01*
X2227460Y13345060D01*
X2273180Y13329820D01*
X2384940Y13398400D01*
X2400180Y13456820D01*
X2395100Y13515240D01*
X2402720Y13553340D01*
X2445900Y13568580D01*
X2550040Y13560960D01*
X2745620Y13525400D01*
X3052960Y13464440D01*
X3500000Y13373000D01*
X3896240Y13291720D01*
X4228980Y13225680D01*
X4462660Y13179960D01*
X4566800Y13162180D01*
X4569340Y13162180D01*
X4597280Y13091060D01*
X4599820Y13035180D01*
X4627760Y12961520D01*
X4645540Y12920880D01*
X4686180Y12908180D01*
X4729360Y12984380D01*
X4759840Y13185040D01*
X4770000Y13416180D01*
X4757300Y13685420D01*
X4724280Y13868300D01*
X4686180Y13924180D01*
X4612520Y13853060D01*
X4599820Y13787020D01*
X4574420Y13705740D01*
X4467740Y13680340D01*
X4241680Y13703200D01*
X4208660Y13708280D01*
X3947040Y13754000D01*
X3748920Y13797180D01*
X3700660Y13812420D01*
X3629540Y13908940D01*
X3588900Y14084200D01*
X3588900Y14274700D01*
X3627000Y14406780D01*
X3670180Y14432180D01*
X3759080Y14472820D01*
X3741300Y14566800D01*
X3637160Y14665860D01*
X3520320Y14709040D01*
X3306960Y14729360D01*
X3246000Y14678560D01*
X3314580Y14582040D01*
X3383160Y14432180D01*
X3413640Y14208660D01*
X3416180Y14190880D01*
X3416180Y13901320D01*
X2974220Y13959740D01*
X2712600Y14000380D01*
X2522100Y14041020D01*
X2466220Y14058800D01*
X2430660Y14160400D01*
X2405260Y14378840D01*
X2400180Y14571880D01*
X2407800Y14841120D01*
X2438280Y14973200D01*
X2499240Y15001140D01*
X2524640Y14993520D01*
X2636400Y15003680D01*
X2654180Y15059560D01*
X2577980Y15151000D01*
X2402720Y15209420D01*
X2400180Y15211960D01*
X2146180Y15247520D01*
X2146180Y14289940D01*
X192130Y14289940D01*
X210700Y14409320D01*
X276740Y14617600D01*
X383420Y14853820D01*
X426600Y14940180D01*
X764420Y15476120D01*
X1211460Y15979040D01*
X1716920Y16387980D01*
X1828680Y16456560D01*
X2146180Y16647060D01*
X2146180Y16139060D01*
X2158880Y15826640D01*
X2204600Y15648840D01*
X2270640Y15585340D01*
X2379860Y15600580D01*
X2397640Y15671700D01*
X2440820Y15763140D01*
X2593220Y15765680D01*
X2631320Y15758060D01*
X2814200Y15722500D01*
X3113920Y15669160D01*
X3482220Y15600580D01*
X3703200Y15562480D01*
X4104520Y15483740D01*
X4366140Y15415160D01*
X4516000Y15346580D01*
X4576960Y15270380D01*
X4579500Y15260220D01*
X4584580Y15247520D01*
X4640460Y15115440D01*
G37*
D16*
G04 #@! TO.C,R10*
X36300000Y68024000D02*
X36300000Y67008000D01*
X34700000Y67008000D02*
X34700000Y68024000D01*
X36300000Y65992000D02*
X36300000Y64976000D01*
X34700000Y64976000D02*
X34700000Y65992000D01*
D17*
X36300000Y68075000D02*
G75*
G03*
X34696506Y68083602I-800000J330000D01*
G01*
X34698362Y64921000D02*
G75*
G03*
X36300000Y64925000I801638J-326000D01*
G01*
D13*
G04 #@! TO.C,C7*
X13575000Y65000000D02*
X12575000Y65000000D01*
D17*
G04 #@! TO.C,R47*
X68500000Y50320000D02*
X69500000Y50320000D01*
X68500000Y53680000D02*
X69500000Y53680000D01*
G04 #@! TO.C,R46*
X65500000Y53680000D02*
X64500000Y53680000D01*
X65500000Y50320000D02*
X64500000Y50320000D01*
G04 #@! TO.C,D6*
X55500000Y41250000D02*
X57500000Y41250000D01*
X55500000Y41250000D02*
X55500000Y45150000D01*
X57500000Y41250000D02*
X57500000Y45150000D01*
D15*
X56500000Y42950000D02*
X56500000Y43150000D01*
X56500000Y43150000D02*
X56150000Y43850000D01*
X56500000Y43150000D02*
X56850000Y43850000D01*
X56850000Y43150000D02*
X56150000Y43150000D01*
X56500000Y43850000D02*
X56500000Y44150000D01*
X56850000Y43850000D02*
X56150000Y43850000D01*
D13*
G04 #@! TO.C,M2*
X33725000Y56375000D02*
X27325000Y56375000D01*
X24125000Y56375000D02*
X25425000Y56375000D01*
X24125000Y56375000D02*
X24125000Y41375000D01*
X33725000Y41975000D02*
X33725000Y56375000D01*
X24125000Y41375000D02*
X29225000Y41375000D01*
D16*
G04 #@! TO.C,R7*
X75900000Y67024000D02*
X75900000Y66008000D01*
X74300000Y66008000D02*
X74300000Y67024000D01*
X75900000Y64992000D02*
X75900000Y63976000D01*
X74300000Y63976000D02*
X74300000Y64992000D01*
D17*
X75900000Y67075000D02*
G75*
G03*
X74296506Y67083602I-800000J330000D01*
G01*
X74298362Y63921000D02*
G75*
G03*
X75900000Y63925000I801638J-326000D01*
G01*
G04 #@! TO.C,G3*
G36*
X7010349Y9381113D02*
G01*
X7014459Y9358282D01*
X7014491Y9354766D01*
X7025084Y9291715D01*
X7054528Y9215182D01*
X7099318Y9130255D01*
X7155949Y9042022D01*
X7220918Y8955570D01*
X7290718Y8875987D01*
X7361846Y8808360D01*
X7421876Y8763342D01*
X7484754Y8710584D01*
X7546728Y8636253D01*
X7602810Y8547551D01*
X7648011Y8451679D01*
X7659493Y8420280D01*
X7677417Y8364046D01*
X7686021Y8322988D01*
X7686357Y8285133D01*
X7679480Y8238511D01*
X7676763Y8224112D01*
X7651669Y8132584D01*
X7614556Y8047632D01*
X7569694Y7978020D01*
X7542590Y7948831D01*
X7508428Y7919964D01*
X7466829Y7887684D01*
X7424758Y7857019D01*
X7389179Y7832994D01*
X7367059Y7820635D01*
X7364002Y7819961D01*
X7347034Y7825448D01*
X7312336Y7838636D01*
X7285964Y7849165D01*
X7215044Y7882246D01*
X7155096Y7921541D01*
X7097477Y7973664D01*
X7040364Y8037132D01*
X6946842Y8152862D01*
X6874820Y8254212D01*
X6822444Y8344096D01*
X6787859Y8425427D01*
X6782522Y8442233D01*
X6770944Y8482522D01*
X6763299Y8516287D01*
X6759423Y8549854D01*
X6759155Y8589547D01*
X6762333Y8641691D01*
X6768794Y8712612D01*
X6774191Y8766935D01*
X6784966Y8859657D01*
X6798729Y8956661D01*
X6813860Y9047567D01*
X6828736Y9121993D01*
X6831592Y9134214D01*
X6848636Y9201630D01*
X6863245Y9247962D01*
X6878966Y9280564D01*
X6899346Y9306792D01*
X6927932Y9334000D01*
X6927948Y9334014D01*
X6970596Y9369818D01*
X6996896Y9385238D01*
X7010349Y9381113D01*
G37*
G36*
X13808609Y2234842D02*
G01*
X14151431Y2234667D01*
X14491164Y2234404D01*
X14826570Y2234054D01*
X15156414Y2233616D01*
X15479458Y2233091D01*
X15794467Y2232478D01*
X16100203Y2231778D01*
X16395431Y2230990D01*
X16678912Y2230114D01*
X16949412Y2229151D01*
X17205693Y2228101D01*
X17446518Y2226962D01*
X17670652Y2225737D01*
X17876857Y2224423D01*
X18063897Y2223022D01*
X18230536Y2221534D01*
X18375536Y2219958D01*
X18497661Y2218294D01*
X18595675Y2216543D01*
X18668341Y2214704D01*
X18714423Y2212778D01*
X18732683Y2210764D01*
X18732695Y2210757D01*
X18778847Y2170342D01*
X18806678Y2111267D01*
X18813575Y2056938D01*
X18807256Y2014424D01*
X18784380Y1976380D01*
X18764170Y1954500D01*
X18714765Y1905095D01*
X7868907Y1905095D01*
X7819502Y1954500D01*
X7785783Y1995002D01*
X7771654Y2033688D01*
X7770097Y2056938D01*
X7781597Y2126165D01*
X7813925Y2181502D01*
X7850977Y2210757D01*
X7869147Y2212772D01*
X7915142Y2214698D01*
X7987726Y2216537D01*
X8085661Y2218289D01*
X8207712Y2219953D01*
X8352642Y2221529D01*
X8519213Y2223018D01*
X8706191Y2224419D01*
X8912337Y2225733D01*
X9136416Y2226959D01*
X9377190Y2228097D01*
X9633424Y2229148D01*
X9903880Y2230111D01*
X10187323Y2230987D01*
X10482515Y2231775D01*
X10788220Y2232476D01*
X11103201Y2233089D01*
X11426222Y2233615D01*
X11756046Y2234053D01*
X12091437Y2234403D01*
X12431158Y2234666D01*
X12773972Y2234841D01*
X13118643Y2234929D01*
X13463934Y2234929D01*
X13808609Y2234842D01*
G37*
G36*
X7196736Y9741181D02*
G01*
X7209663Y9715558D01*
X7229357Y9668579D01*
X7237099Y9649874D01*
X7268761Y9585234D01*
X7309492Y9517148D01*
X7339371Y9474989D01*
X7361174Y9448132D01*
X7382370Y9425664D01*
X7406972Y9405130D01*
X7438995Y9384076D01*
X7482452Y9360046D01*
X7541358Y9330585D01*
X7619725Y9293238D01*
X7691575Y9259563D01*
X7793145Y9211500D01*
X7871802Y9172713D01*
X7931350Y9141042D01*
X7975595Y9114330D01*
X8008341Y9090416D01*
X8033393Y9067144D01*
X8036414Y9063910D01*
X8128755Y8952773D01*
X8202394Y8841568D01*
X8255461Y8733924D01*
X8286088Y8633473D01*
X8293209Y8564939D01*
X8279411Y8402951D01*
X8238382Y8249942D01*
X8170673Y8107613D01*
X8121175Y8033030D01*
X8080555Y7987588D01*
X8022097Y7934273D01*
X7952792Y7878323D01*
X7879631Y7824976D01*
X7809604Y7779470D01*
X7749702Y7747044D01*
X7727332Y7737914D01*
X7662220Y7719011D01*
X7606438Y7709400D01*
X7566985Y7710052D01*
X7556099Y7714163D01*
X7555774Y7727677D01*
X7575048Y7756056D01*
X7614937Y7800585D01*
X7662558Y7848882D01*
X7722026Y7909667D01*
X7765913Y7960733D01*
X7800824Y8011131D01*
X7833365Y8069911D01*
X7852979Y8109786D01*
X7884675Y8178694D01*
X7905114Y8232290D01*
X7917181Y8280651D01*
X7923763Y8333852D01*
X7925822Y8364077D01*
X7925285Y8470560D01*
X7912435Y8572872D01*
X7888787Y8663565D01*
X7855858Y8735195D01*
X7847806Y8747258D01*
X7808095Y8789141D01*
X7753784Y8829636D01*
X7727227Y8845027D01*
X7671599Y8877472D01*
X7604028Y8921943D01*
X7530601Y8973878D01*
X7457408Y9028713D01*
X7390537Y9081887D01*
X7336076Y9128836D01*
X7300113Y9164998D01*
X7299864Y9165295D01*
X7221244Y9279548D01*
X7165795Y9405367D01*
X7135707Y9536927D01*
X7130738Y9615068D01*
X7132980Y9669898D01*
X7141176Y9704598D01*
X7157527Y9727855D01*
X7159889Y9730061D01*
X7175714Y9744418D01*
X7186708Y9749463D01*
X7196736Y9741181D01*
G37*
G36*
X13218470Y5806339D02*
G01*
X13293421Y5778124D01*
X13350013Y5734187D01*
X13384108Y5676859D01*
X13385658Y5672034D01*
X13387853Y5648091D01*
X13388289Y5599973D01*
X13387066Y5532508D01*
X13384285Y5450524D01*
X13380048Y5358848D01*
X13378529Y5330558D01*
X13374485Y5257066D01*
X13371339Y5193283D01*
X13369364Y5135985D01*
X13368833Y5081948D01*
X13370016Y5027946D01*
X13373188Y4970756D01*
X13378621Y4907153D01*
X13386586Y4833913D01*
X13397357Y4747811D01*
X13411206Y4645623D01*
X13428405Y4524124D01*
X13449226Y4380089D01*
X13472126Y4222772D01*
X13487608Y4114630D01*
X13502655Y4006180D01*
X13516394Y3903965D01*
X13527952Y3814532D01*
X13536456Y3744424D01*
X13538999Y3721456D01*
X13548750Y3635795D01*
X13559997Y3551904D01*
X13573702Y3464093D01*
X13590827Y3366670D01*
X13612337Y3253943D01*
X13639193Y3120222D01*
X13647947Y3077538D01*
X13664908Y2991395D01*
X13679462Y2910334D01*
X13690583Y2840656D01*
X13697243Y2788664D01*
X13698701Y2766187D01*
X13687921Y2684197D01*
X13655471Y2621368D01*
X13601187Y2577565D01*
X13524905Y2552649D01*
X13437145Y2546261D01*
X13379168Y2548633D01*
X13325845Y2553582D01*
X13295833Y2558563D01*
X13227244Y2585457D01*
X13173056Y2627460D01*
X13155694Y2650006D01*
X13148267Y2673605D01*
X13138410Y2722746D01*
X13126568Y2794050D01*
X13113186Y2884139D01*
X13098710Y2989635D01*
X13083586Y3107161D01*
X13068259Y3233337D01*
X13053175Y3364787D01*
X13038779Y3498131D01*
X13025517Y3629993D01*
X13023145Y3654780D01*
X13014430Y3736546D01*
X13001972Y3839509D01*
X12986762Y3956192D01*
X12969791Y4079119D01*
X12952051Y4200814D01*
X12942238Y4265078D01*
X12908386Y4486554D01*
X12879961Y4681525D01*
X12856790Y4852003D01*
X12838700Y5000000D01*
X12825518Y5127529D01*
X12817070Y5236601D01*
X12813184Y5329228D01*
X12813687Y5407422D01*
X12818405Y5473196D01*
X12827165Y5528562D01*
X12831824Y5548483D01*
X12868876Y5651773D01*
X12920356Y5729898D01*
X12986452Y5783029D01*
X13067353Y5811335D01*
X13129295Y5816500D01*
X13218470Y5806339D01*
G37*
G36*
X14233065Y5814646D02*
G01*
X14306982Y5797784D01*
X14370856Y5764479D01*
X14418485Y5714946D01*
X14428589Y5697137D01*
X14437617Y5676089D01*
X14443655Y5652906D01*
X14446848Y5622701D01*
X14447346Y5580585D01*
X14445297Y5521670D01*
X14440848Y5441066D01*
X14437825Y5391988D01*
X14432272Y5294211D01*
X14428890Y5206518D01*
X14427986Y5124343D01*
X14429864Y5043119D01*
X14434827Y4958278D01*
X14443180Y4865255D01*
X14455228Y4759482D01*
X14471275Y4636393D01*
X14491625Y4491420D01*
X14503164Y4411674D01*
X14520384Y4291905D01*
X14536972Y4173690D01*
X14552233Y4062201D01*
X14565470Y3962614D01*
X14575988Y3880101D01*
X14583090Y3819838D01*
X14584272Y3808642D01*
X14594413Y3717058D01*
X14606489Y3624998D01*
X14621359Y3527242D01*
X14639885Y3418568D01*
X14662927Y3293756D01*
X14691345Y3147585D01*
X14702157Y3093231D01*
X14719876Y3001789D01*
X14735369Y2916549D01*
X14747729Y2842934D01*
X14756050Y2786367D01*
X14759426Y2752272D01*
X14759456Y2750271D01*
X14745958Y2683956D01*
X14709272Y2623362D01*
X14655109Y2577279D01*
X14642691Y2570581D01*
X14598561Y2557286D01*
X14536659Y2548882D01*
X14467969Y2546044D01*
X14403471Y2549448D01*
X14374388Y2554090D01*
X14316866Y2572345D01*
X14263311Y2599211D01*
X14224105Y2629084D01*
X14215127Y2640061D01*
X14203212Y2669903D01*
X14191120Y2719288D01*
X14181053Y2778794D01*
X14179104Y2794205D01*
X14172921Y2846564D01*
X14164069Y2921046D01*
X14153351Y3010921D01*
X14141568Y3109459D01*
X14129525Y3209929D01*
X14128299Y3220141D01*
X14115991Y3324685D01*
X14103783Y3432023D01*
X14092544Y3534264D01*
X14083139Y3623518D01*
X14076436Y3691894D01*
X14076390Y3692395D01*
X14070053Y3751660D01*
X14059934Y3833941D01*
X14046803Y3933552D01*
X14031430Y4044806D01*
X14014582Y4162015D01*
X13997029Y4279492D01*
X13996815Y4280896D01*
X13963496Y4502094D01*
X13935273Y4696793D01*
X13912092Y4867098D01*
X13893902Y5015113D01*
X13880649Y5142941D01*
X13872282Y5252687D01*
X13868748Y5346454D01*
X13869994Y5426346D01*
X13875969Y5494467D01*
X13886619Y5552921D01*
X13901892Y5603813D01*
X13921735Y5649245D01*
X13946097Y5691322D01*
X13961092Y5713361D01*
X14013121Y5764423D01*
X14079930Y5798181D01*
X14155313Y5814850D01*
X14233065Y5814646D01*
G37*
G36*
X18333614Y4652974D02*
G01*
X18429289Y4614091D01*
X18511733Y4549451D01*
X18580797Y4459189D01*
X18636330Y4343438D01*
X18659025Y4275882D01*
X18673089Y4214554D01*
X18687012Y4127286D01*
X18700477Y4017200D01*
X18713166Y3887418D01*
X18724763Y3741062D01*
X18734949Y3581252D01*
X18740529Y3474431D01*
X18745683Y3367875D01*
X18751078Y3258014D01*
X18756316Y3152847D01*
X18760997Y3060374D01*
X18764724Y2988594D01*
X18764854Y2986148D01*
X18767769Y2914050D01*
X18768704Y2849516D01*
X18767659Y2799811D01*
X18764832Y2772938D01*
X18742410Y2725081D01*
X18703029Y2675368D01*
X18655897Y2634592D01*
X18637275Y2623376D01*
X18559310Y2595132D01*
X18476122Y2585319D01*
X18394254Y2592801D01*
X18320249Y2616439D01*
X18260650Y2655096D01*
X18228677Y2694406D01*
X18223952Y2710084D01*
X18220043Y2740479D01*
X18216895Y2787646D01*
X18214449Y2853638D01*
X18212648Y2940510D01*
X18211436Y3050317D01*
X18210753Y3185113D01*
X18210543Y3343653D01*
X18210428Y3497516D01*
X18210008Y3625412D01*
X18209170Y3730435D01*
X18207803Y3815677D01*
X18205794Y3884234D01*
X18203032Y3939200D01*
X18199405Y3983667D01*
X18194800Y4020730D01*
X18189105Y4053483D01*
X18183964Y4077463D01*
X18158182Y4173698D01*
X18130426Y4243168D01*
X18099364Y4288162D01*
X18063669Y4310970D01*
X18046216Y4314561D01*
X17985132Y4307365D01*
X17916325Y4277511D01*
X17844238Y4228734D01*
X17773312Y4164772D01*
X17707987Y4089361D01*
X17652705Y4006236D01*
X17631519Y3965699D01*
X17593203Y3873209D01*
X17565092Y3776026D01*
X17547014Y3670618D01*
X17538798Y3553455D01*
X17540273Y3421006D01*
X17551268Y3269741D01*
X17571613Y3096129D01*
X17584893Y3002177D01*
X17601450Y2885723D01*
X17612729Y2794217D01*
X17618856Y2724053D01*
X17619959Y2671626D01*
X17616163Y2633328D01*
X17607597Y2605554D01*
X17599364Y2591197D01*
X17550854Y2546325D01*
X17483483Y2519527D01*
X17402023Y2511964D01*
X17318836Y2522970D01*
X17244551Y2550246D01*
X17192271Y2589980D01*
X17174010Y2609812D01*
X17158100Y2631539D01*
X17144027Y2657733D01*
X17131281Y2690969D01*
X17119347Y2733820D01*
X17107715Y2788858D01*
X17095871Y2858659D01*
X17083303Y2945794D01*
X17069500Y3052839D01*
X17053948Y3182365D01*
X17036136Y3336948D01*
X17026319Y3423573D01*
X17005843Y3606027D01*
X16988675Y3761709D01*
X16974623Y3892696D01*
X16963496Y4001067D01*
X16955101Y4088900D01*
X16949246Y4158273D01*
X16945738Y4211263D01*
X16944387Y4249948D01*
X16944999Y4276408D01*
X16946381Y4288161D01*
X16975435Y4380768D01*
X17024196Y4454509D01*
X17089568Y4507226D01*
X17168452Y4536764D01*
X17257751Y4540964D01*
X17299731Y4534188D01*
X17363935Y4512206D01*
X17413104Y4475976D01*
X17450870Y4421168D01*
X17480862Y4343454D01*
X17491302Y4305741D01*
X17507230Y4243401D01*
X17579532Y4328898D01*
X17695462Y4447854D01*
X17820406Y4542141D01*
X17952254Y4610656D01*
X18088892Y4652295D01*
X18224859Y4665964D01*
X18333614Y4652974D01*
G37*
G36*
X11637604Y4733126D02*
G01*
X11823200Y4702774D01*
X11993639Y4647626D01*
X12148924Y4567680D01*
X12261344Y4486611D01*
X12346068Y4404060D01*
X12402409Y4318913D01*
X12431033Y4229388D01*
X12432606Y4133706D01*
X12418958Y4065622D01*
X12404690Y4029236D01*
X12380851Y3993542D01*
X12344673Y3956335D01*
X12293391Y3915410D01*
X12224239Y3868564D01*
X12134451Y3813590D01*
X12021259Y3748285D01*
X12019602Y3747347D01*
X11913275Y3687414D01*
X11829327Y3640070D01*
X11765144Y3603071D01*
X11718109Y3574177D01*
X11685610Y3551145D01*
X11665032Y3531733D01*
X11653759Y3513700D01*
X11649179Y3494804D01*
X11648675Y3472802D01*
X11649633Y3445453D01*
X11649845Y3430288D01*
X11654657Y3340576D01*
X11667981Y3252807D01*
X11688151Y3172391D01*
X11713498Y3104736D01*
X11742355Y3055251D01*
X11773057Y3029347D01*
X11773474Y3029184D01*
X11805470Y3024496D01*
X11844162Y3033915D01*
X11891627Y3058889D01*
X11949945Y3100864D01*
X12021192Y3161286D01*
X12107449Y3241603D01*
X12178689Y3311247D01*
X12268973Y3399847D01*
X12342355Y3469296D01*
X12401702Y3521747D01*
X12449881Y3559352D01*
X12489758Y3584265D01*
X12524199Y3598638D01*
X12556071Y3604624D01*
X12570037Y3605155D01*
X12630913Y3595849D01*
X12684220Y3571177D01*
X12721839Y3535841D01*
X12733808Y3510309D01*
X12733372Y3464973D01*
X12716508Y3411775D01*
X12687808Y3364786D01*
X12638092Y3304021D01*
X12570255Y3232227D01*
X12487189Y3152148D01*
X12391788Y3066531D01*
X12286945Y2978122D01*
X12175554Y2889667D01*
X12129365Y2854552D01*
X12016354Y2770226D01*
X11923406Y2702326D01*
X11847699Y2649366D01*
X11786409Y2609862D01*
X11736715Y2582328D01*
X11695794Y2565278D01*
X11660822Y2557227D01*
X11628978Y2556691D01*
X11597438Y2562182D01*
X11581854Y2566442D01*
X11489191Y2606404D01*
X11409789Y2668521D01*
X11341972Y2754584D01*
X11284068Y2866385D01*
X11270495Y2899723D01*
X11242369Y2985165D01*
X11217595Y3084379D01*
X11198402Y3186202D01*
X11187017Y3279474D01*
X11184857Y3328647D01*
X11184857Y3397020D01*
X11125031Y3395766D01*
X11068209Y3405972D01*
X11029188Y3438867D01*
X11008534Y3493739D01*
X11005348Y3546335D01*
X11011704Y3608644D01*
X11029975Y3651916D01*
X11065834Y3685499D01*
X11103193Y3707589D01*
X11168428Y3742196D01*
X11177453Y3851706D01*
X11188878Y3947846D01*
X11635314Y3947846D01*
X11636030Y3933340D01*
X11640989Y3925534D01*
X11654405Y3925505D01*
X11680497Y3934335D01*
X11723478Y3953100D01*
X11787566Y3982882D01*
X11806052Y3991553D01*
X11872054Y4023294D01*
X11929481Y4052360D01*
X11972604Y4075748D01*
X11995692Y4090458D01*
X11996843Y4091496D01*
X12005859Y4119097D01*
X11996023Y4158775D01*
X11970949Y4204170D01*
X11934249Y4248920D01*
X11889537Y4286666D01*
X11883878Y4290376D01*
X11825677Y4320831D01*
X11780776Y4327574D01*
X11744846Y4309996D01*
X11713558Y4267490D01*
X11712941Y4266365D01*
X11693880Y4220978D01*
X11674080Y4157134D01*
X11656080Y4085252D01*
X11642420Y4015752D01*
X11635638Y3959052D01*
X11635314Y3947846D01*
X11188878Y3947846D01*
X11202135Y4059411D01*
X11239934Y4241607D01*
X11291024Y4398807D01*
X11355580Y4531523D01*
X11433778Y4640267D01*
X11454708Y4662972D01*
X11532150Y4742927D01*
X11637604Y4733126D01*
G37*
G36*
X15604231Y4733154D02*
G01*
X15789833Y4702836D01*
X15960200Y4647785D01*
X16115398Y4567973D01*
X16228277Y4486611D01*
X16313002Y4404060D01*
X16369342Y4318913D01*
X16397966Y4229388D01*
X16399540Y4133706D01*
X16385892Y4065622D01*
X16371312Y4028629D01*
X16346869Y3992351D01*
X16309773Y3954554D01*
X16257235Y3913006D01*
X16186466Y3865475D01*
X16094677Y3809728D01*
X15993883Y3751867D01*
X15886418Y3691424D01*
X15801408Y3643499D01*
X15736246Y3605894D01*
X15688324Y3576412D01*
X15655036Y3552857D01*
X15633774Y3533032D01*
X15621933Y3514740D01*
X15616904Y3495784D01*
X15616081Y3473967D01*
X15616857Y3447092D01*
X15617031Y3434289D01*
X15622241Y3339421D01*
X15636312Y3249509D01*
X15657648Y3168950D01*
X15684654Y3102141D01*
X15715734Y3053476D01*
X15749292Y3027352D01*
X15765927Y3024110D01*
X15805416Y3032701D01*
X15856226Y3058918D01*
X15919812Y3103859D01*
X15997632Y3168621D01*
X16091141Y3254301D01*
X16161687Y3322380D01*
X16248759Y3407280D01*
X16318497Y3473654D01*
X16373991Y3523650D01*
X16418335Y3559412D01*
X16454621Y3583090D01*
X16485940Y3596828D01*
X16515384Y3602774D01*
X16546045Y3603075D01*
X16563956Y3601669D01*
X16616583Y3592819D01*
X16652113Y3575376D01*
X16674535Y3553676D01*
X16698062Y3514022D01*
X16702795Y3469466D01*
X16687699Y3418003D01*
X16651736Y3357627D01*
X16593867Y3286332D01*
X16513057Y3202113D01*
X16472307Y3162673D01*
X16420419Y3115887D01*
X16352116Y3058128D01*
X16271713Y2992697D01*
X16183523Y2922892D01*
X16091859Y2852012D01*
X16001036Y2783357D01*
X15915365Y2720225D01*
X15839161Y2665916D01*
X15776738Y2623729D01*
X15733267Y2597420D01*
X15676666Y2569212D01*
X15634599Y2555313D01*
X15597356Y2554003D01*
X15555227Y2563565D01*
X15550384Y2565049D01*
X15454814Y2609712D01*
X15370657Y2679826D01*
X15298834Y2773744D01*
X15240264Y2889814D01*
X15195869Y3026388D01*
X15166569Y3181816D01*
X15157653Y3268882D01*
X15148001Y3396740D01*
X15090070Y3395626D01*
X15034639Y3406225D01*
X14996377Y3439920D01*
X14975968Y3495871D01*
X14972576Y3539820D01*
X14984048Y3610149D01*
X15019734Y3666873D01*
X15081541Y3712994D01*
X15083145Y3713877D01*
X15111656Y3731229D01*
X15128285Y3749792D01*
X15137332Y3778269D01*
X15143099Y3825359D01*
X15144202Y3837390D01*
X15157238Y3946284D01*
X15602248Y3946284D01*
X15603215Y3932551D01*
X15608911Y3925549D01*
X15623531Y3926407D01*
X15651270Y3936253D01*
X15696322Y3956213D01*
X15762882Y3987417D01*
X15772986Y3992194D01*
X15838540Y4023109D01*
X15895389Y4049763D01*
X15937945Y4069545D01*
X15960617Y4079847D01*
X15961888Y4080385D01*
X15976270Y4092278D01*
X15977248Y4114669D01*
X15964264Y4153355D01*
X15952252Y4180866D01*
X15912324Y4242497D01*
X15858185Y4290163D01*
X15797466Y4318070D01*
X15765349Y4322864D01*
X15731843Y4321568D01*
X15710219Y4310645D01*
X15691362Y4283369D01*
X15678937Y4259099D01*
X15658817Y4208523D01*
X15638447Y4141387D01*
X15620471Y4068467D01*
X15607528Y4000542D01*
X15602263Y3948388D01*
X15602248Y3946284D01*
X15157238Y3946284D01*
X15168138Y4037340D01*
X15201856Y4211523D01*
X15245963Y4361743D01*
X15301066Y4489808D01*
X15367770Y4597524D01*
X15420435Y4660461D01*
X15498471Y4742984D01*
X15604231Y4733154D01*
G37*
G36*
X8116745Y7620897D02*
G01*
X8154431Y7598239D01*
X8155766Y7597109D01*
X8174901Y7577923D01*
X8187195Y7555462D01*
X8194824Y7522287D01*
X8199966Y7470960D01*
X8202123Y7438779D01*
X8204686Y7376745D01*
X8204630Y7321968D01*
X8202032Y7283869D01*
X8200754Y7277037D01*
X8184080Y7248197D01*
X8150815Y7212992D01*
X8122456Y7189730D01*
X8084614Y7159719D01*
X8060639Y7131783D01*
X8044205Y7095815D01*
X8028988Y7041711D01*
X8028439Y7039520D01*
X8015775Y6984377D01*
X8000440Y6910773D01*
X7984498Y6828917D01*
X7971861Y6759625D01*
X7958420Y6679232D01*
X7950549Y6618919D01*
X7947818Y6570331D01*
X7949799Y6525110D01*
X7956064Y6474901D01*
X7956951Y6469008D01*
X7963896Y6407680D01*
X7969447Y6328794D01*
X7972928Y6243846D01*
X7973769Y6184443D01*
X7975074Y6094021D01*
X7978709Y5991702D01*
X7984329Y5881437D01*
X7991584Y5767175D01*
X8000128Y5652867D01*
X8009613Y5542462D01*
X8019690Y5439910D01*
X8030013Y5349162D01*
X8040234Y5274168D01*
X8050005Y5218876D01*
X8058979Y5187238D01*
X8061965Y5182381D01*
X8082617Y5178563D01*
X8127727Y5181398D01*
X8193658Y5190096D01*
X8276773Y5203870D01*
X8373437Y5221931D01*
X8480013Y5243491D01*
X8592866Y5267763D01*
X8708359Y5293957D01*
X8822855Y5321286D01*
X8932720Y5348961D01*
X9034315Y5376195D01*
X9124007Y5402198D01*
X9198157Y5426182D01*
X9215921Y5432532D01*
X9332168Y5475240D01*
X9327481Y5575551D01*
X9323289Y5634587D01*
X9315283Y5711391D01*
X9303195Y5807929D01*
X9286759Y5926165D01*
X9265706Y6068064D01*
X9239770Y6235591D01*
X9224851Y6329806D01*
X9198711Y6502562D01*
X9178234Y6656670D01*
X9163624Y6790076D01*
X9155085Y6900726D01*
X9152822Y6986568D01*
X9155074Y7030719D01*
X9179221Y7126824D01*
X9230549Y7213474D01*
X9308544Y7290018D01*
X9412088Y7355496D01*
X9485554Y7380586D01*
X9572895Y7391167D01*
X9662823Y7387240D01*
X9744047Y7368805D01*
X9775360Y7355463D01*
X9831369Y7323875D01*
X9874256Y7291331D01*
X9906083Y7253269D01*
X9928908Y7205127D01*
X9944792Y7142344D01*
X9955794Y7060357D01*
X9963976Y6954605D01*
X9965163Y6935140D01*
X9973385Y6802815D01*
X9982223Y6673184D01*
X9992141Y6540363D01*
X10003605Y6398469D01*
X10017078Y6241617D01*
X10033026Y6063926D01*
X10039629Y5991908D01*
X10070752Y5654065D01*
X10118717Y5654065D01*
X10170468Y5640519D01*
X10220618Y5603630D01*
X10265250Y5549028D01*
X10300444Y5482340D01*
X10322280Y5409192D01*
X10327534Y5354240D01*
X10321343Y5296297D01*
X10304621Y5227222D01*
X10280143Y5153819D01*
X10250685Y5082888D01*
X10219020Y5021230D01*
X10187926Y4975647D01*
X10164588Y4954920D01*
X10152878Y4939817D01*
X10145169Y4908378D01*
X10141569Y4859452D01*
X10142187Y4791890D01*
X10147131Y4704541D01*
X10156508Y4596255D01*
X10170428Y4465882D01*
X10188999Y4312272D01*
X10212328Y4134274D01*
X10240525Y3930738D01*
X10273697Y3700515D01*
X10298493Y3532555D01*
X10324547Y3355819D01*
X10346073Y3205254D01*
X10363235Y3078354D01*
X10376199Y2972609D01*
X10385130Y2885511D01*
X10390195Y2814553D01*
X10391559Y2757225D01*
X10389388Y2711021D01*
X10383848Y2673431D01*
X10375104Y2641948D01*
X10363321Y2614063D01*
X10359647Y2606837D01*
X10310463Y2543930D01*
X10237508Y2495744D01*
X10142736Y2463479D01*
X10117800Y2458390D01*
X10064627Y2448998D01*
X10028667Y2445104D01*
X9998473Y2447408D01*
X9962594Y2456607D01*
X9918484Y2470561D01*
X9832689Y2505188D01*
X9768723Y2549122D01*
X9719661Y2607445D01*
X9709364Y2624099D01*
X9687883Y2663088D01*
X9671215Y2700740D01*
X9658218Y2742329D01*
X9647747Y2793126D01*
X9638658Y2858403D01*
X9629806Y2943434D01*
X9622580Y3023974D01*
X9607371Y3193882D01*
X9590586Y3370904D01*
X9572715Y3550511D01*
X9554250Y3728175D01*
X9535682Y3899369D01*
X9517500Y4059566D01*
X9500197Y4204237D01*
X9484261Y4328855D01*
X9470589Y4426205D01*
X9463418Y4478133D01*
X9454549Y4548284D01*
X9445305Y4625974D01*
X9439605Y4676520D01*
X9431513Y4747041D01*
X9424771Y4793368D01*
X9417926Y4820230D01*
X9409526Y4832359D01*
X9398120Y4834486D01*
X9391456Y4833407D01*
X9363640Y4827878D01*
X9316069Y4818628D01*
X9257538Y4807362D01*
X9237717Y4803570D01*
X8965416Y4748879D01*
X8671201Y4684748D01*
X8394437Y4620479D01*
X8081534Y4545844D01*
X8086897Y4493290D01*
X8098524Y4391949D01*
X8112790Y4287255D01*
X8128649Y4185432D01*
X8145058Y4092702D01*
X8160972Y4015289D01*
X8175346Y3959417D01*
X8177781Y3951855D01*
X8197429Y3880449D01*
X8202721Y3819501D01*
X8200353Y3786845D01*
X8199456Y3727461D01*
X8207619Y3640685D01*
X8224819Y3526732D01*
X8228848Y3503493D01*
X8248481Y3392304D01*
X8263933Y3306306D01*
X8276110Y3242078D01*
X8285920Y3196198D01*
X8294271Y3165245D01*
X8302070Y3145798D01*
X8310224Y3134434D01*
X8319640Y3127733D01*
X8329764Y3122942D01*
X8368143Y3090796D01*
X8389155Y3041081D01*
X8392715Y2979595D01*
X8378740Y2912133D01*
X8347145Y2844491D01*
X8334106Y2824875D01*
X8271136Y2751792D01*
X8194869Y2686205D01*
X8111835Y2632172D01*
X8028562Y2593748D01*
X7951578Y2574988D01*
X7929937Y2573800D01*
X7853569Y2585627D01*
X7772504Y2618083D01*
X7696578Y2666629D01*
X7661372Y2697741D01*
X7608283Y2762257D01*
X7565278Y2840996D01*
X7531357Y2937130D01*
X7505524Y3053833D01*
X7486780Y3194276D01*
X7479674Y3275469D01*
X7472475Y3367898D01*
X7463573Y3477095D01*
X7453980Y3590896D01*
X7444709Y3697132D01*
X7442527Y3721456D01*
X7433713Y3820853D01*
X7423604Y3937773D01*
X7413176Y4060766D01*
X7403402Y4178384D01*
X7398605Y4237303D01*
X7389969Y4338482D01*
X7382276Y4414079D01*
X7374993Y4467534D01*
X7367588Y4502292D01*
X7359529Y4521792D01*
X7353680Y4527921D01*
X7302687Y4565123D01*
X7264764Y4606020D01*
X7231452Y4660655D01*
X7216491Y4690761D01*
X7191911Y4745928D01*
X7179229Y4788062D01*
X7175897Y4829350D01*
X7178491Y4872612D01*
X7194002Y4948200D01*
X7223773Y5014849D01*
X7263812Y5065583D01*
X7303669Y5091265D01*
X7314776Y5094588D01*
X7323789Y5097280D01*
X7330489Y5102109D01*
X7334654Y5111840D01*
X7336065Y5129240D01*
X7334500Y5157075D01*
X7329739Y5198111D01*
X7321561Y5255114D01*
X7309747Y5330851D01*
X7294074Y5428087D01*
X7274323Y5549589D01*
X7260159Y5636922D01*
X7242363Y5747912D01*
X7226190Y5850747D01*
X7212214Y5941619D01*
X7201009Y6016719D01*
X7193150Y6072238D01*
X7189211Y6104367D01*
X7188861Y6109720D01*
X7183040Y6148056D01*
X7166850Y6207676D01*
X7142203Y6283525D01*
X7111009Y6370546D01*
X7075180Y6463685D01*
X7036627Y6557886D01*
X6997260Y6648093D01*
X6958991Y6729250D01*
X6942156Y6762390D01*
X6901271Y6839731D01*
X6869740Y6896126D01*
X6843876Y6936601D01*
X6819995Y6966184D01*
X6794413Y6989900D01*
X6763444Y7012778D01*
X6753726Y7019432D01*
X6708842Y7051398D01*
X6682589Y7076402D01*
X6668833Y7102691D01*
X6661439Y7138510D01*
X6660580Y7144628D01*
X6655575Y7196695D01*
X6652178Y7261788D01*
X6651218Y7312615D01*
X6655898Y7383219D01*
X6671968Y7430769D01*
X6702475Y7460048D01*
X6750466Y7475840D01*
X6755757Y7476765D01*
X6785966Y7481059D01*
X6840146Y7488023D01*
X6914662Y7497235D01*
X7005881Y7508274D01*
X7110166Y7520719D01*
X7223884Y7534148D01*
X7343399Y7548141D01*
X7465076Y7562274D01*
X7585282Y7576129D01*
X7700380Y7589282D01*
X7806737Y7601312D01*
X7900717Y7611800D01*
X7978686Y7620322D01*
X8037009Y7626457D01*
X8072051Y7629785D01*
X8079969Y7630267D01*
X8116745Y7620897D01*
G37*
G36*
X6938549Y10613076D02*
G01*
X6946342Y10610149D01*
X6974415Y10589470D01*
X6990014Y10549577D01*
X6991655Y10541127D01*
X7000992Y10489423D01*
X7010725Y10459629D01*
X7027401Y10448314D01*
X7057566Y10452049D01*
X7107765Y10467406D01*
X7123044Y10472287D01*
X7309636Y10521676D01*
X7516024Y10558249D01*
X7720765Y10579756D01*
X7754146Y10581100D01*
X7815249Y10582380D01*
X7902735Y10583596D01*
X8015266Y10584750D01*
X8151500Y10585840D01*
X8310101Y10586866D01*
X8489727Y10587830D01*
X8689040Y10588729D01*
X8906700Y10589566D01*
X9141369Y10590339D01*
X9391706Y10591049D01*
X9656374Y10591695D01*
X9934031Y10592278D01*
X10223340Y10592798D01*
X10522960Y10593254D01*
X10831553Y10593647D01*
X11147780Y10593976D01*
X11470300Y10594243D01*
X11797775Y10594445D01*
X12128865Y10594585D01*
X12462232Y10594661D01*
X12796535Y10594673D01*
X13130436Y10594623D01*
X13462596Y10594509D01*
X13791674Y10594331D01*
X14116332Y10594090D01*
X14435231Y10593786D01*
X14747031Y10593418D01*
X15050393Y10592987D01*
X15343977Y10592493D01*
X15626445Y10591935D01*
X15896456Y10591314D01*
X16152673Y10590630D01*
X16393755Y10589882D01*
X16618364Y10589071D01*
X16825159Y10588196D01*
X17012802Y10587258D01*
X17179954Y10586257D01*
X17325274Y10585192D01*
X17447425Y10584064D01*
X17545066Y10582873D01*
X17616858Y10581618D01*
X17661463Y10580300D01*
X17671374Y10579756D01*
X17877691Y10558355D01*
X18069436Y10523919D01*
X18259104Y10473996D01*
X18337834Y10448925D01*
X18592403Y10349229D01*
X18832407Y10225242D01*
X19056532Y10078539D01*
X19263461Y9910697D01*
X19451877Y9723290D01*
X19620465Y9517895D01*
X19767907Y9296088D01*
X19892888Y9059445D01*
X19994091Y8809540D01*
X20070200Y8547950D01*
X20113302Y8323544D01*
X20116170Y8301635D01*
X20118790Y8275377D01*
X20121175Y8243466D01*
X20123334Y8204594D01*
X20125278Y8157458D01*
X20127020Y8100753D01*
X20128569Y8033172D01*
X20129936Y7953411D01*
X20131133Y7860164D01*
X20132170Y7752127D01*
X20133058Y7627994D01*
X20133808Y7486459D01*
X20134432Y7326218D01*
X20134939Y7145965D01*
X20135342Y6944396D01*
X20135650Y6720204D01*
X20135875Y6472085D01*
X20136028Y6198733D01*
X20136120Y5898844D01*
X20136160Y5593725D01*
X20136101Y5218883D01*
X20135873Y4872874D01*
X20135475Y4555471D01*
X20134904Y4266447D01*
X20134161Y4005573D01*
X20133244Y3772622D01*
X20132150Y3567367D01*
X20130880Y3389579D01*
X20129432Y3239031D01*
X20127804Y3115496D01*
X20125995Y3018746D01*
X20124004Y2948553D01*
X20121829Y2904689D01*
X20120755Y2893196D01*
X20072256Y2620354D01*
X19997671Y2358191D01*
X19898315Y2108135D01*
X19775509Y1871610D01*
X19630569Y1650043D01*
X19464815Y1444860D01*
X19279564Y1257487D01*
X19076134Y1089350D01*
X18855845Y941875D01*
X18620013Y816488D01*
X18369957Y714616D01*
X18106995Y637684D01*
X18017735Y618038D01*
X17927997Y602164D01*
X17828333Y588181D01*
X17732838Y577908D01*
X17675411Y573869D01*
X17644762Y573101D01*
X17586538Y572359D01*
X17502059Y571643D01*
X17392647Y570955D01*
X17259622Y570295D01*
X17104305Y569663D01*
X16928017Y569059D01*
X16732077Y568485D01*
X16517808Y567940D01*
X16286530Y567424D01*
X16039563Y566940D01*
X15778228Y566485D01*
X15503846Y566062D01*
X15217738Y565671D01*
X14921224Y565312D01*
X14615625Y564985D01*
X14302262Y564690D01*
X13982455Y564430D01*
X13657525Y564202D01*
X13328794Y564010D01*
X12997581Y563851D01*
X12665207Y563728D01*
X12332994Y563640D01*
X12002261Y563588D01*
X11674330Y563572D01*
X11350520Y563593D01*
X11032154Y563651D01*
X10720552Y563747D01*
X10417034Y563880D01*
X10122921Y564053D01*
X9839534Y564264D01*
X9568193Y564514D01*
X9310220Y564804D01*
X9066934Y565134D01*
X8839658Y565505D01*
X8629710Y565916D01*
X8438413Y566369D01*
X8267087Y566864D01*
X8117052Y567402D01*
X7989630Y567982D01*
X7886140Y568605D01*
X7807904Y569271D01*
X7756243Y569982D01*
X7733770Y570647D01*
X7460499Y601204D01*
X7196340Y658476D01*
X6942729Y741151D01*
X6701103Y847914D01*
X6472898Y977450D01*
X6259552Y1128446D01*
X6062501Y1299588D01*
X5883183Y1489560D01*
X5723033Y1697051D01*
X5583489Y1920744D01*
X5465987Y2159327D01*
X5371964Y2411485D01*
X5302858Y2675903D01*
X5277317Y2817345D01*
X5274267Y2852115D01*
X5271424Y2914110D01*
X5268789Y3001496D01*
X5266361Y3112436D01*
X5264139Y3245095D01*
X5262122Y3397639D01*
X5260311Y3568231D01*
X5258704Y3755036D01*
X5257302Y3956219D01*
X5256103Y4169943D01*
X5255609Y4281261D01*
X5577181Y4281261D01*
X5577305Y4076006D01*
X5577679Y3891646D01*
X5578333Y3726819D01*
X5579298Y3580163D01*
X5580606Y3450319D01*
X5582290Y3335924D01*
X5584379Y3235618D01*
X5586906Y3148039D01*
X5589902Y3071827D01*
X5593399Y3005618D01*
X5597427Y2948054D01*
X5602020Y2897772D01*
X5607207Y2853411D01*
X5613021Y2813611D01*
X5619493Y2777009D01*
X5626655Y2742244D01*
X5634538Y2707956D01*
X5643173Y2672784D01*
X5649033Y2649482D01*
X5725466Y2403831D01*
X5826608Y2171587D01*
X5950819Y1954153D01*
X6096459Y1752933D01*
X6261889Y1569331D01*
X6445466Y1404749D01*
X6645552Y1260593D01*
X6860506Y1138266D01*
X7088688Y1039171D01*
X7328457Y964713D01*
X7578174Y916295D01*
X7688861Y903772D01*
X7716027Y902652D01*
X7770936Y901582D01*
X7852271Y900560D01*
X7958714Y899589D01*
X8088946Y898666D01*
X8241650Y897794D01*
X8415508Y896971D01*
X8609202Y896198D01*
X8821414Y895475D01*
X9050826Y894802D01*
X9296119Y894179D01*
X9555977Y893607D01*
X9829080Y893086D01*
X10114111Y892615D01*
X10409752Y892195D01*
X10714685Y891826D01*
X11027592Y891508D01*
X11347155Y891241D01*
X11672055Y891026D01*
X12000976Y890862D01*
X12332599Y890749D01*
X12665605Y890689D01*
X12998678Y890680D01*
X13330499Y890723D01*
X13659750Y890818D01*
X13985112Y890966D01*
X14305269Y891166D01*
X14618902Y891418D01*
X14924693Y891723D01*
X15221324Y892081D01*
X15507477Y892492D01*
X15781834Y892956D01*
X16043077Y893472D01*
X16289889Y894043D01*
X16520950Y894666D01*
X16734944Y895343D01*
X16930552Y896074D01*
X17106456Y896859D01*
X17261338Y897697D01*
X17393881Y898590D01*
X17502766Y899537D01*
X17586674Y900538D01*
X17644289Y901594D01*
X17674293Y902704D01*
X17675372Y902788D01*
X17935900Y938612D01*
X18186104Y1001338D01*
X18424980Y1090517D01*
X18651520Y1205698D01*
X18864718Y1346432D01*
X19063567Y1512270D01*
X19085079Y1532557D01*
X19266157Y1724546D01*
X19421566Y1930127D01*
X19551171Y2149015D01*
X19654835Y2380923D01*
X19732424Y2625565D01*
X19783801Y2882654D01*
X19802339Y3047023D01*
X19804386Y3087958D01*
X19806224Y3157432D01*
X19807850Y3254920D01*
X19809263Y3379901D01*
X19810460Y3531851D01*
X19811441Y3710247D01*
X19812203Y3914566D01*
X19812744Y4144286D01*
X19813062Y4398883D01*
X19813156Y4677835D01*
X19813023Y4980617D01*
X19812662Y5306709D01*
X19812071Y5655585D01*
X19811949Y5716215D01*
X19811315Y6035574D01*
X19810751Y6327264D01*
X19810214Y6592677D01*
X19809659Y6833204D01*
X19809041Y7050238D01*
X19808317Y7245172D01*
X19807442Y7419397D01*
X19806371Y7574305D01*
X19805061Y7711289D01*
X19803468Y7831741D01*
X19801546Y7937052D01*
X19799252Y8028615D01*
X19796541Y8107823D01*
X19793369Y8176066D01*
X19789692Y8234738D01*
X19785465Y8285231D01*
X19780644Y8328936D01*
X19775185Y8367246D01*
X19769044Y8401553D01*
X19762176Y8433249D01*
X19754537Y8463726D01*
X19746083Y8494376D01*
X19736769Y8526592D01*
X19726551Y8561766D01*
X19720766Y8582040D01*
X19640798Y8813098D01*
X19534410Y9036991D01*
X19404043Y9249954D01*
X19252139Y9448222D01*
X19081140Y9628031D01*
X18989233Y9709845D01*
X18789351Y9860867D01*
X18577138Y9987859D01*
X18350280Y10091909D01*
X18106459Y10174103D01*
X17887402Y10226939D01*
X17874707Y10229288D01*
X17859969Y10231493D01*
X17842256Y10233559D01*
X17820640Y10235493D01*
X17794192Y10237299D01*
X17761981Y10238983D01*
X17723079Y10240551D01*
X17676555Y10242008D01*
X17621481Y10243360D01*
X17556926Y10244612D01*
X17481962Y10245771D01*
X17395659Y10246841D01*
X17297087Y10247828D01*
X17185317Y10248738D01*
X17059420Y10249577D01*
X16918465Y10250349D01*
X16761524Y10251061D01*
X16587668Y10251718D01*
X16395965Y10252325D01*
X16185488Y10252889D01*
X15955306Y10253414D01*
X15704491Y10253907D01*
X15432112Y10254373D01*
X15137240Y10254817D01*
X14818946Y10255245D01*
X14476301Y10255663D01*
X14108373Y10256076D01*
X13714236Y10256490D01*
X13292958Y10256910D01*
X12843610Y10257342D01*
X12812317Y10257372D01*
X12309091Y10257814D01*
X11834494Y10258158D01*
X11388092Y10258404D01*
X10969454Y10258550D01*
X10578146Y10258596D01*
X10213736Y10258540D01*
X9875791Y10258383D01*
X9563877Y10258121D01*
X9277562Y10257756D01*
X9016413Y10257286D01*
X8779998Y10256709D01*
X8567884Y10256025D01*
X8379637Y10255234D01*
X8214824Y10254333D01*
X8073014Y10253323D01*
X7953774Y10252202D01*
X7856669Y10250969D01*
X7781268Y10249623D01*
X7727138Y10248164D01*
X7693846Y10246590D01*
X7689109Y10246213D01*
X7474027Y10217334D01*
X7266002Y10168994D01*
X7156167Y10135312D01*
X7100692Y10116479D01*
X7067289Y10102293D01*
X7050362Y10088505D01*
X7044315Y10070864D01*
X7043552Y10049755D01*
X7040225Y10015540D01*
X7031245Y9961498D01*
X7018110Y9895970D01*
X7007103Y9847119D01*
X6990558Y9783365D01*
X6970904Y9721836D01*
X6945711Y9656503D01*
X6912549Y9581334D01*
X6868986Y9490299D01*
X6838464Y9428790D01*
X6762185Y9272472D01*
X6698441Y9133514D01*
X6647885Y9013510D01*
X6611168Y8914053D01*
X6588941Y8836734D01*
X6583212Y8804898D01*
X6583884Y8719638D01*
X6603410Y8617962D01*
X6639893Y8503801D01*
X6691437Y8381087D01*
X6756146Y8253752D01*
X6832124Y8125726D01*
X6917474Y8000942D01*
X7010301Y7883332D01*
X7048809Y7839497D01*
X7089815Y7792027D01*
X7111555Y7760397D01*
X7116273Y7740904D01*
X7112560Y7734148D01*
X7097282Y7722461D01*
X7078310Y7719206D01*
X7049181Y7725341D01*
X7003433Y7741821D01*
X6969771Y7755266D01*
X6878453Y7802755D01*
X6779955Y7872378D01*
X6678807Y7959671D01*
X6579542Y8060171D01*
X6486689Y8169415D01*
X6404781Y8282937D01*
X6360281Y8355628D01*
X6330853Y8414412D01*
X6299177Y8488607D01*
X6270516Y8565551D01*
X6260825Y8595056D01*
X6240213Y8663716D01*
X6227791Y8716022D01*
X6222164Y8763052D01*
X6221935Y8815889D01*
X6225205Y8877786D01*
X6229153Y8932377D01*
X6234443Y8976141D01*
X6243154Y9015733D01*
X6257360Y9057810D01*
X6279140Y9109027D01*
X6310569Y9176039D01*
X6332411Y9221399D01*
X6375453Y9307713D01*
X6427919Y9408646D01*
X6484323Y9513875D01*
X6539174Y9613076D01*
X6561510Y9652341D01*
X6604730Y9727616D01*
X6643834Y9795937D01*
X6676131Y9852589D01*
X6698932Y9892853D01*
X6708915Y9910819D01*
X6709227Y9922484D01*
X6690000Y9917499D01*
X6654089Y9897742D01*
X6604350Y9865085D01*
X6543637Y9821405D01*
X6474805Y9768577D01*
X6400709Y9708475D01*
X6400225Y9708071D01*
X6222967Y9541986D01*
X6062821Y9354455D01*
X5922095Y9149040D01*
X5803096Y8929306D01*
X5708134Y8698816D01*
X5670882Y8582356D01*
X5660200Y8546027D01*
X5650432Y8513110D01*
X5641538Y8482228D01*
X5633472Y8452006D01*
X5626192Y8421068D01*
X5619654Y8388040D01*
X5613815Y8351544D01*
X5608632Y8310207D01*
X5604062Y8262651D01*
X5600061Y8207502D01*
X5596586Y8143384D01*
X5593593Y8068922D01*
X5591040Y7982739D01*
X5588883Y7883460D01*
X5587078Y7769710D01*
X5585583Y7640112D01*
X5584355Y7493293D01*
X5583349Y7327874D01*
X5582523Y7142483D01*
X5581833Y6935741D01*
X5581236Y6706275D01*
X5580689Y6452708D01*
X5580148Y6173665D01*
X5579571Y5867770D01*
X5579184Y5668596D01*
X5578538Y5338451D01*
X5577983Y5036005D01*
X5577551Y4759900D01*
X5577273Y4508772D01*
X5577181Y4281261D01*
X5255609Y4281261D01*
X5255107Y4394375D01*
X5254313Y4627677D01*
X5253721Y4868016D01*
X5253331Y5113555D01*
X5253141Y5362459D01*
X5253152Y5612893D01*
X5253362Y5863020D01*
X5253772Y6111007D01*
X5254380Y6355016D01*
X5255186Y6593214D01*
X5256190Y6823764D01*
X5257391Y7044831D01*
X5258788Y7254579D01*
X5260381Y7451174D01*
X5262169Y7632779D01*
X5264152Y7797559D01*
X5266329Y7943679D01*
X5268700Y8069304D01*
X5271265Y8172598D01*
X5274021Y8251725D01*
X5276970Y8304850D01*
X5278957Y8324351D01*
X5332936Y8592312D01*
X5413212Y8851016D01*
X5518448Y9098619D01*
X5647305Y9333279D01*
X5798446Y9553152D01*
X5970533Y9756396D01*
X6162229Y9941167D01*
X6372194Y10105623D01*
X6599093Y10247920D01*
X6721580Y10311698D01*
X6790727Y10346190D01*
X6837761Y10374122D01*
X6866895Y10401241D01*
X6882343Y10433295D01*
X6888319Y10476032D01*
X6889037Y10535200D01*
X6888999Y10540078D01*
X6889683Y10589471D01*
X6895458Y10614790D01*
X6910391Y10621002D01*
X6938549Y10613076D01*
G37*
G04 #@! TO.C,D2*
X73500000Y42750000D02*
X75500000Y42750000D01*
X73500000Y42750000D02*
X73500000Y46650000D01*
X75500000Y42750000D02*
X75500000Y46650000D01*
D15*
X74500000Y44450000D02*
X74500000Y44650000D01*
X74500000Y44650000D02*
X74150000Y45350000D01*
X74500000Y44650000D02*
X74850000Y45350000D01*
X74850000Y44650000D02*
X74150000Y44650000D01*
X74500000Y45350000D02*
X74500000Y45650000D01*
X74850000Y45350000D02*
X74150000Y45350000D01*
D17*
G04 #@! TO.C,D7*
X67500000Y42750000D02*
X69500000Y42750000D01*
X67500000Y42750000D02*
X67500000Y46650000D01*
X69500000Y42750000D02*
X69500000Y46650000D01*
D15*
X68500000Y44450000D02*
X68500000Y44650000D01*
X68500000Y44650000D02*
X68150000Y45350000D01*
X68500000Y44650000D02*
X68850000Y45350000D01*
X68850000Y44650000D02*
X68150000Y44650000D01*
X68500000Y45350000D02*
X68500000Y45650000D01*
X68850000Y45350000D02*
X68150000Y45350000D01*
D17*
G04 #@! TO.C,D12*
X19778185Y12440000D02*
X21578185Y12440000D01*
X19778185Y12440000D02*
X18978185Y12440000D01*
X19778185Y15560000D02*
X20578185Y15560000D01*
X19778185Y15560000D02*
X18978185Y15560000D01*
D16*
G04 #@! TO.C,R16*
X25300000Y68024000D02*
X25300000Y67008000D01*
X23700000Y67008000D02*
X23700000Y68024000D01*
X25300000Y65992000D02*
X25300000Y64976000D01*
X23700000Y64976000D02*
X23700000Y65992000D01*
D17*
X25300000Y68075000D02*
G75*
G03*
X23696506Y68083602I-800000J330000D01*
G01*
X23698362Y64921000D02*
G75*
G03*
X25300000Y64925000I801638J-326000D01*
G01*
G04 #@! TO.C,Q6*
X71950000Y39350000D02*
X71025000Y39350000D01*
X69940000Y40000000D02*
X69940000Y38325000D01*
X69940000Y40000000D02*
X69940000Y40650000D01*
X73060000Y40000000D02*
X73060000Y39350000D01*
X73060000Y40000000D02*
X73060000Y40650000D01*
X71000000Y40750000D02*
X69940000Y40750000D01*
X73050000Y40750000D02*
X72050000Y40750000D01*
D13*
G04 #@! TO.C,M4*
X26025005Y5125000D02*
X26025005Y38925000D01*
X61825005Y5125000D02*
X26025005Y5125000D01*
X61825005Y5125000D02*
X61825005Y38925000D01*
X61824995Y38925000D02*
X26025005Y38925000D01*
G04 #@! TO.C,C9*
X17575000Y65000000D02*
X16575000Y65000000D01*
G04 #@! TO.C,M1*
X48524999Y61225001D02*
X51725002Y61225001D01*
X36424999Y61225001D02*
X46825001Y61225001D01*
X34524999Y61225001D02*
X34824999Y61225001D01*
X34524999Y61225001D02*
X34524999Y45825001D01*
X55124997Y59725001D02*
X55124999Y44425002D01*
X48425001Y44425004D02*
X53225001Y44425004D01*
X42224999Y44425004D02*
X44924999Y44425004D01*
X39525001Y44425004D02*
X40625004Y44425004D01*
X35974999Y44425004D02*
X37524999Y44424999D01*
X54825001Y44425002D02*
X55124999Y44425002D01*
D17*
G04 #@! TO.C,D3*
X67500000Y37250000D02*
X69500000Y37250000D01*
X67500000Y37250000D02*
X67500000Y41150000D01*
X69500000Y37250000D02*
X69500000Y41150000D01*
D15*
X68500000Y38950000D02*
X68500000Y39150000D01*
X68500000Y39150000D02*
X68150000Y39850000D01*
X68500000Y39150000D02*
X68850000Y39850000D01*
X68850000Y39150000D02*
X68150000Y39150000D01*
X68500000Y39850000D02*
X68500000Y40150000D01*
X68850000Y39850000D02*
X68150000Y39850000D01*
D16*
G04 #@! TO.C,R5*
X58600000Y67024000D02*
X58600000Y66008000D01*
X57000000Y66008000D02*
X57000000Y67024000D01*
X58600000Y64992000D02*
X58600000Y63976000D01*
X57000000Y63976000D02*
X57000000Y64992000D01*
D17*
X58600000Y67075000D02*
G75*
G03*
X56996506Y67083602I-800000J330000D01*
G01*
X56998362Y63921000D02*
G75*
G03*
X58600000Y63925000I801638J-326000D01*
G01*
D16*
G04 #@! TO.C,R2*
X61300000Y67024000D02*
X61300000Y66008000D01*
X59700000Y66008000D02*
X59700000Y67024000D01*
X61300000Y64992000D02*
X61300000Y63976000D01*
X59700000Y63976000D02*
X59700000Y64992000D01*
D17*
X61300000Y67075000D02*
G75*
G03*
X59696506Y67083602I-800000J330000D01*
G01*
X59698362Y63921000D02*
G75*
G03*
X61300000Y63925000I801638J-326000D01*
G01*
D16*
G04 #@! TO.C,R3*
X56100000Y67024000D02*
X56100000Y66008000D01*
X54500000Y66008000D02*
X54500000Y67024000D01*
X56100000Y64992000D02*
X56100000Y63976000D01*
X54500000Y63976000D02*
X54500000Y64992000D01*
D17*
X56100000Y67075000D02*
G75*
G03*
X54496506Y67083602I-800000J330000D01*
G01*
X54498362Y63921000D02*
G75*
G03*
X56100000Y63925000I801638J-326000D01*
G01*
G04 #@! TO.C,Q3*
X15470000Y35050000D02*
X15470000Y35320000D01*
X15470000Y35320000D02*
X18300000Y35320000D01*
X15470000Y41680000D02*
X16570000Y41680000D01*
X15470000Y41950000D02*
X15470000Y41680000D01*
X9050000Y35050000D02*
X15470000Y35050000D01*
X9050000Y41950000D02*
X15470000Y41950000D01*
D13*
G04 #@! TO.C,C8*
X15575000Y65000000D02*
X14575000Y65000000D01*
D17*
G04 #@! TO.C,U10*
X75000000Y60060000D02*
X71550000Y60060000D01*
X75000000Y60060000D02*
X76950000Y60060000D01*
X75000000Y54940000D02*
X73050000Y54940000D01*
X75000000Y54940000D02*
X76950000Y54940000D01*
G04 #@! TO.C,Q4*
X15470000Y42550000D02*
X15470000Y42820000D01*
X15470000Y42820000D02*
X18300000Y42820000D01*
X15470000Y49180000D02*
X16570000Y49180000D01*
X15470000Y49450000D02*
X15470000Y49180000D01*
X9050000Y42550000D02*
X15470000Y42550000D01*
X9050000Y49450000D02*
X15470000Y49450000D01*
G04 #@! TO.C,Q1*
X15470000Y20050000D02*
X15470000Y20320000D01*
X15470000Y20320000D02*
X18300000Y20320000D01*
X15470000Y26680000D02*
X16570000Y26680000D01*
X15470000Y26950000D02*
X15470000Y26680000D01*
X9050000Y20050000D02*
X15470000Y20050000D01*
X9050000Y26950000D02*
X15470000Y26950000D01*
D13*
G04 #@! TO.C,C3*
X15075000Y52000000D02*
X16075000Y52000000D01*
G04 #@! TO.C,C10*
X19575000Y65000000D02*
X18575000Y65000000D01*
D18*
G04 #@! TO.C,R35*
X77298944Y37129160D02*
X77698943Y37129149D01*
X77300000Y37874995D02*
X77700000Y37874985D01*
D13*
G04 #@! TO.C,M5*
X56975000Y61104993D02*
X65400020Y61104993D01*
X56975000Y61104993D02*
X56975000Y55704994D01*
X65425021Y61079992D02*
X66450020Y60054993D01*
X69399999Y60054993D02*
X69750001Y59704991D01*
X66450020Y60054993D02*
X69399999Y60054993D01*
X69750001Y59704991D02*
X69750001Y56079994D01*
X69750001Y56079994D02*
X69375000Y55704994D01*
X56975000Y55704994D02*
X69375000Y55704994D01*
D17*
G04 #@! TO.C,D9*
X67500000Y31750000D02*
X69500000Y31750000D01*
X67500000Y31750000D02*
X67500000Y35650000D01*
X69500000Y31750000D02*
X69500000Y35650000D01*
D15*
X68500000Y33450000D02*
X68500000Y33650000D01*
X68500000Y33650000D02*
X68150000Y34350000D01*
X68500000Y33650000D02*
X68850000Y34350000D01*
X68850000Y33650000D02*
X68150000Y33650000D01*
X68500000Y34350000D02*
X68500000Y34650000D01*
X68850000Y34350000D02*
X68150000Y34350000D01*
D18*
G04 #@! TO.C,R18*
X22870840Y60338944D02*
X22870851Y60738943D01*
X22125005Y60340000D02*
X22125015Y60740000D01*
G04 #@! TO.C,R19*
X20129160Y18113556D02*
X20129149Y17713557D01*
X20874995Y18112500D02*
X20874985Y17712500D01*
G04 #@! TO.C,R17*
X24370840Y20298944D02*
X24370851Y20698943D01*
X23625005Y20300000D02*
X23625015Y20700000D01*
D16*
G04 #@! TO.C,R54*
X73471000Y71800000D02*
X74487000Y71800000D01*
X74487000Y70200000D02*
X73471000Y70200000D01*
X75503000Y71800000D02*
X76519000Y71800000D01*
X76519000Y70200000D02*
X75503000Y70200000D01*
D17*
X73416000Y71801638D02*
G75*
G03*
X73420000Y70200000I-326000J-801638D01*
G01*
X76570000Y70200000D02*
G75*
G03*
X76578602Y71803494I330000J800000D01*
G01*
G04 #@! TD*
M02*
