M48
; DRILL file {KiCad 7.0.7-7.0.7~ubuntu22.04.1} date Sun Sep 10 00:56:56 2023
; FORMAT={2:4/ absolute / inch / suppress leading zeros}
; #@! TF.CreationDate,2023-09-10T00:56:56+00:00
; #@! TF.GenerationSoftware,Kicad,Pcbnew,7.0.7-7.0.7~ubuntu22.04.1
; #@! TF.FileFunction,MixedPlating,1,2
FMAT,2
INCH,TZ
; #@! TA.AperFunction,Plated,PTH,ComponentDrill
T1C0.0118
; #@! TA.AperFunction,Plated,PTH,ComponentDrill
T2C0.0118
; #@! TA.AperFunction,Plated,PTH,ComponentDrill
T3C0.0276
; #@! TA.AperFunction,Plated,PTH,ComponentDrill
T4C0.0320
; #@! TA.AperFunction,Plated,PTH,ComponentDrill
T5C0.0394
; #@! TA.AperFunction,NonPlated,NPTH,ComponentDrill
T6C0.0827
%
G90
G05
T1
X23652Y23752
X23652Y23250
X23652Y22600
X23652Y22246
X26181Y23031
T2
X9656Y24144
X9656Y23770
X9656Y23396
X10262Y22087
X10325Y15089
X10325Y14774
X10325Y14459
X10325Y14144
X10325Y13829
X10325Y13514
X10325Y13199
X10325Y12884
X10325Y12569
X10325Y12254
X10325Y11939
X10325Y11624
X10325Y10522
X10325Y10207
X10325Y9419
X10325Y9104
X10325Y8789
X10325Y8474
X10325Y8159
X10325Y6467
X10325Y5404
X10325Y5010
X10325Y2096
X10656Y22087
X11781Y16407
X12175Y2096
X12254Y16407
X12726Y2096
X12726Y16407
X13081Y23750
X13081Y23396
X13159Y15246
X13199Y16407
X13474Y15246
X13789Y15246
X14104Y15246
X14419Y15246
X14577Y2096
X14734Y15246
X14892Y2096
X14970Y17569
X15285Y15246
X15364Y17569
X15600Y15246
X15915Y15246
X15915Y2096
X16230Y15246
X16309Y2096
X16545Y15246
X16703Y2096
X16860Y15246
X17096Y2096
X17175Y15246
X17490Y15246
X17490Y2096
X17805Y15246
X17884Y2096
X18120Y15246
X18278Y2096
X18435Y15246
X18671Y2096
X18750Y15246
X19065Y15246
X19380Y15246
X19695Y15246
X20010Y15246
X21703Y15246
X22884Y2096
X23278Y2096
X24262Y12648
X24262Y12175
X24262Y11703
X24262Y11230
X24262Y10758
X24262Y10285
X24262Y9813
X24262Y9341
X24262Y8868
X24262Y8396
X24262Y7923
X24262Y7451
X24262Y6978
X24262Y6506
X24262Y6033
X24262Y5561
X24262Y5089
X24262Y4616
X24262Y4144
X24262Y3671
X24262Y3199
X24262Y2254
T3
X8169Y14921
X8169Y14291
X8169Y13661
X8858Y14606
X8858Y13976
T4
X3224Y26969
X4724Y26969
X6496Y26969
X7996Y26969
X9646Y26537
X9646Y25037
X11122Y26537
X11122Y25037
X13386Y26537
X13386Y25037
X15157Y26537
X15157Y25037
X15945Y26537
X15945Y25037
X16732Y26537
X16732Y25037
X19882Y26555
X19882Y24626
X20866Y26555
X20866Y24626
X21850Y26537
X21850Y25037
X22638Y26537
X22638Y25037
X23819Y26537
X23819Y25037
X25197Y26537
X25197Y25037
X27362Y26752
X27362Y24823
X28346Y26537
X28346Y25037
X29134Y26537
X29134Y25037
X29921Y26537
X29921Y25037
X30709Y26537
X30709Y25037
T5
X3506Y35321
X3506Y34337
X3506Y31975
X3506Y30991
X3752Y29416
X4490Y35321
X4490Y34337
X4490Y31975
X4490Y30991
X5228Y29416
X5474Y35321
X5474Y34337
X5474Y31975
X5474Y30991
X6458Y35321
X6458Y34337
X6458Y31975
X6458Y30991
X6704Y29416
X7443Y35321
X7443Y34337
X7443Y31975
X7443Y30991
X8181Y29416
X8427Y35321
X8427Y34337
X8427Y31975
X8427Y30991
X9411Y35321
X9411Y34337
X9411Y31975
X9411Y30991
X9657Y29416
X10395Y35321
X10395Y34337
X10395Y31975
X10395Y30991
X11134Y29416
X11380Y35321
X11380Y34337
X11380Y31975
X11380Y30991
X12364Y35321
X12364Y34337
X12364Y31975
X12364Y30991
X12610Y29416
X13348Y35321
X13348Y34337
X13348Y31975
X13348Y30991
X13848Y17746
X14026Y23848
X14086Y29416
X14332Y35321
X14332Y34337
X14332Y31975
X14332Y30991
X16309Y17746
X18002Y17746
X18750Y17746
X18770Y23848
X19647Y35321
X19647Y34337
X19647Y31975
X19647Y30991
X19893Y29416
X20632Y35321
X20632Y34337
X20632Y31975
X20632Y30991
X20719Y23848
X21270Y17746
X21370Y29416
X21447Y23848
X21616Y35321
X21616Y34337
X21616Y31975
X21616Y30991
X22600Y35321
X22600Y34337
X22600Y31975
X22600Y30991
X22846Y29416
X23584Y35321
X23584Y34337
X23584Y31975
X23584Y30991
X24323Y29416
X24569Y35321
X24569Y34337
X24569Y31975
X24569Y30991
X25553Y35321
X25553Y34337
X25553Y31975
X25553Y30991
X25799Y29416
X26165Y7102
X26165Y6102
X26165Y5102
X26165Y4102
X26165Y3102
X26537Y35321
X26537Y34337
X26537Y31975
X26537Y30991
X27165Y7102
X27165Y6102
X27165Y5102
X27165Y4102
X27165Y3102
X27275Y29416
X27521Y35321
X27521Y34337
X27521Y31975
X27521Y30991
X28165Y7102
X28165Y6102
X28165Y5102
X28165Y4102
X28165Y3102
X28506Y35321
X28506Y34337
X28506Y31975
X28506Y30991
X28752Y29416
X29406Y7102
X29406Y6102
X29406Y5102
X29406Y4102
X29406Y3102
X29490Y35321
X29490Y34337
X29490Y31975
X29490Y30991
X30228Y29416
X30406Y7102
X30406Y6102
X30406Y5102
X30406Y4102
X30406Y3102
X30474Y35321
X30474Y34337
X30474Y31975
X30474Y30991
X31406Y7102
X31406Y6102
X31406Y5102
X31406Y4102
X31406Y3102
T6
X848Y33077
X33132Y33077
T3
X8770Y15728G85X8258Y15728
G05
X8770Y12854G85X8258Y12854
G05
T0
M30
