G04 #@! TF.GenerationSoftware,KiCad,Pcbnew,7.0.7-7.0.7~ubuntu22.04.1*
G04 #@! TF.CreationDate,2023-09-10T00:56:56+00:00*
G04 #@! TF.ProjectId,hellen-112-17,68656c6c-656e-42d3-9131-322d31372e6b,B*
G04 #@! TF.SameCoordinates,Original*
G04 #@! TF.FileFunction,Legend,Top*
G04 #@! TF.FilePolarity,Positive*
%FSLAX46Y46*%
G04 Gerber Fmt 4.6, Leading zero omitted, Abs format (unit mm)*
G04 Created by KiCad (PCBNEW 7.0.7-7.0.7~ubuntu22.04.1) date 2023-09-10 00:56:56*
%MOMM*%
%LPD*%
G01*
G04 APERTURE LIST*
%ADD10C,0.304800*%
%ADD11C,0.150000*%
%ADD12C,0.200000*%
%ADD13C,0.127000*%
%ADD14C,0.099060*%
%ADD15C,0.120000*%
%ADD16C,0.203200*%
%ADD17C,0.170000*%
G04 APERTURE END LIST*
D10*
X153229713Y46375809D02*
X153229713Y47440190D01*
X153229713Y47440190D02*
X153157141Y47633713D01*
X153157141Y47633713D02*
X153011998Y47730475D01*
X153011998Y47730475D02*
X152721713Y47730475D01*
X152721713Y47730475D02*
X152576570Y47633713D01*
X153229713Y46472570D02*
X153084570Y46375809D01*
X153084570Y46375809D02*
X152721713Y46375809D01*
X152721713Y46375809D02*
X152576570Y46472570D01*
X152576570Y46472570D02*
X152503998Y46666094D01*
X152503998Y46666094D02*
X152503998Y46859618D01*
X152503998Y46859618D02*
X152576570Y47053142D01*
X152576570Y47053142D02*
X152721713Y47149904D01*
X152721713Y47149904D02*
X153084570Y47149904D01*
X153084570Y47149904D02*
X153229713Y47246666D01*
X154608570Y46375809D02*
X154608570Y48407809D01*
X154608570Y46472570D02*
X154463427Y46375809D01*
X154463427Y46375809D02*
X154173141Y46375809D01*
X154173141Y46375809D02*
X154027998Y46472570D01*
X154027998Y46472570D02*
X153955427Y46569332D01*
X153955427Y46569332D02*
X153882855Y46762856D01*
X153882855Y46762856D02*
X153882855Y47343428D01*
X153882855Y47343428D02*
X153955427Y47536951D01*
X153955427Y47536951D02*
X154027998Y47633713D01*
X154027998Y47633713D02*
X154173141Y47730475D01*
X154173141Y47730475D02*
X154463427Y47730475D01*
X154463427Y47730475D02*
X154608570Y47633713D01*
X155987427Y46375809D02*
X155987427Y47440190D01*
X155987427Y47440190D02*
X155914855Y47633713D01*
X155914855Y47633713D02*
X155769712Y47730475D01*
X155769712Y47730475D02*
X155479427Y47730475D01*
X155479427Y47730475D02*
X155334284Y47633713D01*
X155987427Y46472570D02*
X155842284Y46375809D01*
X155842284Y46375809D02*
X155479427Y46375809D01*
X155479427Y46375809D02*
X155334284Y46472570D01*
X155334284Y46472570D02*
X155261712Y46666094D01*
X155261712Y46666094D02*
X155261712Y46859618D01*
X155261712Y46859618D02*
X155334284Y47053142D01*
X155334284Y47053142D02*
X155479427Y47149904D01*
X155479427Y47149904D02*
X155842284Y47149904D01*
X155842284Y47149904D02*
X155987427Y47246666D01*
X156713141Y47730475D02*
X156713141Y45698475D01*
X156713141Y47633713D02*
X156858284Y47730475D01*
X156858284Y47730475D02*
X157148569Y47730475D01*
X157148569Y47730475D02*
X157293712Y47633713D01*
X157293712Y47633713D02*
X157366284Y47536951D01*
X157366284Y47536951D02*
X157438855Y47343428D01*
X157438855Y47343428D02*
X157438855Y46762856D01*
X157438855Y46762856D02*
X157366284Y46569332D01*
X157366284Y46569332D02*
X157293712Y46472570D01*
X157293712Y46472570D02*
X157148569Y46375809D01*
X157148569Y46375809D02*
X156858284Y46375809D01*
X156858284Y46375809D02*
X156713141Y46472570D01*
X157874283Y47730475D02*
X158454855Y47730475D01*
X158091998Y48407809D02*
X158091998Y46666094D01*
X158091998Y46666094D02*
X158164569Y46472570D01*
X158164569Y46472570D02*
X158309712Y46375809D01*
X158309712Y46375809D02*
X158454855Y46375809D01*
X159543426Y46472570D02*
X159398283Y46375809D01*
X159398283Y46375809D02*
X159107998Y46375809D01*
X159107998Y46375809D02*
X158962855Y46472570D01*
X158962855Y46472570D02*
X158890283Y46666094D01*
X158890283Y46666094D02*
X158890283Y47440190D01*
X158890283Y47440190D02*
X158962855Y47633713D01*
X158962855Y47633713D02*
X159107998Y47730475D01*
X159107998Y47730475D02*
X159398283Y47730475D01*
X159398283Y47730475D02*
X159543426Y47633713D01*
X159543426Y47633713D02*
X159615998Y47440190D01*
X159615998Y47440190D02*
X159615998Y47246666D01*
X159615998Y47246666D02*
X158890283Y47053142D01*
X160269141Y46375809D02*
X160269141Y47730475D01*
X160269141Y47343428D02*
X160341712Y47536951D01*
X160341712Y47536951D02*
X160414284Y47633713D01*
X160414284Y47633713D02*
X160559426Y47730475D01*
X160559426Y47730475D02*
X160704569Y47730475D01*
X161212570Y47149904D02*
X162373713Y47149904D01*
X163099427Y46375809D02*
X163099427Y48407809D01*
X163099427Y47633713D02*
X163244570Y47730475D01*
X163244570Y47730475D02*
X163534855Y47730475D01*
X163534855Y47730475D02*
X163679998Y47633713D01*
X163679998Y47633713D02*
X163752570Y47536951D01*
X163752570Y47536951D02*
X163825141Y47343428D01*
X163825141Y47343428D02*
X163825141Y46762856D01*
X163825141Y46762856D02*
X163752570Y46569332D01*
X163752570Y46569332D02*
X163679998Y46472570D01*
X163679998Y46472570D02*
X163534855Y46375809D01*
X163534855Y46375809D02*
X163244570Y46375809D01*
X163244570Y46375809D02*
X163099427Y46472570D01*
X164695998Y46375809D02*
X164550855Y46472570D01*
X164550855Y46472570D02*
X164478284Y46569332D01*
X164478284Y46569332D02*
X164405712Y46762856D01*
X164405712Y46762856D02*
X164405712Y47343428D01*
X164405712Y47343428D02*
X164478284Y47536951D01*
X164478284Y47536951D02*
X164550855Y47633713D01*
X164550855Y47633713D02*
X164695998Y47730475D01*
X164695998Y47730475D02*
X164913712Y47730475D01*
X164913712Y47730475D02*
X165058855Y47633713D01*
X165058855Y47633713D02*
X165131427Y47536951D01*
X165131427Y47536951D02*
X165203998Y47343428D01*
X165203998Y47343428D02*
X165203998Y46762856D01*
X165203998Y46762856D02*
X165131427Y46569332D01*
X165131427Y46569332D02*
X165058855Y46472570D01*
X165058855Y46472570D02*
X164913712Y46375809D01*
X164913712Y46375809D02*
X164695998Y46375809D01*
X166510284Y46375809D02*
X166510284Y47440190D01*
X166510284Y47440190D02*
X166437712Y47633713D01*
X166437712Y47633713D02*
X166292569Y47730475D01*
X166292569Y47730475D02*
X166002284Y47730475D01*
X166002284Y47730475D02*
X165857141Y47633713D01*
X166510284Y46472570D02*
X166365141Y46375809D01*
X166365141Y46375809D02*
X166002284Y46375809D01*
X166002284Y46375809D02*
X165857141Y46472570D01*
X165857141Y46472570D02*
X165784569Y46666094D01*
X165784569Y46666094D02*
X165784569Y46859618D01*
X165784569Y46859618D02*
X165857141Y47053142D01*
X165857141Y47053142D02*
X166002284Y47149904D01*
X166002284Y47149904D02*
X166365141Y47149904D01*
X166365141Y47149904D02*
X166510284Y47246666D01*
X167235998Y46375809D02*
X167235998Y47730475D01*
X167235998Y47343428D02*
X167308569Y47536951D01*
X167308569Y47536951D02*
X167381141Y47633713D01*
X167381141Y47633713D02*
X167526283Y47730475D01*
X167526283Y47730475D02*
X167671426Y47730475D01*
X168832570Y46375809D02*
X168832570Y48407809D01*
X168832570Y46472570D02*
X168687427Y46375809D01*
X168687427Y46375809D02*
X168397141Y46375809D01*
X168397141Y46375809D02*
X168251998Y46472570D01*
X168251998Y46472570D02*
X168179427Y46569332D01*
X168179427Y46569332D02*
X168106855Y46762856D01*
X168106855Y46762856D02*
X168106855Y47343428D01*
X168106855Y47343428D02*
X168179427Y47536951D01*
X168179427Y47536951D02*
X168251998Y47633713D01*
X168251998Y47633713D02*
X168397141Y47730475D01*
X168397141Y47730475D02*
X168687427Y47730475D01*
X168687427Y47730475D02*
X168832570Y47633713D01*
X169558284Y47149904D02*
X170719427Y47149904D01*
X171445141Y46375809D02*
X171445141Y47730475D01*
X171445141Y47536951D02*
X171517712Y47633713D01*
X171517712Y47633713D02*
X171662855Y47730475D01*
X171662855Y47730475D02*
X171880569Y47730475D01*
X171880569Y47730475D02*
X172025712Y47633713D01*
X172025712Y47633713D02*
X172098284Y47440190D01*
X172098284Y47440190D02*
X172098284Y46375809D01*
X172098284Y47440190D02*
X172170855Y47633713D01*
X172170855Y47633713D02*
X172315998Y47730475D01*
X172315998Y47730475D02*
X172533712Y47730475D01*
X172533712Y47730475D02*
X172678855Y47633713D01*
X172678855Y47633713D02*
X172751426Y47440190D01*
X172751426Y47440190D02*
X172751426Y46375809D01*
X174057712Y46472570D02*
X173912569Y46375809D01*
X173912569Y46375809D02*
X173622284Y46375809D01*
X173622284Y46375809D02*
X173477141Y46472570D01*
X173477141Y46472570D02*
X173404569Y46666094D01*
X173404569Y46666094D02*
X173404569Y47440190D01*
X173404569Y47440190D02*
X173477141Y47633713D01*
X173477141Y47633713D02*
X173622284Y47730475D01*
X173622284Y47730475D02*
X173912569Y47730475D01*
X173912569Y47730475D02*
X174057712Y47633713D01*
X174057712Y47633713D02*
X174130284Y47440190D01*
X174130284Y47440190D02*
X174130284Y47246666D01*
X174130284Y47246666D02*
X173404569Y47053142D01*
X175581712Y46375809D02*
X174710855Y46375809D01*
X175146284Y46375809D02*
X175146284Y48407809D01*
X175146284Y48407809D02*
X175001141Y48117523D01*
X175001141Y48117523D02*
X174855998Y47923999D01*
X174855998Y47923999D02*
X174710855Y47827237D01*
X176089713Y48407809D02*
X177105713Y48407809D01*
X177105713Y48407809D02*
X176452570Y46375809D01*
X177686285Y47149904D02*
X178847428Y47149904D01*
X180371427Y46375809D02*
X179500570Y46375809D01*
X179935999Y46375809D02*
X179935999Y48407809D01*
X179935999Y48407809D02*
X179790856Y48117523D01*
X179790856Y48117523D02*
X179645713Y47923999D01*
X179645713Y47923999D02*
X179500570Y47827237D01*
X181822856Y46375809D02*
X180951999Y46375809D01*
X181387428Y46375809D02*
X181387428Y48407809D01*
X181387428Y48407809D02*
X181242285Y48117523D01*
X181242285Y48117523D02*
X181097142Y47923999D01*
X181097142Y47923999D02*
X180951999Y47827237D01*
X182403428Y48214285D02*
X182476000Y48311047D01*
X182476000Y48311047D02*
X182621143Y48407809D01*
X182621143Y48407809D02*
X182984000Y48407809D01*
X182984000Y48407809D02*
X183129143Y48311047D01*
X183129143Y48311047D02*
X183201714Y48214285D01*
X183201714Y48214285D02*
X183274285Y48020761D01*
X183274285Y48020761D02*
X183274285Y47827237D01*
X183274285Y47827237D02*
X183201714Y47536951D01*
X183201714Y47536951D02*
X182330857Y46375809D01*
X182330857Y46375809D02*
X183274285Y46375809D01*
X185088572Y46375809D02*
X185088572Y47730475D01*
X185088572Y47343428D02*
X185161143Y47536951D01*
X185161143Y47536951D02*
X185233715Y47633713D01*
X185233715Y47633713D02*
X185378857Y47730475D01*
X185378857Y47730475D02*
X185524000Y47730475D01*
X186612572Y46472570D02*
X186467429Y46375809D01*
X186467429Y46375809D02*
X186177144Y46375809D01*
X186177144Y46375809D02*
X186032001Y46472570D01*
X186032001Y46472570D02*
X185959429Y46666094D01*
X185959429Y46666094D02*
X185959429Y47440190D01*
X185959429Y47440190D02*
X186032001Y47633713D01*
X186032001Y47633713D02*
X186177144Y47730475D01*
X186177144Y47730475D02*
X186467429Y47730475D01*
X186467429Y47730475D02*
X186612572Y47633713D01*
X186612572Y47633713D02*
X186685144Y47440190D01*
X186685144Y47440190D02*
X186685144Y47246666D01*
X186685144Y47246666D02*
X185959429Y47053142D01*
X187193144Y47730475D02*
X187556001Y46375809D01*
X187556001Y46375809D02*
X187918858Y47730475D01*
X188499430Y46569332D02*
X188572001Y46472570D01*
X188572001Y46472570D02*
X188499430Y46375809D01*
X188499430Y46375809D02*
X188426858Y46472570D01*
X188426858Y46472570D02*
X188499430Y46569332D01*
X188499430Y46569332D02*
X188499430Y46375809D01*
X189733144Y47440190D02*
X189950858Y47343428D01*
X189950858Y47343428D02*
X190023429Y47246666D01*
X190023429Y47246666D02*
X190096001Y47053142D01*
X190096001Y47053142D02*
X190096001Y46762856D01*
X190096001Y46762856D02*
X190023429Y46569332D01*
X190023429Y46569332D02*
X189950858Y46472570D01*
X189950858Y46472570D02*
X189805715Y46375809D01*
X189805715Y46375809D02*
X189225144Y46375809D01*
X189225144Y46375809D02*
X189225144Y48407809D01*
X189225144Y48407809D02*
X189733144Y48407809D01*
X189733144Y48407809D02*
X189878287Y48311047D01*
X189878287Y48311047D02*
X189950858Y48214285D01*
X189950858Y48214285D02*
X190023429Y48020761D01*
X190023429Y48020761D02*
X190023429Y47827237D01*
X190023429Y47827237D02*
X189950858Y47633713D01*
X189950858Y47633713D02*
X189878287Y47536951D01*
X189878287Y47536951D02*
X189733144Y47440190D01*
X189733144Y47440190D02*
X189225144Y47440190D01*
X126113545Y5456832D02*
X126113545Y6811498D01*
X126113545Y6424451D02*
X126186116Y6617974D01*
X126186116Y6617974D02*
X126258688Y6714736D01*
X126258688Y6714736D02*
X126403830Y6811498D01*
X126403830Y6811498D02*
X126548973Y6811498D01*
X127710117Y6811498D02*
X127710117Y5456832D01*
X127056974Y6811498D02*
X127056974Y5747117D01*
X127056974Y5747117D02*
X127129545Y5553593D01*
X127129545Y5553593D02*
X127274688Y5456832D01*
X127274688Y5456832D02*
X127492402Y5456832D01*
X127492402Y5456832D02*
X127637545Y5553593D01*
X127637545Y5553593D02*
X127710117Y5650355D01*
X128363259Y5553593D02*
X128508402Y5456832D01*
X128508402Y5456832D02*
X128798688Y5456832D01*
X128798688Y5456832D02*
X128943831Y5553593D01*
X128943831Y5553593D02*
X129016402Y5747117D01*
X129016402Y5747117D02*
X129016402Y5843879D01*
X129016402Y5843879D02*
X128943831Y6037403D01*
X128943831Y6037403D02*
X128798688Y6134165D01*
X128798688Y6134165D02*
X128580974Y6134165D01*
X128580974Y6134165D02*
X128435831Y6230927D01*
X128435831Y6230927D02*
X128363259Y6424451D01*
X128363259Y6424451D02*
X128363259Y6521213D01*
X128363259Y6521213D02*
X128435831Y6714736D01*
X128435831Y6714736D02*
X128580974Y6811498D01*
X128580974Y6811498D02*
X128798688Y6811498D01*
X128798688Y6811498D02*
X128943831Y6714736D01*
X129669545Y6521213D02*
X130177545Y6521213D01*
X130395259Y5456832D02*
X129669545Y5456832D01*
X129669545Y5456832D02*
X129669545Y7488832D01*
X129669545Y7488832D02*
X130395259Y7488832D01*
X131556402Y6521213D02*
X131048402Y6521213D01*
X131048402Y5456832D02*
X131048402Y7488832D01*
X131048402Y7488832D02*
X131774116Y7488832D01*
X132354688Y5456832D02*
X132354688Y7488832D01*
X133080402Y5650355D02*
X133152973Y5553593D01*
X133152973Y5553593D02*
X133080402Y5456832D01*
X133080402Y5456832D02*
X133007830Y5553593D01*
X133007830Y5553593D02*
X133080402Y5650355D01*
X133080402Y5650355D02*
X133080402Y5456832D01*
X134459259Y5553593D02*
X134314116Y5456832D01*
X134314116Y5456832D02*
X134023830Y5456832D01*
X134023830Y5456832D02*
X133878687Y5553593D01*
X133878687Y5553593D02*
X133806116Y5650355D01*
X133806116Y5650355D02*
X133733544Y5843879D01*
X133733544Y5843879D02*
X133733544Y6424451D01*
X133733544Y6424451D02*
X133806116Y6617974D01*
X133806116Y6617974D02*
X133878687Y6714736D01*
X133878687Y6714736D02*
X134023830Y6811498D01*
X134023830Y6811498D02*
X134314116Y6811498D01*
X134314116Y6811498D02*
X134459259Y6714736D01*
X135330116Y5456832D02*
X135184973Y5553593D01*
X135184973Y5553593D02*
X135112402Y5650355D01*
X135112402Y5650355D02*
X135039830Y5843879D01*
X135039830Y5843879D02*
X135039830Y6424451D01*
X135039830Y6424451D02*
X135112402Y6617974D01*
X135112402Y6617974D02*
X135184973Y6714736D01*
X135184973Y6714736D02*
X135330116Y6811498D01*
X135330116Y6811498D02*
X135547830Y6811498D01*
X135547830Y6811498D02*
X135692973Y6714736D01*
X135692973Y6714736D02*
X135765545Y6617974D01*
X135765545Y6617974D02*
X135838116Y6424451D01*
X135838116Y6424451D02*
X135838116Y5843879D01*
X135838116Y5843879D02*
X135765545Y5650355D01*
X135765545Y5650355D02*
X135692973Y5553593D01*
X135692973Y5553593D02*
X135547830Y5456832D01*
X135547830Y5456832D02*
X135330116Y5456832D01*
X136491259Y5456832D02*
X136491259Y6811498D01*
X136491259Y6617974D02*
X136563830Y6714736D01*
X136563830Y6714736D02*
X136708973Y6811498D01*
X136708973Y6811498D02*
X136926687Y6811498D01*
X136926687Y6811498D02*
X137071830Y6714736D01*
X137071830Y6714736D02*
X137144402Y6521213D01*
X137144402Y6521213D02*
X137144402Y5456832D01*
X137144402Y6521213D02*
X137216973Y6714736D01*
X137216973Y6714736D02*
X137362116Y6811498D01*
X137362116Y6811498D02*
X137579830Y6811498D01*
X137579830Y6811498D02*
X137724973Y6714736D01*
X137724973Y6714736D02*
X137797544Y6521213D01*
X137797544Y6521213D02*
X137797544Y5456832D01*
D11*
X10712644Y64173638D02*
X10712644Y63364115D01*
X10712644Y63364115D02*
X10760263Y63268877D01*
X10760263Y63268877D02*
X10807882Y63221257D01*
X10807882Y63221257D02*
X10903120Y63173638D01*
X10903120Y63173638D02*
X11093596Y63173638D01*
X11093596Y63173638D02*
X11188834Y63221257D01*
X11188834Y63221257D02*
X11236453Y63268877D01*
X11236453Y63268877D02*
X11284072Y63364115D01*
X11284072Y63364115D02*
X11284072Y64173638D01*
X12284072Y63173638D02*
X11712644Y63173638D01*
X11998358Y63173638D02*
X11998358Y64173638D01*
X11998358Y64173638D02*
X11903120Y64030781D01*
X11903120Y64030781D02*
X11807882Y63935543D01*
X11807882Y63935543D02*
X11712644Y63887924D01*
D12*
X37587795Y76502194D02*
X37587795Y77430766D01*
X37587795Y77430766D02*
X38159224Y76930766D01*
X38159224Y76930766D02*
X38159224Y77145051D01*
X38159224Y77145051D02*
X38230652Y77287908D01*
X38230652Y77287908D02*
X38302081Y77359337D01*
X38302081Y77359337D02*
X38444938Y77430766D01*
X38444938Y77430766D02*
X38802081Y77430766D01*
X38802081Y77430766D02*
X38944938Y77359337D01*
X38944938Y77359337D02*
X39016367Y77287908D01*
X39016367Y77287908D02*
X39087795Y77145051D01*
X39087795Y77145051D02*
X39087795Y76716480D01*
X39087795Y76716480D02*
X39016367Y76573623D01*
X39016367Y76573623D02*
X38944938Y76502194D01*
X37587795Y77930765D02*
X37587795Y78930765D01*
X37587795Y78930765D02*
X39087795Y78287908D01*
X53487795Y71359337D02*
X53487795Y70645051D01*
X53487795Y70645051D02*
X54202081Y70573623D01*
X54202081Y70573623D02*
X54130652Y70645051D01*
X54130652Y70645051D02*
X54059224Y70787908D01*
X54059224Y70787908D02*
X54059224Y71145051D01*
X54059224Y71145051D02*
X54130652Y71287908D01*
X54130652Y71287908D02*
X54202081Y71359337D01*
X54202081Y71359337D02*
X54344938Y71430766D01*
X54344938Y71430766D02*
X54702081Y71430766D01*
X54702081Y71430766D02*
X54844938Y71359337D01*
X54844938Y71359337D02*
X54916367Y71287908D01*
X54916367Y71287908D02*
X54987795Y71145051D01*
X54987795Y71145051D02*
X54987795Y70787908D01*
X54987795Y70787908D02*
X54916367Y70645051D01*
X54916367Y70645051D02*
X54844938Y70573623D01*
X53487795Y72787908D02*
X53487795Y72073622D01*
X53487795Y72073622D02*
X54202081Y72002194D01*
X54202081Y72002194D02*
X54130652Y72073622D01*
X54130652Y72073622D02*
X54059224Y72216479D01*
X54059224Y72216479D02*
X54059224Y72573622D01*
X54059224Y72573622D02*
X54130652Y72716479D01*
X54130652Y72716479D02*
X54202081Y72787908D01*
X54202081Y72787908D02*
X54344938Y72859337D01*
X54344938Y72859337D02*
X54702081Y72859337D01*
X54702081Y72859337D02*
X54844938Y72787908D01*
X54844938Y72787908D02*
X54916367Y72716479D01*
X54916367Y72716479D02*
X54987795Y72573622D01*
X54987795Y72573622D02*
X54987795Y72216479D01*
X54987795Y72216479D02*
X54916367Y72073622D01*
X54916367Y72073622D02*
X54844938Y72002194D01*
X78730652Y81073623D02*
X78659224Y81145051D01*
X78659224Y81145051D02*
X78587795Y81287908D01*
X78587795Y81287908D02*
X78587795Y81645051D01*
X78587795Y81645051D02*
X78659224Y81787908D01*
X78659224Y81787908D02*
X78730652Y81859337D01*
X78730652Y81859337D02*
X78873509Y81930766D01*
X78873509Y81930766D02*
X79016367Y81930766D01*
X79016367Y81930766D02*
X79230652Y81859337D01*
X79230652Y81859337D02*
X80087795Y81002194D01*
X80087795Y81002194D02*
X80087795Y81930766D01*
X78587795Y83287908D02*
X78587795Y82573622D01*
X78587795Y82573622D02*
X79302081Y82502194D01*
X79302081Y82502194D02*
X79230652Y82573622D01*
X79230652Y82573622D02*
X79159224Y82716479D01*
X79159224Y82716479D02*
X79159224Y83073622D01*
X79159224Y83073622D02*
X79230652Y83216479D01*
X79230652Y83216479D02*
X79302081Y83287908D01*
X79302081Y83287908D02*
X79444938Y83359337D01*
X79444938Y83359337D02*
X79802081Y83359337D01*
X79802081Y83359337D02*
X79944938Y83287908D01*
X79944938Y83287908D02*
X80016367Y83216479D01*
X80016367Y83216479D02*
X80087795Y83073622D01*
X80087795Y83073622D02*
X80087795Y82716479D01*
X80087795Y82716479D02*
X80016367Y82573622D01*
X80016367Y82573622D02*
X79944938Y82502194D01*
X37730652Y81073623D02*
X37659224Y81145051D01*
X37659224Y81145051D02*
X37587795Y81287908D01*
X37587795Y81287908D02*
X37587795Y81645051D01*
X37587795Y81645051D02*
X37659224Y81787908D01*
X37659224Y81787908D02*
X37730652Y81859337D01*
X37730652Y81859337D02*
X37873509Y81930766D01*
X37873509Y81930766D02*
X38016367Y81930766D01*
X38016367Y81930766D02*
X38230652Y81859337D01*
X38230652Y81859337D02*
X39087795Y81002194D01*
X39087795Y81002194D02*
X39087795Y81930766D01*
X37587795Y83287908D02*
X37587795Y82573622D01*
X37587795Y82573622D02*
X38302081Y82502194D01*
X38302081Y82502194D02*
X38230652Y82573622D01*
X38230652Y82573622D02*
X38159224Y82716479D01*
X38159224Y82716479D02*
X38159224Y83073622D01*
X38159224Y83073622D02*
X38230652Y83216479D01*
X38230652Y83216479D02*
X38302081Y83287908D01*
X38302081Y83287908D02*
X38444938Y83359337D01*
X38444938Y83359337D02*
X38802081Y83359337D01*
X38802081Y83359337D02*
X38944938Y83287908D01*
X38944938Y83287908D02*
X39016367Y83216479D01*
X39016367Y83216479D02*
X39087795Y83073622D01*
X39087795Y83073622D02*
X39087795Y82716479D01*
X39087795Y82716479D02*
X39016367Y82573622D01*
X39016367Y82573622D02*
X38944938Y82502194D01*
X49687795Y71359337D02*
X49687795Y70645051D01*
X49687795Y70645051D02*
X50402081Y70573623D01*
X50402081Y70573623D02*
X50330652Y70645051D01*
X50330652Y70645051D02*
X50259224Y70787908D01*
X50259224Y70787908D02*
X50259224Y71145051D01*
X50259224Y71145051D02*
X50330652Y71287908D01*
X50330652Y71287908D02*
X50402081Y71359337D01*
X50402081Y71359337D02*
X50544938Y71430766D01*
X50544938Y71430766D02*
X50902081Y71430766D01*
X50902081Y71430766D02*
X51044938Y71359337D01*
X51044938Y71359337D02*
X51116367Y71287908D01*
X51116367Y71287908D02*
X51187795Y71145051D01*
X51187795Y71145051D02*
X51187795Y70787908D01*
X51187795Y70787908D02*
X51116367Y70645051D01*
X51116367Y70645051D02*
X51044938Y70573623D01*
X49687795Y72716479D02*
X49687795Y72430765D01*
X49687795Y72430765D02*
X49759224Y72287908D01*
X49759224Y72287908D02*
X49830652Y72216479D01*
X49830652Y72216479D02*
X50044938Y72073622D01*
X50044938Y72073622D02*
X50330652Y72002194D01*
X50330652Y72002194D02*
X50902081Y72002194D01*
X50902081Y72002194D02*
X51044938Y72073622D01*
X51044938Y72073622D02*
X51116367Y72145051D01*
X51116367Y72145051D02*
X51187795Y72287908D01*
X51187795Y72287908D02*
X51187795Y72573622D01*
X51187795Y72573622D02*
X51116367Y72716479D01*
X51116367Y72716479D02*
X51044938Y72787908D01*
X51044938Y72787908D02*
X50902081Y72859337D01*
X50902081Y72859337D02*
X50544938Y72859337D01*
X50544938Y72859337D02*
X50402081Y72787908D01*
X50402081Y72787908D02*
X50330652Y72716479D01*
X50330652Y72716479D02*
X50259224Y72573622D01*
X50259224Y72573622D02*
X50259224Y72287908D01*
X50259224Y72287908D02*
X50330652Y72145051D01*
X50330652Y72145051D02*
X50402081Y72073622D01*
X50402081Y72073622D02*
X50544938Y72002194D01*
X47087795Y80502194D02*
X47087795Y81430766D01*
X47087795Y81430766D02*
X47659224Y80930766D01*
X47659224Y80930766D02*
X47659224Y81145051D01*
X47659224Y81145051D02*
X47730652Y81287908D01*
X47730652Y81287908D02*
X47802081Y81359337D01*
X47802081Y81359337D02*
X47944938Y81430766D01*
X47944938Y81430766D02*
X48302081Y81430766D01*
X48302081Y81430766D02*
X48444938Y81359337D01*
X48444938Y81359337D02*
X48516367Y81287908D01*
X48516367Y81287908D02*
X48587795Y81145051D01*
X48587795Y81145051D02*
X48587795Y80716480D01*
X48587795Y80716480D02*
X48516367Y80573623D01*
X48516367Y80573623D02*
X48444938Y80502194D01*
X47087795Y82716479D02*
X47087795Y82430765D01*
X47087795Y82430765D02*
X47159224Y82287908D01*
X47159224Y82287908D02*
X47230652Y82216479D01*
X47230652Y82216479D02*
X47444938Y82073622D01*
X47444938Y82073622D02*
X47730652Y82002194D01*
X47730652Y82002194D02*
X48302081Y82002194D01*
X48302081Y82002194D02*
X48444938Y82073622D01*
X48444938Y82073622D02*
X48516367Y82145051D01*
X48516367Y82145051D02*
X48587795Y82287908D01*
X48587795Y82287908D02*
X48587795Y82573622D01*
X48587795Y82573622D02*
X48516367Y82716479D01*
X48516367Y82716479D02*
X48444938Y82787908D01*
X48444938Y82787908D02*
X48302081Y82859337D01*
X48302081Y82859337D02*
X47944938Y82859337D01*
X47944938Y82859337D02*
X47802081Y82787908D01*
X47802081Y82787908D02*
X47730652Y82716479D01*
X47730652Y82716479D02*
X47659224Y82573622D01*
X47659224Y82573622D02*
X47659224Y82287908D01*
X47659224Y82287908D02*
X47730652Y82145051D01*
X47730652Y82145051D02*
X47802081Y82073622D01*
X47802081Y82073622D02*
X47944938Y82002194D01*
X76487795Y71187908D02*
X77487795Y71187908D01*
X75916367Y70830766D02*
X76987795Y70473623D01*
X76987795Y70473623D02*
X76987795Y71402194D01*
X77487795Y72045051D02*
X77487795Y72330765D01*
X77487795Y72330765D02*
X77416367Y72473622D01*
X77416367Y72473622D02*
X77344938Y72545051D01*
X77344938Y72545051D02*
X77130652Y72687908D01*
X77130652Y72687908D02*
X76844938Y72759337D01*
X76844938Y72759337D02*
X76273509Y72759337D01*
X76273509Y72759337D02*
X76130652Y72687908D01*
X76130652Y72687908D02*
X76059224Y72616479D01*
X76059224Y72616479D02*
X75987795Y72473622D01*
X75987795Y72473622D02*
X75987795Y72187908D01*
X75987795Y72187908D02*
X76059224Y72045051D01*
X76059224Y72045051D02*
X76130652Y71973622D01*
X76130652Y71973622D02*
X76273509Y71902194D01*
X76273509Y71902194D02*
X76630652Y71902194D01*
X76630652Y71902194D02*
X76773509Y71973622D01*
X76773509Y71973622D02*
X76844938Y72045051D01*
X76844938Y72045051D02*
X76916367Y72187908D01*
X76916367Y72187908D02*
X76916367Y72473622D01*
X76916367Y72473622D02*
X76844938Y72616479D01*
X76844938Y72616479D02*
X76773509Y72687908D01*
X76773509Y72687908D02*
X76630652Y72759337D01*
X57187795Y71359337D02*
X57187795Y70645051D01*
X57187795Y70645051D02*
X57902081Y70573623D01*
X57902081Y70573623D02*
X57830652Y70645051D01*
X57830652Y70645051D02*
X57759224Y70787908D01*
X57759224Y70787908D02*
X57759224Y71145051D01*
X57759224Y71145051D02*
X57830652Y71287908D01*
X57830652Y71287908D02*
X57902081Y71359337D01*
X57902081Y71359337D02*
X58044938Y71430766D01*
X58044938Y71430766D02*
X58402081Y71430766D01*
X58402081Y71430766D02*
X58544938Y71359337D01*
X58544938Y71359337D02*
X58616367Y71287908D01*
X58616367Y71287908D02*
X58687795Y71145051D01*
X58687795Y71145051D02*
X58687795Y70787908D01*
X58687795Y70787908D02*
X58616367Y70645051D01*
X58616367Y70645051D02*
X58544938Y70573623D01*
X57687795Y72716479D02*
X58687795Y72716479D01*
X57116367Y72359337D02*
X58187795Y72002194D01*
X58187795Y72002194D02*
X58187795Y72930765D01*
X48587795Y89930766D02*
X48587795Y89073623D01*
X48587795Y89502194D02*
X47087795Y89502194D01*
X47087795Y89502194D02*
X47302081Y89359337D01*
X47302081Y89359337D02*
X47444938Y89216480D01*
X47444938Y89216480D02*
X47516367Y89073623D01*
X47230652Y90502194D02*
X47159224Y90573622D01*
X47159224Y90573622D02*
X47087795Y90716479D01*
X47087795Y90716479D02*
X47087795Y91073622D01*
X47087795Y91073622D02*
X47159224Y91216479D01*
X47159224Y91216479D02*
X47230652Y91287908D01*
X47230652Y91287908D02*
X47373509Y91359337D01*
X47373509Y91359337D02*
X47516367Y91359337D01*
X47516367Y91359337D02*
X47730652Y91287908D01*
X47730652Y91287908D02*
X48587795Y90430765D01*
X48587795Y90430765D02*
X48587795Y91359337D01*
X16187795Y71359337D02*
X16187795Y70645051D01*
X16187795Y70645051D02*
X16902081Y70573623D01*
X16902081Y70573623D02*
X16830652Y70645051D01*
X16830652Y70645051D02*
X16759224Y70787908D01*
X16759224Y70787908D02*
X16759224Y71145051D01*
X16759224Y71145051D02*
X16830652Y71287908D01*
X16830652Y71287908D02*
X16902081Y71359337D01*
X16902081Y71359337D02*
X17044938Y71430766D01*
X17044938Y71430766D02*
X17402081Y71430766D01*
X17402081Y71430766D02*
X17544938Y71359337D01*
X17544938Y71359337D02*
X17616367Y71287908D01*
X17616367Y71287908D02*
X17687795Y71145051D01*
X17687795Y71145051D02*
X17687795Y70787908D01*
X17687795Y70787908D02*
X17616367Y70645051D01*
X17616367Y70645051D02*
X17544938Y70573623D01*
X16687795Y72716479D02*
X17687795Y72716479D01*
X16116367Y72359337D02*
X17187795Y72002194D01*
X17187795Y72002194D02*
X17187795Y72930765D01*
X39087795Y86430766D02*
X39087795Y85573623D01*
X39087795Y86002194D02*
X37587795Y86002194D01*
X37587795Y86002194D02*
X37802081Y85859337D01*
X37802081Y85859337D02*
X37944938Y85716480D01*
X37944938Y85716480D02*
X38016367Y85573623D01*
X37587795Y86930765D02*
X37587795Y87859337D01*
X37587795Y87859337D02*
X38159224Y87359337D01*
X38159224Y87359337D02*
X38159224Y87573622D01*
X38159224Y87573622D02*
X38230652Y87716479D01*
X38230652Y87716479D02*
X38302081Y87787908D01*
X38302081Y87787908D02*
X38444938Y87859337D01*
X38444938Y87859337D02*
X38802081Y87859337D01*
X38802081Y87859337D02*
X38944938Y87787908D01*
X38944938Y87787908D02*
X39016367Y87716479D01*
X39016367Y87716479D02*
X39087795Y87573622D01*
X39087795Y87573622D02*
X39087795Y87145051D01*
X39087795Y87145051D02*
X39016367Y87002194D01*
X39016367Y87002194D02*
X38944938Y86930765D01*
X8687795Y71359337D02*
X8687795Y70645051D01*
X8687795Y70645051D02*
X9402081Y70573623D01*
X9402081Y70573623D02*
X9330652Y70645051D01*
X9330652Y70645051D02*
X9259224Y70787908D01*
X9259224Y70787908D02*
X9259224Y71145051D01*
X9259224Y71145051D02*
X9330652Y71287908D01*
X9330652Y71287908D02*
X9402081Y71359337D01*
X9402081Y71359337D02*
X9544938Y71430766D01*
X9544938Y71430766D02*
X9902081Y71430766D01*
X9902081Y71430766D02*
X10044938Y71359337D01*
X10044938Y71359337D02*
X10116367Y71287908D01*
X10116367Y71287908D02*
X10187795Y71145051D01*
X10187795Y71145051D02*
X10187795Y70787908D01*
X10187795Y70787908D02*
X10116367Y70645051D01*
X10116367Y70645051D02*
X10044938Y70573623D01*
X8687795Y72716479D02*
X8687795Y72430765D01*
X8687795Y72430765D02*
X8759224Y72287908D01*
X8759224Y72287908D02*
X8830652Y72216479D01*
X8830652Y72216479D02*
X9044938Y72073622D01*
X9044938Y72073622D02*
X9330652Y72002194D01*
X9330652Y72002194D02*
X9902081Y72002194D01*
X9902081Y72002194D02*
X10044938Y72073622D01*
X10044938Y72073622D02*
X10116367Y72145051D01*
X10116367Y72145051D02*
X10187795Y72287908D01*
X10187795Y72287908D02*
X10187795Y72573622D01*
X10187795Y72573622D02*
X10116367Y72716479D01*
X10116367Y72716479D02*
X10044938Y72787908D01*
X10044938Y72787908D02*
X9902081Y72859337D01*
X9902081Y72859337D02*
X9544938Y72859337D01*
X9544938Y72859337D02*
X9402081Y72787908D01*
X9402081Y72787908D02*
X9330652Y72716479D01*
X9330652Y72716479D02*
X9259224Y72573622D01*
X9259224Y72573622D02*
X9259224Y72287908D01*
X9259224Y72287908D02*
X9330652Y72145051D01*
X9330652Y72145051D02*
X9402081Y72073622D01*
X9402081Y72073622D02*
X9544938Y72002194D01*
X39087795Y86430766D02*
X39087795Y85573623D01*
X39087795Y86002194D02*
X37587795Y86002194D01*
X37587795Y86002194D02*
X37802081Y85859337D01*
X37802081Y85859337D02*
X37944938Y85716480D01*
X37944938Y85716480D02*
X38016367Y85573623D01*
X37587795Y86930765D02*
X37587795Y87859337D01*
X37587795Y87859337D02*
X38159224Y87359337D01*
X38159224Y87359337D02*
X38159224Y87573622D01*
X38159224Y87573622D02*
X38230652Y87716479D01*
X38230652Y87716479D02*
X38302081Y87787908D01*
X38302081Y87787908D02*
X38444938Y87859337D01*
X38444938Y87859337D02*
X38802081Y87859337D01*
X38802081Y87859337D02*
X38944938Y87787908D01*
X38944938Y87787908D02*
X39016367Y87716479D01*
X39016367Y87716479D02*
X39087795Y87573622D01*
X39087795Y87573622D02*
X39087795Y87145051D01*
X39087795Y87145051D02*
X39016367Y87002194D01*
X39016367Y87002194D02*
X38944938Y86930765D01*
X27587795Y71359337D02*
X27587795Y70645051D01*
X27587795Y70645051D02*
X28302081Y70573623D01*
X28302081Y70573623D02*
X28230652Y70645051D01*
X28230652Y70645051D02*
X28159224Y70787908D01*
X28159224Y70787908D02*
X28159224Y71145051D01*
X28159224Y71145051D02*
X28230652Y71287908D01*
X28230652Y71287908D02*
X28302081Y71359337D01*
X28302081Y71359337D02*
X28444938Y71430766D01*
X28444938Y71430766D02*
X28802081Y71430766D01*
X28802081Y71430766D02*
X28944938Y71359337D01*
X28944938Y71359337D02*
X29016367Y71287908D01*
X29016367Y71287908D02*
X29087795Y71145051D01*
X29087795Y71145051D02*
X29087795Y70787908D01*
X29087795Y70787908D02*
X29016367Y70645051D01*
X29016367Y70645051D02*
X28944938Y70573623D01*
X29087795Y72859337D02*
X29087795Y72002194D01*
X29087795Y72430765D02*
X27587795Y72430765D01*
X27587795Y72430765D02*
X27802081Y72287908D01*
X27802081Y72287908D02*
X27944938Y72145051D01*
X27944938Y72145051D02*
X28016367Y72002194D01*
X12487795Y71359337D02*
X12487795Y70645051D01*
X12487795Y70645051D02*
X13202081Y70573623D01*
X13202081Y70573623D02*
X13130652Y70645051D01*
X13130652Y70645051D02*
X13059224Y70787908D01*
X13059224Y70787908D02*
X13059224Y71145051D01*
X13059224Y71145051D02*
X13130652Y71287908D01*
X13130652Y71287908D02*
X13202081Y71359337D01*
X13202081Y71359337D02*
X13344938Y71430766D01*
X13344938Y71430766D02*
X13702081Y71430766D01*
X13702081Y71430766D02*
X13844938Y71359337D01*
X13844938Y71359337D02*
X13916367Y71287908D01*
X13916367Y71287908D02*
X13987795Y71145051D01*
X13987795Y71145051D02*
X13987795Y70787908D01*
X13987795Y70787908D02*
X13916367Y70645051D01*
X13916367Y70645051D02*
X13844938Y70573623D01*
X12487795Y72787908D02*
X12487795Y72073622D01*
X12487795Y72073622D02*
X13202081Y72002194D01*
X13202081Y72002194D02*
X13130652Y72073622D01*
X13130652Y72073622D02*
X13059224Y72216479D01*
X13059224Y72216479D02*
X13059224Y72573622D01*
X13059224Y72573622D02*
X13130652Y72716479D01*
X13130652Y72716479D02*
X13202081Y72787908D01*
X13202081Y72787908D02*
X13344938Y72859337D01*
X13344938Y72859337D02*
X13702081Y72859337D01*
X13702081Y72859337D02*
X13844938Y72787908D01*
X13844938Y72787908D02*
X13916367Y72716479D01*
X13916367Y72716479D02*
X13987795Y72573622D01*
X13987795Y72573622D02*
X13987795Y72216479D01*
X13987795Y72216479D02*
X13916367Y72073622D01*
X13916367Y72073622D02*
X13844938Y72002194D01*
X80087795Y90645052D02*
X80087795Y89787909D01*
X80087795Y90216480D02*
X78587795Y90216480D01*
X78587795Y90216480D02*
X78802081Y90073623D01*
X78802081Y90073623D02*
X78944938Y89930766D01*
X78944938Y89930766D02*
X79016367Y89787909D01*
X72187795Y71359337D02*
X72187795Y70645051D01*
X72187795Y70645051D02*
X72902081Y70573623D01*
X72902081Y70573623D02*
X72830652Y70645051D01*
X72830652Y70645051D02*
X72759224Y70787908D01*
X72759224Y70787908D02*
X72759224Y71145051D01*
X72759224Y71145051D02*
X72830652Y71287908D01*
X72830652Y71287908D02*
X72902081Y71359337D01*
X72902081Y71359337D02*
X73044938Y71430766D01*
X73044938Y71430766D02*
X73402081Y71430766D01*
X73402081Y71430766D02*
X73544938Y71359337D01*
X73544938Y71359337D02*
X73616367Y71287908D01*
X73616367Y71287908D02*
X73687795Y71145051D01*
X73687795Y71145051D02*
X73687795Y70787908D01*
X73687795Y70787908D02*
X73616367Y70645051D01*
X73616367Y70645051D02*
X73544938Y70573623D01*
X72187795Y72359337D02*
X72187795Y72502194D01*
X72187795Y72502194D02*
X72259224Y72645051D01*
X72259224Y72645051D02*
X72330652Y72716479D01*
X72330652Y72716479D02*
X72473509Y72787908D01*
X72473509Y72787908D02*
X72759224Y72859337D01*
X72759224Y72859337D02*
X73116367Y72859337D01*
X73116367Y72859337D02*
X73402081Y72787908D01*
X73402081Y72787908D02*
X73544938Y72716479D01*
X73544938Y72716479D02*
X73616367Y72645051D01*
X73616367Y72645051D02*
X73687795Y72502194D01*
X73687795Y72502194D02*
X73687795Y72359337D01*
X73687795Y72359337D02*
X73616367Y72216479D01*
X73616367Y72216479D02*
X73544938Y72145051D01*
X73544938Y72145051D02*
X73402081Y72073622D01*
X73402081Y72073622D02*
X73116367Y72002194D01*
X73116367Y72002194D02*
X72759224Y72002194D01*
X72759224Y72002194D02*
X72473509Y72073622D01*
X72473509Y72073622D02*
X72330652Y72145051D01*
X72330652Y72145051D02*
X72259224Y72216479D01*
X72259224Y72216479D02*
X72187795Y72359337D01*
X6230652Y85573623D02*
X6159224Y85645051D01*
X6159224Y85645051D02*
X6087795Y85787908D01*
X6087795Y85787908D02*
X6087795Y86145051D01*
X6087795Y86145051D02*
X6159224Y86287908D01*
X6159224Y86287908D02*
X6230652Y86359337D01*
X6230652Y86359337D02*
X6373509Y86430766D01*
X6373509Y86430766D02*
X6516367Y86430766D01*
X6516367Y86430766D02*
X6730652Y86359337D01*
X6730652Y86359337D02*
X7587795Y85502194D01*
X7587795Y85502194D02*
X7587795Y86430766D01*
X6587795Y87716479D02*
X7587795Y87716479D01*
X6016367Y87359337D02*
X7087795Y87002194D01*
X7087795Y87002194D02*
X7087795Y87930765D01*
X60987795Y71359337D02*
X60987795Y70645051D01*
X60987795Y70645051D02*
X61702081Y70573623D01*
X61702081Y70573623D02*
X61630652Y70645051D01*
X61630652Y70645051D02*
X61559224Y70787908D01*
X61559224Y70787908D02*
X61559224Y71145051D01*
X61559224Y71145051D02*
X61630652Y71287908D01*
X61630652Y71287908D02*
X61702081Y71359337D01*
X61702081Y71359337D02*
X61844938Y71430766D01*
X61844938Y71430766D02*
X62202081Y71430766D01*
X62202081Y71430766D02*
X62344938Y71359337D01*
X62344938Y71359337D02*
X62416367Y71287908D01*
X62416367Y71287908D02*
X62487795Y71145051D01*
X62487795Y71145051D02*
X62487795Y70787908D01*
X62487795Y70787908D02*
X62416367Y70645051D01*
X62416367Y70645051D02*
X62344938Y70573623D01*
X60987795Y71930765D02*
X60987795Y72859337D01*
X60987795Y72859337D02*
X61559224Y72359337D01*
X61559224Y72359337D02*
X61559224Y72573622D01*
X61559224Y72573622D02*
X61630652Y72716479D01*
X61630652Y72716479D02*
X61702081Y72787908D01*
X61702081Y72787908D02*
X61844938Y72859337D01*
X61844938Y72859337D02*
X62202081Y72859337D01*
X62202081Y72859337D02*
X62344938Y72787908D01*
X62344938Y72787908D02*
X62416367Y72716479D01*
X62416367Y72716479D02*
X62487795Y72573622D01*
X62487795Y72573622D02*
X62487795Y72145051D01*
X62487795Y72145051D02*
X62416367Y72002194D01*
X62416367Y72002194D02*
X62344938Y71930765D01*
X39087795Y90645052D02*
X39087795Y89787909D01*
X39087795Y90216480D02*
X37587795Y90216480D01*
X37587795Y90216480D02*
X37802081Y90073623D01*
X37802081Y90073623D02*
X37944938Y89930766D01*
X37944938Y89930766D02*
X38016367Y89787909D01*
X7587795Y89930766D02*
X7587795Y89073623D01*
X7587795Y89502194D02*
X6087795Y89502194D01*
X6087795Y89502194D02*
X6302081Y89359337D01*
X6302081Y89359337D02*
X6444938Y89216480D01*
X6444938Y89216480D02*
X6516367Y89073623D01*
X6230652Y90502194D02*
X6159224Y90573622D01*
X6159224Y90573622D02*
X6087795Y90716479D01*
X6087795Y90716479D02*
X6087795Y91073622D01*
X6087795Y91073622D02*
X6159224Y91216479D01*
X6159224Y91216479D02*
X6230652Y91287908D01*
X6230652Y91287908D02*
X6373509Y91359337D01*
X6373509Y91359337D02*
X6516367Y91359337D01*
X6516367Y91359337D02*
X6730652Y91287908D01*
X6730652Y91287908D02*
X7587795Y90430765D01*
X7587795Y90430765D02*
X7587795Y91359337D01*
X78587795Y76502194D02*
X78587795Y77430766D01*
X78587795Y77430766D02*
X79159224Y76930766D01*
X79159224Y76930766D02*
X79159224Y77145051D01*
X79159224Y77145051D02*
X79230652Y77287908D01*
X79230652Y77287908D02*
X79302081Y77359337D01*
X79302081Y77359337D02*
X79444938Y77430766D01*
X79444938Y77430766D02*
X79802081Y77430766D01*
X79802081Y77430766D02*
X79944938Y77359337D01*
X79944938Y77359337D02*
X80016367Y77287908D01*
X80016367Y77287908D02*
X80087795Y77145051D01*
X80087795Y77145051D02*
X80087795Y76716480D01*
X80087795Y76716480D02*
X80016367Y76573623D01*
X80016367Y76573623D02*
X79944938Y76502194D01*
X78587795Y77930765D02*
X78587795Y78930765D01*
X78587795Y78930765D02*
X80087795Y78287908D01*
X80087795Y86430766D02*
X80087795Y85573623D01*
X80087795Y86002194D02*
X78587795Y86002194D01*
X78587795Y86002194D02*
X78802081Y85859337D01*
X78802081Y85859337D02*
X78944938Y85716480D01*
X78944938Y85716480D02*
X79016367Y85573623D01*
X78587795Y86930765D02*
X78587795Y87859337D01*
X78587795Y87859337D02*
X79159224Y87359337D01*
X79159224Y87359337D02*
X79159224Y87573622D01*
X79159224Y87573622D02*
X79230652Y87716479D01*
X79230652Y87716479D02*
X79302081Y87787908D01*
X79302081Y87787908D02*
X79444938Y87859337D01*
X79444938Y87859337D02*
X79802081Y87859337D01*
X79802081Y87859337D02*
X79944938Y87787908D01*
X79944938Y87787908D02*
X80016367Y87716479D01*
X80016367Y87716479D02*
X80087795Y87573622D01*
X80087795Y87573622D02*
X80087795Y87145051D01*
X80087795Y87145051D02*
X80016367Y87002194D01*
X80016367Y87002194D02*
X79944938Y86930765D01*
X47587795Y77787908D02*
X48587795Y77787908D01*
X47016367Y77430766D02*
X48087795Y77073623D01*
X48087795Y77073623D02*
X48087795Y78002194D01*
X47730652Y78787908D02*
X47659224Y78645051D01*
X47659224Y78645051D02*
X47587795Y78573622D01*
X47587795Y78573622D02*
X47444938Y78502194D01*
X47444938Y78502194D02*
X47373509Y78502194D01*
X47373509Y78502194D02*
X47230652Y78573622D01*
X47230652Y78573622D02*
X47159224Y78645051D01*
X47159224Y78645051D02*
X47087795Y78787908D01*
X47087795Y78787908D02*
X47087795Y79073622D01*
X47087795Y79073622D02*
X47159224Y79216479D01*
X47159224Y79216479D02*
X47230652Y79287908D01*
X47230652Y79287908D02*
X47373509Y79359337D01*
X47373509Y79359337D02*
X47444938Y79359337D01*
X47444938Y79359337D02*
X47587795Y79287908D01*
X47587795Y79287908D02*
X47659224Y79216479D01*
X47659224Y79216479D02*
X47730652Y79073622D01*
X47730652Y79073622D02*
X47730652Y78787908D01*
X47730652Y78787908D02*
X47802081Y78645051D01*
X47802081Y78645051D02*
X47873509Y78573622D01*
X47873509Y78573622D02*
X48016367Y78502194D01*
X48016367Y78502194D02*
X48302081Y78502194D01*
X48302081Y78502194D02*
X48444938Y78573622D01*
X48444938Y78573622D02*
X48516367Y78645051D01*
X48516367Y78645051D02*
X48587795Y78787908D01*
X48587795Y78787908D02*
X48587795Y79073622D01*
X48587795Y79073622D02*
X48516367Y79216479D01*
X48516367Y79216479D02*
X48444938Y79287908D01*
X48444938Y79287908D02*
X48302081Y79359337D01*
X48302081Y79359337D02*
X48016367Y79359337D01*
X48016367Y79359337D02*
X47873509Y79287908D01*
X47873509Y79287908D02*
X47802081Y79216479D01*
X47802081Y79216479D02*
X47730652Y79073622D01*
X23687795Y71359337D02*
X23687795Y70645051D01*
X23687795Y70645051D02*
X24402081Y70573623D01*
X24402081Y70573623D02*
X24330652Y70645051D01*
X24330652Y70645051D02*
X24259224Y70787908D01*
X24259224Y70787908D02*
X24259224Y71145051D01*
X24259224Y71145051D02*
X24330652Y71287908D01*
X24330652Y71287908D02*
X24402081Y71359337D01*
X24402081Y71359337D02*
X24544938Y71430766D01*
X24544938Y71430766D02*
X24902081Y71430766D01*
X24902081Y71430766D02*
X25044938Y71359337D01*
X25044938Y71359337D02*
X25116367Y71287908D01*
X25116367Y71287908D02*
X25187795Y71145051D01*
X25187795Y71145051D02*
X25187795Y70787908D01*
X25187795Y70787908D02*
X25116367Y70645051D01*
X25116367Y70645051D02*
X25044938Y70573623D01*
X23830652Y72002194D02*
X23759224Y72073622D01*
X23759224Y72073622D02*
X23687795Y72216479D01*
X23687795Y72216479D02*
X23687795Y72573622D01*
X23687795Y72573622D02*
X23759224Y72716479D01*
X23759224Y72716479D02*
X23830652Y72787908D01*
X23830652Y72787908D02*
X23973509Y72859337D01*
X23973509Y72859337D02*
X24116367Y72859337D01*
X24116367Y72859337D02*
X24330652Y72787908D01*
X24330652Y72787908D02*
X25187795Y71930765D01*
X25187795Y71930765D02*
X25187795Y72859337D01*
X47230652Y85573623D02*
X47159224Y85645051D01*
X47159224Y85645051D02*
X47087795Y85787908D01*
X47087795Y85787908D02*
X47087795Y86145051D01*
X47087795Y86145051D02*
X47159224Y86287908D01*
X47159224Y86287908D02*
X47230652Y86359337D01*
X47230652Y86359337D02*
X47373509Y86430766D01*
X47373509Y86430766D02*
X47516367Y86430766D01*
X47516367Y86430766D02*
X47730652Y86359337D01*
X47730652Y86359337D02*
X48587795Y85502194D01*
X48587795Y85502194D02*
X48587795Y86430766D01*
X47587795Y87716479D02*
X48587795Y87716479D01*
X47016367Y87359337D02*
X48087795Y87002194D01*
X48087795Y87002194D02*
X48087795Y87930765D01*
X6087795Y80502194D02*
X6087795Y81430766D01*
X6087795Y81430766D02*
X6659224Y80930766D01*
X6659224Y80930766D02*
X6659224Y81145051D01*
X6659224Y81145051D02*
X6730652Y81287908D01*
X6730652Y81287908D02*
X6802081Y81359337D01*
X6802081Y81359337D02*
X6944938Y81430766D01*
X6944938Y81430766D02*
X7302081Y81430766D01*
X7302081Y81430766D02*
X7444938Y81359337D01*
X7444938Y81359337D02*
X7516367Y81287908D01*
X7516367Y81287908D02*
X7587795Y81145051D01*
X7587795Y81145051D02*
X7587795Y80716480D01*
X7587795Y80716480D02*
X7516367Y80573623D01*
X7516367Y80573623D02*
X7444938Y80502194D01*
X6087795Y82716479D02*
X6087795Y82430765D01*
X6087795Y82430765D02*
X6159224Y82287908D01*
X6159224Y82287908D02*
X6230652Y82216479D01*
X6230652Y82216479D02*
X6444938Y82073622D01*
X6444938Y82073622D02*
X6730652Y82002194D01*
X6730652Y82002194D02*
X7302081Y82002194D01*
X7302081Y82002194D02*
X7444938Y82073622D01*
X7444938Y82073622D02*
X7516367Y82145051D01*
X7516367Y82145051D02*
X7587795Y82287908D01*
X7587795Y82287908D02*
X7587795Y82573622D01*
X7587795Y82573622D02*
X7516367Y82716479D01*
X7516367Y82716479D02*
X7444938Y82787908D01*
X7444938Y82787908D02*
X7302081Y82859337D01*
X7302081Y82859337D02*
X6944938Y82859337D01*
X6944938Y82859337D02*
X6802081Y82787908D01*
X6802081Y82787908D02*
X6730652Y82716479D01*
X6730652Y82716479D02*
X6659224Y82573622D01*
X6659224Y82573622D02*
X6659224Y82287908D01*
X6659224Y82287908D02*
X6730652Y82145051D01*
X6730652Y82145051D02*
X6802081Y82073622D01*
X6802081Y82073622D02*
X6944938Y82002194D01*
X6587795Y77787908D02*
X7587795Y77787908D01*
X6016367Y77430766D02*
X7087795Y77073623D01*
X7087795Y77073623D02*
X7087795Y78002194D01*
X6730652Y78787908D02*
X6659224Y78645051D01*
X6659224Y78645051D02*
X6587795Y78573622D01*
X6587795Y78573622D02*
X6444938Y78502194D01*
X6444938Y78502194D02*
X6373509Y78502194D01*
X6373509Y78502194D02*
X6230652Y78573622D01*
X6230652Y78573622D02*
X6159224Y78645051D01*
X6159224Y78645051D02*
X6087795Y78787908D01*
X6087795Y78787908D02*
X6087795Y79073622D01*
X6087795Y79073622D02*
X6159224Y79216479D01*
X6159224Y79216479D02*
X6230652Y79287908D01*
X6230652Y79287908D02*
X6373509Y79359337D01*
X6373509Y79359337D02*
X6444938Y79359337D01*
X6444938Y79359337D02*
X6587795Y79287908D01*
X6587795Y79287908D02*
X6659224Y79216479D01*
X6659224Y79216479D02*
X6730652Y79073622D01*
X6730652Y79073622D02*
X6730652Y78787908D01*
X6730652Y78787908D02*
X6802081Y78645051D01*
X6802081Y78645051D02*
X6873509Y78573622D01*
X6873509Y78573622D02*
X7016367Y78502194D01*
X7016367Y78502194D02*
X7302081Y78502194D01*
X7302081Y78502194D02*
X7444938Y78573622D01*
X7444938Y78573622D02*
X7516367Y78645051D01*
X7516367Y78645051D02*
X7587795Y78787908D01*
X7587795Y78787908D02*
X7587795Y79073622D01*
X7587795Y79073622D02*
X7516367Y79216479D01*
X7516367Y79216479D02*
X7444938Y79287908D01*
X7444938Y79287908D02*
X7302081Y79359337D01*
X7302081Y79359337D02*
X7016367Y79359337D01*
X7016367Y79359337D02*
X6873509Y79287908D01*
X6873509Y79287908D02*
X6802081Y79216479D01*
X6802081Y79216479D02*
X6730652Y79073622D01*
X68587795Y71359337D02*
X68587795Y70645051D01*
X68587795Y70645051D02*
X69302081Y70573623D01*
X69302081Y70573623D02*
X69230652Y70645051D01*
X69230652Y70645051D02*
X69159224Y70787908D01*
X69159224Y70787908D02*
X69159224Y71145051D01*
X69159224Y71145051D02*
X69230652Y71287908D01*
X69230652Y71287908D02*
X69302081Y71359337D01*
X69302081Y71359337D02*
X69444938Y71430766D01*
X69444938Y71430766D02*
X69802081Y71430766D01*
X69802081Y71430766D02*
X69944938Y71359337D01*
X69944938Y71359337D02*
X70016367Y71287908D01*
X70016367Y71287908D02*
X70087795Y71145051D01*
X70087795Y71145051D02*
X70087795Y70787908D01*
X70087795Y70787908D02*
X70016367Y70645051D01*
X70016367Y70645051D02*
X69944938Y70573623D01*
X70087795Y72859337D02*
X70087795Y72002194D01*
X70087795Y72430765D02*
X68587795Y72430765D01*
X68587795Y72430765D02*
X68802081Y72287908D01*
X68802081Y72287908D02*
X68944938Y72145051D01*
X68944938Y72145051D02*
X69016367Y72002194D01*
X35487795Y71187908D02*
X36487795Y71187908D01*
X34916367Y70830766D02*
X35987795Y70473623D01*
X35987795Y70473623D02*
X35987795Y71402194D01*
X36487795Y72045051D02*
X36487795Y72330765D01*
X36487795Y72330765D02*
X36416367Y72473622D01*
X36416367Y72473622D02*
X36344938Y72545051D01*
X36344938Y72545051D02*
X36130652Y72687908D01*
X36130652Y72687908D02*
X35844938Y72759337D01*
X35844938Y72759337D02*
X35273509Y72759337D01*
X35273509Y72759337D02*
X35130652Y72687908D01*
X35130652Y72687908D02*
X35059224Y72616479D01*
X35059224Y72616479D02*
X34987795Y72473622D01*
X34987795Y72473622D02*
X34987795Y72187908D01*
X34987795Y72187908D02*
X35059224Y72045051D01*
X35059224Y72045051D02*
X35130652Y71973622D01*
X35130652Y71973622D02*
X35273509Y71902194D01*
X35273509Y71902194D02*
X35630652Y71902194D01*
X35630652Y71902194D02*
X35773509Y71973622D01*
X35773509Y71973622D02*
X35844938Y72045051D01*
X35844938Y72045051D02*
X35916367Y72187908D01*
X35916367Y72187908D02*
X35916367Y72473622D01*
X35916367Y72473622D02*
X35844938Y72616479D01*
X35844938Y72616479D02*
X35773509Y72687908D01*
X35773509Y72687908D02*
X35630652Y72759337D01*
X19987795Y71359337D02*
X19987795Y70645051D01*
X19987795Y70645051D02*
X20702081Y70573623D01*
X20702081Y70573623D02*
X20630652Y70645051D01*
X20630652Y70645051D02*
X20559224Y70787908D01*
X20559224Y70787908D02*
X20559224Y71145051D01*
X20559224Y71145051D02*
X20630652Y71287908D01*
X20630652Y71287908D02*
X20702081Y71359337D01*
X20702081Y71359337D02*
X20844938Y71430766D01*
X20844938Y71430766D02*
X21202081Y71430766D01*
X21202081Y71430766D02*
X21344938Y71359337D01*
X21344938Y71359337D02*
X21416367Y71287908D01*
X21416367Y71287908D02*
X21487795Y71145051D01*
X21487795Y71145051D02*
X21487795Y70787908D01*
X21487795Y70787908D02*
X21416367Y70645051D01*
X21416367Y70645051D02*
X21344938Y70573623D01*
X19987795Y71930765D02*
X19987795Y72859337D01*
X19987795Y72859337D02*
X20559224Y72359337D01*
X20559224Y72359337D02*
X20559224Y72573622D01*
X20559224Y72573622D02*
X20630652Y72716479D01*
X20630652Y72716479D02*
X20702081Y72787908D01*
X20702081Y72787908D02*
X20844938Y72859337D01*
X20844938Y72859337D02*
X21202081Y72859337D01*
X21202081Y72859337D02*
X21344938Y72787908D01*
X21344938Y72787908D02*
X21416367Y72716479D01*
X21416367Y72716479D02*
X21487795Y72573622D01*
X21487795Y72573622D02*
X21487795Y72145051D01*
X21487795Y72145051D02*
X21416367Y72002194D01*
X21416367Y72002194D02*
X21344938Y71930765D01*
X80087795Y86430766D02*
X80087795Y85573623D01*
X80087795Y86002194D02*
X78587795Y86002194D01*
X78587795Y86002194D02*
X78802081Y85859337D01*
X78802081Y85859337D02*
X78944938Y85716480D01*
X78944938Y85716480D02*
X79016367Y85573623D01*
X78587795Y86930765D02*
X78587795Y87859337D01*
X78587795Y87859337D02*
X79159224Y87359337D01*
X79159224Y87359337D02*
X79159224Y87573622D01*
X79159224Y87573622D02*
X79230652Y87716479D01*
X79230652Y87716479D02*
X79302081Y87787908D01*
X79302081Y87787908D02*
X79444938Y87859337D01*
X79444938Y87859337D02*
X79802081Y87859337D01*
X79802081Y87859337D02*
X79944938Y87787908D01*
X79944938Y87787908D02*
X80016367Y87716479D01*
X80016367Y87716479D02*
X80087795Y87573622D01*
X80087795Y87573622D02*
X80087795Y87145051D01*
X80087795Y87145051D02*
X80016367Y87002194D01*
X80016367Y87002194D02*
X79944938Y86930765D01*
X31187795Y71359337D02*
X31187795Y70645051D01*
X31187795Y70645051D02*
X31902081Y70573623D01*
X31902081Y70573623D02*
X31830652Y70645051D01*
X31830652Y70645051D02*
X31759224Y70787908D01*
X31759224Y70787908D02*
X31759224Y71145051D01*
X31759224Y71145051D02*
X31830652Y71287908D01*
X31830652Y71287908D02*
X31902081Y71359337D01*
X31902081Y71359337D02*
X32044938Y71430766D01*
X32044938Y71430766D02*
X32402081Y71430766D01*
X32402081Y71430766D02*
X32544938Y71359337D01*
X32544938Y71359337D02*
X32616367Y71287908D01*
X32616367Y71287908D02*
X32687795Y71145051D01*
X32687795Y71145051D02*
X32687795Y70787908D01*
X32687795Y70787908D02*
X32616367Y70645051D01*
X32616367Y70645051D02*
X32544938Y70573623D01*
X31187795Y72359337D02*
X31187795Y72502194D01*
X31187795Y72502194D02*
X31259224Y72645051D01*
X31259224Y72645051D02*
X31330652Y72716479D01*
X31330652Y72716479D02*
X31473509Y72787908D01*
X31473509Y72787908D02*
X31759224Y72859337D01*
X31759224Y72859337D02*
X32116367Y72859337D01*
X32116367Y72859337D02*
X32402081Y72787908D01*
X32402081Y72787908D02*
X32544938Y72716479D01*
X32544938Y72716479D02*
X32616367Y72645051D01*
X32616367Y72645051D02*
X32687795Y72502194D01*
X32687795Y72502194D02*
X32687795Y72359337D01*
X32687795Y72359337D02*
X32616367Y72216479D01*
X32616367Y72216479D02*
X32544938Y72145051D01*
X32544938Y72145051D02*
X32402081Y72073622D01*
X32402081Y72073622D02*
X32116367Y72002194D01*
X32116367Y72002194D02*
X31759224Y72002194D01*
X31759224Y72002194D02*
X31473509Y72073622D01*
X31473509Y72073622D02*
X31330652Y72145051D01*
X31330652Y72145051D02*
X31259224Y72216479D01*
X31259224Y72216479D02*
X31187795Y72359337D01*
X64687795Y71359337D02*
X64687795Y70645051D01*
X64687795Y70645051D02*
X65402081Y70573623D01*
X65402081Y70573623D02*
X65330652Y70645051D01*
X65330652Y70645051D02*
X65259224Y70787908D01*
X65259224Y70787908D02*
X65259224Y71145051D01*
X65259224Y71145051D02*
X65330652Y71287908D01*
X65330652Y71287908D02*
X65402081Y71359337D01*
X65402081Y71359337D02*
X65544938Y71430766D01*
X65544938Y71430766D02*
X65902081Y71430766D01*
X65902081Y71430766D02*
X66044938Y71359337D01*
X66044938Y71359337D02*
X66116367Y71287908D01*
X66116367Y71287908D02*
X66187795Y71145051D01*
X66187795Y71145051D02*
X66187795Y70787908D01*
X66187795Y70787908D02*
X66116367Y70645051D01*
X66116367Y70645051D02*
X66044938Y70573623D01*
X64830652Y72002194D02*
X64759224Y72073622D01*
X64759224Y72073622D02*
X64687795Y72216479D01*
X64687795Y72216479D02*
X64687795Y72573622D01*
X64687795Y72573622D02*
X64759224Y72716479D01*
X64759224Y72716479D02*
X64830652Y72787908D01*
X64830652Y72787908D02*
X64973509Y72859337D01*
X64973509Y72859337D02*
X65116367Y72859337D01*
X65116367Y72859337D02*
X65330652Y72787908D01*
X65330652Y72787908D02*
X66187795Y71930765D01*
X66187795Y71930765D02*
X66187795Y72859337D01*
D13*
X38010143Y68654089D02*
X37756143Y69016946D01*
X37574714Y68654089D02*
X37574714Y69416089D01*
X37574714Y69416089D02*
X37865000Y69416089D01*
X37865000Y69416089D02*
X37937571Y69379803D01*
X37937571Y69379803D02*
X37973857Y69343517D01*
X37973857Y69343517D02*
X38010143Y69270946D01*
X38010143Y69270946D02*
X38010143Y69162089D01*
X38010143Y69162089D02*
X37973857Y69089517D01*
X37973857Y69089517D02*
X37937571Y69053232D01*
X37937571Y69053232D02*
X37865000Y69016946D01*
X37865000Y69016946D02*
X37574714Y69016946D01*
X38735857Y68654089D02*
X38300428Y68654089D01*
X38518143Y68654089D02*
X38518143Y69416089D01*
X38518143Y69416089D02*
X38445571Y69307232D01*
X38445571Y69307232D02*
X38373000Y69234660D01*
X38373000Y69234660D02*
X38300428Y69198374D01*
X38989857Y69416089D02*
X39461571Y69416089D01*
X39461571Y69416089D02*
X39207571Y69125803D01*
X39207571Y69125803D02*
X39316428Y69125803D01*
X39316428Y69125803D02*
X39389000Y69089517D01*
X39389000Y69089517D02*
X39425285Y69053232D01*
X39425285Y69053232D02*
X39461571Y68980660D01*
X39461571Y68980660D02*
X39461571Y68799232D01*
X39461571Y68799232D02*
X39425285Y68726660D01*
X39425285Y68726660D02*
X39389000Y68690374D01*
X39389000Y68690374D02*
X39316428Y68654089D01*
X39316428Y68654089D02*
X39098714Y68654089D01*
X39098714Y68654089D02*
X39026142Y68690374D01*
X39026142Y68690374D02*
X38989857Y68726660D01*
X13940911Y68010144D02*
X13578054Y67756144D01*
X13940911Y67574715D02*
X13178911Y67574715D01*
X13178911Y67574715D02*
X13178911Y67865001D01*
X13178911Y67865001D02*
X13215197Y67937572D01*
X13215197Y67937572D02*
X13251483Y67973858D01*
X13251483Y67973858D02*
X13324054Y68010144D01*
X13324054Y68010144D02*
X13432911Y68010144D01*
X13432911Y68010144D02*
X13505483Y67973858D01*
X13505483Y67973858D02*
X13541768Y67937572D01*
X13541768Y67937572D02*
X13578054Y67865001D01*
X13578054Y67865001D02*
X13578054Y67574715D01*
X13940911Y68735858D02*
X13940911Y68300429D01*
X13940911Y68518144D02*
X13178911Y68518144D01*
X13178911Y68518144D02*
X13287768Y68445572D01*
X13287768Y68445572D02*
X13360340Y68373001D01*
X13360340Y68373001D02*
X13396626Y68300429D01*
X13940911Y69461572D02*
X13940911Y69026143D01*
X13940911Y69243858D02*
X13178911Y69243858D01*
X13178911Y69243858D02*
X13287768Y69171286D01*
X13287768Y69171286D02*
X13360340Y69098715D01*
X13360340Y69098715D02*
X13396626Y69026143D01*
X33510143Y68654089D02*
X33256143Y69016946D01*
X33074714Y68654089D02*
X33074714Y69416089D01*
X33074714Y69416089D02*
X33365000Y69416089D01*
X33365000Y69416089D02*
X33437571Y69379803D01*
X33437571Y69379803D02*
X33473857Y69343517D01*
X33473857Y69343517D02*
X33510143Y69270946D01*
X33510143Y69270946D02*
X33510143Y69162089D01*
X33510143Y69162089D02*
X33473857Y69089517D01*
X33473857Y69089517D02*
X33437571Y69053232D01*
X33437571Y69053232D02*
X33365000Y69016946D01*
X33365000Y69016946D02*
X33074714Y69016946D01*
X34235857Y68654089D02*
X33800428Y68654089D01*
X34018143Y68654089D02*
X34018143Y69416089D01*
X34018143Y69416089D02*
X33945571Y69307232D01*
X33945571Y69307232D02*
X33873000Y69234660D01*
X33873000Y69234660D02*
X33800428Y69198374D01*
X34889000Y69162089D02*
X34889000Y68654089D01*
X34707571Y69452374D02*
X34526142Y68908089D01*
X34526142Y68908089D02*
X34997857Y68908089D01*
D11*
X73761905Y54445181D02*
X73761905Y53635658D01*
X73761905Y53635658D02*
X73809524Y53540420D01*
X73809524Y53540420D02*
X73857143Y53492800D01*
X73857143Y53492800D02*
X73952381Y53445181D01*
X73952381Y53445181D02*
X74142857Y53445181D01*
X74142857Y53445181D02*
X74238095Y53492800D01*
X74238095Y53492800D02*
X74285714Y53540420D01*
X74285714Y53540420D02*
X74333333Y53635658D01*
X74333333Y53635658D02*
X74333333Y54445181D01*
X75333333Y53445181D02*
X74761905Y53445181D01*
X75047619Y53445181D02*
X75047619Y54445181D01*
X75047619Y54445181D02*
X74952381Y54302324D01*
X74952381Y54302324D02*
X74857143Y54207086D01*
X74857143Y54207086D02*
X74761905Y54159467D01*
X76285714Y53445181D02*
X75714286Y53445181D01*
X76000000Y53445181D02*
X76000000Y54445181D01*
X76000000Y54445181D02*
X75904762Y54302324D01*
X75904762Y54302324D02*
X75809524Y54207086D01*
X75809524Y54207086D02*
X75714286Y54159467D01*
D13*
X15250911Y68010144D02*
X14888054Y67756144D01*
X15250911Y67574715D02*
X14488911Y67574715D01*
X14488911Y67574715D02*
X14488911Y67865001D01*
X14488911Y67865001D02*
X14525197Y67937572D01*
X14525197Y67937572D02*
X14561483Y67973858D01*
X14561483Y67973858D02*
X14634054Y68010144D01*
X14634054Y68010144D02*
X14742911Y68010144D01*
X14742911Y68010144D02*
X14815483Y67973858D01*
X14815483Y67973858D02*
X14851768Y67937572D01*
X14851768Y67937572D02*
X14888054Y67865001D01*
X14888054Y67865001D02*
X14888054Y67574715D01*
X15250911Y68735858D02*
X15250911Y68300429D01*
X15250911Y68518144D02*
X14488911Y68518144D01*
X14488911Y68518144D02*
X14597768Y68445572D01*
X14597768Y68445572D02*
X14670340Y68373001D01*
X14670340Y68373001D02*
X14706626Y68300429D01*
X14561483Y69026143D02*
X14525197Y69062429D01*
X14525197Y69062429D02*
X14488911Y69135000D01*
X14488911Y69135000D02*
X14488911Y69316429D01*
X14488911Y69316429D02*
X14525197Y69389000D01*
X14525197Y69389000D02*
X14561483Y69425286D01*
X14561483Y69425286D02*
X14634054Y69461572D01*
X14634054Y69461572D02*
X14706626Y69461572D01*
X14706626Y69461572D02*
X14815483Y69425286D01*
X14815483Y69425286D02*
X15250911Y68989858D01*
X15250911Y68989858D02*
X15250911Y69461572D01*
X52746000Y69053232D02*
X52492000Y69053232D01*
X52492000Y68654089D02*
X52492000Y69416089D01*
X52492000Y69416089D02*
X52854857Y69416089D01*
X53108857Y69343517D02*
X53145143Y69379803D01*
X53145143Y69379803D02*
X53217715Y69416089D01*
X53217715Y69416089D02*
X53399143Y69416089D01*
X53399143Y69416089D02*
X53471715Y69379803D01*
X53471715Y69379803D02*
X53508000Y69343517D01*
X53508000Y69343517D02*
X53544286Y69270946D01*
X53544286Y69270946D02*
X53544286Y69198374D01*
X53544286Y69198374D02*
X53508000Y69089517D01*
X53508000Y69089517D02*
X53072572Y68654089D01*
X53072572Y68654089D02*
X53544286Y68654089D01*
X27760143Y68654089D02*
X27506143Y69016946D01*
X27324714Y68654089D02*
X27324714Y69416089D01*
X27324714Y69416089D02*
X27615000Y69416089D01*
X27615000Y69416089D02*
X27687571Y69379803D01*
X27687571Y69379803D02*
X27723857Y69343517D01*
X27723857Y69343517D02*
X27760143Y69270946D01*
X27760143Y69270946D02*
X27760143Y69162089D01*
X27760143Y69162089D02*
X27723857Y69089517D01*
X27723857Y69089517D02*
X27687571Y69053232D01*
X27687571Y69053232D02*
X27615000Y69016946D01*
X27615000Y69016946D02*
X27324714Y69016946D01*
X28485857Y68654089D02*
X28050428Y68654089D01*
X28268143Y68654089D02*
X28268143Y69416089D01*
X28268143Y69416089D02*
X28195571Y69307232D01*
X28195571Y69307232D02*
X28123000Y69234660D01*
X28123000Y69234660D02*
X28050428Y69198374D01*
X29175285Y69416089D02*
X28812428Y69416089D01*
X28812428Y69416089D02*
X28776142Y69053232D01*
X28776142Y69053232D02*
X28812428Y69089517D01*
X28812428Y69089517D02*
X28885000Y69125803D01*
X28885000Y69125803D02*
X29066428Y69125803D01*
X29066428Y69125803D02*
X29139000Y69089517D01*
X29139000Y69089517D02*
X29175285Y69053232D01*
X29175285Y69053232D02*
X29211571Y68980660D01*
X29211571Y68980660D02*
X29211571Y68799232D01*
X29211571Y68799232D02*
X29175285Y68726660D01*
X29175285Y68726660D02*
X29139000Y68690374D01*
X29139000Y68690374D02*
X29066428Y68654089D01*
X29066428Y68654089D02*
X28885000Y68654089D01*
X28885000Y68654089D02*
X28812428Y68690374D01*
X28812428Y68690374D02*
X28776142Y68726660D01*
X69246000Y69553232D02*
X68992000Y69553232D01*
X68992000Y69154089D02*
X68992000Y69916089D01*
X68992000Y69916089D02*
X69354857Y69916089D01*
X70044286Y69154089D02*
X69608857Y69154089D01*
X69826572Y69154089D02*
X69826572Y69916089D01*
X69826572Y69916089D02*
X69754000Y69807232D01*
X69754000Y69807232D02*
X69681429Y69734660D01*
X69681429Y69734660D02*
X69608857Y69698374D01*
D11*
X74238095Y26445181D02*
X74238095Y25635658D01*
X74238095Y25635658D02*
X74285714Y25540420D01*
X74285714Y25540420D02*
X74333333Y25492800D01*
X74333333Y25492800D02*
X74428571Y25445181D01*
X74428571Y25445181D02*
X74619047Y25445181D01*
X74619047Y25445181D02*
X74714285Y25492800D01*
X74714285Y25492800D02*
X74761904Y25540420D01*
X74761904Y25540420D02*
X74809523Y25635658D01*
X74809523Y25635658D02*
X74809523Y26445181D01*
X75761904Y26445181D02*
X75285714Y26445181D01*
X75285714Y26445181D02*
X75238095Y25968991D01*
X75238095Y25968991D02*
X75285714Y26016610D01*
X75285714Y26016610D02*
X75380952Y26064229D01*
X75380952Y26064229D02*
X75619047Y26064229D01*
X75619047Y26064229D02*
X75714285Y26016610D01*
X75714285Y26016610D02*
X75761904Y25968991D01*
X75761904Y25968991D02*
X75809523Y25873753D01*
X75809523Y25873753D02*
X75809523Y25635658D01*
X75809523Y25635658D02*
X75761904Y25540420D01*
X75761904Y25540420D02*
X75714285Y25492800D01*
X75714285Y25492800D02*
X75619047Y25445181D01*
X75619047Y25445181D02*
X75380952Y25445181D01*
X75380952Y25445181D02*
X75285714Y25492800D01*
X75285714Y25492800D02*
X75238095Y25540420D01*
X17625057Y31979762D02*
X17577438Y31884524D01*
X17577438Y31884524D02*
X17482200Y31789286D01*
X17482200Y31789286D02*
X17339342Y31646429D01*
X17339342Y31646429D02*
X17291723Y31551191D01*
X17291723Y31551191D02*
X17291723Y31455953D01*
X17529819Y31503572D02*
X17482200Y31408334D01*
X17482200Y31408334D02*
X17386961Y31313096D01*
X17386961Y31313096D02*
X17196485Y31265477D01*
X17196485Y31265477D02*
X16863152Y31265477D01*
X16863152Y31265477D02*
X16672676Y31313096D01*
X16672676Y31313096D02*
X16577438Y31408334D01*
X16577438Y31408334D02*
X16529819Y31503572D01*
X16529819Y31503572D02*
X16529819Y31694048D01*
X16529819Y31694048D02*
X16577438Y31789286D01*
X16577438Y31789286D02*
X16672676Y31884524D01*
X16672676Y31884524D02*
X16863152Y31932143D01*
X16863152Y31932143D02*
X17196485Y31932143D01*
X17196485Y31932143D02*
X17386961Y31884524D01*
X17386961Y31884524D02*
X17482200Y31789286D01*
X17482200Y31789286D02*
X17529819Y31694048D01*
X17529819Y31694048D02*
X17529819Y31503572D01*
X16625057Y32313096D02*
X16577438Y32360715D01*
X16577438Y32360715D02*
X16529819Y32455953D01*
X16529819Y32455953D02*
X16529819Y32694048D01*
X16529819Y32694048D02*
X16577438Y32789286D01*
X16577438Y32789286D02*
X16625057Y32836905D01*
X16625057Y32836905D02*
X16720295Y32884524D01*
X16720295Y32884524D02*
X16815533Y32884524D01*
X16815533Y32884524D02*
X16958390Y32836905D01*
X16958390Y32836905D02*
X17529819Y32265477D01*
X17529819Y32265477D02*
X17529819Y32884524D01*
D13*
X50246000Y69053232D02*
X49992000Y69053232D01*
X49992000Y68654089D02*
X49992000Y69416089D01*
X49992000Y69416089D02*
X50354857Y69416089D01*
X50572572Y69416089D02*
X51044286Y69416089D01*
X51044286Y69416089D02*
X50790286Y69125803D01*
X50790286Y69125803D02*
X50899143Y69125803D01*
X50899143Y69125803D02*
X50971715Y69089517D01*
X50971715Y69089517D02*
X51008000Y69053232D01*
X51008000Y69053232D02*
X51044286Y68980660D01*
X51044286Y68980660D02*
X51044286Y68799232D01*
X51044286Y68799232D02*
X51008000Y68726660D01*
X51008000Y68726660D02*
X50971715Y68690374D01*
X50971715Y68690374D02*
X50899143Y68654089D01*
X50899143Y68654089D02*
X50681429Y68654089D01*
X50681429Y68654089D02*
X50608857Y68690374D01*
X50608857Y68690374D02*
X50572572Y68726660D01*
X63873000Y68654089D02*
X63619000Y69016946D01*
X63437571Y68654089D02*
X63437571Y69416089D01*
X63437571Y69416089D02*
X63727857Y69416089D01*
X63727857Y69416089D02*
X63800428Y69379803D01*
X63800428Y69379803D02*
X63836714Y69343517D01*
X63836714Y69343517D02*
X63873000Y69270946D01*
X63873000Y69270946D02*
X63873000Y69162089D01*
X63873000Y69162089D02*
X63836714Y69089517D01*
X63836714Y69089517D02*
X63800428Y69053232D01*
X63800428Y69053232D02*
X63727857Y69016946D01*
X63727857Y69016946D02*
X63437571Y69016946D01*
X64598714Y68654089D02*
X64163285Y68654089D01*
X64381000Y68654089D02*
X64381000Y69416089D01*
X64381000Y69416089D02*
X64308428Y69307232D01*
X64308428Y69307232D02*
X64235857Y69234660D01*
X64235857Y69234660D02*
X64163285Y69198374D01*
X42373000Y68654089D02*
X42119000Y69016946D01*
X41937571Y68654089D02*
X41937571Y69416089D01*
X41937571Y69416089D02*
X42227857Y69416089D01*
X42227857Y69416089D02*
X42300428Y69379803D01*
X42300428Y69379803D02*
X42336714Y69343517D01*
X42336714Y69343517D02*
X42373000Y69270946D01*
X42373000Y69270946D02*
X42373000Y69162089D01*
X42373000Y69162089D02*
X42336714Y69089517D01*
X42336714Y69089517D02*
X42300428Y69053232D01*
X42300428Y69053232D02*
X42227857Y69016946D01*
X42227857Y69016946D02*
X41937571Y69016946D01*
X42735857Y68654089D02*
X42881000Y68654089D01*
X42881000Y68654089D02*
X42953571Y68690374D01*
X42953571Y68690374D02*
X42989857Y68726660D01*
X42989857Y68726660D02*
X43062428Y68835517D01*
X43062428Y68835517D02*
X43098714Y68980660D01*
X43098714Y68980660D02*
X43098714Y69270946D01*
X43098714Y69270946D02*
X43062428Y69343517D01*
X43062428Y69343517D02*
X43026143Y69379803D01*
X43026143Y69379803D02*
X42953571Y69416089D01*
X42953571Y69416089D02*
X42808428Y69416089D01*
X42808428Y69416089D02*
X42735857Y69379803D01*
X42735857Y69379803D02*
X42699571Y69343517D01*
X42699571Y69343517D02*
X42663285Y69270946D01*
X42663285Y69270946D02*
X42663285Y69089517D01*
X42663285Y69089517D02*
X42699571Y69016946D01*
X42699571Y69016946D02*
X42735857Y68980660D01*
X42735857Y68980660D02*
X42808428Y68944374D01*
X42808428Y68944374D02*
X42953571Y68944374D01*
X42953571Y68944374D02*
X43026143Y68980660D01*
X43026143Y68980660D02*
X43062428Y69016946D01*
X43062428Y69016946D02*
X43098714Y69089517D01*
X77873000Y68654089D02*
X77619000Y69016946D01*
X77437571Y68654089D02*
X77437571Y69416089D01*
X77437571Y69416089D02*
X77727857Y69416089D01*
X77727857Y69416089D02*
X77800428Y69379803D01*
X77800428Y69379803D02*
X77836714Y69343517D01*
X77836714Y69343517D02*
X77873000Y69270946D01*
X77873000Y69270946D02*
X77873000Y69162089D01*
X77873000Y69162089D02*
X77836714Y69089517D01*
X77836714Y69089517D02*
X77800428Y69053232D01*
X77800428Y69053232D02*
X77727857Y69016946D01*
X77727857Y69016946D02*
X77437571Y69016946D01*
X78526143Y69416089D02*
X78381000Y69416089D01*
X78381000Y69416089D02*
X78308428Y69379803D01*
X78308428Y69379803D02*
X78272143Y69343517D01*
X78272143Y69343517D02*
X78199571Y69234660D01*
X78199571Y69234660D02*
X78163285Y69089517D01*
X78163285Y69089517D02*
X78163285Y68799232D01*
X78163285Y68799232D02*
X78199571Y68726660D01*
X78199571Y68726660D02*
X78235857Y68690374D01*
X78235857Y68690374D02*
X78308428Y68654089D01*
X78308428Y68654089D02*
X78453571Y68654089D01*
X78453571Y68654089D02*
X78526143Y68690374D01*
X78526143Y68690374D02*
X78562428Y68726660D01*
X78562428Y68726660D02*
X78598714Y68799232D01*
X78598714Y68799232D02*
X78598714Y68980660D01*
X78598714Y68980660D02*
X78562428Y69053232D01*
X78562428Y69053232D02*
X78526143Y69089517D01*
X78526143Y69089517D02*
X78453571Y69125803D01*
X78453571Y69125803D02*
X78308428Y69125803D01*
X78308428Y69125803D02*
X78235857Y69089517D01*
X78235857Y69089517D02*
X78199571Y69053232D01*
X78199571Y69053232D02*
X78163285Y68980660D01*
D11*
X22791666Y41845181D02*
X22791666Y41130896D01*
X22791666Y41130896D02*
X22744047Y40988039D01*
X22744047Y40988039D02*
X22648809Y40892800D01*
X22648809Y40892800D02*
X22505952Y40845181D01*
X22505952Y40845181D02*
X22410714Y40845181D01*
X23220238Y41749943D02*
X23267857Y41797562D01*
X23267857Y41797562D02*
X23363095Y41845181D01*
X23363095Y41845181D02*
X23601190Y41845181D01*
X23601190Y41845181D02*
X23696428Y41797562D01*
X23696428Y41797562D02*
X23744047Y41749943D01*
X23744047Y41749943D02*
X23791666Y41654705D01*
X23791666Y41654705D02*
X23791666Y41559467D01*
X23791666Y41559467D02*
X23744047Y41416610D01*
X23744047Y41416610D02*
X23172619Y40845181D01*
X23172619Y40845181D02*
X23791666Y40845181D01*
X74238095Y32445181D02*
X74238095Y31635658D01*
X74238095Y31635658D02*
X74285714Y31540420D01*
X74285714Y31540420D02*
X74333333Y31492800D01*
X74333333Y31492800D02*
X74428571Y31445181D01*
X74428571Y31445181D02*
X74619047Y31445181D01*
X74619047Y31445181D02*
X74714285Y31492800D01*
X74714285Y31492800D02*
X74761904Y31540420D01*
X74761904Y31540420D02*
X74809523Y31635658D01*
X74809523Y31635658D02*
X74809523Y32445181D01*
X75714285Y32111848D02*
X75714285Y31445181D01*
X75476190Y32492800D02*
X75238095Y31778515D01*
X75238095Y31778515D02*
X75857142Y31778515D01*
D13*
X71873000Y68654089D02*
X71619000Y69016946D01*
X71437571Y68654089D02*
X71437571Y69416089D01*
X71437571Y69416089D02*
X71727857Y69416089D01*
X71727857Y69416089D02*
X71800428Y69379803D01*
X71800428Y69379803D02*
X71836714Y69343517D01*
X71836714Y69343517D02*
X71873000Y69270946D01*
X71873000Y69270946D02*
X71873000Y69162089D01*
X71873000Y69162089D02*
X71836714Y69089517D01*
X71836714Y69089517D02*
X71800428Y69053232D01*
X71800428Y69053232D02*
X71727857Y69016946D01*
X71727857Y69016946D02*
X71437571Y69016946D01*
X72526143Y69162089D02*
X72526143Y68654089D01*
X72344714Y69452374D02*
X72163285Y68908089D01*
X72163285Y68908089D02*
X72635000Y68908089D01*
X73873000Y68654089D02*
X73619000Y69016946D01*
X73437571Y68654089D02*
X73437571Y69416089D01*
X73437571Y69416089D02*
X73727857Y69416089D01*
X73727857Y69416089D02*
X73800428Y69379803D01*
X73800428Y69379803D02*
X73836714Y69343517D01*
X73836714Y69343517D02*
X73873000Y69270946D01*
X73873000Y69270946D02*
X73873000Y69162089D01*
X73873000Y69162089D02*
X73836714Y69089517D01*
X73836714Y69089517D02*
X73800428Y69053232D01*
X73800428Y69053232D02*
X73727857Y69016946D01*
X73727857Y69016946D02*
X73437571Y69016946D01*
X74308428Y69089517D02*
X74235857Y69125803D01*
X74235857Y69125803D02*
X74199571Y69162089D01*
X74199571Y69162089D02*
X74163285Y69234660D01*
X74163285Y69234660D02*
X74163285Y69270946D01*
X74163285Y69270946D02*
X74199571Y69343517D01*
X74199571Y69343517D02*
X74235857Y69379803D01*
X74235857Y69379803D02*
X74308428Y69416089D01*
X74308428Y69416089D02*
X74453571Y69416089D01*
X74453571Y69416089D02*
X74526143Y69379803D01*
X74526143Y69379803D02*
X74562428Y69343517D01*
X74562428Y69343517D02*
X74598714Y69270946D01*
X74598714Y69270946D02*
X74598714Y69234660D01*
X74598714Y69234660D02*
X74562428Y69162089D01*
X74562428Y69162089D02*
X74526143Y69125803D01*
X74526143Y69125803D02*
X74453571Y69089517D01*
X74453571Y69089517D02*
X74308428Y69089517D01*
X74308428Y69089517D02*
X74235857Y69053232D01*
X74235857Y69053232D02*
X74199571Y69016946D01*
X74199571Y69016946D02*
X74163285Y68944374D01*
X74163285Y68944374D02*
X74163285Y68799232D01*
X74163285Y68799232D02*
X74199571Y68726660D01*
X74199571Y68726660D02*
X74235857Y68690374D01*
X74235857Y68690374D02*
X74308428Y68654089D01*
X74308428Y68654089D02*
X74453571Y68654089D01*
X74453571Y68654089D02*
X74526143Y68690374D01*
X74526143Y68690374D02*
X74562428Y68726660D01*
X74562428Y68726660D02*
X74598714Y68799232D01*
X74598714Y68799232D02*
X74598714Y68944374D01*
X74598714Y68944374D02*
X74562428Y69016946D01*
X74562428Y69016946D02*
X74526143Y69053232D01*
X74526143Y69053232D02*
X74453571Y69089517D01*
X40010143Y68654089D02*
X39756143Y69016946D01*
X39574714Y68654089D02*
X39574714Y69416089D01*
X39574714Y69416089D02*
X39865000Y69416089D01*
X39865000Y69416089D02*
X39937571Y69379803D01*
X39937571Y69379803D02*
X39973857Y69343517D01*
X39973857Y69343517D02*
X40010143Y69270946D01*
X40010143Y69270946D02*
X40010143Y69162089D01*
X40010143Y69162089D02*
X39973857Y69089517D01*
X39973857Y69089517D02*
X39937571Y69053232D01*
X39937571Y69053232D02*
X39865000Y69016946D01*
X39865000Y69016946D02*
X39574714Y69016946D01*
X40735857Y68654089D02*
X40300428Y68654089D01*
X40518143Y68654089D02*
X40518143Y69416089D01*
X40518143Y69416089D02*
X40445571Y69307232D01*
X40445571Y69307232D02*
X40373000Y69234660D01*
X40373000Y69234660D02*
X40300428Y69198374D01*
X41207571Y69416089D02*
X41280142Y69416089D01*
X41280142Y69416089D02*
X41352714Y69379803D01*
X41352714Y69379803D02*
X41389000Y69343517D01*
X41389000Y69343517D02*
X41425285Y69270946D01*
X41425285Y69270946D02*
X41461571Y69125803D01*
X41461571Y69125803D02*
X41461571Y68944374D01*
X41461571Y68944374D02*
X41425285Y68799232D01*
X41425285Y68799232D02*
X41389000Y68726660D01*
X41389000Y68726660D02*
X41352714Y68690374D01*
X41352714Y68690374D02*
X41280142Y68654089D01*
X41280142Y68654089D02*
X41207571Y68654089D01*
X41207571Y68654089D02*
X41135000Y68690374D01*
X41135000Y68690374D02*
X41098714Y68726660D01*
X41098714Y68726660D02*
X41062428Y68799232D01*
X41062428Y68799232D02*
X41026142Y68944374D01*
X41026142Y68944374D02*
X41026142Y69125803D01*
X41026142Y69125803D02*
X41062428Y69270946D01*
X41062428Y69270946D02*
X41098714Y69343517D01*
X41098714Y69343517D02*
X41135000Y69379803D01*
X41135000Y69379803D02*
X41207571Y69416089D01*
X75873000Y68654089D02*
X75619000Y69016946D01*
X75437571Y68654089D02*
X75437571Y69416089D01*
X75437571Y69416089D02*
X75727857Y69416089D01*
X75727857Y69416089D02*
X75800428Y69379803D01*
X75800428Y69379803D02*
X75836714Y69343517D01*
X75836714Y69343517D02*
X75873000Y69270946D01*
X75873000Y69270946D02*
X75873000Y69162089D01*
X75873000Y69162089D02*
X75836714Y69089517D01*
X75836714Y69089517D02*
X75800428Y69053232D01*
X75800428Y69053232D02*
X75727857Y69016946D01*
X75727857Y69016946D02*
X75437571Y69016946D01*
X76127000Y69416089D02*
X76635000Y69416089D01*
X76635000Y69416089D02*
X76308428Y68654089D01*
X24010143Y68654089D02*
X23756143Y69016946D01*
X23574714Y68654089D02*
X23574714Y69416089D01*
X23574714Y69416089D02*
X23865000Y69416089D01*
X23865000Y69416089D02*
X23937571Y69379803D01*
X23937571Y69379803D02*
X23973857Y69343517D01*
X23973857Y69343517D02*
X24010143Y69270946D01*
X24010143Y69270946D02*
X24010143Y69162089D01*
X24010143Y69162089D02*
X23973857Y69089517D01*
X23973857Y69089517D02*
X23937571Y69053232D01*
X23937571Y69053232D02*
X23865000Y69016946D01*
X23865000Y69016946D02*
X23574714Y69016946D01*
X24735857Y68654089D02*
X24300428Y68654089D01*
X24518143Y68654089D02*
X24518143Y69416089D01*
X24518143Y69416089D02*
X24445571Y69307232D01*
X24445571Y69307232D02*
X24373000Y69234660D01*
X24373000Y69234660D02*
X24300428Y69198374D01*
X25389000Y69416089D02*
X25243857Y69416089D01*
X25243857Y69416089D02*
X25171285Y69379803D01*
X25171285Y69379803D02*
X25135000Y69343517D01*
X25135000Y69343517D02*
X25062428Y69234660D01*
X25062428Y69234660D02*
X25026142Y69089517D01*
X25026142Y69089517D02*
X25026142Y68799232D01*
X25026142Y68799232D02*
X25062428Y68726660D01*
X25062428Y68726660D02*
X25098714Y68690374D01*
X25098714Y68690374D02*
X25171285Y68654089D01*
X25171285Y68654089D02*
X25316428Y68654089D01*
X25316428Y68654089D02*
X25389000Y68690374D01*
X25389000Y68690374D02*
X25425285Y68726660D01*
X25425285Y68726660D02*
X25461571Y68799232D01*
X25461571Y68799232D02*
X25461571Y68980660D01*
X25461571Y68980660D02*
X25425285Y69053232D01*
X25425285Y69053232D02*
X25389000Y69089517D01*
X25389000Y69089517D02*
X25316428Y69125803D01*
X25316428Y69125803D02*
X25171285Y69125803D01*
X25171285Y69125803D02*
X25098714Y69089517D01*
X25098714Y69089517D02*
X25062428Y69053232D01*
X25062428Y69053232D02*
X25026142Y68980660D01*
X57373000Y68654089D02*
X57119000Y69016946D01*
X56937571Y68654089D02*
X56937571Y69416089D01*
X56937571Y69416089D02*
X57227857Y69416089D01*
X57227857Y69416089D02*
X57300428Y69379803D01*
X57300428Y69379803D02*
X57336714Y69343517D01*
X57336714Y69343517D02*
X57373000Y69270946D01*
X57373000Y69270946D02*
X57373000Y69162089D01*
X57373000Y69162089D02*
X57336714Y69089517D01*
X57336714Y69089517D02*
X57300428Y69053232D01*
X57300428Y69053232D02*
X57227857Y69016946D01*
X57227857Y69016946D02*
X56937571Y69016946D01*
X58062428Y69416089D02*
X57699571Y69416089D01*
X57699571Y69416089D02*
X57663285Y69053232D01*
X57663285Y69053232D02*
X57699571Y69089517D01*
X57699571Y69089517D02*
X57772143Y69125803D01*
X57772143Y69125803D02*
X57953571Y69125803D01*
X57953571Y69125803D02*
X58026143Y69089517D01*
X58026143Y69089517D02*
X58062428Y69053232D01*
X58062428Y69053232D02*
X58098714Y68980660D01*
X58098714Y68980660D02*
X58098714Y68799232D01*
X58098714Y68799232D02*
X58062428Y68726660D01*
X58062428Y68726660D02*
X58026143Y68690374D01*
X58026143Y68690374D02*
X57953571Y68654089D01*
X57953571Y68654089D02*
X57772143Y68654089D01*
X57772143Y68654089D02*
X57699571Y68690374D01*
X57699571Y68690374D02*
X57663285Y68726660D01*
X60373000Y68654089D02*
X60119000Y69016946D01*
X59937571Y68654089D02*
X59937571Y69416089D01*
X59937571Y69416089D02*
X60227857Y69416089D01*
X60227857Y69416089D02*
X60300428Y69379803D01*
X60300428Y69379803D02*
X60336714Y69343517D01*
X60336714Y69343517D02*
X60373000Y69270946D01*
X60373000Y69270946D02*
X60373000Y69162089D01*
X60373000Y69162089D02*
X60336714Y69089517D01*
X60336714Y69089517D02*
X60300428Y69053232D01*
X60300428Y69053232D02*
X60227857Y69016946D01*
X60227857Y69016946D02*
X59937571Y69016946D01*
X60663285Y69343517D02*
X60699571Y69379803D01*
X60699571Y69379803D02*
X60772143Y69416089D01*
X60772143Y69416089D02*
X60953571Y69416089D01*
X60953571Y69416089D02*
X61026143Y69379803D01*
X61026143Y69379803D02*
X61062428Y69343517D01*
X61062428Y69343517D02*
X61098714Y69270946D01*
X61098714Y69270946D02*
X61098714Y69198374D01*
X61098714Y69198374D02*
X61062428Y69089517D01*
X61062428Y69089517D02*
X60627000Y68654089D01*
X60627000Y68654089D02*
X61098714Y68654089D01*
X55373000Y68654089D02*
X55119000Y69016946D01*
X54937571Y68654089D02*
X54937571Y69416089D01*
X54937571Y69416089D02*
X55227857Y69416089D01*
X55227857Y69416089D02*
X55300428Y69379803D01*
X55300428Y69379803D02*
X55336714Y69343517D01*
X55336714Y69343517D02*
X55373000Y69270946D01*
X55373000Y69270946D02*
X55373000Y69162089D01*
X55373000Y69162089D02*
X55336714Y69089517D01*
X55336714Y69089517D02*
X55300428Y69053232D01*
X55300428Y69053232D02*
X55227857Y69016946D01*
X55227857Y69016946D02*
X54937571Y69016946D01*
X55627000Y69416089D02*
X56098714Y69416089D01*
X56098714Y69416089D02*
X55844714Y69125803D01*
X55844714Y69125803D02*
X55953571Y69125803D01*
X55953571Y69125803D02*
X56026143Y69089517D01*
X56026143Y69089517D02*
X56062428Y69053232D01*
X56062428Y69053232D02*
X56098714Y68980660D01*
X56098714Y68980660D02*
X56098714Y68799232D01*
X56098714Y68799232D02*
X56062428Y68726660D01*
X56062428Y68726660D02*
X56026143Y68690374D01*
X56026143Y68690374D02*
X55953571Y68654089D01*
X55953571Y68654089D02*
X55735857Y68654089D01*
X55735857Y68654089D02*
X55663285Y68690374D01*
X55663285Y68690374D02*
X55627000Y68726660D01*
D11*
X17625057Y39429762D02*
X17577438Y39334524D01*
X17577438Y39334524D02*
X17482200Y39239286D01*
X17482200Y39239286D02*
X17339342Y39096429D01*
X17339342Y39096429D02*
X17291723Y39001191D01*
X17291723Y39001191D02*
X17291723Y38905953D01*
X17529819Y38953572D02*
X17482200Y38858334D01*
X17482200Y38858334D02*
X17386961Y38763096D01*
X17386961Y38763096D02*
X17196485Y38715477D01*
X17196485Y38715477D02*
X16863152Y38715477D01*
X16863152Y38715477D02*
X16672676Y38763096D01*
X16672676Y38763096D02*
X16577438Y38858334D01*
X16577438Y38858334D02*
X16529819Y38953572D01*
X16529819Y38953572D02*
X16529819Y39144048D01*
X16529819Y39144048D02*
X16577438Y39239286D01*
X16577438Y39239286D02*
X16672676Y39334524D01*
X16672676Y39334524D02*
X16863152Y39382143D01*
X16863152Y39382143D02*
X17196485Y39382143D01*
X17196485Y39382143D02*
X17386961Y39334524D01*
X17386961Y39334524D02*
X17482200Y39239286D01*
X17482200Y39239286D02*
X17529819Y39144048D01*
X17529819Y39144048D02*
X17529819Y38953572D01*
X16529819Y39715477D02*
X16529819Y40334524D01*
X16529819Y40334524D02*
X16910771Y40001191D01*
X16910771Y40001191D02*
X16910771Y40144048D01*
X16910771Y40144048D02*
X16958390Y40239286D01*
X16958390Y40239286D02*
X17006009Y40286905D01*
X17006009Y40286905D02*
X17101247Y40334524D01*
X17101247Y40334524D02*
X17339342Y40334524D01*
X17339342Y40334524D02*
X17434580Y40286905D01*
X17434580Y40286905D02*
X17482200Y40239286D01*
X17482200Y40239286D02*
X17529819Y40144048D01*
X17529819Y40144048D02*
X17529819Y39858334D01*
X17529819Y39858334D02*
X17482200Y39763096D01*
X17482200Y39763096D02*
X17434580Y39715477D01*
X73761905Y61445181D02*
X73761905Y60635658D01*
X73761905Y60635658D02*
X73809524Y60540420D01*
X73809524Y60540420D02*
X73857143Y60492800D01*
X73857143Y60492800D02*
X73952381Y60445181D01*
X73952381Y60445181D02*
X74142857Y60445181D01*
X74142857Y60445181D02*
X74238095Y60492800D01*
X74238095Y60492800D02*
X74285714Y60540420D01*
X74285714Y60540420D02*
X74333333Y60635658D01*
X74333333Y60635658D02*
X74333333Y61445181D01*
X75333333Y60445181D02*
X74761905Y60445181D01*
X75047619Y60445181D02*
X75047619Y61445181D01*
X75047619Y61445181D02*
X74952381Y61302324D01*
X74952381Y61302324D02*
X74857143Y61207086D01*
X74857143Y61207086D02*
X74761905Y61159467D01*
X75952381Y61445181D02*
X76047619Y61445181D01*
X76047619Y61445181D02*
X76142857Y61397562D01*
X76142857Y61397562D02*
X76190476Y61349943D01*
X76190476Y61349943D02*
X76238095Y61254705D01*
X76238095Y61254705D02*
X76285714Y61064229D01*
X76285714Y61064229D02*
X76285714Y60826134D01*
X76285714Y60826134D02*
X76238095Y60635658D01*
X76238095Y60635658D02*
X76190476Y60540420D01*
X76190476Y60540420D02*
X76142857Y60492800D01*
X76142857Y60492800D02*
X76047619Y60445181D01*
X76047619Y60445181D02*
X75952381Y60445181D01*
X75952381Y60445181D02*
X75857143Y60492800D01*
X75857143Y60492800D02*
X75809524Y60540420D01*
X75809524Y60540420D02*
X75761905Y60635658D01*
X75761905Y60635658D02*
X75714286Y60826134D01*
X75714286Y60826134D02*
X75714286Y61064229D01*
X75714286Y61064229D02*
X75761905Y61254705D01*
X75761905Y61254705D02*
X75809524Y61349943D01*
X75809524Y61349943D02*
X75857143Y61397562D01*
X75857143Y61397562D02*
X75952381Y61445181D01*
X17625057Y46879762D02*
X17577438Y46784524D01*
X17577438Y46784524D02*
X17482200Y46689286D01*
X17482200Y46689286D02*
X17339342Y46546429D01*
X17339342Y46546429D02*
X17291723Y46451191D01*
X17291723Y46451191D02*
X17291723Y46355953D01*
X17529819Y46403572D02*
X17482200Y46308334D01*
X17482200Y46308334D02*
X17386961Y46213096D01*
X17386961Y46213096D02*
X17196485Y46165477D01*
X17196485Y46165477D02*
X16863152Y46165477D01*
X16863152Y46165477D02*
X16672676Y46213096D01*
X16672676Y46213096D02*
X16577438Y46308334D01*
X16577438Y46308334D02*
X16529819Y46403572D01*
X16529819Y46403572D02*
X16529819Y46594048D01*
X16529819Y46594048D02*
X16577438Y46689286D01*
X16577438Y46689286D02*
X16672676Y46784524D01*
X16672676Y46784524D02*
X16863152Y46832143D01*
X16863152Y46832143D02*
X17196485Y46832143D01*
X17196485Y46832143D02*
X17386961Y46784524D01*
X17386961Y46784524D02*
X17482200Y46689286D01*
X17482200Y46689286D02*
X17529819Y46594048D01*
X17529819Y46594048D02*
X17529819Y46403572D01*
X16863152Y47689286D02*
X17529819Y47689286D01*
X16482200Y47451191D02*
X17196485Y47213096D01*
X17196485Y47213096D02*
X17196485Y47832143D01*
X17625057Y24529762D02*
X17577438Y24434524D01*
X17577438Y24434524D02*
X17482200Y24339286D01*
X17482200Y24339286D02*
X17339342Y24196429D01*
X17339342Y24196429D02*
X17291723Y24101191D01*
X17291723Y24101191D02*
X17291723Y24005953D01*
X17529819Y24053572D02*
X17482200Y23958334D01*
X17482200Y23958334D02*
X17386961Y23863096D01*
X17386961Y23863096D02*
X17196485Y23815477D01*
X17196485Y23815477D02*
X16863152Y23815477D01*
X16863152Y23815477D02*
X16672676Y23863096D01*
X16672676Y23863096D02*
X16577438Y23958334D01*
X16577438Y23958334D02*
X16529819Y24053572D01*
X16529819Y24053572D02*
X16529819Y24244048D01*
X16529819Y24244048D02*
X16577438Y24339286D01*
X16577438Y24339286D02*
X16672676Y24434524D01*
X16672676Y24434524D02*
X16863152Y24482143D01*
X16863152Y24482143D02*
X17196485Y24482143D01*
X17196485Y24482143D02*
X17386961Y24434524D01*
X17386961Y24434524D02*
X17482200Y24339286D01*
X17482200Y24339286D02*
X17529819Y24244048D01*
X17529819Y24244048D02*
X17529819Y24053572D01*
X17529819Y25434524D02*
X17529819Y24863096D01*
X17529819Y25148810D02*
X16529819Y25148810D01*
X16529819Y25148810D02*
X16672676Y25053572D01*
X16672676Y25053572D02*
X16767914Y24958334D01*
X16767914Y24958334D02*
X16815533Y24863096D01*
D12*
G04 #@! TO.C,C13*
X22849986Y58040000D02*
X22100001Y58040000D01*
D11*
G04 #@! TO.C,U1*
X9575000Y62850000D02*
X12975000Y62850000D01*
X11475000Y56500000D02*
X11475000Y56150000D01*
X11475000Y56150000D02*
X13025000Y56150000D01*
X19275000Y62850000D02*
X17725000Y62850000D01*
X19275000Y62500000D02*
X19275000Y62850000D01*
X19275000Y56500000D02*
X19275000Y56150000D01*
X19275000Y56150000D02*
X17725000Y56150000D01*
G04 #@! TO.C,J1*
X-8595733Y88216479D02*
X-8595733Y69716479D01*
X-8595733Y69716479D02*
X93404267Y69716479D01*
X78404267Y70516479D02*
X78404267Y70916479D01*
X93404267Y69716479D02*
X93404267Y88716479D01*
D14*
G04 #@! TO.C,R13*
X39300000Y67024000D02*
X39300000Y66008000D01*
X37700000Y66008000D02*
X37700000Y67024000D01*
X39300000Y64992000D02*
X39300000Y63976000D01*
X37700000Y63976000D02*
X37700000Y64992000D01*
D15*
X39300000Y67075000D02*
G75*
G03*
X37696506Y67083602I-800000J330000D01*
G01*
X37698362Y63921000D02*
G75*
G03*
X39300000Y63925000I801638J-326000D01*
G01*
D12*
G04 #@! TO.C,C4*
X17075000Y53000000D02*
X18075000Y53000000D01*
D15*
G04 #@! TO.C,G2*
X73676000Y6864000D02*
X80788000Y6864000D01*
X80788000Y6864000D02*
X80788000Y19056000D01*
X80788000Y19056000D02*
X73676000Y19056000D01*
X73676000Y19056000D02*
X73676000Y6864000D01*
D14*
G04 #@! TO.C,R11*
X11619000Y67700000D02*
X10603000Y67700000D01*
X10603000Y69300000D02*
X11619000Y69300000D01*
X9587000Y67700000D02*
X8571000Y67700000D01*
X8571000Y69300000D02*
X9587000Y69300000D01*
D15*
X11670000Y67700000D02*
G75*
G03*
X11678602Y69303494I330000J800000D01*
G01*
X8516000Y69301638D02*
G75*
G03*
X8520000Y67700000I-326000J-801638D01*
G01*
D12*
G04 #@! TO.C,C5*
X19075000Y53000000D02*
X20075000Y53000000D01*
D15*
G04 #@! TO.C,U6*
X19500000Y13440000D02*
X21300000Y13440000D01*
X19500000Y13440000D02*
X18700000Y13440000D01*
X19500000Y16560000D02*
X20300000Y16560000D01*
X19500000Y16560000D02*
X18700000Y16560000D01*
G04 #@! TO.C,Q10*
X65950000Y44850000D02*
X65025000Y44850000D01*
X63940000Y45500000D02*
X63940000Y43825000D01*
X63940000Y45500000D02*
X63940000Y46150000D01*
X67060000Y45500000D02*
X67060000Y44850000D01*
X67060000Y45500000D02*
X67060000Y46150000D01*
X65000000Y46250000D02*
X63940000Y46250000D01*
X67050000Y46250000D02*
X66050000Y46250000D01*
D14*
G04 #@! TO.C,R14*
X34800000Y67024000D02*
X34800000Y66008000D01*
X33200000Y66008000D02*
X33200000Y67024000D01*
X34800000Y64992000D02*
X34800000Y63976000D01*
X33200000Y63976000D02*
X33200000Y64992000D01*
D15*
X34800000Y67075000D02*
G75*
G03*
X33196506Y67083602I-800000J330000D01*
G01*
X33198362Y63921000D02*
G75*
G03*
X34800000Y63925000I801638J-326000D01*
G01*
G04 #@! TO.C,Q7*
X77950000Y39350000D02*
X77025000Y39350000D01*
X75940000Y40000000D02*
X75940000Y38325000D01*
X75940000Y40000000D02*
X75940000Y40650000D01*
X79060000Y40000000D02*
X79060000Y39350000D01*
X79060000Y40000000D02*
X79060000Y40650000D01*
X77000000Y40750000D02*
X75940000Y40750000D01*
X79050000Y40750000D02*
X78050000Y40750000D01*
G04 #@! TO.C,Q9*
X59950000Y44912500D02*
X59025000Y44912500D01*
X57940000Y45562500D02*
X57940000Y43887500D01*
X57940000Y45562500D02*
X57940000Y46212500D01*
X61060000Y45562500D02*
X61060000Y44912500D01*
X61060000Y45562500D02*
X61060000Y46212500D01*
X59000000Y46312500D02*
X57940000Y46312500D01*
X61050000Y46312500D02*
X60050000Y46312500D01*
D12*
G04 #@! TO.C,C12*
X7650014Y57000000D02*
X8399999Y57000000D01*
D15*
G04 #@! TO.C,U11*
X75000000Y53060000D02*
X71550000Y53060000D01*
X75000000Y53060000D02*
X76950000Y53060000D01*
X75000000Y47940000D02*
X73050000Y47940000D01*
X75000000Y47940000D02*
X76950000Y47940000D01*
D16*
G04 #@! TO.C,R38*
X65298944Y42629160D02*
X65698943Y42629149D01*
X65300000Y43374995D02*
X65700000Y43374985D01*
G04 #@! TO.C,R40*
X71298944Y31629160D02*
X71698943Y31629149D01*
X71300000Y32374995D02*
X71700000Y32374985D01*
D15*
G04 #@! TO.C,Q8*
X57900000Y50787500D02*
X56975000Y50787500D01*
X55890000Y51437500D02*
X55890000Y49762500D01*
X55890000Y51437500D02*
X55890000Y52087500D01*
X59010000Y51437500D02*
X59010000Y50787500D01*
X59010000Y51437500D02*
X59010000Y52087500D01*
X56950000Y52187500D02*
X55890000Y52187500D01*
X59000000Y52187500D02*
X58000000Y52187500D01*
D14*
G04 #@! TO.C,R12*
X16881000Y69300000D02*
X17897000Y69300000D01*
X17897000Y67700000D02*
X16881000Y67700000D01*
X18913000Y69300000D02*
X19929000Y69300000D01*
X19929000Y67700000D02*
X18913000Y67700000D01*
D15*
X16830000Y69300000D02*
G75*
G03*
X16821398Y67696506I-330000J-800000D01*
G01*
X19984000Y67698362D02*
G75*
G03*
X19980000Y69300000I326000J801638D01*
G01*
G04 #@! TO.C,F2*
X54000000Y67400000D02*
X54000000Y62550000D01*
X52000000Y67400000D02*
X52000000Y62550000D01*
X54000000Y67450000D02*
G75*
G03*
X52000000Y67450000I-1000000J0D01*
G01*
X52000000Y62550000D02*
G75*
G03*
X54000000Y62550000I1000000J0D01*
G01*
D16*
G04 #@! TO.C,R33*
X77298944Y42629160D02*
X77698943Y42629149D01*
X77300000Y43374995D02*
X77700000Y43374985D01*
G04 #@! TO.C,R41*
X77298944Y31629160D02*
X77698943Y31629149D01*
X77300000Y32374995D02*
X77700000Y32374985D01*
D14*
G04 #@! TO.C,R15*
X29050000Y67024000D02*
X29050000Y66008000D01*
X27450000Y66008000D02*
X27450000Y67024000D01*
X29050000Y64992000D02*
X29050000Y63976000D01*
X27450000Y63976000D02*
X27450000Y64992000D01*
D15*
X29050000Y67075000D02*
G75*
G03*
X27446506Y67083602I-800000J330000D01*
G01*
X27448362Y63921000D02*
G75*
G03*
X29050000Y63925000I801638J-326000D01*
G01*
G04 #@! TO.C,C14*
X8510000Y16146267D02*
X8510000Y15853733D01*
X7490000Y16146267D02*
X7490000Y15853733D01*
G04 #@! TO.C,F1*
X70500000Y67900000D02*
X70500000Y63050000D01*
X68500000Y67900000D02*
X68500000Y63050000D01*
X70500000Y67950000D02*
G75*
G03*
X68500000Y67950000I-1000000J0D01*
G01*
X68500000Y63050000D02*
G75*
G03*
X70500000Y63050000I1000000J0D01*
G01*
G04 #@! TO.C,R45*
X68600000Y26420000D02*
X69600000Y26420000D01*
X68600000Y29780000D02*
X69600000Y29780000D01*
G04 #@! TO.C,U5*
X75000000Y25060000D02*
X71550000Y25060000D01*
X75000000Y25060000D02*
X76950000Y25060000D01*
X75000000Y19940000D02*
X73050000Y19940000D01*
X75000000Y19940000D02*
X76950000Y19940000D01*
G04 #@! TO.C,Q12*
X71950000Y33850000D02*
X71025000Y33850000D01*
X69940000Y34500000D02*
X69940000Y32825000D01*
X69940000Y34500000D02*
X69940000Y35150000D01*
X73060000Y34500000D02*
X73060000Y33850000D01*
X73060000Y34500000D02*
X73060000Y35150000D01*
X71000000Y35250000D02*
X69940000Y35250000D01*
X73050000Y35250000D02*
X72050000Y35250000D01*
G04 #@! TO.C,Q11*
X71950000Y44850000D02*
X71025000Y44850000D01*
X69940000Y45500000D02*
X69940000Y43825000D01*
X69940000Y45500000D02*
X69940000Y46150000D01*
X73060000Y45500000D02*
X73060000Y44850000D01*
X73060000Y45500000D02*
X73060000Y46150000D01*
X71000000Y46250000D02*
X69940000Y46250000D01*
X73050000Y46250000D02*
X72050000Y46250000D01*
G04 #@! TO.C,Q5*
X77950000Y44850000D02*
X77025000Y44850000D01*
X75940000Y45500000D02*
X75940000Y43825000D01*
X75940000Y45500000D02*
X75940000Y46150000D01*
X79060000Y45500000D02*
X79060000Y44850000D01*
X79060000Y45500000D02*
X79060000Y46150000D01*
X77000000Y46250000D02*
X75940000Y46250000D01*
X79050000Y46250000D02*
X78050000Y46250000D01*
D12*
G04 #@! TO.C,C11*
X8349986Y60000000D02*
X7600001Y60000000D01*
D15*
G04 #@! TO.C,D5*
X55500000Y42750000D02*
X57500000Y42750000D01*
X55500000Y42750000D02*
X55500000Y46650000D01*
X57500000Y42750000D02*
X57500000Y46650000D01*
D17*
X56500000Y44450000D02*
X56500000Y44650000D01*
X56500000Y44650000D02*
X56150000Y45350000D01*
X56500000Y44650000D02*
X56850000Y45350000D01*
X56850000Y44650000D02*
X56150000Y44650000D01*
X56500000Y45350000D02*
X56500000Y45650000D01*
X56850000Y45350000D02*
X56150000Y45350000D01*
D15*
G04 #@! TO.C,Q2*
X15470000Y28550000D02*
X15470000Y28820000D01*
X15470000Y28820000D02*
X18300000Y28820000D01*
X15470000Y35180000D02*
X16570000Y35180000D01*
X15470000Y35450000D02*
X15470000Y35180000D01*
X9050000Y28550000D02*
X15470000Y28550000D01*
X9050000Y35450000D02*
X15470000Y35450000D01*
G04 #@! TO.C,R20*
X17977500Y18657776D02*
X17977500Y19167224D01*
X19022500Y18657776D02*
X19022500Y19167224D01*
D16*
G04 #@! TO.C,R39*
X71298944Y42629160D02*
X71698943Y42629149D01*
X71300000Y43374995D02*
X71700000Y43374985D01*
G04 #@! TO.C,R36*
X57248944Y48566660D02*
X57648943Y48566649D01*
X57250000Y49312495D02*
X57650000Y49312485D01*
D15*
G04 #@! TO.C,R44*
X66000000Y29780000D02*
X65000000Y29780000D01*
X66000000Y26420000D02*
X65000000Y26420000D01*
G04 #@! TO.C,Q13*
X77950000Y33850000D02*
X77025000Y33850000D01*
X75940000Y34500000D02*
X75940000Y32825000D01*
X75940000Y34500000D02*
X75940000Y35150000D01*
X79060000Y34500000D02*
X79060000Y33850000D01*
X79060000Y34500000D02*
X79060000Y35150000D01*
X77000000Y35250000D02*
X75940000Y35250000D01*
X79050000Y35250000D02*
X78050000Y35250000D01*
G04 #@! TO.C,F3*
X51500000Y67400000D02*
X51500000Y62550000D01*
X49500000Y67400000D02*
X49500000Y62550000D01*
X51500000Y67450000D02*
G75*
G03*
X49500000Y67450000I-1000000J0D01*
G01*
X49500000Y62550000D02*
G75*
G03*
X51500000Y62550000I1000000J0D01*
G01*
D16*
G04 #@! TO.C,R37*
X59298944Y42629160D02*
X59698943Y42629149D01*
X59300000Y43374995D02*
X59700000Y43374985D01*
D14*
G04 #@! TO.C,R1*
X64800000Y67024000D02*
X64800000Y66008000D01*
X63200000Y66008000D02*
X63200000Y67024000D01*
X64800000Y64992000D02*
X64800000Y63976000D01*
X63200000Y63976000D02*
X63200000Y64992000D01*
D15*
X64800000Y67075000D02*
G75*
G03*
X63196506Y67083602I-800000J330000D01*
G01*
X63198362Y63921000D02*
G75*
G03*
X64800000Y63925000I801638J-326000D01*
G01*
G04 #@! TO.C,G1*
X65444000Y6864000D02*
X72556000Y6864000D01*
X72556000Y6864000D02*
X72556000Y19056000D01*
X72556000Y19056000D02*
X65444000Y19056000D01*
X65444000Y19056000D02*
X65444000Y6864000D01*
G04 #@! TO.C,D8*
X67500000Y31750000D02*
X69500000Y31750000D01*
X67500000Y31750000D02*
X67500000Y35650000D01*
X69500000Y31750000D02*
X69500000Y35650000D01*
D17*
X68500000Y33450000D02*
X68500000Y33650000D01*
X68500000Y33650000D02*
X68150000Y34350000D01*
X68500000Y33650000D02*
X68850000Y34350000D01*
X68850000Y33650000D02*
X68150000Y33650000D01*
X68500000Y34350000D02*
X68500000Y34650000D01*
X68850000Y34350000D02*
X68150000Y34350000D01*
D15*
G04 #@! TO.C,U7*
X13000000Y19235000D02*
X9400000Y19235000D01*
X13000000Y19235000D02*
X15200000Y19235000D01*
X13000000Y13765000D02*
X10800000Y13765000D01*
X13000000Y13765000D02*
X15200000Y13765000D01*
D16*
G04 #@! TO.C,R34*
X71298944Y37129160D02*
X71698943Y37129149D01*
X71300000Y37874995D02*
X71700000Y37874985D01*
D12*
G04 #@! TO.C,C6*
X11575000Y66000000D02*
X10575000Y66000000D01*
D14*
G04 #@! TO.C,R9*
X43300000Y67024000D02*
X43300000Y66008000D01*
X41700000Y66008000D02*
X41700000Y67024000D01*
X43300000Y64992000D02*
X43300000Y63976000D01*
X41700000Y63976000D02*
X41700000Y64992000D01*
D15*
X43300000Y67075000D02*
G75*
G03*
X41696506Y67083602I-800000J330000D01*
G01*
X41698362Y63921000D02*
G75*
G03*
X43300000Y63925000I801638J-326000D01*
G01*
D14*
G04 #@! TO.C,R6*
X78800000Y67024000D02*
X78800000Y66008000D01*
X77200000Y66008000D02*
X77200000Y67024000D01*
X78800000Y64992000D02*
X78800000Y63976000D01*
X77200000Y63976000D02*
X77200000Y64992000D01*
D15*
X78800000Y67075000D02*
G75*
G03*
X77196506Y67083602I-800000J330000D01*
G01*
X77198362Y63921000D02*
G75*
G03*
X78800000Y63925000I801638J-326000D01*
G01*
D11*
G04 #@! TO.C,J2*
X23650000Y40200000D02*
X23650000Y32400000D01*
X23050000Y40200000D02*
X23650000Y40200000D01*
X20150000Y40200000D02*
X19550000Y40200000D01*
X19550000Y40200000D02*
X19550000Y32400000D01*
X19250000Y38400000D02*
X19250000Y37400000D01*
X23650000Y32400000D02*
X23050000Y32400000D01*
X19550000Y32400000D02*
X20150000Y32400000D01*
D12*
G04 #@! TO.C,M3*
X33425000Y58824998D02*
X24325000Y58824998D01*
X33425000Y61925001D02*
X33425000Y60924999D01*
X33425000Y61925001D02*
X24325000Y61925001D01*
D15*
G04 #@! TO.C,U4*
X75000000Y31060000D02*
X71550000Y31060000D01*
X75000000Y31060000D02*
X76950000Y31060000D01*
X75000000Y25940000D02*
X73050000Y25940000D01*
X75000000Y25940000D02*
X76950000Y25940000D01*
D12*
G04 #@! TO.C,C2*
X13075000Y53000000D02*
X14075000Y53000000D01*
D14*
G04 #@! TO.C,R4*
X72800000Y67024000D02*
X72800000Y66008000D01*
X71200000Y66008000D02*
X71200000Y67024000D01*
X72800000Y64992000D02*
X72800000Y63976000D01*
X71200000Y63976000D02*
X71200000Y64992000D01*
D15*
X72800000Y67075000D02*
G75*
G03*
X71196506Y67083602I-800000J330000D01*
G01*
X71198362Y63921000D02*
G75*
G03*
X72800000Y63925000I801638J-326000D01*
G01*
G04 #@! TO.C,D1*
X60500000Y52087500D02*
X61425000Y52087500D01*
X62510000Y51437500D02*
X62510000Y53112500D01*
X62510000Y51437500D02*
X62510000Y50787500D01*
X59390000Y51437500D02*
X59390000Y52087500D01*
X59390000Y51437500D02*
X59390000Y50787500D01*
X61450000Y50687500D02*
X62510000Y50687500D01*
X59400000Y50687500D02*
X60400000Y50687500D01*
D14*
G04 #@! TO.C,R8*
X74800000Y67024000D02*
X74800000Y66008000D01*
X73200000Y66008000D02*
X73200000Y67024000D01*
X74800000Y64992000D02*
X74800000Y63976000D01*
X73200000Y63976000D02*
X73200000Y64992000D01*
D15*
X74800000Y67075000D02*
G75*
G03*
X73196506Y67083602I-800000J330000D01*
G01*
X73198362Y63921000D02*
G75*
G03*
X74800000Y63925000I801638J-326000D01*
G01*
D12*
G04 #@! TO.C,C1*
X11075000Y53000000D02*
X12075000Y53000000D01*
D15*
G04 #@! TO.C,D4*
X73500000Y37250000D02*
X75500000Y37250000D01*
X73500000Y37250000D02*
X73500000Y41150000D01*
X75500000Y37250000D02*
X75500000Y41150000D01*
D17*
X74500000Y38950000D02*
X74500000Y39150000D01*
X74500000Y39150000D02*
X74150000Y39850000D01*
X74500000Y39150000D02*
X74850000Y39850000D01*
X74850000Y39150000D02*
X74150000Y39150000D01*
X74500000Y39850000D02*
X74500000Y40150000D01*
X74850000Y39850000D02*
X74150000Y39850000D01*
D14*
G04 #@! TO.C,R10*
X41300000Y67024000D02*
X41300000Y66008000D01*
X39700000Y66008000D02*
X39700000Y67024000D01*
X41300000Y64992000D02*
X41300000Y63976000D01*
X39700000Y63976000D02*
X39700000Y64992000D01*
D15*
X41300000Y67075000D02*
G75*
G03*
X39696506Y67083602I-800000J330000D01*
G01*
X39698362Y63921000D02*
G75*
G03*
X41300000Y63925000I801638J-326000D01*
G01*
D12*
G04 #@! TO.C,C7*
X13575000Y66000000D02*
X12575000Y66000000D01*
D15*
G04 #@! TO.C,R47*
X68500000Y50320000D02*
X69500000Y50320000D01*
X68500000Y53680000D02*
X69500000Y53680000D01*
G04 #@! TO.C,R46*
X65500000Y53680000D02*
X64500000Y53680000D01*
X65500000Y50320000D02*
X64500000Y50320000D01*
G04 #@! TO.C,D6*
X61500000Y42750000D02*
X63500000Y42750000D01*
X61500000Y42750000D02*
X61500000Y46650000D01*
X63500000Y42750000D02*
X63500000Y46650000D01*
D17*
X62500000Y44450000D02*
X62500000Y44650000D01*
X62500000Y44650000D02*
X62150000Y45350000D01*
X62500000Y44650000D02*
X62850000Y45350000D01*
X62850000Y44650000D02*
X62150000Y44650000D01*
X62500000Y45350000D02*
X62500000Y45650000D01*
X62850000Y45350000D02*
X62150000Y45350000D01*
D12*
G04 #@! TO.C,M2*
X33925000Y56375000D02*
X27525000Y56375000D01*
X24325000Y56375000D02*
X25625000Y56375000D01*
X24325000Y56375000D02*
X24325000Y41375000D01*
X33925000Y41975000D02*
X33925000Y56375000D01*
X24325000Y41375000D02*
X29425000Y41375000D01*
D14*
G04 #@! TO.C,R7*
X76800000Y67024000D02*
X76800000Y66008000D01*
X75200000Y66008000D02*
X75200000Y67024000D01*
X76800000Y64992000D02*
X76800000Y63976000D01*
X75200000Y63976000D02*
X75200000Y64992000D01*
D15*
X76800000Y67075000D02*
G75*
G03*
X75196506Y67083602I-800000J330000D01*
G01*
X75198362Y63921000D02*
G75*
G03*
X76800000Y63925000I801638J-326000D01*
G01*
G04 #@! TO.C,D2*
X73500000Y42750000D02*
X75500000Y42750000D01*
X73500000Y42750000D02*
X73500000Y46650000D01*
X75500000Y42750000D02*
X75500000Y46650000D01*
D17*
X74500000Y44450000D02*
X74500000Y44650000D01*
X74500000Y44650000D02*
X74150000Y45350000D01*
X74500000Y44650000D02*
X74850000Y45350000D01*
X74850000Y44650000D02*
X74150000Y44650000D01*
X74500000Y45350000D02*
X74500000Y45650000D01*
X74850000Y45350000D02*
X74150000Y45350000D01*
D15*
G04 #@! TO.C,D7*
X67500000Y42750000D02*
X69500000Y42750000D01*
X67500000Y42750000D02*
X67500000Y46650000D01*
X69500000Y42750000D02*
X69500000Y46650000D01*
D17*
X68500000Y44450000D02*
X68500000Y44650000D01*
X68500000Y44650000D02*
X68150000Y45350000D01*
X68500000Y44650000D02*
X68850000Y45350000D01*
X68850000Y44650000D02*
X68150000Y44650000D01*
X68500000Y45350000D02*
X68500000Y45650000D01*
X68850000Y45350000D02*
X68150000Y45350000D01*
D14*
G04 #@! TO.C,R16*
X25300000Y67024000D02*
X25300000Y66008000D01*
X23700000Y66008000D02*
X23700000Y67024000D01*
X25300000Y64992000D02*
X25300000Y63976000D01*
X23700000Y63976000D02*
X23700000Y64992000D01*
D15*
X25300000Y67075000D02*
G75*
G03*
X23696506Y67083602I-800000J330000D01*
G01*
X23698362Y63921000D02*
G75*
G03*
X25300000Y63925000I801638J-326000D01*
G01*
G04 #@! TO.C,Q6*
X71950000Y39350000D02*
X71025000Y39350000D01*
X69940000Y40000000D02*
X69940000Y38325000D01*
X69940000Y40000000D02*
X69940000Y40650000D01*
X73060000Y40000000D02*
X73060000Y39350000D01*
X73060000Y40000000D02*
X73060000Y40650000D01*
X71000000Y40750000D02*
X69940000Y40750000D01*
X73050000Y40750000D02*
X72050000Y40750000D01*
D12*
G04 #@! TO.C,M4*
X26025005Y5125000D02*
X26025005Y38925000D01*
X61825005Y5125000D02*
X26025005Y5125000D01*
X61825005Y5125000D02*
X61825005Y38925000D01*
X61824995Y38925000D02*
X26025005Y38925000D01*
G04 #@! TO.C,C9*
X17575000Y66000000D02*
X16575000Y66000000D01*
G04 #@! TO.C,M1*
X48524999Y61225001D02*
X51725002Y61225001D01*
X36424999Y61225001D02*
X46825001Y61225001D01*
X34524999Y61225001D02*
X34824999Y61225001D01*
X34524999Y61225001D02*
X34524999Y45825001D01*
X55124997Y59725001D02*
X55124999Y44425002D01*
X48425001Y44425004D02*
X53225001Y44425004D01*
X42224999Y44425004D02*
X44924999Y44425004D01*
X39525001Y44425004D02*
X40625004Y44425004D01*
X35974999Y44425004D02*
X37524999Y44424999D01*
X54825001Y44425002D02*
X55124999Y44425002D01*
D15*
G04 #@! TO.C,D3*
X67500000Y37250000D02*
X69500000Y37250000D01*
X67500000Y37250000D02*
X67500000Y41150000D01*
X69500000Y37250000D02*
X69500000Y41150000D01*
D17*
X68500000Y38950000D02*
X68500000Y39150000D01*
X68500000Y39150000D02*
X68150000Y39850000D01*
X68500000Y39150000D02*
X68850000Y39850000D01*
X68850000Y39150000D02*
X68150000Y39150000D01*
X68500000Y39850000D02*
X68500000Y40150000D01*
X68850000Y39850000D02*
X68150000Y39850000D01*
D14*
G04 #@! TO.C,R5*
X58300000Y67024000D02*
X58300000Y66008000D01*
X56700000Y66008000D02*
X56700000Y67024000D01*
X58300000Y64992000D02*
X58300000Y63976000D01*
X56700000Y63976000D02*
X56700000Y64992000D01*
D15*
X58300000Y67075000D02*
G75*
G03*
X56696506Y67083602I-800000J330000D01*
G01*
X56698362Y63921000D02*
G75*
G03*
X58300000Y63925000I801638J-326000D01*
G01*
D14*
G04 #@! TO.C,R2*
X61300000Y67024000D02*
X61300000Y66008000D01*
X59700000Y66008000D02*
X59700000Y67024000D01*
X61300000Y64992000D02*
X61300000Y63976000D01*
X59700000Y63976000D02*
X59700000Y64992000D01*
D15*
X61300000Y67075000D02*
G75*
G03*
X59696506Y67083602I-800000J330000D01*
G01*
X59698362Y63921000D02*
G75*
G03*
X61300000Y63925000I801638J-326000D01*
G01*
D14*
G04 #@! TO.C,R3*
X56300000Y67024000D02*
X56300000Y66008000D01*
X54700000Y66008000D02*
X54700000Y67024000D01*
X56300000Y64992000D02*
X56300000Y63976000D01*
X54700000Y63976000D02*
X54700000Y64992000D01*
D15*
X56300000Y67075000D02*
G75*
G03*
X54696506Y67083602I-800000J330000D01*
G01*
X54698362Y63921000D02*
G75*
G03*
X56300000Y63925000I801638J-326000D01*
G01*
G04 #@! TO.C,Q3*
X15470000Y36050000D02*
X15470000Y36320000D01*
X15470000Y36320000D02*
X18300000Y36320000D01*
X15470000Y42680000D02*
X16570000Y42680000D01*
X15470000Y42950000D02*
X15470000Y42680000D01*
X9050000Y36050000D02*
X15470000Y36050000D01*
X9050000Y42950000D02*
X15470000Y42950000D01*
D12*
G04 #@! TO.C,C8*
X15575000Y66000000D02*
X14575000Y66000000D01*
D15*
G04 #@! TO.C,U10*
X75000000Y60060000D02*
X71550000Y60060000D01*
X75000000Y60060000D02*
X76950000Y60060000D01*
X75000000Y54940000D02*
X73050000Y54940000D01*
X75000000Y54940000D02*
X76950000Y54940000D01*
G04 #@! TO.C,Q4*
X15470000Y43550000D02*
X15470000Y43820000D01*
X15470000Y43820000D02*
X18300000Y43820000D01*
X15470000Y50180000D02*
X16570000Y50180000D01*
X15470000Y50450000D02*
X15470000Y50180000D01*
X9050000Y43550000D02*
X15470000Y43550000D01*
X9050000Y50450000D02*
X15470000Y50450000D01*
G04 #@! TO.C,Q1*
X15470000Y21050000D02*
X15470000Y21320000D01*
X15470000Y21320000D02*
X18300000Y21320000D01*
X15470000Y27680000D02*
X16570000Y27680000D01*
X15470000Y27950000D02*
X15470000Y27680000D01*
X9050000Y21050000D02*
X15470000Y21050000D01*
X9050000Y27950000D02*
X15470000Y27950000D01*
D12*
G04 #@! TO.C,C3*
X15075000Y53000000D02*
X16075000Y53000000D01*
G04 #@! TO.C,C10*
X19575000Y66000000D02*
X18575000Y66000000D01*
D16*
G04 #@! TO.C,R35*
X77298944Y37129160D02*
X77698943Y37129149D01*
X77300000Y37874995D02*
X77700000Y37874985D01*
D12*
G04 #@! TO.C,M5*
X56975000Y61104993D02*
X65400020Y61104993D01*
X56975000Y61104993D02*
X56975000Y55704994D01*
X65425021Y61079992D02*
X66450020Y60054993D01*
X69399999Y60054993D02*
X69750001Y59704991D01*
X66450020Y60054993D02*
X69399999Y60054993D01*
X69750001Y59704991D02*
X69750001Y56079994D01*
X69750001Y56079994D02*
X69375000Y55704994D01*
X56975000Y55704994D02*
X69375000Y55704994D01*
D15*
G04 #@! TO.C,D9*
X73500000Y31750000D02*
X75500000Y31750000D01*
X73500000Y31750000D02*
X73500000Y35650000D01*
X75500000Y31750000D02*
X75500000Y35650000D01*
D17*
X74500000Y33450000D02*
X74500000Y33650000D01*
X74500000Y33650000D02*
X74150000Y34350000D01*
X74500000Y33650000D02*
X74850000Y34350000D01*
X74850000Y33650000D02*
X74150000Y33650000D01*
X74500000Y34350000D02*
X74500000Y34650000D01*
X74850000Y34350000D02*
X74150000Y34350000D01*
D16*
G04 #@! TO.C,R18*
X22870840Y61338944D02*
X22870851Y61738943D01*
X22125005Y61340000D02*
X22125015Y61740000D01*
D15*
G04 #@! TO.C,R19*
X21022500Y19167224D02*
X21022500Y18657776D01*
X19977500Y19167224D02*
X19977500Y18657776D01*
D16*
G04 #@! TO.C,R17*
X24370840Y20298944D02*
X24370851Y20698943D01*
X23625005Y20300000D02*
X23625015Y20700000D01*
G04 #@! TD*
M02*
