G04 #@! TF.GenerationSoftware,KiCad,Pcbnew,7.0.7-7.0.7~ubuntu22.04.1*
G04 #@! TF.CreationDate,2023-09-10T00:56:56+00:00*
G04 #@! TF.ProjectId,hellen-112-17,68656c6c-656e-42d3-9131-322d31372e6b,B*
G04 #@! TF.SameCoordinates,Original*
G04 #@! TF.FileFunction,Soldermask,Bot*
G04 #@! TF.FilePolarity,Negative*
%FSLAX46Y46*%
G04 Gerber Fmt 4.6, Leading zero omitted, Abs format (unit mm)*
G04 Created by KiCad (PCBNEW 7.0.7-7.0.7~ubuntu22.04.1) date 2023-09-10 00:56:56*
%MOMM*%
%LPD*%
G01*
G04 APERTURE LIST*
%ADD10C,2.100000*%
%ADD11C,1.500000*%
%ADD12C,1.524000*%
%ADD13C,1.700000*%
%ADD14R,1.100000X1.100000*%
%ADD15C,1.100000*%
%ADD16O,2.400000X1.100000*%
%ADD17C,0.600000*%
%ADD18C,0.599999*%
G04 APERTURE END LIST*
D10*
G04 #@! TO.C,J1*
X2154267Y84016479D03*
X84154267Y84016479D03*
D11*
X77404267Y89716479D03*
X74904267Y89716479D03*
X72404267Y89716479D03*
X69904267Y89716479D03*
X67404267Y89716479D03*
X64904267Y89716479D03*
X62404267Y89716479D03*
X59904267Y89716479D03*
X57404267Y89716479D03*
X54904267Y89716479D03*
X52404267Y89716479D03*
X49904267Y89716479D03*
X77404267Y87216479D03*
X74904267Y87216479D03*
X72404267Y87216479D03*
X69904267Y87216479D03*
X67404267Y87216479D03*
X64904267Y87216479D03*
X62404267Y87216479D03*
X59904267Y87216479D03*
X57404267Y87216479D03*
X54904267Y87216479D03*
X52404267Y87216479D03*
X49904267Y87216479D03*
X77404267Y81216479D03*
X74904267Y81216479D03*
X72404267Y81216479D03*
X69904267Y81216479D03*
X67404267Y81216479D03*
X64904267Y81216479D03*
X62404267Y81216479D03*
X59904267Y81216479D03*
X57404267Y81216479D03*
X54904267Y81216479D03*
X52404267Y81216479D03*
X49904267Y81216479D03*
X77404267Y78716479D03*
X74904267Y78716479D03*
X72404267Y78716479D03*
X69904267Y78716479D03*
X67404267Y78716479D03*
X64904267Y78716479D03*
X62404267Y78716479D03*
X59904267Y78716479D03*
X57404267Y78716479D03*
X54904267Y78716479D03*
X52404267Y78716479D03*
X49904267Y78716479D03*
X76779267Y74716479D03*
X73029267Y74716479D03*
X69279267Y74716479D03*
X65529267Y74716479D03*
X61779267Y74716479D03*
X58029267Y74716479D03*
X54279267Y74716479D03*
X50529267Y74716479D03*
X36404267Y89716479D03*
X33904267Y89716479D03*
X31404267Y89716479D03*
X28904267Y89716479D03*
X26404267Y89716479D03*
X23904267Y89716479D03*
X21404267Y89716479D03*
X18904267Y89716479D03*
X16404267Y89716479D03*
X13904267Y89716479D03*
X11404267Y89716479D03*
X8904267Y89716479D03*
X36404267Y87216479D03*
X33904267Y87216479D03*
X31404267Y87216479D03*
X28904267Y87216479D03*
X26404267Y87216479D03*
X23904267Y87216479D03*
X21404267Y87216479D03*
X18904267Y87216479D03*
X16404267Y87216479D03*
X13904267Y87216479D03*
X11404267Y87216479D03*
X8904267Y87216479D03*
X36404267Y81216479D03*
X33904267Y81216479D03*
X31404267Y81216479D03*
X28904267Y81216479D03*
X26404267Y81216479D03*
X23904267Y81216479D03*
X21404267Y81216479D03*
X18904267Y81216479D03*
X16404267Y81216479D03*
X13904267Y81216479D03*
X11404267Y81216479D03*
X8904267Y81216479D03*
X36404267Y78716479D03*
X33904267Y78716479D03*
X31404267Y78716479D03*
X28904267Y78716479D03*
X26404267Y78716479D03*
X23904267Y78716479D03*
X21404267Y78716479D03*
X18904267Y78716479D03*
X16404267Y78716479D03*
X13904267Y78716479D03*
X11404267Y78716479D03*
X8904267Y78716479D03*
X35779267Y74716479D03*
X32029267Y74716479D03*
X28279267Y74716479D03*
X24529267Y74716479D03*
X20779267Y74716479D03*
X17029267Y74716479D03*
X13279267Y74716479D03*
X9529267Y74716479D03*
G04 #@! TD*
D12*
G04 #@! TO.C,R13*
X38500000Y67405000D03*
X38500000Y63595000D03*
G04 #@! TD*
D13*
G04 #@! TO.C,G2*
X74692000Y7880000D03*
X74692000Y10420000D03*
X74692000Y12960000D03*
X74692000Y15500000D03*
X74692000Y18040000D03*
X77232000Y7880000D03*
X77232000Y10420000D03*
X77232000Y12960000D03*
X77232000Y15500000D03*
X77232000Y18040000D03*
X79772000Y7880000D03*
X79772000Y10420000D03*
X79772000Y12960000D03*
X79772000Y15500000D03*
X79772000Y18040000D03*
G04 #@! TD*
D12*
G04 #@! TO.C,R11*
X12000000Y68500000D03*
X8190000Y68500000D03*
G04 #@! TD*
G04 #@! TO.C,R14*
X34000000Y67405000D03*
X34000000Y63595000D03*
G04 #@! TD*
G04 #@! TO.C,R12*
X16500000Y68500000D03*
X20310000Y68500000D03*
G04 #@! TD*
G04 #@! TO.C,F2*
X53000000Y67450000D03*
X53000000Y62550000D03*
G04 #@! TD*
G04 #@! TO.C,R15*
X28250000Y67405000D03*
X28250000Y63595000D03*
G04 #@! TD*
G04 #@! TO.C,F1*
X69500000Y67950000D03*
X69500000Y63050000D03*
G04 #@! TD*
G04 #@! TO.C,F3*
X50500000Y67450000D03*
X50500000Y62550000D03*
G04 #@! TD*
G04 #@! TO.C,R1*
X64000000Y67405000D03*
X64000000Y63595000D03*
G04 #@! TD*
D13*
G04 #@! TO.C,G1*
X66460000Y7880000D03*
X66460000Y10420000D03*
X66460000Y12960000D03*
X66460000Y15500000D03*
X66460000Y18040000D03*
X69000000Y7880000D03*
X69000000Y10420000D03*
X69000000Y12960000D03*
X69000000Y15500000D03*
X69000000Y18040000D03*
X71540000Y7880000D03*
X71540000Y10420000D03*
X71540000Y12960000D03*
X71540000Y15500000D03*
X71540000Y18040000D03*
G04 #@! TD*
D12*
G04 #@! TO.C,R9*
X42500000Y67405000D03*
X42500000Y63595000D03*
G04 #@! TD*
G04 #@! TO.C,R6*
X78000000Y67405000D03*
X78000000Y63595000D03*
G04 #@! TD*
D14*
G04 #@! TO.C,J2*
X20750000Y37900000D03*
D15*
X22500000Y37100000D03*
X20750000Y36300000D03*
X22500000Y35500000D03*
X20750000Y34700000D03*
D16*
X21625000Y39950000D03*
X21625000Y32650000D03*
G04 #@! TD*
D17*
G04 #@! TO.C,M3*
X24525000Y59425001D03*
X24525000Y60375001D03*
X24525000Y61324999D03*
X33225000Y60325001D03*
X33225000Y59425001D03*
G04 #@! TD*
D12*
G04 #@! TO.C,R4*
X72000000Y67405000D03*
X72000000Y63595000D03*
G04 #@! TD*
G04 #@! TO.C,R8*
X74000000Y67405000D03*
X74000000Y63595000D03*
G04 #@! TD*
G04 #@! TO.C,R10*
X40500000Y67405000D03*
X40500000Y63595000D03*
G04 #@! TD*
D17*
G04 #@! TO.C,M2*
X31125000Y41675000D03*
X29925000Y41675000D03*
X32325000Y41675000D03*
X33525000Y41675000D03*
X27065000Y56100000D03*
X26065000Y56100000D03*
G04 #@! TD*
D12*
G04 #@! TO.C,R7*
X76000000Y67405000D03*
X76000000Y63595000D03*
G04 #@! TD*
G04 #@! TO.C,R16*
X24500000Y67405000D03*
X24500000Y63595000D03*
G04 #@! TD*
D11*
G04 #@! TO.C,M1*
X54024999Y45075005D03*
X47625002Y45075005D03*
X45724999Y45075005D03*
X41424999Y45075005D03*
D17*
X39025002Y44625006D03*
X38025001Y44625006D03*
D11*
X35174999Y45075005D03*
X54475001Y60575002D03*
X52625002Y60575002D03*
X47674999Y60575002D03*
X35625001Y60575002D03*
G04 #@! TD*
D12*
G04 #@! TO.C,R5*
X57500000Y67405000D03*
X57500000Y63595000D03*
G04 #@! TD*
G04 #@! TO.C,R2*
X60500000Y67405000D03*
X60500000Y63595000D03*
G04 #@! TD*
G04 #@! TO.C,R3*
X55500000Y67405000D03*
X55500000Y63595000D03*
G04 #@! TD*
D18*
G04 #@! TO.C,M5*
X66500000Y58500000D03*
X60075001Y60329993D03*
X60075001Y59054995D03*
X60075001Y57405006D03*
X60075001Y56504995D03*
G04 #@! TD*
M02*
