M48
INCH,TZ
T01C0.013750
T02C0.029550
T03C0.032000
T04C0.039200
T05C0.082700
%
T01
X23652Y23752
X23652Y23250
X23652Y22600
X23652Y22246
X26181Y23031
X9459Y24144
X9459Y23770
X9459Y23396
X10183Y22087
X10325Y15089
X10325Y14774
X10325Y14459
X10325Y14144
X10325Y13829
X10325Y13514
X10325Y13199
X10325Y12884
X10325Y10049
X10325Y9734
X10325Y9419
X10325Y9104
X10325Y8789
X10325Y12569
X10325Y12254
X10325Y11939
X10325Y11624
X10325Y10679
X10325Y10364
X10325Y8474
X10325Y8159
X10325Y6467
X10325Y5404
X10325Y5010
X10325Y2096
X10577Y22087
X11703Y16407
X12175Y16407
X12175Y2096
X12648Y16407
X12726Y2096
X12884Y23750
X12884Y23396
X13120Y16407
X13159Y15246
X13474Y15246
X13789Y15246
X14104Y15246
X14419Y15246
X14577Y2096
X14734Y15246
X14892Y2096
X14970Y17569
X15285Y15246
X15364Y17569
X15600Y15246
X15915Y15246
X15915Y2096
X16230Y15246
X16309Y2096
X16545Y15246
X16703Y2096
X16860Y15246
X17096Y2096
X17175Y15246
X17490Y15246
X17490Y2096
X17805Y15246
X17884Y2096
X18120Y15246
X18278Y2096
X18435Y15246
X18671Y2096
X18750Y15246
X19065Y15246
X19380Y15246
X19695Y15246
X20010Y15246
X21703Y15246
X22884Y2096
X23278Y2096
X24262Y12648
X24262Y12175
X24262Y11703
X24262Y11230
X24262Y10758
X24262Y10285
X24262Y9813
X24262Y9341
X24262Y8868
X24262Y8396
X24262Y7923
X24262Y7451
X24262Y6978
X24262Y6506
X24262Y6033
X24262Y5561
X24262Y5089
X24262Y4616
X24262Y4144
X24262Y3671
X24262Y3199
X24262Y2254
X276Y24016
X276Y19961
X394Y28819
X433Y15039
X669Y7362
X748Y3110
X1102Y27638
X1299Y23031
X1496Y472
X2047Y35236
X2283Y31496
X2638Y6299
X2953Y33150
X3071Y30197
X3071Y21220
X3150Y6811
X3274Y18965
X3307Y18150
X3307Y17244
X3307Y15157
X3386Y15984
X3386Y14370
X3386Y12953
X3425Y23219
X3425Y12323
X3425Y11535
X3460Y22362
X3504Y37441
X3504Y236
X3504Y23584
X3543Y9843
X3543Y8858
X3543Y5463
X3562Y23956
X3740Y25945
X3858Y15197
X3898Y21654
X3937Y19921
X3937Y18701
X3937Y17717
X3976Y20433
X3976Y16024
X3976Y4882
X4213Y12992
X4232Y12264
X4232Y11604
X4331Y26417
X4331Y8425
X4350Y9852
X4350Y9193
X4366Y14449
X4488Y33268
X4528Y15748
X4528Y6220
X4685Y18622
X4685Y18031
X4685Y17205
X4685Y5118
X4882Y26417
X4921Y12795
X4921Y11614
X4951Y15217
X5036Y16008
X5039Y14213
X5118Y9252
X5157Y10000
X5157Y8386
X5315Y4488
X5591Y30276
X5630Y32992
X6024Y18268
X6024Y17008
X6024Y10472
X6024Y9803
X6050Y19646
X6063Y19055
X6063Y12953
X6063Y12362
X6102Y24213
X6102Y23543
X6102Y22953
X6102Y22362
X6102Y21732
X6319Y14724
X6319Y13713
X6339Y15236
X6496Y9567
X6535Y12559
X6693Y14803
X6693Y984
X6701Y5911
X6752Y13860
X6772Y10866
X7008Y9567
X7087Y33346
X7136Y15512
X7165Y1024
X7271Y19587
X7323Y23228
X7323Y22835
X7323Y22441
X7323Y18465
X7338Y16414
X7402Y19016
X7480Y30079
X7490Y2000
X7520Y9567
X7598Y37598
X7598Y8819
X7616Y8268
X7750Y1732
X7874Y26654
X7890Y1350
X7898Y26039
X7972Y11942
X8009Y25236
X8031Y12835
X8150Y20079
X8227Y11656
X8228Y27756
X8247Y1218
X8272Y845
X8406Y7490
X8425Y11339
X8484Y23932
X8539Y16491
X8541Y8290
X8543Y22161
X8618Y571
X8622Y15945
X8742Y24501
X8760Y7986
X8760Y5630
X8760Y5197
X8954Y1123
X8976Y2441
X9055Y8425
X9134Y30197
X9173Y17165
X9173Y16069
X9213Y19213
X9252Y21457
X9270Y22621
X9323Y15677
X9409Y6495
X9488Y9409
X9501Y374
X9642Y22994
X9646Y15157
X9646Y5000
X9763Y22401
X9882Y3740
X9961Y9921
X10000Y11063
X10000Y5945
X10002Y22894
X10039Y7323
X10315Y16132
X10349Y24601
X10394Y27638
X10394Y22913
X10827Y37717
X11021Y22345
X11220Y30157
X11260Y1772
X11417Y33386
X11575Y15512
X11811Y22953
X11850Y24606
X12441Y30236
X12441Y1772
X12717Y33386
X12717Y22992
X13070Y22343
X13425Y24968
X13445Y16899
X13504Y32559
X13661Y1732
X13898Y27835
X13940Y16075
X14134Y17205
X14409Y30157
X14449Y33150
X15293Y24278
X15354Y15669
X15472Y1732
X15551Y33465
X15551Y17205
X15650Y25500
X15778Y32795
X15882Y28761
X16142Y33465
X16220Y30354
X16227Y28228
X16260Y37717
X16373Y32804
X16474Y29456
X16591Y27146
X16610Y30341
X16614Y27657
X16673Y26634
X16732Y33465
X16968Y32812
X17047Y25787
X17047Y17283
X17126Y28543
X17204Y29354
X17205Y26496
X17205Y1693
X17322Y32283
X17323Y33465
X17381Y27954
X17503Y27370
X17603Y35512
X17663Y27708
X17717Y26811
X17736Y30322
X17913Y33465
X17971Y29521
X18071Y24291
X18120Y28235
X18184Y34081
X18185Y30341
X18224Y26069
X18504Y32283
X18504Y33465
X18582Y29512
X18898Y29961
X18898Y27756
X19134Y26181
X19213Y1811
X19291Y24331
X19291Y17283
X20118Y37756
X20476Y15512
X20630Y30118
X21024Y33543
X21145Y25719
X21965Y18663
X22102Y23195
X22234Y20488
X22234Y23701
X22244Y22323
X22426Y17375
X22598Y1811
X22598Y18386
X22717Y33189
X22753Y19871
X22762Y17539
X22874Y21535
X22964Y18189
X23308Y16821
X23484Y32480
X23681Y20630
X23898Y1890
X23901Y17343
X24094Y30354
X24528Y24291
X24567Y2638
X24646Y15039
X24646Y13031
X24668Y925
X24796Y18890
X24843Y21142
X24843Y19803
X24956Y2108
X24961Y17349
X25000Y10197
X25026Y18051
X25039Y10758
X25131Y1605
X25148Y37707
X25197Y6496
X25236Y5984
X25322Y16570
X25348Y267
X25368Y18202
X25453Y7480
X25492Y5115
X25709Y11850
X25716Y18929
X25774Y335
X25804Y17185
X25866Y9843
X25926Y24010
X26024Y19142
X26122Y17674
X26220Y18442
X26220Y315
X26260Y33228
X26260Y8386
X26271Y21010
X26280Y20387
X26280Y19970
X26295Y8950
X26408Y10571
X26424Y11248
X26530Y20665
X26575Y10906
X26575Y32485
X26593Y11581
X26614Y1850
X26618Y21593
X26635Y5609
X26654Y315
X26772Y31496
X26969Y13150
X27047Y2047
X27111Y15442
X27312Y13934
X27387Y15698
X27409Y16841
X27480Y8331
X27501Y16329
X27677Y22618
X27705Y14295
X27756Y1260
X27756Y23465
X27819Y15921
X27966Y18728
X27985Y19445
X28064Y13446
X28150Y24134
X28235Y17527
X28425Y14370
X28465Y21260
X28556Y18138
X28583Y37677
X28583Y276
X28740Y2008
X28780Y6654
X28780Y5551
X28780Y4173
X28819Y12559
X28819Y3307
X29094Y30630
X29252Y9331
X29291Y11535
X29331Y13281
X29409Y27165
X29409Y17513
X29567Y33071
X29646Y14035
X29646Y16654
X29646Y15669
X29665Y16095
X29724Y24134
X29744Y18701
X29764Y22638
X29764Y19843
X29887Y1283
X29902Y14351
X29961Y8346
X30174Y13700
X30236Y28504
X30236Y27244
X30261Y1291
X30276Y18282
X30289Y28874
X30335Y30315
X30472Y33228
X30478Y16624
X30512Y13110
X30551Y17559
X30630Y21260
X30630Y15354
X30807Y18735
X30846Y14331
X30866Y16339
X30984Y20118
X31024Y19134
X31063Y37550
X31102Y11417
X31102Y10931
X31102Y9646
X31102Y8583
X31102Y8071
X31102Y1575
X31116Y11909
X31142Y10394
X31142Y9134
X31142Y2008
X31299Y22912
X31299Y21890
X31890Y512
X32412Y24210
X32426Y24803
X32520Y8858
X32520Y8228
X32638Y3150
X32717Y3661
X32933Y12047
X33071Y2874
X33110Y31772
X33195Y34002
X33228Y22835
X33228Y13780
X33268Y15866
X33386Y11378
X33386Y8583
X33408Y7520
X33426Y2756
X33453Y12193
X33465Y28976
X33465Y472
X33583Y5512
X33622Y6890
X33681Y7815
X33683Y4616
X13736Y23051
X14372Y23323
X14757Y23109
X15186Y23750
X15522Y23790
X16112Y23593
X16368Y23317
X16899Y23199
X17195Y23593
X16703Y23790
X17884Y23790
X19459Y23790
X19439Y23317
X19731Y22206
X19706Y21159
X19418Y20837
X19343Y19784
X19459Y18672
X19459Y17884
X18455Y18357
X18449Y19002
X17203Y18942
X17293Y18475
X16813Y18307
X17096Y17884
X15928Y18306
X15756Y17610
X15364Y17569
X14970Y17569
X15064Y18251
X14575Y18561
X14258Y18174
X13828Y18571
X14207Y18960
X14931Y19035
X15364Y18987
X14379Y20303
X13750Y20303
X13736Y21222
X13736Y22077
X14378Y21854
X15403Y21270
X16850Y20877
X16899Y21624
X17409Y21191
X18407Y20602
X20364Y19656
X20431Y18724
X20836Y18672
X20640Y17884
X20049Y18278
X21189Y20752
X21595Y20710
X21179Y21539
X20776Y21804
X20853Y23241
X20218Y22832
X19985Y23672
X11683Y21958
X9715Y21958
X13022Y21919
X11605Y21092
X10542Y20935
X9715Y20817
X13022Y20580
X12116Y20187
X11132Y20147
X10502Y19596
X9715Y19557
X13022Y19163
X12313Y18927
X9715Y18848
X11622Y18762
X10069Y18336
X10935Y17825
X9990Y17588
X13022Y17431
X9715Y17116
X12197Y16798
X11329Y16525
X9990Y16525
X10577Y22086
X10183Y22086
X13120Y16407
X12648Y16407
X12176Y16407
X11703Y16407
X12878Y24290
X12726Y24037
X12884Y23750
X12884Y23395
X11882Y23729
X11608Y23834
X11365Y23621
X11915Y24134
X10436Y23394
X9459Y23395
X9459Y23769
X9459Y24143
X24262Y2254
X24231Y2730
X24041Y2962
X24262Y3198
X24061Y3435
X24262Y3671
X24061Y3907
X24262Y4143
X24061Y4380
X24262Y4616
X24061Y4852
X24262Y5088
X24061Y5324
X24262Y5561
X24061Y5797
X24262Y6033
X24061Y6269
X24262Y6506
X24061Y6742
X24262Y6978
X24061Y7214
X24262Y7450
X24061Y7687
X24262Y7923
X24061Y8159
X24262Y8395
X24061Y8632
X24262Y8868
X24061Y9104
X24262Y9340
X24061Y9576
X24262Y9813
X24061Y10049
X24262Y10285
X24061Y10521
X24262Y10758
X24061Y10994
X24262Y11230
X24061Y11466
X24262Y11702
X24061Y11939
X24262Y12175
X24061Y12411
X24262Y12647
X24104Y12962
X23569Y12955
X23375Y12528
X23365Y12077
X23358Y11635
X23360Y11162
X22313Y10657
X22313Y10347
X22786Y10100
X22583Y9502
X22574Y9206
X22303Y9363
X21621Y9480
X21353Y9225
X20812Y9128
X20812Y9567
X20932Y10027
X20600Y10027
X20305Y10027
X20014Y10021
X19330Y10351
X19334Y10896
X18750Y10758
X18829Y10128
X17997Y10058
X17611Y10043
X17805Y9695
X18005Y9461
X17572Y9204
X17271Y8511
X17254Y7913
X17550Y7566
X17375Y6791
X17930Y6809
X18477Y6799
X18350Y6091
X17551Y6136
X16786Y6110
X15976Y6088
X15936Y6791
X16221Y6791
X16506Y6791
X15635Y6791
X15319Y7579
X15034Y7566
X14736Y7534
X14254Y7584
X14203Y7988
X13725Y8618
X13737Y8995
X13593Y9931
X14193Y10256
X13990Y10464
X14517Y10446
X14564Y10804
X14748Y10253
X15891Y10047
X16120Y9824
X16803Y9778
X16814Y9487
X17022Y9974
X17022Y10643
X17211Y11509
X17425Y11703
X17629Y11907
X17831Y12109
X17018Y12106
X16553Y11659
X15852Y11646
X15950Y12022
X15482Y11899
X14945Y11697
X14719Y11937
X14321Y12131
X14065Y11939
X13682Y11838
X13376Y11798
X13474Y12096
X13676Y12600
X13977Y12656
X14539Y12600
X14784Y12747
X15167Y12490
X15658Y12472
X16050Y13700
X16364Y14010
X16585Y13828
X17105Y13793
X17175Y15246
X16860Y15246
X16545Y15246
X16230Y15246
X15915Y15246
X15600Y15246
X15286Y15246
X15008Y15107
X14734Y15246
X14419Y15246
X14104Y15246
X13789Y15246
X13474Y15246
X13160Y15246
X13072Y14889
X12828Y15106
X12126Y14797
X11191Y14793
X11147Y14420
X11432Y14418
X11191Y14045
X10325Y14143
X10325Y13828
X10325Y13513
X10325Y13198
X10325Y12884
X10325Y12569
X10325Y12254
X10325Y11939
X10325Y11624
X10522Y11033
X10325Y10679
X10325Y10364
X10325Y10049
X10325Y9734
X10325Y9419
X10325Y9104
X10325Y8789
X10325Y8474
X10325Y8159
X10364Y7647
X11019Y7741
X11055Y7343
X11010Y6998
X11312Y6719
X10557Y6777
X10325Y6466
X10325Y5403
X10325Y5009
X10349Y4648
X10812Y4656
X11257Y4426
X12130Y4345
X11907Y3905
X11595Y5091
X11276Y5554
X12127Y5511
X12175Y5954
X12603Y6439
X12888Y6452
X13248Y6540
X13544Y6518
X13445Y5788
X13829Y5797
X14154Y5788
X14482Y6127
X14862Y5788
X15214Y5804
X15509Y5784
X15191Y6101
X14763Y5106
X14319Y5103
X14463Y3927
X14984Y3947
X15373Y3946
X15838Y4771
X15799Y5071
X16252Y5094
X16539Y5094
X16826Y5094
X17242Y5094
X17528Y5094
X17952Y5112
X18260Y5112
X18549Y5112
X19289Y5336
X19384Y5616
X19779Y5928
X20099Y5630
X20665Y5630
X20951Y5623
X21612Y5714
X22357Y5511
X22589Y5679
X22624Y5379
X22788Y4754
X22788Y4458
X22583Y3832
X22583Y3546
X22300Y3710
X21624Y3814
X21355Y3655
X20778Y3475
X20778Y3951
X20932Y4437
X20600Y4437
X20305Y4437
X20014Y4430
X19792Y3667
X19415Y3671
X19407Y2868
X19741Y2895
X19309Y2600
X19266Y2121
X18671Y2096
X18278Y2096
X17884Y2096
X17490Y2096
X17097Y2096
X16703Y2096
X16309Y2096
X15915Y2096
X15286Y2135
X14892Y2096
X14577Y2096
X14203Y2096
X13720Y2224
X13356Y2135
X12726Y2096
X12616Y2380
X12175Y2096
X11013Y2117
X10325Y2096
X13593Y3120
X13888Y3246
X13403Y4115
X13111Y6107
X12576Y6734
X12208Y7187
X12345Y7454
X12667Y7877
X12766Y8317
X12688Y9058
X11752Y9586
X11473Y9726
X11166Y9797
X11856Y10059
X11827Y10890
X11502Y11082
X11848Y11826
X12696Y11752
X12696Y12046
X12696Y12337
X12638Y13523
X12175Y13553
X11644Y13278
X10740Y13252
X10613Y12142
X10325Y14458
X10325Y14773
X10325Y15088
X13229Y13894
X13468Y13738
X13760Y13966
X14187Y14183
X14185Y13742
X14869Y13644
X15158Y14160
X14604Y14436
X15813Y14447
X17490Y15246
X17805Y15246
X18120Y15246
X18435Y15246
X18750Y15246
X19065Y15246
X19380Y15246
X19695Y15246
X20010Y15246
X20624Y14727
X21230Y15167
X21703Y15246
X22301Y14675
X22620Y14675
X22938Y14675
X23256Y14675
X23575Y14675
X23901Y14311
X23944Y15029
X23113Y13433
X22534Y13566
X21624Y13002
X20920Y12769
X20600Y12783
X20312Y12778
X20014Y12777
X19792Y11990
X19379Y11981
X19764Y11471
X19980Y11181
X20553Y11181
X20939Y11218
X20805Y11822
X20812Y12322
X21358Y11982
X22024Y12103
X22024Y11786
X22024Y11440
X22035Y12450
X21624Y10639
X20939Y8423
X20540Y8425
X20101Y8425
X19717Y8507
X19739Y9234
X19457Y9183
X19325Y8041
X19317Y7717
X18825Y7695
X19105Y7285
X19934Y7214
X20305Y7237
X20600Y7224
X21100Y7214
X20837Y6919
X20792Y6250
X21334Y6450
X22210Y6379
X22790Y6610
X22583Y7320
X22583Y7612
X22293Y7470
X21624Y7593
X22744Y8239
X22795Y8567
X19786Y6572
X19380Y6373
X19330Y4760
X18711Y4226
X17950Y4226
X17189Y4226
X16427Y4227
X16480Y7910
X16155Y7706
X15267Y7868
X14167Y6789
X11544Y7588
X11640Y8032
X11910Y8125
X11547Y8328
X12889Y10834
X13172Y10892
X18705Y12465
X18356Y12844
X18501Y13931
X19230Y13882
X19198Y13570
X19330Y13107
X19023Y14642
X17968Y8320
X20512Y2834
X20977Y2872
X21299Y2590
X21338Y2099
X21890Y2697
X22202Y2431
X22884Y2096
X23278Y2096
X23863Y2116
X23671Y2687
X22788Y2884
X19980Y2224
X23652Y23752
X23652Y23250
X23652Y22600
X23652Y22246
X26181Y23031
T02
X8169Y14528
X8169Y13898
X8169Y13268
X8858Y14213
X8858Y13583
X8770Y15335G85X8258Y15335
X8770Y12461G85X8258Y12461
T03
X3224Y26969
X4724Y26969
X8661Y26931
X8661Y25431
X9646Y26931
X9646Y25431
X11122Y26931
X11122Y25431
X12402Y26931
X12402Y25431
X13189Y26931
X13189Y25431
X13976Y26931
X13976Y25431
X14764Y26931
X14764Y25431
X19882Y26555
X19882Y24626
X20866Y26555
X20866Y24626
X21772Y26537
X21772Y25037
X22756Y26537
X22756Y25037
X23819Y26537
X23819Y25037
X25197Y26537
X25197Y25037
X26929Y26752
X26929Y24823
X28110Y26537
X28110Y25037
X28776Y27953
X28858Y26537
X28858Y25037
X29567Y26537
X29567Y25037
X30276Y27953
X30315Y26537
X30315Y25037
X18967Y8191
X18967Y9769
X18967Y11191
T04
X3506Y35321
X3506Y34337
X3506Y31975
X3506Y30991
X3752Y29416
X4490Y35321
X4490Y34337
X4490Y31975
X4490Y30991
X5228Y29416
X5474Y35321
X5474Y34337
X5474Y31975
X5474Y30991
X6458Y35321
X6458Y34337
X6458Y31975
X6458Y30991
X6704Y29416
X7443Y35321
X7443Y34337
X7443Y31975
X7443Y30991
X8181Y29416
X8427Y35321
X8427Y34337
X8427Y31975
X8427Y30991
X9411Y35321
X9411Y34337
X9411Y31975
X9411Y30991
X9657Y29416
X10395Y35321
X10395Y34337
X10395Y31975
X10395Y30991
X11134Y29416
X11380Y35321
X11380Y34337
X11380Y31975
X11380Y30991
X12364Y35321
X12364Y34337
X12364Y31975
X12364Y30991
X12610Y29416
X13348Y35321
X13348Y34337
X13348Y31975
X13348Y30991
X13848Y17746
X14026Y23848
X14086Y29416
X14332Y35321
X14332Y34337
X14332Y31975
X14332Y30991
X16309Y17746
X18002Y17746
X18750Y17746
X18770Y23848
X19647Y35321
X19647Y34337
X19647Y31975
X19647Y30991
X19893Y29416
X20632Y35321
X20632Y34337
X20632Y31975
X20632Y30991
X20719Y23848
X21270Y17746
X21370Y29416
X21447Y23848
X21616Y35321
X21616Y34337
X21616Y31975
X21616Y30991
X22600Y35321
X22600Y34337
X22600Y31975
X22600Y30991
X22846Y29416
X23584Y35321
X23584Y34337
X23584Y31975
X23584Y30991
X24323Y29416
X24569Y35321
X24569Y34337
X24569Y31975
X24569Y30991
X25553Y35321
X25553Y34337
X25553Y31975
X25553Y30991
X25799Y29416
X26165Y7102
X26165Y6102
X26165Y5102
X26165Y4102
X26165Y3102
X26537Y35321
X26537Y34337
X26537Y31975
X26537Y30991
X27165Y7102
X27165Y6102
X27165Y5102
X27165Y4102
X27165Y3102
X27275Y29416
X27521Y35321
X27521Y34337
X27521Y31975
X27521Y30991
X28165Y7102
X28165Y6102
X28165Y5102
X28165Y4102
X28165Y3102
X28506Y35321
X28506Y34337
X28506Y31975
X28506Y30991
X28752Y29416
X29406Y7102
X29406Y6102
X29406Y5102
X29406Y4102
X29406Y3102
X29490Y35321
X29490Y34337
X29490Y31975
X29490Y30991
X30228Y29416
X30406Y7102
X30406Y6102
X30406Y5102
X30406Y4102
X30406Y3102
X30474Y35321
X30474Y34337
X30474Y31975
X30474Y30991
X31406Y7102
X31406Y6102
X31406Y5102
X31406Y4102
X31406Y3102
X14025Y23849
X18770Y23849
X18750Y17746
X18002Y17746
X16309Y17746
X13848Y17746
X21270Y17746
X21447Y23849
X20718Y23849
X10640Y2411
X11611Y11490
X10811Y11490
X11211Y13490
T05
X848Y33077
X33132Y33077
M30
