G75*
G70*
%OFA0B0*%
%FSLAX25Y25*%
%IPPOS*%
%LPD*%
%AMOC8*
5,1,8,0,0,1.08239X$1,22.5*
%
%AMM146*
21,1,0.027170,0.052760,-0.000000,-0.000000,90.000000*
21,1,0.017320,0.062600,-0.000000,-0.000000,90.000000*
1,1,0.009840,0.026380,0.008660*
1,1,0.009840,0.026380,-0.008660*
1,1,0.009840,-0.026380,-0.008660*
1,1,0.009840,-0.026380,0.008660*
%
%AMM177*
21,1,0.092130,0.073230,0.000000,-0.000000,180.000000*
21,1,0.069290,0.096060,0.000000,-0.000000,180.000000*
1,1,0.022840,-0.034650,0.036610*
1,1,0.022840,0.034650,0.036610*
1,1,0.022840,0.034650,-0.036610*
1,1,0.022840,-0.034650,-0.036610*
%
%AMM178*
21,1,0.100000,0.111020,0.000000,-0.000000,270.000000*
21,1,0.075590,0.135430,0.000000,-0.000000,270.000000*
1,1,0.024410,-0.055510,-0.037800*
1,1,0.024410,-0.055510,0.037800*
1,1,0.024410,0.055510,0.037800*
1,1,0.024410,0.055510,-0.037800*
%
%AMM179*
21,1,0.080320,0.083460,0.000000,-0.000000,270.000000*
21,1,0.059840,0.103940,0.000000,-0.000000,270.000000*
1,1,0.020470,-0.041730,-0.029920*
1,1,0.020470,-0.041730,0.029920*
1,1,0.020470,0.041730,0.029920*
1,1,0.020470,0.041730,-0.029920*
%
%AMM180*
21,1,0.084250,0.053540,0.000000,-0.000000,90.000000*
21,1,0.065350,0.072440,0.000000,-0.000000,90.000000*
1,1,0.018900,0.026770,0.032680*
1,1,0.018900,0.026770,-0.032680*
1,1,0.018900,-0.026770,-0.032680*
1,1,0.018900,-0.026770,0.032680*
%
%AMM181*
21,1,0.040950,0.030320,0.000000,-0.000000,0.000000*
21,1,0.028350,0.042910,0.000000,-0.000000,0.000000*
1,1,0.012600,0.014170,-0.015160*
1,1,0.012600,-0.014170,-0.015160*
1,1,0.012600,-0.014170,0.015160*
1,1,0.012600,0.014170,0.015160*
%
%AMM182*
21,1,0.027170,0.052760,0.000000,-0.000000,180.000000*
21,1,0.017320,0.062600,0.000000,-0.000000,180.000000*
1,1,0.009840,-0.008660,0.026380*
1,1,0.009840,0.008660,0.026380*
1,1,0.009840,0.008660,-0.026380*
1,1,0.009840,-0.008660,-0.026380*
%
%AMM183*
21,1,0.041340,0.026770,0.000000,-0.000000,270.000000*
21,1,0.029130,0.038980,0.000000,-0.000000,270.000000*
1,1,0.012210,-0.013390,-0.014570*
1,1,0.012210,-0.013390,0.014570*
1,1,0.012210,0.013390,0.014570*
1,1,0.012210,0.013390,-0.014570*
%
%AMM184*
21,1,0.076380,0.036220,0.000000,-0.000000,0.000000*
21,1,0.061810,0.050790,0.000000,-0.000000,0.000000*
1,1,0.014570,0.030910,-0.018110*
1,1,0.014570,-0.030910,-0.018110*
1,1,0.014570,-0.030910,0.018110*
1,1,0.014570,0.030910,0.018110*
%
%AMM185*
21,1,0.038980,0.026770,0.000000,-0.000000,270.000000*
21,1,0.026770,0.038980,0.000000,-0.000000,270.000000*
1,1,0.012210,-0.013390,-0.013390*
1,1,0.012210,-0.013390,0.013390*
1,1,0.012210,0.013390,0.013390*
1,1,0.012210,0.013390,-0.013390*
%
%AMM186*
21,1,0.021260,0.016540,0.000000,-0.000000,180.000000*
21,1,0.012600,0.025200,0.000000,-0.000000,180.000000*
1,1,0.008660,-0.006300,0.008270*
1,1,0.008660,0.006300,0.008270*
1,1,0.008660,0.006300,-0.008270*
1,1,0.008660,-0.006300,-0.008270*
%
%AMM187*
21,1,0.029130,0.018900,0.000000,-0.000000,0.000000*
21,1,0.018900,0.029130,0.000000,-0.000000,0.000000*
1,1,0.010240,0.009450,-0.009450*
1,1,0.010240,-0.009450,-0.009450*
1,1,0.010240,-0.009450,0.009450*
1,1,0.010240,0.009450,0.009450*
%
%AMM188*
21,1,0.025200,0.019680,0.000000,-0.000000,270.000000*
21,1,0.015750,0.029130,0.000000,-0.000000,270.000000*
1,1,0.009450,-0.009840,-0.007870*
1,1,0.009450,-0.009840,0.007870*
1,1,0.009450,0.009840,0.007870*
1,1,0.009450,0.009840,-0.007870*
%
%AMM189*
21,1,0.025200,0.019680,0.000000,-0.000000,180.000000*
21,1,0.015750,0.029130,0.000000,-0.000000,180.000000*
1,1,0.009450,-0.007870,0.009840*
1,1,0.009450,0.007870,0.009840*
1,1,0.009450,0.007870,-0.009840*
1,1,0.009450,-0.007870,-0.009840*
%
%AMM216*
21,1,0.029530,0.026380,-0.000000,0.000000,0.000000*
21,1,0.020470,0.035430,-0.000000,0.000000,0.000000*
1,1,0.009060,0.010240,-0.013190*
1,1,0.009060,-0.010240,-0.013190*
1,1,0.009060,-0.010240,0.013190*
1,1,0.009060,0.010240,0.013190*
%
%AMM217*
21,1,0.021650,0.027950,-0.000000,0.000000,0.000000*
21,1,0.014170,0.035430,-0.000000,0.000000,0.000000*
1,1,0.007480,0.007090,-0.013980*
1,1,0.007480,-0.007090,-0.013980*
1,1,0.007480,-0.007090,0.013980*
1,1,0.007480,0.007090,0.013980*
%
%AMM218*
21,1,0.016540,0.028980,-0.000000,0.000000,180.000000*
21,1,0.010080,0.035430,-0.000000,0.000000,180.000000*
1,1,0.006460,-0.005040,0.014490*
1,1,0.006460,0.005040,0.014490*
1,1,0.006460,0.005040,-0.014490*
1,1,0.006460,-0.005040,-0.014490*
%
%AMM219*
21,1,0.027560,0.030710,-0.000000,0.000000,270.000000*
21,1,0.018900,0.039370,-0.000000,0.000000,270.000000*
1,1,0.008660,-0.015350,-0.009450*
1,1,0.008660,-0.015350,0.009450*
1,1,0.008660,0.015350,0.009450*
1,1,0.008660,0.015350,-0.009450*
%
%AMM220*
21,1,0.031500,0.018900,-0.000000,0.000000,180.000000*
21,1,0.022840,0.027560,-0.000000,0.000000,180.000000*
1,1,0.008660,-0.011420,0.009450*
1,1,0.008660,0.011420,0.009450*
1,1,0.008660,0.011420,-0.009450*
1,1,0.008660,-0.011420,-0.009450*
%
%AMM221*
21,1,0.035430,0.072440,-0.000000,0.000000,180.000000*
21,1,0.025200,0.082680,-0.000000,0.000000,180.000000*
1,1,0.010240,-0.012600,0.036220*
1,1,0.010240,0.012600,0.036220*
1,1,0.010240,0.012600,-0.036220*
1,1,0.010240,-0.012600,-0.036220*
%
%AMM222*
21,1,0.031500,0.018900,-0.000000,0.000000,270.000000*
21,1,0.022840,0.027560,-0.000000,0.000000,270.000000*
1,1,0.008660,-0.009450,-0.011420*
1,1,0.008660,-0.009450,0.011420*
1,1,0.008660,0.009450,0.011420*
1,1,0.008660,0.009450,-0.011420*
%
%AMM223*
21,1,0.027560,0.030710,-0.000000,0.000000,0.000000*
21,1,0.018900,0.039370,-0.000000,0.000000,0.000000*
1,1,0.008660,0.009450,-0.015350*
1,1,0.008660,-0.009450,-0.015350*
1,1,0.008660,-0.009450,0.015350*
1,1,0.008660,0.009450,0.015350*
%
%AMM224*
21,1,0.039370,0.030320,-0.000000,0.000000,0.000000*
21,1,0.028350,0.041340,-0.000000,0.000000,0.000000*
1,1,0.011020,0.014170,-0.015160*
1,1,0.011020,-0.014170,-0.015160*
1,1,0.011020,-0.014170,0.015160*
1,1,0.011020,0.014170,0.015160*
%
%AMM225*
21,1,0.047240,0.075980,-0.000000,0.000000,90.000000*
21,1,0.034650,0.088580,-0.000000,0.000000,90.000000*
1,1,0.012600,0.037990,0.017320*
1,1,0.012600,0.037990,-0.017320*
1,1,0.012600,-0.037990,-0.017320*
1,1,0.012600,-0.037990,0.017320*
%
%AMM226*
21,1,0.043310,0.035430,-0.000000,0.000000,90.000000*
21,1,0.031500,0.047240,-0.000000,0.000000,90.000000*
1,1,0.011810,0.017720,0.015750*
1,1,0.011810,0.017720,-0.015750*
1,1,0.011810,-0.017720,-0.015750*
1,1,0.011810,-0.017720,0.015750*
%
%AMM227*
21,1,0.031500,0.030710,-0.000000,0.000000,90.000000*
21,1,0.022050,0.040160,-0.000000,0.000000,90.000000*
1,1,0.009450,0.015350,0.011020*
1,1,0.009450,0.015350,-0.011020*
1,1,0.009450,-0.015350,-0.011020*
1,1,0.009450,-0.015350,0.011020*
%
%AMM228*
21,1,0.035430,0.072440,-0.000000,0.000000,90.000000*
21,1,0.025200,0.082680,-0.000000,0.000000,90.000000*
1,1,0.010240,0.036220,0.012600*
1,1,0.010240,0.036220,-0.012600*
1,1,0.010240,-0.036220,-0.012600*
1,1,0.010240,-0.036220,0.012600*
%
%AMM229*
21,1,0.141730,0.067720,-0.000000,0.000000,90.000000*
21,1,0.120870,0.088580,-0.000000,0.000000,90.000000*
1,1,0.020870,0.033860,0.060430*
1,1,0.020870,0.033860,-0.060430*
1,1,0.020870,-0.033860,-0.060430*
1,1,0.020870,-0.033860,0.060430*
%
%AMM230*
21,1,0.047240,0.075990,-0.000000,0.000000,90.000000*
21,1,0.034650,0.088580,-0.000000,0.000000,90.000000*
1,1,0.012600,0.037990,0.017320*
1,1,0.012600,0.037990,-0.017320*
1,1,0.012600,-0.037990,-0.017320*
1,1,0.012600,-0.037990,0.017320*
%
%AMM231*
21,1,0.090550,0.073230,-0.000000,0.000000,180.000000*
21,1,0.069290,0.094490,-0.000000,0.000000,180.000000*
1,1,0.021260,-0.034650,0.036610*
1,1,0.021260,0.034650,0.036610*
1,1,0.021260,0.034650,-0.036610*
1,1,0.021260,-0.034650,-0.036610*
%
%AMM260*
21,1,0.033070,0.030710,0.000000,-0.000000,270.000000*
21,1,0.022050,0.041730,0.000000,-0.000000,270.000000*
1,1,0.011020,-0.015350,-0.011020*
1,1,0.011020,-0.015350,0.011020*
1,1,0.011020,0.015350,0.011020*
1,1,0.011020,0.015350,-0.011020*
%
%ADD11R,0.07874X0.02559*%
%ADD114C,0.02913*%
%ADD115C,0.06457*%
%ADD12R,0.17717X0.31890*%
%ADD13C,0.05906*%
%ADD14C,0.06000*%
%ADD15C,0.06693*%
%ADD16R,0.03150X0.01969*%
%ADD17R,0.03150X0.01575*%
%ADD179O,0.05118X0.01260*%
%ADD18R,0.04331X0.04331*%
%ADD180O,0.01260X0.05118*%
%ADD182C,0.03494*%
%ADD185R,0.01772X0.01378*%
%ADD186R,0.01378X0.01772*%
%ADD19C,0.04331*%
%ADD198C,0.03543*%
%ADD20O,0.09449X0.04331*%
%ADD200C,0.04724*%
%ADD201C,0.04294*%
%ADD21C,0.02362*%
%ADD306M146*%
%ADD337M177*%
%ADD338M178*%
%ADD339M179*%
%ADD340M180*%
%ADD341M181*%
%ADD342M182*%
%ADD343M183*%
%ADD344M184*%
%ADD345M185*%
%ADD346M186*%
%ADD347M187*%
%ADD348M188*%
%ADD349M189*%
%ADD360R,0.01181X0.05512*%
%ADD380M216*%
%ADD381M217*%
%ADD382M218*%
%ADD383O,0.01575X0.04724*%
%ADD384M219*%
%ADD385M220*%
%ADD386M221*%
%ADD387M222*%
%ADD388M223*%
%ADD389M224*%
%ADD390O,0.02756X0.09055*%
%ADD391M225*%
%ADD392M226*%
%ADD393M227*%
%ADD394M228*%
%ADD395M229*%
%ADD396M230*%
%ADD397M231*%
%ADD428O,0.02520X0.01535*%
%ADD429O,0.03307X0.01339*%
%ADD430O,0.04488X0.02520*%
%ADD432O,0.09213X0.02913*%
%ADD438M260*%
%ADD54O,0.02756X0.00787*%
%ADD56O,0.03937X0.01969*%
%ADD57O,0.01969X0.00984*%
%ADD64C,0.08268*%
X0000000Y0000000D02*
%LPD*%
G01*
G36*
G01*
X0087244Y0229350D02*
X0089921Y0229350D01*
G75*
G02*
X0090256Y0229016I0000000J-000335D01*
G01*
X0090256Y0226339D01*
G75*
G02*
X0089921Y0226004I-000335J0000000D01*
G01*
X0087244Y0226004D01*
G75*
G02*
X0086909Y0226339I0000000J0000335D01*
G01*
X0086909Y0229016D01*
G75*
G02*
X0087244Y0229350I0000335J0000000D01*
G01*
G37*
G36*
G01*
X0087244Y0223130D02*
X0089921Y0223130D01*
G75*
G02*
X0090256Y0222795I0000000J-000335D01*
G01*
X0090256Y0220118D01*
G75*
G02*
X0089921Y0219783I-000335J0000000D01*
G01*
X0087244Y0219783D01*
G75*
G02*
X0086909Y0220118I0000000J0000335D01*
G01*
X0086909Y0222795D01*
G75*
G02*
X0087244Y0223130I0000335J0000000D01*
G01*
G37*
D11*
X0041634Y0240157D03*
X0041634Y0236220D03*
X0041634Y0232283D03*
X0041634Y0228346D03*
X0041634Y0224409D03*
X0041634Y0220472D03*
X0079429Y0220472D03*
X0079429Y0224409D03*
X0079429Y0228346D03*
X0079429Y0232283D03*
X0079429Y0236220D03*
X0079429Y0240157D03*
D12*
X0060531Y0230315D03*
D64*
X0008481Y0330774D03*
X0331316Y0330774D03*
D13*
X0304741Y0353214D03*
X0294899Y0353214D03*
X0285056Y0353214D03*
X0275214Y0353214D03*
X0265371Y0353214D03*
X0255529Y0353214D03*
X0245686Y0353214D03*
X0235844Y0353214D03*
X0226001Y0353214D03*
X0216159Y0353214D03*
X0206316Y0353214D03*
X0196473Y0353214D03*
X0304741Y0343372D03*
X0294899Y0343372D03*
X0285056Y0343372D03*
X0275214Y0343372D03*
X0265371Y0343372D03*
X0255529Y0343372D03*
X0245686Y0343372D03*
X0235844Y0343372D03*
X0226001Y0343372D03*
X0216159Y0343372D03*
X0206316Y0343372D03*
X0196473Y0343372D03*
X0304741Y0319750D03*
X0294899Y0319750D03*
X0285056Y0319750D03*
X0275214Y0319750D03*
X0265371Y0319750D03*
X0255529Y0319750D03*
X0245686Y0319750D03*
X0235844Y0319750D03*
X0226001Y0319750D03*
X0216159Y0319750D03*
X0206316Y0319750D03*
X0196473Y0319750D03*
X0304741Y0309907D03*
X0294899Y0309907D03*
X0285056Y0309907D03*
X0275214Y0309907D03*
X0265371Y0309907D03*
X0255529Y0309907D03*
X0245686Y0309907D03*
X0235844Y0309907D03*
X0226001Y0309907D03*
X0216159Y0309907D03*
X0206316Y0309907D03*
X0196473Y0309907D03*
X0302281Y0294159D03*
X0287517Y0294159D03*
X0272753Y0294159D03*
X0257989Y0294159D03*
X0243225Y0294159D03*
X0228462Y0294159D03*
X0213698Y0294159D03*
X0198934Y0294159D03*
X0143324Y0353214D03*
X0133481Y0353214D03*
X0123639Y0353214D03*
X0113796Y0353214D03*
X0103954Y0353214D03*
X0094111Y0353214D03*
X0084269Y0353214D03*
X0074426Y0353214D03*
X0064584Y0353214D03*
X0054741Y0353214D03*
X0044899Y0353214D03*
X0035056Y0353214D03*
X0143324Y0343372D03*
X0133481Y0343372D03*
X0123639Y0343372D03*
X0113796Y0343372D03*
X0103954Y0343372D03*
X0094111Y0343372D03*
X0084269Y0343372D03*
X0074426Y0343372D03*
X0064584Y0343372D03*
X0054741Y0343372D03*
X0044899Y0343372D03*
X0035056Y0343372D03*
X0143324Y0319750D03*
X0133481Y0319750D03*
X0123639Y0319750D03*
X0113796Y0319750D03*
X0103954Y0319750D03*
X0094111Y0319750D03*
X0084269Y0319750D03*
X0074426Y0319750D03*
X0064584Y0319750D03*
X0054741Y0319750D03*
X0044899Y0319750D03*
X0035056Y0319750D03*
X0143324Y0309907D03*
X0133481Y0309907D03*
X0123639Y0309907D03*
X0113796Y0309907D03*
X0103954Y0309907D03*
X0094111Y0309907D03*
X0084269Y0309907D03*
X0074426Y0309907D03*
X0064584Y0309907D03*
X0054741Y0309907D03*
X0044899Y0309907D03*
X0035056Y0309907D03*
X0140863Y0294159D03*
X0126099Y0294159D03*
X0111336Y0294159D03*
X0096572Y0294159D03*
X0081808Y0294159D03*
X0067044Y0294159D03*
X0052281Y0294159D03*
X0037517Y0294159D03*
D14*
X0131890Y0269311D03*
G36*
G01*
X0129429Y0267520D02*
X0134350Y0267520D01*
G75*
G02*
X0134744Y0267126I0000000J-000394D01*
G01*
X0134744Y0263976D01*
G75*
G02*
X0134350Y0263583I-000394J0000000D01*
G01*
X0129429Y0263583D01*
G75*
G02*
X0129035Y0263976I0000000J0000394D01*
G01*
X0129035Y0267126D01*
G75*
G02*
X0129429Y0267520I0000394J0000000D01*
G01*
G37*
G36*
G01*
X0129429Y0260039D02*
X0134350Y0260039D01*
G75*
G02*
X0134744Y0259646I0000000J-000394D01*
G01*
X0134744Y0256496D01*
G75*
G02*
X0134350Y0256102I-000394J0000000D01*
G01*
X0129429Y0256102D01*
G75*
G02*
X0129035Y0256496I0000000J0000394D01*
G01*
X0129035Y0259646D01*
G75*
G02*
X0129429Y0260039I0000394J0000000D01*
G01*
G37*
X0131890Y0254311D03*
G36*
G01*
X0071260Y0198819D02*
X0067126Y0198819D01*
G75*
G02*
X0066732Y0199213I0000000J0000394D01*
G01*
X0066732Y0202362D01*
G75*
G02*
X0067126Y0202756I0000394J0000000D01*
G01*
X0071260Y0202756D01*
G75*
G02*
X0071654Y0202362I0000000J-000394D01*
G01*
X0071654Y0199213D01*
G75*
G02*
X0071260Y0198819I-000394J0000000D01*
G01*
G37*
G36*
G01*
X0071260Y0206693D02*
X0067126Y0206693D01*
G75*
G02*
X0066732Y0207087I0000000J0000394D01*
G01*
X0066732Y0210236D01*
G75*
G02*
X0067126Y0210630I0000394J0000000D01*
G01*
X0071260Y0210630D01*
G75*
G02*
X0071654Y0210236I0000000J-000394D01*
G01*
X0071654Y0207087D01*
G75*
G02*
X0071260Y0206693I-000394J0000000D01*
G01*
G37*
D15*
X0294063Y0031024D03*
X0294063Y0041024D03*
X0294063Y0051024D03*
X0294063Y0061024D03*
X0294063Y0071024D03*
X0304063Y0031024D03*
X0304063Y0041024D03*
X0304063Y0051024D03*
X0304063Y0061024D03*
X0304063Y0071024D03*
X0314063Y0031024D03*
X0314063Y0041024D03*
X0314063Y0051024D03*
X0314063Y0061024D03*
X0314063Y0071024D03*
D14*
X0032244Y0269685D03*
G36*
G01*
X0034035Y0267224D02*
X0034035Y0272146D01*
G75*
G02*
X0034429Y0272539I0000394J0000000D01*
G01*
X0037579Y0272539D01*
G75*
G02*
X0037972Y0272146I0000000J-000394D01*
G01*
X0037972Y0267224D01*
G75*
G02*
X0037579Y0266831I-000394J0000000D01*
G01*
X0034429Y0266831D01*
G75*
G02*
X0034035Y0267224I0000000J0000394D01*
G01*
G37*
G36*
G01*
X0041516Y0267224D02*
X0041516Y0272146D01*
G75*
G02*
X0041910Y0272539I0000394J0000000D01*
G01*
X0045059Y0272539D01*
G75*
G02*
X0045453Y0272146I0000000J-000394D01*
G01*
X0045453Y0267224D01*
G75*
G02*
X0045059Y0266831I-000394J0000000D01*
G01*
X0041910Y0266831D01*
G75*
G02*
X0041516Y0267224I0000000J0000394D01*
G01*
G37*
X0047244Y0269685D03*
G36*
G01*
X0079134Y0198819D02*
X0075000Y0198819D01*
G75*
G02*
X0074606Y0199213I0000000J0000394D01*
G01*
X0074606Y0202362D01*
G75*
G02*
X0075000Y0202756I0000394J0000000D01*
G01*
X0079134Y0202756D01*
G75*
G02*
X0079528Y0202362I0000000J-000394D01*
G01*
X0079528Y0199213D01*
G75*
G02*
X0079134Y0198819I-000394J0000000D01*
G01*
G37*
G36*
G01*
X0079134Y0206693D02*
X0075000Y0206693D01*
G75*
G02*
X0074606Y0207087I0000000J0000394D01*
G01*
X0074606Y0210236D01*
G75*
G02*
X0075000Y0210630I0000394J0000000D01*
G01*
X0079134Y0210630D01*
G75*
G02*
X0079528Y0210236I0000000J-000394D01*
G01*
X0079528Y0207087D01*
G75*
G02*
X0079134Y0206693I-000394J0000000D01*
G01*
G37*
G36*
G01*
X0231102Y0166634D02*
X0229921Y0166634D01*
G75*
G02*
X0229331Y0167224I0000000J0000591D01*
G01*
X0229331Y0171850D01*
G75*
G02*
X0229921Y0172441I0000591J0000000D01*
G01*
X0231102Y0172441D01*
G75*
G02*
X0231693Y0171850I0000000J-000591D01*
G01*
X0231693Y0167224D01*
G75*
G02*
X0231102Y0166634I-000591J0000000D01*
G01*
G37*
G36*
G01*
X0234843Y0174016D02*
X0233661Y0174016D01*
G75*
G02*
X0233071Y0174606I0000000J0000591D01*
G01*
X0233071Y0179232D01*
G75*
G02*
X0233661Y0179823I0000591J0000000D01*
G01*
X0234843Y0179823D01*
G75*
G02*
X0235433Y0179232I0000000J-000591D01*
G01*
X0235433Y0174606D01*
G75*
G02*
X0234843Y0174016I-000591J0000000D01*
G01*
G37*
G36*
G01*
X0238583Y0166634D02*
X0237402Y0166634D01*
G75*
G02*
X0236811Y0167224I0000000J0000591D01*
G01*
X0236811Y0171850D01*
G75*
G02*
X0237402Y0172441I0000591J0000000D01*
G01*
X0238583Y0172441D01*
G75*
G02*
X0239173Y0171850I0000000J-000591D01*
G01*
X0239173Y0167224D01*
G75*
G02*
X0238583Y0166634I-000591J0000000D01*
G01*
G37*
X0124016Y0269311D03*
G36*
G01*
X0121555Y0267520D02*
X0126476Y0267520D01*
G75*
G02*
X0126870Y0267126I0000000J-000394D01*
G01*
X0126870Y0263976D01*
G75*
G02*
X0126476Y0263583I-000394J0000000D01*
G01*
X0121555Y0263583D01*
G75*
G02*
X0121161Y0263976I0000000J0000394D01*
G01*
X0121161Y0267126D01*
G75*
G02*
X0121555Y0267520I0000394J0000000D01*
G01*
G37*
G36*
G01*
X0121555Y0260039D02*
X0126476Y0260039D01*
G75*
G02*
X0126870Y0259646I0000000J-000394D01*
G01*
X0126870Y0256496D01*
G75*
G02*
X0126476Y0256102I-000394J0000000D01*
G01*
X0121555Y0256102D01*
G75*
G02*
X0121161Y0256496I0000000J0000394D01*
G01*
X0121161Y0259646D01*
G75*
G02*
X0121555Y0260039I0000394J0000000D01*
G01*
G37*
X0124016Y0254311D03*
G36*
G01*
X0301969Y0150886D02*
X0300787Y0150886D01*
G75*
G02*
X0300197Y0151476I0000000J0000591D01*
G01*
X0300197Y0156102D01*
G75*
G02*
X0300787Y0156693I0000591J0000000D01*
G01*
X0301969Y0156693D01*
G75*
G02*
X0302559Y0156102I0000000J-000591D01*
G01*
X0302559Y0151476D01*
G75*
G02*
X0301969Y0150886I-000591J0000000D01*
G01*
G37*
G36*
G01*
X0305709Y0158268D02*
X0304528Y0158268D01*
G75*
G02*
X0303937Y0158858I0000000J0000591D01*
G01*
X0303937Y0163484D01*
G75*
G02*
X0304528Y0164075I0000591J0000000D01*
G01*
X0305709Y0164075D01*
G75*
G02*
X0306299Y0163484I0000000J-000591D01*
G01*
X0306299Y0158858D01*
G75*
G02*
X0305709Y0158268I-000591J0000000D01*
G01*
G37*
G36*
G01*
X0309449Y0150886D02*
X0308268Y0150886D01*
G75*
G02*
X0307677Y0151476I0000000J0000591D01*
G01*
X0307677Y0156102D01*
G75*
G02*
X0308268Y0156693I0000591J0000000D01*
G01*
X0309449Y0156693D01*
G75*
G02*
X0310039Y0156102I0000000J-000591D01*
G01*
X0310039Y0151476D01*
G75*
G02*
X0309449Y0150886I-000591J0000000D01*
G01*
G37*
G36*
G01*
X0254724Y0166880D02*
X0253543Y0166880D01*
G75*
G02*
X0252953Y0167470I0000000J0000591D01*
G01*
X0252953Y0172096D01*
G75*
G02*
X0253543Y0172687I0000591J0000000D01*
G01*
X0254724Y0172687D01*
G75*
G02*
X0255315Y0172096I0000000J-000591D01*
G01*
X0255315Y0167470D01*
G75*
G02*
X0254724Y0166880I-000591J0000000D01*
G01*
G37*
G36*
G01*
X0258465Y0174262D02*
X0257283Y0174262D01*
G75*
G02*
X0256693Y0174852I0000000J0000591D01*
G01*
X0256693Y0179478D01*
G75*
G02*
X0257283Y0180069I0000591J0000000D01*
G01*
X0258465Y0180069D01*
G75*
G02*
X0259055Y0179478I0000000J-000591D01*
G01*
X0259055Y0174852D01*
G75*
G02*
X0258465Y0174262I-000591J0000000D01*
G01*
G37*
G36*
G01*
X0262205Y0166880D02*
X0261024Y0166880D01*
G75*
G02*
X0260433Y0167470I0000000J0000591D01*
G01*
X0260433Y0172096D01*
G75*
G02*
X0261024Y0172687I0000591J0000000D01*
G01*
X0262205Y0172687D01*
G75*
G02*
X0262795Y0172096I0000000J-000591D01*
G01*
X0262795Y0167470D01*
G75*
G02*
X0262205Y0166880I-000591J0000000D01*
G01*
G37*
G36*
G01*
X0031654Y0215689D02*
X0028976Y0215689D01*
G75*
G02*
X0028642Y0216024I0000000J0000335D01*
G01*
X0028642Y0218701D01*
G75*
G02*
X0028976Y0219035I0000335J0000000D01*
G01*
X0031654Y0219035D01*
G75*
G02*
X0031988Y0218701I0000000J-000335D01*
G01*
X0031988Y0216024D01*
G75*
G02*
X0031654Y0215689I-000335J0000000D01*
G01*
G37*
G36*
G01*
X0031654Y0221909D02*
X0028976Y0221909D01*
G75*
G02*
X0028642Y0222244I0000000J0000335D01*
G01*
X0028642Y0224921D01*
G75*
G02*
X0028976Y0225256I0000335J0000000D01*
G01*
X0031654Y0225256D01*
G75*
G02*
X0031988Y0224921I0000000J-000335D01*
G01*
X0031988Y0222244D01*
G75*
G02*
X0031654Y0221909I-000335J0000000D01*
G01*
G37*
G36*
G01*
X0281693Y0205728D02*
X0281693Y0206909D01*
G75*
G02*
X0282283Y0207500I0000591J0000000D01*
G01*
X0288780Y0207500D01*
G75*
G02*
X0289370Y0206909I0000000J-000591D01*
G01*
X0289370Y0205728D01*
G75*
G02*
X0288780Y0205138I-000591J0000000D01*
G01*
X0282283Y0205138D01*
G75*
G02*
X0281693Y0205728I0000000J0000591D01*
G01*
G37*
G36*
G01*
X0281693Y0200728D02*
X0281693Y0201909D01*
G75*
G02*
X0282283Y0202500I0000591J0000000D01*
G01*
X0288780Y0202500D01*
G75*
G02*
X0289370Y0201909I0000000J-000591D01*
G01*
X0289370Y0200728D01*
G75*
G02*
X0288780Y0200138I-000591J0000000D01*
G01*
X0282283Y0200138D01*
G75*
G02*
X0281693Y0200728I0000000J0000591D01*
G01*
G37*
G36*
G01*
X0281693Y0195728D02*
X0281693Y0196909D01*
G75*
G02*
X0282283Y0197500I0000591J0000000D01*
G01*
X0288780Y0197500D01*
G75*
G02*
X0289370Y0196909I0000000J-000591D01*
G01*
X0289370Y0195728D01*
G75*
G02*
X0288780Y0195138I-000591J0000000D01*
G01*
X0282283Y0195138D01*
G75*
G02*
X0281693Y0195728I0000000J0000591D01*
G01*
G37*
G36*
G01*
X0281693Y0190728D02*
X0281693Y0191909D01*
G75*
G02*
X0282283Y0192500I0000591J0000000D01*
G01*
X0288780Y0192500D01*
G75*
G02*
X0289370Y0191909I0000000J-000591D01*
G01*
X0289370Y0190728D01*
G75*
G02*
X0288780Y0190138I-000591J0000000D01*
G01*
X0282283Y0190138D01*
G75*
G02*
X0281693Y0190728I0000000J0000591D01*
G01*
G37*
G36*
G01*
X0301181Y0190728D02*
X0301181Y0191909D01*
G75*
G02*
X0301772Y0192500I0000591J0000000D01*
G01*
X0308268Y0192500D01*
G75*
G02*
X0308858Y0191909I0000000J-000591D01*
G01*
X0308858Y0190728D01*
G75*
G02*
X0308268Y0190138I-000591J0000000D01*
G01*
X0301772Y0190138D01*
G75*
G02*
X0301181Y0190728I0000000J0000591D01*
G01*
G37*
G36*
G01*
X0301181Y0195728D02*
X0301181Y0196909D01*
G75*
G02*
X0301772Y0197500I0000591J0000000D01*
G01*
X0308268Y0197500D01*
G75*
G02*
X0308858Y0196909I0000000J-000591D01*
G01*
X0308858Y0195728D01*
G75*
G02*
X0308268Y0195138I-000591J0000000D01*
G01*
X0301772Y0195138D01*
G75*
G02*
X0301181Y0195728I0000000J0000591D01*
G01*
G37*
G36*
G01*
X0301181Y0200728D02*
X0301181Y0201909D01*
G75*
G02*
X0301772Y0202500I0000591J0000000D01*
G01*
X0308268Y0202500D01*
G75*
G02*
X0308858Y0201909I0000000J-000591D01*
G01*
X0308858Y0200728D01*
G75*
G02*
X0308268Y0200138I-000591J0000000D01*
G01*
X0301772Y0200138D01*
G75*
G02*
X0301181Y0200728I0000000J0000591D01*
G01*
G37*
G36*
G01*
X0301181Y0205728D02*
X0301181Y0206909D01*
G75*
G02*
X0301772Y0207500I0000591J0000000D01*
G01*
X0308268Y0207500D01*
G75*
G02*
X0308858Y0206909I0000000J-000591D01*
G01*
X0308858Y0205728D01*
G75*
G02*
X0308268Y0205138I-000591J0000000D01*
G01*
X0301772Y0205138D01*
G75*
G02*
X0301181Y0205728I0000000J0000591D01*
G01*
G37*
G36*
G01*
X0229724Y0161850D02*
X0229724Y0164921D01*
G75*
G02*
X0230000Y0165197I0000276J0000000D01*
G01*
X0232205Y0165197D01*
G75*
G02*
X0232480Y0164921I0000000J-000276D01*
G01*
X0232480Y0161850D01*
G75*
G02*
X0232205Y0161575I-000276J0000000D01*
G01*
X0230000Y0161575D01*
G75*
G02*
X0229724Y0161850I0000000J0000276D01*
G01*
G37*
G36*
G01*
X0236024Y0161850D02*
X0236024Y0164921D01*
G75*
G02*
X0236299Y0165197I0000276J0000000D01*
G01*
X0238504Y0165197D01*
G75*
G02*
X0238780Y0164921I0000000J-000276D01*
G01*
X0238780Y0161850D01*
G75*
G02*
X0238504Y0161575I-000276J0000000D01*
G01*
X0236299Y0161575D01*
G75*
G02*
X0236024Y0161850I0000000J0000276D01*
G01*
G37*
G36*
G01*
X0300591Y0124449D02*
X0300591Y0127520D01*
G75*
G02*
X0300866Y0127795I0000276J0000000D01*
G01*
X0303071Y0127795D01*
G75*
G02*
X0303346Y0127520I0000000J-000276D01*
G01*
X0303346Y0124449D01*
G75*
G02*
X0303071Y0124173I-000276J0000000D01*
G01*
X0300866Y0124173D01*
G75*
G02*
X0300591Y0124449I0000000J0000276D01*
G01*
G37*
G36*
G01*
X0306890Y0124449D02*
X0306890Y0127520D01*
G75*
G02*
X0307165Y0127795I0000276J0000000D01*
G01*
X0309370Y0127795D01*
G75*
G02*
X0309646Y0127520I0000000J-000276D01*
G01*
X0309646Y0124449D01*
G75*
G02*
X0309370Y0124173I-000276J0000000D01*
G01*
X0307165Y0124173D01*
G75*
G02*
X0306890Y0124449I0000000J0000276D01*
G01*
G37*
G36*
G01*
X0223031Y0195915D02*
X0221850Y0195915D01*
G75*
G02*
X0221260Y0196506I0000000J0000591D01*
G01*
X0221260Y0201132D01*
G75*
G02*
X0221850Y0201722I0000591J0000000D01*
G01*
X0223031Y0201722D01*
G75*
G02*
X0223622Y0201132I0000000J-000591D01*
G01*
X0223622Y0196506D01*
G75*
G02*
X0223031Y0195915I-000591J0000000D01*
G01*
G37*
G36*
G01*
X0226772Y0203297D02*
X0225591Y0203297D01*
G75*
G02*
X0225000Y0203888I0000000J0000591D01*
G01*
X0225000Y0208514D01*
G75*
G02*
X0225591Y0209104I0000591J0000000D01*
G01*
X0226772Y0209104D01*
G75*
G02*
X0227362Y0208514I0000000J-000591D01*
G01*
X0227362Y0203888D01*
G75*
G02*
X0226772Y0203297I-000591J0000000D01*
G01*
G37*
G36*
G01*
X0230512Y0195915D02*
X0229331Y0195915D01*
G75*
G02*
X0228740Y0196506I0000000J0000591D01*
G01*
X0228740Y0201132D01*
G75*
G02*
X0229331Y0201722I0000591J0000000D01*
G01*
X0230512Y0201722D01*
G75*
G02*
X0231102Y0201132I0000000J-000591D01*
G01*
X0231102Y0196506D01*
G75*
G02*
X0230512Y0195915I-000591J0000000D01*
G01*
G37*
X0086614Y0269311D03*
G36*
G01*
X0084154Y0267520D02*
X0089075Y0267520D01*
G75*
G02*
X0089469Y0267126I0000000J-000394D01*
G01*
X0089469Y0263976D01*
G75*
G02*
X0089075Y0263583I-000394J0000000D01*
G01*
X0084154Y0263583D01*
G75*
G02*
X0083760Y0263976I0000000J0000394D01*
G01*
X0083760Y0267126D01*
G75*
G02*
X0084154Y0267520I0000394J0000000D01*
G01*
G37*
G36*
G01*
X0084154Y0260039D02*
X0089075Y0260039D01*
G75*
G02*
X0089469Y0259646I0000000J-000394D01*
G01*
X0089469Y0256496D01*
G75*
G02*
X0089075Y0256102I-000394J0000000D01*
G01*
X0084154Y0256102D01*
G75*
G02*
X0083760Y0256496I0000000J0000394D01*
G01*
X0083760Y0259646D01*
G75*
G02*
X0084154Y0260039I0000394J0000000D01*
G01*
G37*
X0086614Y0254311D03*
X0208661Y0265551D03*
G36*
G01*
X0205118Y0260256D02*
X0205118Y0262972D01*
G75*
G02*
X0206024Y0263878I0000906J0000000D01*
G01*
X0211299Y0263878D01*
G75*
G02*
X0212205Y0262972I0000000J-000906D01*
G01*
X0212205Y0260256D01*
G75*
G02*
X0211299Y0259350I-000906J0000000D01*
G01*
X0206024Y0259350D01*
G75*
G02*
X0205118Y0260256I0000000J0000906D01*
G01*
G37*
G36*
G01*
X0205118Y0248839D02*
X0205118Y0251555D01*
G75*
G02*
X0206024Y0252461I0000906J0000000D01*
G01*
X0211299Y0252461D01*
G75*
G02*
X0212205Y0251555I0000000J-000906D01*
G01*
X0212205Y0248839D01*
G75*
G02*
X0211299Y0247933I-000906J0000000D01*
G01*
X0206024Y0247933D01*
G75*
G02*
X0205118Y0248839I0000000J0000906D01*
G01*
G37*
X0208661Y0246260D03*
G36*
G01*
X0300591Y0167756D02*
X0300591Y0170827D01*
G75*
G02*
X0300866Y0171102I0000276J0000000D01*
G01*
X0303071Y0171102D01*
G75*
G02*
X0303346Y0170827I0000000J-000276D01*
G01*
X0303346Y0167756D01*
G75*
G02*
X0303071Y0167480I-000276J0000000D01*
G01*
X0300866Y0167480D01*
G75*
G02*
X0300591Y0167756I0000000J0000276D01*
G01*
G37*
G36*
G01*
X0306890Y0167756D02*
X0306890Y0170827D01*
G75*
G02*
X0307165Y0171102I0000276J0000000D01*
G01*
X0309370Y0171102D01*
G75*
G02*
X0309646Y0170827I0000000J-000276D01*
G01*
X0309646Y0167756D01*
G75*
G02*
X0309370Y0167480I-000276J0000000D01*
G01*
X0307165Y0167480D01*
G75*
G02*
X0306890Y0167756I0000000J0000276D01*
G01*
G37*
G36*
G01*
X0276969Y0124449D02*
X0276969Y0127520D01*
G75*
G02*
X0277244Y0127795I0000276J0000000D01*
G01*
X0279449Y0127795D01*
G75*
G02*
X0279724Y0127520I0000000J-000276D01*
G01*
X0279724Y0124449D01*
G75*
G02*
X0279449Y0124173I-000276J0000000D01*
G01*
X0277244Y0124173D01*
G75*
G02*
X0276969Y0124449I0000000J0000276D01*
G01*
G37*
G36*
G01*
X0283268Y0124449D02*
X0283268Y0127520D01*
G75*
G02*
X0283543Y0127795I0000276J0000000D01*
G01*
X0285748Y0127795D01*
G75*
G02*
X0286024Y0127520I0000000J-000276D01*
G01*
X0286024Y0124449D01*
G75*
G02*
X0285748Y0124173I-000276J0000000D01*
G01*
X0283543Y0124173D01*
G75*
G02*
X0283268Y0124449I0000000J0000276D01*
G01*
G37*
X0111220Y0269311D03*
G36*
G01*
X0108760Y0267520D02*
X0113681Y0267520D01*
G75*
G02*
X0114075Y0267126I0000000J-000394D01*
G01*
X0114075Y0263976D01*
G75*
G02*
X0113681Y0263583I-000394J0000000D01*
G01*
X0108760Y0263583D01*
G75*
G02*
X0108366Y0263976I0000000J0000394D01*
G01*
X0108366Y0267126D01*
G75*
G02*
X0108760Y0267520I0000394J0000000D01*
G01*
G37*
G36*
G01*
X0108760Y0260039D02*
X0113681Y0260039D01*
G75*
G02*
X0114075Y0259646I0000000J-000394D01*
G01*
X0114075Y0256496D01*
G75*
G02*
X0113681Y0256102I-000394J0000000D01*
G01*
X0108760Y0256102D01*
G75*
G02*
X0108366Y0256496I0000000J0000394D01*
G01*
X0108366Y0259646D01*
G75*
G02*
X0108760Y0260039I0000394J0000000D01*
G01*
G37*
X0111220Y0254311D03*
G36*
G01*
X0030561Y0064567D02*
X0032431Y0064567D01*
G75*
G02*
X0033366Y0063632I0000000J-000935D01*
G01*
X0033366Y0061270D01*
G75*
G02*
X0032431Y0060335I-000935J0000000D01*
G01*
X0030561Y0060335D01*
G75*
G02*
X0029626Y0061270I0000000J0000935D01*
G01*
X0029626Y0063632D01*
G75*
G02*
X0030561Y0064567I0000935J0000000D01*
G01*
G37*
G36*
G01*
X0030561Y0057776D02*
X0032431Y0057776D01*
G75*
G02*
X0033366Y0056841I0000000J-000935D01*
G01*
X0033366Y0054478D01*
G75*
G02*
X0032431Y0053543I-000935J0000000D01*
G01*
X0030561Y0053543D01*
G75*
G02*
X0029626Y0054478I0000000J0000935D01*
G01*
X0029626Y0056841D01*
G75*
G02*
X0030561Y0057776I0000935J0000000D01*
G01*
G37*
X0269291Y0267520D03*
G36*
G01*
X0265748Y0262224D02*
X0265748Y0264941D01*
G75*
G02*
X0266654Y0265846I0000906J0000000D01*
G01*
X0271929Y0265846D01*
G75*
G02*
X0272835Y0264941I0000000J-000906D01*
G01*
X0272835Y0262224D01*
G75*
G02*
X0271929Y0261319I-000906J0000000D01*
G01*
X0266654Y0261319D01*
G75*
G02*
X0265748Y0262224I0000000J0000906D01*
G01*
G37*
G36*
G01*
X0265748Y0250807D02*
X0265748Y0253524D01*
G75*
G02*
X0266654Y0254429I0000906J0000000D01*
G01*
X0271929Y0254429D01*
G75*
G02*
X0272835Y0253524I0000000J-000906D01*
G01*
X0272835Y0250807D01*
G75*
G02*
X0271929Y0249902I-000906J0000000D01*
G01*
X0266654Y0249902D01*
G75*
G02*
X0265748Y0250807I0000000J0000906D01*
G01*
G37*
X0269291Y0248228D03*
D16*
X0275591Y0105906D03*
D17*
X0275591Y0109055D03*
X0275591Y0112205D03*
D16*
X0275591Y0115354D03*
X0268504Y0115354D03*
D17*
X0268504Y0112205D03*
X0268504Y0109055D03*
D16*
X0268504Y0105906D03*
G36*
G01*
X0281693Y0095492D02*
X0281693Y0096673D01*
G75*
G02*
X0282283Y0097264I0000591J0000000D01*
G01*
X0288780Y0097264D01*
G75*
G02*
X0289370Y0096673I0000000J-000591D01*
G01*
X0289370Y0095492D01*
G75*
G02*
X0288780Y0094902I-000591J0000000D01*
G01*
X0282283Y0094902D01*
G75*
G02*
X0281693Y0095492I0000000J0000591D01*
G01*
G37*
G36*
G01*
X0281693Y0090492D02*
X0281693Y0091673D01*
G75*
G02*
X0282283Y0092264I0000591J0000000D01*
G01*
X0288780Y0092264D01*
G75*
G02*
X0289370Y0091673I0000000J-000591D01*
G01*
X0289370Y0090492D01*
G75*
G02*
X0288780Y0089902I-000591J0000000D01*
G01*
X0282283Y0089902D01*
G75*
G02*
X0281693Y0090492I0000000J0000591D01*
G01*
G37*
G36*
G01*
X0281693Y0085492D02*
X0281693Y0086673D01*
G75*
G02*
X0282283Y0087264I0000591J0000000D01*
G01*
X0288780Y0087264D01*
G75*
G02*
X0289370Y0086673I0000000J-000591D01*
G01*
X0289370Y0085492D01*
G75*
G02*
X0288780Y0084902I-000591J0000000D01*
G01*
X0282283Y0084902D01*
G75*
G02*
X0281693Y0085492I0000000J0000591D01*
G01*
G37*
G36*
G01*
X0281693Y0080492D02*
X0281693Y0081673D01*
G75*
G02*
X0282283Y0082264I0000591J0000000D01*
G01*
X0288780Y0082264D01*
G75*
G02*
X0289370Y0081673I0000000J-000591D01*
G01*
X0289370Y0080492D01*
G75*
G02*
X0288780Y0079902I-000591J0000000D01*
G01*
X0282283Y0079902D01*
G75*
G02*
X0281693Y0080492I0000000J0000591D01*
G01*
G37*
G36*
G01*
X0301181Y0080492D02*
X0301181Y0081673D01*
G75*
G02*
X0301772Y0082264I0000591J0000000D01*
G01*
X0308268Y0082264D01*
G75*
G02*
X0308858Y0081673I0000000J-000591D01*
G01*
X0308858Y0080492D01*
G75*
G02*
X0308268Y0079902I-000591J0000000D01*
G01*
X0301772Y0079902D01*
G75*
G02*
X0301181Y0080492I0000000J0000591D01*
G01*
G37*
G36*
G01*
X0301181Y0085492D02*
X0301181Y0086673D01*
G75*
G02*
X0301772Y0087264I0000591J0000000D01*
G01*
X0308268Y0087264D01*
G75*
G02*
X0308858Y0086673I0000000J-000591D01*
G01*
X0308858Y0085492D01*
G75*
G02*
X0308268Y0084902I-000591J0000000D01*
G01*
X0301772Y0084902D01*
G75*
G02*
X0301181Y0085492I0000000J0000591D01*
G01*
G37*
G36*
G01*
X0301181Y0090492D02*
X0301181Y0091673D01*
G75*
G02*
X0301772Y0092264I0000591J0000000D01*
G01*
X0308268Y0092264D01*
G75*
G02*
X0308858Y0091673I0000000J-000591D01*
G01*
X0308858Y0090492D01*
G75*
G02*
X0308268Y0089902I-000591J0000000D01*
G01*
X0301772Y0089902D01*
G75*
G02*
X0301181Y0090492I0000000J0000591D01*
G01*
G37*
G36*
G01*
X0301181Y0095492D02*
X0301181Y0096673D01*
G75*
G02*
X0301772Y0097264I0000591J0000000D01*
G01*
X0308268Y0097264D01*
G75*
G02*
X0308858Y0096673I0000000J-000591D01*
G01*
X0308858Y0095492D01*
G75*
G02*
X0308268Y0094902I-000591J0000000D01*
G01*
X0301772Y0094902D01*
G75*
G02*
X0301181Y0095492I0000000J0000591D01*
G01*
G37*
G36*
G01*
X0301969Y0129232D02*
X0300787Y0129232D01*
G75*
G02*
X0300197Y0129823I0000000J0000591D01*
G01*
X0300197Y0134449D01*
G75*
G02*
X0300787Y0135039I0000591J0000000D01*
G01*
X0301969Y0135039D01*
G75*
G02*
X0302559Y0134449I0000000J-000591D01*
G01*
X0302559Y0129823D01*
G75*
G02*
X0301969Y0129232I-000591J0000000D01*
G01*
G37*
G36*
G01*
X0305709Y0136614D02*
X0304528Y0136614D01*
G75*
G02*
X0303937Y0137205I0000000J0000591D01*
G01*
X0303937Y0141831D01*
G75*
G02*
X0304528Y0142421I0000591J0000000D01*
G01*
X0305709Y0142421D01*
G75*
G02*
X0306299Y0141831I0000000J-000591D01*
G01*
X0306299Y0137205D01*
G75*
G02*
X0305709Y0136614I-000591J0000000D01*
G01*
G37*
G36*
G01*
X0309449Y0129232D02*
X0308268Y0129232D01*
G75*
G02*
X0307677Y0129823I0000000J0000591D01*
G01*
X0307677Y0134449D01*
G75*
G02*
X0308268Y0135039I0000591J0000000D01*
G01*
X0309449Y0135039D01*
G75*
G02*
X0310039Y0134449I0000000J-000591D01*
G01*
X0310039Y0129823D01*
G75*
G02*
X0309449Y0129232I-000591J0000000D01*
G01*
G37*
G36*
G01*
X0278346Y0172539D02*
X0277165Y0172539D01*
G75*
G02*
X0276575Y0173130I0000000J0000591D01*
G01*
X0276575Y0177756D01*
G75*
G02*
X0277165Y0178346I0000591J0000000D01*
G01*
X0278346Y0178346D01*
G75*
G02*
X0278937Y0177756I0000000J-000591D01*
G01*
X0278937Y0173130D01*
G75*
G02*
X0278346Y0172539I-000591J0000000D01*
G01*
G37*
G36*
G01*
X0282087Y0179921D02*
X0280906Y0179921D01*
G75*
G02*
X0280315Y0180512I0000000J0000591D01*
G01*
X0280315Y0185138D01*
G75*
G02*
X0280906Y0185728I0000591J0000000D01*
G01*
X0282087Y0185728D01*
G75*
G02*
X0282677Y0185138I0000000J-000591D01*
G01*
X0282677Y0180512D01*
G75*
G02*
X0282087Y0179921I-000591J0000000D01*
G01*
G37*
G36*
G01*
X0285827Y0172539D02*
X0284646Y0172539D01*
G75*
G02*
X0284055Y0173130I0000000J0000591D01*
G01*
X0284055Y0177756D01*
G75*
G02*
X0284646Y0178346I0000591J0000000D01*
G01*
X0285827Y0178346D01*
G75*
G02*
X0286417Y0177756I0000000J-000591D01*
G01*
X0286417Y0173130D01*
G75*
G02*
X0285827Y0172539I-000591J0000000D01*
G01*
G37*
G36*
G01*
X0301969Y0172539D02*
X0300787Y0172539D01*
G75*
G02*
X0300197Y0173130I0000000J0000591D01*
G01*
X0300197Y0177756D01*
G75*
G02*
X0300787Y0178346I0000591J0000000D01*
G01*
X0301969Y0178346D01*
G75*
G02*
X0302559Y0177756I0000000J-000591D01*
G01*
X0302559Y0173130D01*
G75*
G02*
X0301969Y0172539I-000591J0000000D01*
G01*
G37*
G36*
G01*
X0305709Y0179921D02*
X0304528Y0179921D01*
G75*
G02*
X0303937Y0180512I0000000J0000591D01*
G01*
X0303937Y0185138D01*
G75*
G02*
X0304528Y0185728I0000591J0000000D01*
G01*
X0305709Y0185728D01*
G75*
G02*
X0306299Y0185138I0000000J-000591D01*
G01*
X0306299Y0180512D01*
G75*
G02*
X0305709Y0179921I-000591J0000000D01*
G01*
G37*
G36*
G01*
X0309449Y0172539D02*
X0308268Y0172539D01*
G75*
G02*
X0307677Y0173130I0000000J0000591D01*
G01*
X0307677Y0177756D01*
G75*
G02*
X0308268Y0178346I0000591J0000000D01*
G01*
X0309449Y0178346D01*
G75*
G02*
X0310039Y0177756I0000000J-000591D01*
G01*
X0310039Y0173130D01*
G75*
G02*
X0309449Y0172539I-000591J0000000D01*
G01*
G37*
G36*
G01*
X0028976Y0237067D02*
X0031654Y0237067D01*
G75*
G02*
X0031988Y0236732I0000000J-000335D01*
G01*
X0031988Y0234055D01*
G75*
G02*
X0031654Y0233720I-000335J0000000D01*
G01*
X0028976Y0233720D01*
G75*
G02*
X0028642Y0234055I0000000J0000335D01*
G01*
X0028642Y0236732D01*
G75*
G02*
X0028976Y0237067I0000335J0000000D01*
G01*
G37*
G36*
G01*
X0028976Y0230846D02*
X0031654Y0230846D01*
G75*
G02*
X0031988Y0230512I0000000J-000335D01*
G01*
X0031988Y0227835D01*
G75*
G02*
X0031654Y0227500I-000335J0000000D01*
G01*
X0028976Y0227500D01*
G75*
G02*
X0028642Y0227835I0000000J0000335D01*
G01*
X0028642Y0230512D01*
G75*
G02*
X0028976Y0230846I0000335J0000000D01*
G01*
G37*
G36*
G01*
X0248071Y0162992D02*
X0244055Y0162992D01*
G75*
G02*
X0243701Y0163346I0000000J0000354D01*
G01*
X0243701Y0166181D01*
G75*
G02*
X0244055Y0166535I0000354J0000000D01*
G01*
X0248071Y0166535D01*
G75*
G02*
X0248425Y0166181I0000000J-000354D01*
G01*
X0248425Y0163346D01*
G75*
G02*
X0248071Y0162992I-000354J0000000D01*
G01*
G37*
G36*
G01*
X0248071Y0175984D02*
X0244055Y0175984D01*
G75*
G02*
X0243701Y0176339I0000000J0000354D01*
G01*
X0243701Y0179173D01*
G75*
G02*
X0244055Y0179528I0000354J0000000D01*
G01*
X0248071Y0179528D01*
G75*
G02*
X0248425Y0179173I0000000J-000354D01*
G01*
X0248425Y0176339D01*
G75*
G02*
X0248071Y0175984I-000354J0000000D01*
G01*
G37*
G36*
G01*
X0072047Y0114449D02*
X0072047Y0111693D01*
G75*
G02*
X0071063Y0110709I-000984J0000000D01*
G01*
X0064370Y0110709D01*
G75*
G02*
X0063386Y0111693I0000000J0000984D01*
G01*
X0063386Y0114449D01*
G75*
G02*
X0064370Y0115433I0000984J0000000D01*
G01*
X0071063Y0115433D01*
G75*
G02*
X0072047Y0114449I0000000J-000984D01*
G01*
G37*
G36*
G01*
X0055512Y0132480D02*
X0055512Y0111614D01*
G75*
G02*
X0054528Y0110630I-000984J0000000D01*
G01*
X0031299Y0110630D01*
G75*
G02*
X0030315Y0111614I0000000J0000984D01*
G01*
X0030315Y0132480D01*
G75*
G02*
X0031299Y0133465I0000984J0000000D01*
G01*
X0054528Y0133465D01*
G75*
G02*
X0055512Y0132480I0000000J-000984D01*
G01*
G37*
G36*
G01*
X0072047Y0132402D02*
X0072047Y0129646D01*
G75*
G02*
X0071063Y0128661I-000984J0000000D01*
G01*
X0064370Y0128661D01*
G75*
G02*
X0063386Y0129646I0000000J0000984D01*
G01*
X0063386Y0132402D01*
G75*
G02*
X0064370Y0133386I0000984J0000000D01*
G01*
X0071063Y0133386D01*
G75*
G02*
X0072047Y0132402I0000000J-000984D01*
G01*
G37*
G36*
G01*
X0073770Y0065010D02*
X0071900Y0065010D01*
G75*
G02*
X0070965Y0065945I0000000J0000935D01*
G01*
X0070965Y0067913D01*
G75*
G02*
X0071900Y0068848I0000935J0000000D01*
G01*
X0073770Y0068848D01*
G75*
G02*
X0074705Y0067913I0000000J-000935D01*
G01*
X0074705Y0065945D01*
G75*
G02*
X0073770Y0065010I-000935J0000000D01*
G01*
G37*
G36*
G01*
X0073770Y0072195D02*
X0071900Y0072195D01*
G75*
G02*
X0070965Y0073130I0000000J0000935D01*
G01*
X0070965Y0075098D01*
G75*
G02*
X0071900Y0076033I0000935J0000000D01*
G01*
X0073770Y0076033D01*
G75*
G02*
X0074705Y0075098I0000000J-000935D01*
G01*
X0074705Y0073130D01*
G75*
G02*
X0073770Y0072195I-000935J0000000D01*
G01*
G37*
G36*
G01*
X0276969Y0167756D02*
X0276969Y0170827D01*
G75*
G02*
X0277244Y0171102I0000276J0000000D01*
G01*
X0279449Y0171102D01*
G75*
G02*
X0279724Y0170827I0000000J-000276D01*
G01*
X0279724Y0167756D01*
G75*
G02*
X0279449Y0167480I-000276J0000000D01*
G01*
X0277244Y0167480D01*
G75*
G02*
X0276969Y0167756I0000000J0000276D01*
G01*
G37*
G36*
G01*
X0283268Y0167756D02*
X0283268Y0170827D01*
G75*
G02*
X0283543Y0171102I0000276J0000000D01*
G01*
X0285748Y0171102D01*
G75*
G02*
X0286024Y0170827I0000000J-000276D01*
G01*
X0286024Y0167756D01*
G75*
G02*
X0285748Y0167480I-000276J0000000D01*
G01*
X0283543Y0167480D01*
G75*
G02*
X0283268Y0167756I0000000J0000276D01*
G01*
G37*
G36*
G01*
X0221654Y0191132D02*
X0221654Y0194203D01*
G75*
G02*
X0221929Y0194478I0000276J0000000D01*
G01*
X0224134Y0194478D01*
G75*
G02*
X0224409Y0194203I0000000J-000276D01*
G01*
X0224409Y0191132D01*
G75*
G02*
X0224134Y0190856I-000276J0000000D01*
G01*
X0221929Y0190856D01*
G75*
G02*
X0221654Y0191132I0000000J0000276D01*
G01*
G37*
G36*
G01*
X0227953Y0191132D02*
X0227953Y0194203D01*
G75*
G02*
X0228228Y0194478I0000276J0000000D01*
G01*
X0230433Y0194478D01*
G75*
G02*
X0230709Y0194203I0000000J-000276D01*
G01*
X0230709Y0191132D01*
G75*
G02*
X0230433Y0190856I-000276J0000000D01*
G01*
X0228228Y0190856D01*
G75*
G02*
X0227953Y0191132I0000000J0000276D01*
G01*
G37*
X0254331Y0115354D03*
D17*
X0254331Y0112205D03*
X0254331Y0109055D03*
D16*
X0254331Y0105906D03*
X0261417Y0105906D03*
D17*
X0261417Y0109055D03*
X0261417Y0112205D03*
D16*
X0261417Y0115354D03*
G36*
G01*
X0278346Y0129232D02*
X0277165Y0129232D01*
G75*
G02*
X0276575Y0129823I0000000J0000591D01*
G01*
X0276575Y0134449D01*
G75*
G02*
X0277165Y0135039I0000591J0000000D01*
G01*
X0278346Y0135039D01*
G75*
G02*
X0278937Y0134449I0000000J-000591D01*
G01*
X0278937Y0129823D01*
G75*
G02*
X0278346Y0129232I-000591J0000000D01*
G01*
G37*
G36*
G01*
X0282087Y0136614D02*
X0280906Y0136614D01*
G75*
G02*
X0280315Y0137205I0000000J0000591D01*
G01*
X0280315Y0141831D01*
G75*
G02*
X0280906Y0142421I0000591J0000000D01*
G01*
X0282087Y0142421D01*
G75*
G02*
X0282677Y0141831I0000000J-000591D01*
G01*
X0282677Y0137205D01*
G75*
G02*
X0282087Y0136614I-000591J0000000D01*
G01*
G37*
G36*
G01*
X0285827Y0129232D02*
X0284646Y0129232D01*
G75*
G02*
X0284055Y0129823I0000000J0000591D01*
G01*
X0284055Y0134449D01*
G75*
G02*
X0284646Y0135039I0000591J0000000D01*
G01*
X0285827Y0135039D01*
G75*
G02*
X0286417Y0134449I0000000J-000591D01*
G01*
X0286417Y0129823D01*
G75*
G02*
X0285827Y0129232I-000591J0000000D01*
G01*
G37*
D14*
X0198819Y0265551D03*
G36*
G01*
X0195276Y0260256D02*
X0195276Y0262972D01*
G75*
G02*
X0196181Y0263878I0000906J0000000D01*
G01*
X0201457Y0263878D01*
G75*
G02*
X0202362Y0262972I0000000J-000906D01*
G01*
X0202362Y0260256D01*
G75*
G02*
X0201457Y0259350I-000906J0000000D01*
G01*
X0196181Y0259350D01*
G75*
G02*
X0195276Y0260256I0000000J0000906D01*
G01*
G37*
G36*
G01*
X0195276Y0248839D02*
X0195276Y0251555D01*
G75*
G02*
X0196181Y0252461I0000906J0000000D01*
G01*
X0201457Y0252461D01*
G75*
G02*
X0202362Y0251555I0000000J-000906D01*
G01*
X0202362Y0248839D01*
G75*
G02*
X0201457Y0247933I-000906J0000000D01*
G01*
X0196181Y0247933D01*
G75*
G02*
X0195276Y0248839I0000000J0000906D01*
G01*
G37*
X0198819Y0246260D03*
G36*
G01*
X0251378Y0161850D02*
X0251378Y0164921D01*
G75*
G02*
X0251654Y0165197I0000276J0000000D01*
G01*
X0253858Y0165197D01*
G75*
G02*
X0254134Y0164921I0000000J-000276D01*
G01*
X0254134Y0161850D01*
G75*
G02*
X0253858Y0161575I-000276J0000000D01*
G01*
X0251654Y0161575D01*
G75*
G02*
X0251378Y0161850I0000000J0000276D01*
G01*
G37*
G36*
G01*
X0257677Y0161850D02*
X0257677Y0164921D01*
G75*
G02*
X0257953Y0165197I0000276J0000000D01*
G01*
X0260157Y0165197D01*
G75*
G02*
X0260433Y0164921I0000000J-000276D01*
G01*
X0260433Y0161850D01*
G75*
G02*
X0260157Y0161575I-000276J0000000D01*
G01*
X0257953Y0161575D01*
G75*
G02*
X0257677Y0161850I0000000J0000276D01*
G01*
G37*
X0251969Y0265374D03*
G36*
G01*
X0249508Y0263583D02*
X0254429Y0263583D01*
G75*
G02*
X0254823Y0263189I0000000J-000394D01*
G01*
X0254823Y0260039D01*
G75*
G02*
X0254429Y0259646I-000394J0000000D01*
G01*
X0249508Y0259646D01*
G75*
G02*
X0249114Y0260039I0000000J0000394D01*
G01*
X0249114Y0263189D01*
G75*
G02*
X0249508Y0263583I0000394J0000000D01*
G01*
G37*
G36*
G01*
X0249508Y0256102D02*
X0254429Y0256102D01*
G75*
G02*
X0254823Y0255709I0000000J-000394D01*
G01*
X0254823Y0252559D01*
G75*
G02*
X0254429Y0252165I-000394J0000000D01*
G01*
X0249508Y0252165D01*
G75*
G02*
X0249114Y0252559I0000000J0000394D01*
G01*
X0249114Y0255709D01*
G75*
G02*
X0249508Y0256102I0000394J0000000D01*
G01*
G37*
X0251969Y0250374D03*
D15*
X0261654Y0031024D03*
X0261654Y0041024D03*
X0261654Y0051024D03*
X0261654Y0061024D03*
X0261654Y0071024D03*
X0271654Y0031024D03*
X0271654Y0041024D03*
X0271654Y0051024D03*
X0271654Y0061024D03*
X0271654Y0071024D03*
X0281654Y0031024D03*
X0281654Y0041024D03*
X0281654Y0051024D03*
X0281654Y0061024D03*
X0281654Y0071024D03*
G36*
G01*
X0295315Y0125591D02*
X0291299Y0125591D01*
G75*
G02*
X0290945Y0125945I0000000J0000354D01*
G01*
X0290945Y0128780D01*
G75*
G02*
X0291299Y0129134I0000354J0000000D01*
G01*
X0295315Y0129134D01*
G75*
G02*
X0295669Y0128780I0000000J-000354D01*
G01*
X0295669Y0125945D01*
G75*
G02*
X0295315Y0125591I-000354J0000000D01*
G01*
G37*
G36*
G01*
X0295315Y0138583D02*
X0291299Y0138583D01*
G75*
G02*
X0290945Y0138937I0000000J0000354D01*
G01*
X0290945Y0141772D01*
G75*
G02*
X0291299Y0142126I0000354J0000000D01*
G01*
X0295315Y0142126D01*
G75*
G02*
X0295669Y0141772I0000000J-000354D01*
G01*
X0295669Y0138937D01*
G75*
G02*
X0295315Y0138583I-000354J0000000D01*
G01*
G37*
G36*
G01*
X0037008Y0069587D02*
X0037008Y0070374D01*
G75*
G02*
X0037402Y0070768I0000394J0000000D01*
G01*
X0042421Y0070768D01*
G75*
G02*
X0042815Y0070374I0000000J-000394D01*
G01*
X0042815Y0069587D01*
G75*
G02*
X0042421Y0069193I-000394J0000000D01*
G01*
X0037402Y0069193D01*
G75*
G02*
X0037008Y0069587I0000000J0000394D01*
G01*
G37*
G36*
G01*
X0037008Y0067028D02*
X0037008Y0067815D01*
G75*
G02*
X0037402Y0068209I0000394J0000000D01*
G01*
X0042421Y0068209D01*
G75*
G02*
X0042815Y0067815I0000000J-000394D01*
G01*
X0042815Y0067028D01*
G75*
G02*
X0042421Y0066634I-000394J0000000D01*
G01*
X0037402Y0066634D01*
G75*
G02*
X0037008Y0067028I0000000J0000394D01*
G01*
G37*
G36*
G01*
X0037008Y0064469D02*
X0037008Y0065256D01*
G75*
G02*
X0037402Y0065650I0000394J0000000D01*
G01*
X0042421Y0065650D01*
G75*
G02*
X0042815Y0065256I0000000J-000394D01*
G01*
X0042815Y0064469D01*
G75*
G02*
X0042421Y0064075I-000394J0000000D01*
G01*
X0037402Y0064075D01*
G75*
G02*
X0037008Y0064469I0000000J0000394D01*
G01*
G37*
G36*
G01*
X0037008Y0061909D02*
X0037008Y0062697D01*
G75*
G02*
X0037402Y0063091I0000394J0000000D01*
G01*
X0042421Y0063091D01*
G75*
G02*
X0042815Y0062697I0000000J-000394D01*
G01*
X0042815Y0061909D01*
G75*
G02*
X0042421Y0061516I-000394J0000000D01*
G01*
X0037402Y0061516D01*
G75*
G02*
X0037008Y0061909I0000000J0000394D01*
G01*
G37*
G36*
G01*
X0037008Y0059350D02*
X0037008Y0060138D01*
G75*
G02*
X0037402Y0060531I0000394J0000000D01*
G01*
X0042421Y0060531D01*
G75*
G02*
X0042815Y0060138I0000000J-000394D01*
G01*
X0042815Y0059350D01*
G75*
G02*
X0042421Y0058957I-000394J0000000D01*
G01*
X0037402Y0058957D01*
G75*
G02*
X0037008Y0059350I0000000J0000394D01*
G01*
G37*
G36*
G01*
X0037008Y0056791D02*
X0037008Y0057579D01*
G75*
G02*
X0037402Y0057972I0000394J0000000D01*
G01*
X0042421Y0057972D01*
G75*
G02*
X0042815Y0057579I0000000J-000394D01*
G01*
X0042815Y0056791D01*
G75*
G02*
X0042421Y0056398I-000394J0000000D01*
G01*
X0037402Y0056398D01*
G75*
G02*
X0037008Y0056791I0000000J0000394D01*
G01*
G37*
G36*
G01*
X0037008Y0054232D02*
X0037008Y0055020D01*
G75*
G02*
X0037402Y0055413I0000394J0000000D01*
G01*
X0042421Y0055413D01*
G75*
G02*
X0042815Y0055020I0000000J-000394D01*
G01*
X0042815Y0054232D01*
G75*
G02*
X0042421Y0053839I-000394J0000000D01*
G01*
X0037402Y0053839D01*
G75*
G02*
X0037008Y0054232I0000000J0000394D01*
G01*
G37*
G36*
G01*
X0037008Y0051673D02*
X0037008Y0052461D01*
G75*
G02*
X0037402Y0052854I0000394J0000000D01*
G01*
X0042421Y0052854D01*
G75*
G02*
X0042815Y0052461I0000000J-000394D01*
G01*
X0042815Y0051673D01*
G75*
G02*
X0042421Y0051280I-000394J0000000D01*
G01*
X0037402Y0051280D01*
G75*
G02*
X0037008Y0051673I0000000J0000394D01*
G01*
G37*
G36*
G01*
X0059547Y0051673D02*
X0059547Y0052461D01*
G75*
G02*
X0059941Y0052854I0000394J0000000D01*
G01*
X0064961Y0052854D01*
G75*
G02*
X0065354Y0052461I0000000J-000394D01*
G01*
X0065354Y0051673D01*
G75*
G02*
X0064961Y0051280I-000394J0000000D01*
G01*
X0059941Y0051280D01*
G75*
G02*
X0059547Y0051673I0000000J0000394D01*
G01*
G37*
G36*
G01*
X0059547Y0054232D02*
X0059547Y0055020D01*
G75*
G02*
X0059941Y0055413I0000394J0000000D01*
G01*
X0064961Y0055413D01*
G75*
G02*
X0065354Y0055020I0000000J-000394D01*
G01*
X0065354Y0054232D01*
G75*
G02*
X0064961Y0053839I-000394J0000000D01*
G01*
X0059941Y0053839D01*
G75*
G02*
X0059547Y0054232I0000000J0000394D01*
G01*
G37*
G36*
G01*
X0059547Y0056791D02*
X0059547Y0057579D01*
G75*
G02*
X0059941Y0057972I0000394J0000000D01*
G01*
X0064961Y0057972D01*
G75*
G02*
X0065354Y0057579I0000000J-000394D01*
G01*
X0065354Y0056791D01*
G75*
G02*
X0064961Y0056398I-000394J0000000D01*
G01*
X0059941Y0056398D01*
G75*
G02*
X0059547Y0056791I0000000J0000394D01*
G01*
G37*
G36*
G01*
X0059547Y0059350D02*
X0059547Y0060138D01*
G75*
G02*
X0059941Y0060531I0000394J0000000D01*
G01*
X0064961Y0060531D01*
G75*
G02*
X0065354Y0060138I0000000J-000394D01*
G01*
X0065354Y0059350D01*
G75*
G02*
X0064961Y0058957I-000394J0000000D01*
G01*
X0059941Y0058957D01*
G75*
G02*
X0059547Y0059350I0000000J0000394D01*
G01*
G37*
G36*
G01*
X0059547Y0061909D02*
X0059547Y0062697D01*
G75*
G02*
X0059941Y0063091I0000394J0000000D01*
G01*
X0064961Y0063091D01*
G75*
G02*
X0065354Y0062697I0000000J-000394D01*
G01*
X0065354Y0061909D01*
G75*
G02*
X0064961Y0061516I-000394J0000000D01*
G01*
X0059941Y0061516D01*
G75*
G02*
X0059547Y0061909I0000000J0000394D01*
G01*
G37*
G36*
G01*
X0059547Y0064469D02*
X0059547Y0065256D01*
G75*
G02*
X0059941Y0065650I0000394J0000000D01*
G01*
X0064961Y0065650D01*
G75*
G02*
X0065354Y0065256I0000000J-000394D01*
G01*
X0065354Y0064469D01*
G75*
G02*
X0064961Y0064075I-000394J0000000D01*
G01*
X0059941Y0064075D01*
G75*
G02*
X0059547Y0064469I0000000J0000394D01*
G01*
G37*
G36*
G01*
X0059547Y0067028D02*
X0059547Y0067815D01*
G75*
G02*
X0059941Y0068209I0000394J0000000D01*
G01*
X0064961Y0068209D01*
G75*
G02*
X0065354Y0067815I0000000J-000394D01*
G01*
X0065354Y0067028D01*
G75*
G02*
X0064961Y0066634I-000394J0000000D01*
G01*
X0059941Y0066634D01*
G75*
G02*
X0059547Y0067028I0000000J0000394D01*
G01*
G37*
G36*
G01*
X0059547Y0069587D02*
X0059547Y0070374D01*
G75*
G02*
X0059941Y0070768I0000394J0000000D01*
G01*
X0064961Y0070768D01*
G75*
G02*
X0065354Y0070374I0000000J-000394D01*
G01*
X0065354Y0069587D01*
G75*
G02*
X0064961Y0069193I-000394J0000000D01*
G01*
X0059941Y0069193D01*
G75*
G02*
X0059547Y0069587I0000000J0000394D01*
G01*
G37*
G36*
G01*
X0276969Y0146102D02*
X0276969Y0149173D01*
G75*
G02*
X0277244Y0149449I0000276J0000000D01*
G01*
X0279449Y0149449D01*
G75*
G02*
X0279724Y0149173I0000000J-000276D01*
G01*
X0279724Y0146102D01*
G75*
G02*
X0279449Y0145827I-000276J0000000D01*
G01*
X0277244Y0145827D01*
G75*
G02*
X0276969Y0146102I0000000J0000276D01*
G01*
G37*
G36*
G01*
X0283268Y0146102D02*
X0283268Y0149173D01*
G75*
G02*
X0283543Y0149449I0000276J0000000D01*
G01*
X0285748Y0149449D01*
G75*
G02*
X0286024Y0149173I0000000J-000276D01*
G01*
X0286024Y0146102D01*
G75*
G02*
X0285748Y0145827I-000276J0000000D01*
G01*
X0283543Y0145827D01*
G75*
G02*
X0283268Y0146102I0000000J0000276D01*
G01*
G37*
G36*
G01*
X0041535Y0261811D02*
X0045669Y0261811D01*
G75*
G02*
X0046063Y0261417I0000000J-000394D01*
G01*
X0046063Y0258268D01*
G75*
G02*
X0045669Y0257874I-000394J0000000D01*
G01*
X0041535Y0257874D01*
G75*
G02*
X0041142Y0258268I0000000J0000394D01*
G01*
X0041142Y0261417D01*
G75*
G02*
X0041535Y0261811I0000394J0000000D01*
G01*
G37*
G36*
G01*
X0041535Y0253937D02*
X0045669Y0253937D01*
G75*
G02*
X0046063Y0253543I0000000J-000394D01*
G01*
X0046063Y0250394D01*
G75*
G02*
X0045669Y0250000I-000394J0000000D01*
G01*
X0041535Y0250000D01*
G75*
G02*
X0041142Y0250394I0000000J0000394D01*
G01*
X0041142Y0253543D01*
G75*
G02*
X0041535Y0253937I0000394J0000000D01*
G01*
G37*
D14*
X0147638Y0269311D03*
G36*
G01*
X0145177Y0267520D02*
X0150098Y0267520D01*
G75*
G02*
X0150492Y0267126I0000000J-000394D01*
G01*
X0150492Y0263976D01*
G75*
G02*
X0150098Y0263583I-000394J0000000D01*
G01*
X0145177Y0263583D01*
G75*
G02*
X0144783Y0263976I0000000J0000394D01*
G01*
X0144783Y0267126D01*
G75*
G02*
X0145177Y0267520I0000394J0000000D01*
G01*
G37*
G36*
G01*
X0145177Y0260039D02*
X0150098Y0260039D01*
G75*
G02*
X0150492Y0259646I0000000J-000394D01*
G01*
X0150492Y0256496D01*
G75*
G02*
X0150098Y0256102I-000394J0000000D01*
G01*
X0145177Y0256102D01*
G75*
G02*
X0144783Y0256496I0000000J0000394D01*
G01*
X0144783Y0259646D01*
G75*
G02*
X0145177Y0260039I0000394J0000000D01*
G01*
G37*
X0147638Y0254311D03*
X0303150Y0265374D03*
G36*
G01*
X0300689Y0263583D02*
X0305610Y0263583D01*
G75*
G02*
X0306004Y0263189I0000000J-000394D01*
G01*
X0306004Y0260039D01*
G75*
G02*
X0305610Y0259646I-000394J0000000D01*
G01*
X0300689Y0259646D01*
G75*
G02*
X0300295Y0260039I0000000J0000394D01*
G01*
X0300295Y0263189D01*
G75*
G02*
X0300689Y0263583I0000394J0000000D01*
G01*
G37*
G36*
G01*
X0300689Y0256102D02*
X0305610Y0256102D01*
G75*
G02*
X0306004Y0255709I0000000J-000394D01*
G01*
X0306004Y0252559D01*
G75*
G02*
X0305610Y0252165I-000394J0000000D01*
G01*
X0300689Y0252165D01*
G75*
G02*
X0300295Y0252559I0000000J0000394D01*
G01*
X0300295Y0255709D01*
G75*
G02*
X0300689Y0256102I0000394J0000000D01*
G01*
G37*
X0303150Y0250374D03*
D18*
X0081693Y0145276D03*
D19*
X0088583Y0142126D03*
X0081693Y0138976D03*
X0088583Y0135827D03*
X0081693Y0132677D03*
D20*
X0085138Y0153346D03*
X0085138Y0124606D03*
D21*
X0094587Y0233957D03*
X0094587Y0237697D03*
X0094587Y0241437D03*
X0128839Y0237500D03*
X0128839Y0233957D03*
G36*
G01*
X0281693Y0118189D02*
X0281693Y0119370D01*
G75*
G02*
X0282283Y0119961I0000591J0000000D01*
G01*
X0288780Y0119961D01*
G75*
G02*
X0289370Y0119370I0000000J-000591D01*
G01*
X0289370Y0118189D01*
G75*
G02*
X0288780Y0117598I-000591J0000000D01*
G01*
X0282283Y0117598D01*
G75*
G02*
X0281693Y0118189I0000000J0000591D01*
G01*
G37*
G36*
G01*
X0281693Y0113189D02*
X0281693Y0114370D01*
G75*
G02*
X0282283Y0114961I0000591J0000000D01*
G01*
X0288780Y0114961D01*
G75*
G02*
X0289370Y0114370I0000000J-000591D01*
G01*
X0289370Y0113189D01*
G75*
G02*
X0288780Y0112598I-000591J0000000D01*
G01*
X0282283Y0112598D01*
G75*
G02*
X0281693Y0113189I0000000J0000591D01*
G01*
G37*
G36*
G01*
X0281693Y0108189D02*
X0281693Y0109370D01*
G75*
G02*
X0282283Y0109961I0000591J0000000D01*
G01*
X0288780Y0109961D01*
G75*
G02*
X0289370Y0109370I0000000J-000591D01*
G01*
X0289370Y0108189D01*
G75*
G02*
X0288780Y0107598I-000591J0000000D01*
G01*
X0282283Y0107598D01*
G75*
G02*
X0281693Y0108189I0000000J0000591D01*
G01*
G37*
G36*
G01*
X0281693Y0103189D02*
X0281693Y0104370D01*
G75*
G02*
X0282283Y0104961I0000591J0000000D01*
G01*
X0288780Y0104961D01*
G75*
G02*
X0289370Y0104370I0000000J-000591D01*
G01*
X0289370Y0103189D01*
G75*
G02*
X0288780Y0102598I-000591J0000000D01*
G01*
X0282283Y0102598D01*
G75*
G02*
X0281693Y0103189I0000000J0000591D01*
G01*
G37*
G36*
G01*
X0301181Y0103189D02*
X0301181Y0104370D01*
G75*
G02*
X0301772Y0104961I0000591J0000000D01*
G01*
X0308268Y0104961D01*
G75*
G02*
X0308858Y0104370I0000000J-000591D01*
G01*
X0308858Y0103189D01*
G75*
G02*
X0308268Y0102598I-000591J0000000D01*
G01*
X0301772Y0102598D01*
G75*
G02*
X0301181Y0103189I0000000J0000591D01*
G01*
G37*
G36*
G01*
X0301181Y0108189D02*
X0301181Y0109370D01*
G75*
G02*
X0301772Y0109961I0000591J0000000D01*
G01*
X0308268Y0109961D01*
G75*
G02*
X0308858Y0109370I0000000J-000591D01*
G01*
X0308858Y0108189D01*
G75*
G02*
X0308268Y0107598I-000591J0000000D01*
G01*
X0301772Y0107598D01*
G75*
G02*
X0301181Y0108189I0000000J0000591D01*
G01*
G37*
G36*
G01*
X0301181Y0113189D02*
X0301181Y0114370D01*
G75*
G02*
X0301772Y0114961I0000591J0000000D01*
G01*
X0308268Y0114961D01*
G75*
G02*
X0308858Y0114370I0000000J-000591D01*
G01*
X0308858Y0113189D01*
G75*
G02*
X0308268Y0112598I-000591J0000000D01*
G01*
X0301772Y0112598D01*
G75*
G02*
X0301181Y0113189I0000000J0000591D01*
G01*
G37*
G36*
G01*
X0301181Y0118189D02*
X0301181Y0119370D01*
G75*
G02*
X0301772Y0119961I0000591J0000000D01*
G01*
X0308268Y0119961D01*
G75*
G02*
X0308858Y0119370I0000000J-000591D01*
G01*
X0308858Y0118189D01*
G75*
G02*
X0308268Y0117598I-000591J0000000D01*
G01*
X0301772Y0117598D01*
G75*
G02*
X0301181Y0118189I0000000J0000591D01*
G01*
G37*
G36*
G01*
X0055512Y0198819D02*
X0051378Y0198819D01*
G75*
G02*
X0050984Y0199213I0000000J0000394D01*
G01*
X0050984Y0202362D01*
G75*
G02*
X0051378Y0202756I0000394J0000000D01*
G01*
X0055512Y0202756D01*
G75*
G02*
X0055906Y0202362I0000000J-000394D01*
G01*
X0055906Y0199213D01*
G75*
G02*
X0055512Y0198819I-000394J0000000D01*
G01*
G37*
G36*
G01*
X0055512Y0206693D02*
X0051378Y0206693D01*
G75*
G02*
X0050984Y0207087I0000000J0000394D01*
G01*
X0050984Y0210236D01*
G75*
G02*
X0051378Y0210630I0000394J0000000D01*
G01*
X0055512Y0210630D01*
G75*
G02*
X0055906Y0210236I0000000J-000394D01*
G01*
X0055906Y0207087D01*
G75*
G02*
X0055512Y0206693I-000394J0000000D01*
G01*
G37*
G36*
G01*
X0228150Y0183750D02*
X0228150Y0186821D01*
G75*
G02*
X0228425Y0187096I0000276J0000000D01*
G01*
X0230630Y0187096D01*
G75*
G02*
X0230906Y0186821I0000000J-000276D01*
G01*
X0230906Y0183750D01*
G75*
G02*
X0230630Y0183474I-000276J0000000D01*
G01*
X0228425Y0183474D01*
G75*
G02*
X0228150Y0183750I0000000J0000276D01*
G01*
G37*
G36*
G01*
X0234449Y0183750D02*
X0234449Y0186821D01*
G75*
G02*
X0234724Y0187096I0000276J0000000D01*
G01*
X0236929Y0187096D01*
G75*
G02*
X0237205Y0186821I0000000J-000276D01*
G01*
X0237205Y0183750D01*
G75*
G02*
X0236929Y0183474I-000276J0000000D01*
G01*
X0234724Y0183474D01*
G75*
G02*
X0234449Y0183750I0000000J0000276D01*
G01*
G37*
D14*
X0281102Y0265374D03*
G36*
G01*
X0278642Y0263583D02*
X0283563Y0263583D01*
G75*
G02*
X0283957Y0263189I0000000J-000394D01*
G01*
X0283957Y0260039D01*
G75*
G02*
X0283563Y0259646I-000394J0000000D01*
G01*
X0278642Y0259646D01*
G75*
G02*
X0278248Y0260039I0000000J0000394D01*
G01*
X0278248Y0263189D01*
G75*
G02*
X0278642Y0263583I0000394J0000000D01*
G01*
G37*
G36*
G01*
X0278642Y0256102D02*
X0283563Y0256102D01*
G75*
G02*
X0283957Y0255709I0000000J-000394D01*
G01*
X0283957Y0252559D01*
G75*
G02*
X0283563Y0252165I-000394J0000000D01*
G01*
X0278642Y0252165D01*
G75*
G02*
X0278248Y0252559I0000000J0000394D01*
G01*
X0278248Y0255709D01*
G75*
G02*
X0278642Y0256102I0000394J0000000D01*
G01*
G37*
X0281102Y0250374D03*
G36*
G01*
X0237008Y0195965D02*
X0235827Y0195965D01*
G75*
G02*
X0235236Y0196555I0000000J0000591D01*
G01*
X0235236Y0201181D01*
G75*
G02*
X0235827Y0201772I0000591J0000000D01*
G01*
X0237008Y0201772D01*
G75*
G02*
X0237598Y0201181I0000000J-000591D01*
G01*
X0237598Y0196555D01*
G75*
G02*
X0237008Y0195965I-000591J0000000D01*
G01*
G37*
G36*
G01*
X0240748Y0203346D02*
X0239567Y0203346D01*
G75*
G02*
X0238976Y0203937I0000000J0000591D01*
G01*
X0238976Y0208563D01*
G75*
G02*
X0239567Y0209154I0000591J0000000D01*
G01*
X0240748Y0209154D01*
G75*
G02*
X0241339Y0208563I0000000J-000591D01*
G01*
X0241339Y0203937D01*
G75*
G02*
X0240748Y0203346I-000591J0000000D01*
G01*
G37*
G36*
G01*
X0244488Y0195965D02*
X0243307Y0195965D01*
G75*
G02*
X0242717Y0196555I0000000J0000591D01*
G01*
X0242717Y0201181D01*
G75*
G02*
X0243307Y0201772I0000591J0000000D01*
G01*
X0244488Y0201772D01*
G75*
G02*
X0245079Y0201181I0000000J-000591D01*
G01*
X0245079Y0196555D01*
G75*
G02*
X0244488Y0195965I-000591J0000000D01*
G01*
G37*
X0288583Y0265374D03*
G36*
G01*
X0286122Y0263583D02*
X0291043Y0263583D01*
G75*
G02*
X0291437Y0263189I0000000J-000394D01*
G01*
X0291437Y0260039D01*
G75*
G02*
X0291043Y0259646I-000394J0000000D01*
G01*
X0286122Y0259646D01*
G75*
G02*
X0285728Y0260039I0000000J0000394D01*
G01*
X0285728Y0263189D01*
G75*
G02*
X0286122Y0263583I0000394J0000000D01*
G01*
G37*
G36*
G01*
X0286122Y0256102D02*
X0291043Y0256102D01*
G75*
G02*
X0291437Y0255709I0000000J-000394D01*
G01*
X0291437Y0252559D01*
G75*
G02*
X0291043Y0252165I-000394J0000000D01*
G01*
X0286122Y0252165D01*
G75*
G02*
X0285728Y0252559I0000000J0000394D01*
G01*
X0285728Y0255709D01*
G75*
G02*
X0286122Y0256102I0000394J0000000D01*
G01*
G37*
X0288583Y0250374D03*
G36*
G01*
X0047638Y0198819D02*
X0043504Y0198819D01*
G75*
G02*
X0043110Y0199213I0000000J0000394D01*
G01*
X0043110Y0202362D01*
G75*
G02*
X0043504Y0202756I0000394J0000000D01*
G01*
X0047638Y0202756D01*
G75*
G02*
X0048031Y0202362I0000000J-000394D01*
G01*
X0048031Y0199213D01*
G75*
G02*
X0047638Y0198819I-000394J0000000D01*
G01*
G37*
G36*
G01*
X0047638Y0206693D02*
X0043504Y0206693D01*
G75*
G02*
X0043110Y0207087I0000000J0000394D01*
G01*
X0043110Y0210236D01*
G75*
G02*
X0043504Y0210630I0000394J0000000D01*
G01*
X0047638Y0210630D01*
G75*
G02*
X0048031Y0210236I0000000J-000394D01*
G01*
X0048031Y0207087D01*
G75*
G02*
X0047638Y0206693I-000394J0000000D01*
G01*
G37*
G36*
G01*
X0295315Y0147244D02*
X0291299Y0147244D01*
G75*
G02*
X0290945Y0147598I0000000J0000354D01*
G01*
X0290945Y0150433D01*
G75*
G02*
X0291299Y0150787I0000354J0000000D01*
G01*
X0295315Y0150787D01*
G75*
G02*
X0295669Y0150433I0000000J-000354D01*
G01*
X0295669Y0147598D01*
G75*
G02*
X0295315Y0147244I-000354J0000000D01*
G01*
G37*
G36*
G01*
X0295315Y0160236D02*
X0291299Y0160236D01*
G75*
G02*
X0290945Y0160591I0000000J0000354D01*
G01*
X0290945Y0163425D01*
G75*
G02*
X0291299Y0163780I0000354J0000000D01*
G01*
X0295315Y0163780D01*
G75*
G02*
X0295669Y0163425I0000000J-000354D01*
G01*
X0295669Y0160591D01*
G75*
G02*
X0295315Y0160236I-000354J0000000D01*
G01*
G37*
G36*
G01*
X0258071Y0186821D02*
X0258071Y0183750D01*
G75*
G02*
X0257795Y0183474I-000276J0000000D01*
G01*
X0255591Y0183474D01*
G75*
G02*
X0255315Y0183750I0000000J0000276D01*
G01*
X0255315Y0186821D01*
G75*
G02*
X0255591Y0187096I0000276J0000000D01*
G01*
X0257795Y0187096D01*
G75*
G02*
X0258071Y0186821I0000000J-000276D01*
G01*
G37*
G36*
G01*
X0251772Y0186821D02*
X0251772Y0183750D01*
G75*
G02*
X0251496Y0183474I-000276J0000000D01*
G01*
X0249291Y0183474D01*
G75*
G02*
X0249016Y0183750I0000000J0000276D01*
G01*
X0249016Y0186821D01*
G75*
G02*
X0249291Y0187096I0000276J0000000D01*
G01*
X0251496Y0187096D01*
G75*
G02*
X0251772Y0186821I0000000J-000276D01*
G01*
G37*
X0139764Y0269311D03*
G36*
G01*
X0137303Y0267520D02*
X0142224Y0267520D01*
G75*
G02*
X0142618Y0267126I0000000J-000394D01*
G01*
X0142618Y0263976D01*
G75*
G02*
X0142224Y0263583I-000394J0000000D01*
G01*
X0137303Y0263583D01*
G75*
G02*
X0136909Y0263976I0000000J0000394D01*
G01*
X0136909Y0267126D01*
G75*
G02*
X0137303Y0267520I0000394J0000000D01*
G01*
G37*
G36*
G01*
X0137303Y0260039D02*
X0142224Y0260039D01*
G75*
G02*
X0142618Y0259646I0000000J-000394D01*
G01*
X0142618Y0256496D01*
G75*
G02*
X0142224Y0256102I-000394J0000000D01*
G01*
X0137303Y0256102D01*
G75*
G02*
X0136909Y0256496I0000000J0000394D01*
G01*
X0136909Y0259646D01*
G75*
G02*
X0137303Y0260039I0000394J0000000D01*
G01*
G37*
X0139764Y0254311D03*
G36*
G01*
X0049409Y0261811D02*
X0053543Y0261811D01*
G75*
G02*
X0053937Y0261417I0000000J-000394D01*
G01*
X0053937Y0258268D01*
G75*
G02*
X0053543Y0257874I-000394J0000000D01*
G01*
X0049409Y0257874D01*
G75*
G02*
X0049016Y0258268I0000000J0000394D01*
G01*
X0049016Y0261417D01*
G75*
G02*
X0049409Y0261811I0000394J0000000D01*
G01*
G37*
G36*
G01*
X0049409Y0253937D02*
X0053543Y0253937D01*
G75*
G02*
X0053937Y0253543I0000000J-000394D01*
G01*
X0053937Y0250394D01*
G75*
G02*
X0053543Y0250000I-000394J0000000D01*
G01*
X0049409Y0250000D01*
G75*
G02*
X0049016Y0250394I0000000J0000394D01*
G01*
X0049016Y0253543D01*
G75*
G02*
X0049409Y0253937I0000394J0000000D01*
G01*
G37*
D16*
X0275197Y0200000D03*
D17*
X0275197Y0203150D03*
X0275197Y0206299D03*
D16*
X0275197Y0209449D03*
X0268110Y0209449D03*
D17*
X0268110Y0206299D03*
X0268110Y0203150D03*
D16*
X0268110Y0200000D03*
X0252362Y0209449D03*
D17*
X0252362Y0206299D03*
X0252362Y0203150D03*
D16*
X0252362Y0200000D03*
X0259449Y0200000D03*
D17*
X0259449Y0203150D03*
X0259449Y0206299D03*
D16*
X0259449Y0209449D03*
G36*
G01*
X0224449Y0162992D02*
X0220433Y0162992D01*
G75*
G02*
X0220079Y0163346I0000000J0000354D01*
G01*
X0220079Y0166181D01*
G75*
G02*
X0220433Y0166535I0000354J0000000D01*
G01*
X0224449Y0166535D01*
G75*
G02*
X0224803Y0166181I0000000J-000354D01*
G01*
X0224803Y0163346D01*
G75*
G02*
X0224449Y0162992I-000354J0000000D01*
G01*
G37*
G36*
G01*
X0224449Y0175984D02*
X0220433Y0175984D01*
G75*
G02*
X0220079Y0176339I0000000J0000354D01*
G01*
X0220079Y0179173D01*
G75*
G02*
X0220433Y0179528I0000354J0000000D01*
G01*
X0224449Y0179528D01*
G75*
G02*
X0224803Y0179173I0000000J-000354D01*
G01*
X0224803Y0176339D01*
G75*
G02*
X0224449Y0175984I-000354J0000000D01*
G01*
G37*
D21*
X0121752Y0164075D03*
X0117028Y0164075D03*
X0126476Y0164075D03*
X0131201Y0164075D03*
X0105768Y0220866D03*
X0101831Y0220866D03*
D14*
X0295669Y0265374D03*
G36*
G01*
X0293209Y0263583D02*
X0298130Y0263583D01*
G75*
G02*
X0298524Y0263189I0000000J-000394D01*
G01*
X0298524Y0260039D01*
G75*
G02*
X0298130Y0259646I-000394J0000000D01*
G01*
X0293209Y0259646D01*
G75*
G02*
X0292815Y0260039I0000000J0000394D01*
G01*
X0292815Y0263189D01*
G75*
G02*
X0293209Y0263583I0000394J0000000D01*
G01*
G37*
G36*
G01*
X0293209Y0256102D02*
X0298130Y0256102D01*
G75*
G02*
X0298524Y0255709I0000000J-000394D01*
G01*
X0298524Y0252559D01*
G75*
G02*
X0298130Y0252165I-000394J0000000D01*
G01*
X0293209Y0252165D01*
G75*
G02*
X0292815Y0252559I0000000J0000394D01*
G01*
X0292815Y0255709D01*
G75*
G02*
X0293209Y0256102I0000394J0000000D01*
G01*
G37*
X0295669Y0250374D03*
G36*
G01*
X0295315Y0168898D02*
X0291299Y0168898D01*
G75*
G02*
X0290945Y0169252I0000000J0000354D01*
G01*
X0290945Y0172087D01*
G75*
G02*
X0291299Y0172441I0000354J0000000D01*
G01*
X0295315Y0172441D01*
G75*
G02*
X0295669Y0172087I0000000J-000354D01*
G01*
X0295669Y0169252D01*
G75*
G02*
X0295315Y0168898I-000354J0000000D01*
G01*
G37*
G36*
G01*
X0295315Y0181890D02*
X0291299Y0181890D01*
G75*
G02*
X0290945Y0182244I0000000J0000354D01*
G01*
X0290945Y0185079D01*
G75*
G02*
X0291299Y0185433I0000354J0000000D01*
G01*
X0295315Y0185433D01*
G75*
G02*
X0295669Y0185079I0000000J-000354D01*
G01*
X0295669Y0182244D01*
G75*
G02*
X0295315Y0181890I-000354J0000000D01*
G01*
G37*
G36*
G01*
X0271693Y0168898D02*
X0267677Y0168898D01*
G75*
G02*
X0267323Y0169252I0000000J0000354D01*
G01*
X0267323Y0172087D01*
G75*
G02*
X0267677Y0172441I0000354J0000000D01*
G01*
X0271693Y0172441D01*
G75*
G02*
X0272047Y0172087I0000000J-000354D01*
G01*
X0272047Y0169252D01*
G75*
G02*
X0271693Y0168898I-000354J0000000D01*
G01*
G37*
G36*
G01*
X0271693Y0181890D02*
X0267677Y0181890D01*
G75*
G02*
X0267323Y0182244I0000000J0000354D01*
G01*
X0267323Y0185079D01*
G75*
G02*
X0267677Y0185433I0000354J0000000D01*
G01*
X0271693Y0185433D01*
G75*
G02*
X0272047Y0185079I0000000J-000354D01*
G01*
X0272047Y0182244D01*
G75*
G02*
X0271693Y0181890I-000354J0000000D01*
G01*
G37*
G36*
G01*
X0084953Y0051969D02*
X0084953Y0050787D01*
G75*
G02*
X0084363Y0050197I-000591J0000000D01*
G01*
X0080328Y0050197D01*
G75*
G02*
X0079737Y0050787I0000000J0000591D01*
G01*
X0079737Y0051969D01*
G75*
G02*
X0080328Y0052559I0000591J0000000D01*
G01*
X0084363Y0052559D01*
G75*
G02*
X0084953Y0051969I0000000J-000591D01*
G01*
G37*
G36*
G01*
X0084953Y0055709D02*
X0084953Y0054528D01*
G75*
G02*
X0084363Y0053937I-000591J0000000D01*
G01*
X0080328Y0053937D01*
G75*
G02*
X0079737Y0054528I0000000J0000591D01*
G01*
X0079737Y0055709D01*
G75*
G02*
X0080328Y0056299I0000591J0000000D01*
G01*
X0084363Y0056299D01*
G75*
G02*
X0084953Y0055709I0000000J-000591D01*
G01*
G37*
G36*
G01*
X0084953Y0059449D02*
X0084953Y0058268D01*
G75*
G02*
X0084363Y0057677I-000591J0000000D01*
G01*
X0080328Y0057677D01*
G75*
G02*
X0079737Y0058268I0000000J0000591D01*
G01*
X0079737Y0059449D01*
G75*
G02*
X0080328Y0060039I0000591J0000000D01*
G01*
X0084363Y0060039D01*
G75*
G02*
X0084953Y0059449I0000000J-000591D01*
G01*
G37*
G36*
G01*
X0075997Y0059449D02*
X0075997Y0058268D01*
G75*
G02*
X0075406Y0057677I-000591J0000000D01*
G01*
X0071371Y0057677D01*
G75*
G02*
X0070780Y0058268I0000000J0000591D01*
G01*
X0070780Y0059449D01*
G75*
G02*
X0071371Y0060039I0000591J0000000D01*
G01*
X0075406Y0060039D01*
G75*
G02*
X0075997Y0059449I0000000J-000591D01*
G01*
G37*
G36*
G01*
X0075997Y0055709D02*
X0075997Y0054528D01*
G75*
G02*
X0075406Y0053937I-000591J0000000D01*
G01*
X0071371Y0053937D01*
G75*
G02*
X0070780Y0054528I0000000J0000591D01*
G01*
X0070780Y0055709D01*
G75*
G02*
X0071371Y0056299I0000591J0000000D01*
G01*
X0075406Y0056299D01*
G75*
G02*
X0075997Y0055709I0000000J-000591D01*
G01*
G37*
G36*
G01*
X0075997Y0051969D02*
X0075997Y0050787D01*
G75*
G02*
X0075406Y0050197I-000591J0000000D01*
G01*
X0071371Y0050197D01*
G75*
G02*
X0070780Y0050787I0000000J0000591D01*
G01*
X0070780Y0051969D01*
G75*
G02*
X0071371Y0052559I0000591J0000000D01*
G01*
X0075406Y0052559D01*
G75*
G02*
X0075997Y0051969I0000000J-000591D01*
G01*
G37*
X0096457Y0269311D03*
G36*
G01*
X0093996Y0267520D02*
X0098917Y0267520D01*
G75*
G02*
X0099311Y0267126I0000000J-000394D01*
G01*
X0099311Y0263976D01*
G75*
G02*
X0098917Y0263583I-000394J0000000D01*
G01*
X0093996Y0263583D01*
G75*
G02*
X0093602Y0263976I0000000J0000394D01*
G01*
X0093602Y0267126D01*
G75*
G02*
X0093996Y0267520I0000394J0000000D01*
G01*
G37*
G36*
G01*
X0093996Y0260039D02*
X0098917Y0260039D01*
G75*
G02*
X0099311Y0259646I0000000J-000394D01*
G01*
X0099311Y0256496D01*
G75*
G02*
X0098917Y0256102I-000394J0000000D01*
G01*
X0093996Y0256102D01*
G75*
G02*
X0093602Y0256496I0000000J0000394D01*
G01*
X0093602Y0259646D01*
G75*
G02*
X0093996Y0260039I0000394J0000000D01*
G01*
G37*
X0096457Y0254311D03*
G36*
G01*
X0278346Y0150886D02*
X0277165Y0150886D01*
G75*
G02*
X0276575Y0151476I0000000J0000591D01*
G01*
X0276575Y0156102D01*
G75*
G02*
X0277165Y0156693I0000591J0000000D01*
G01*
X0278346Y0156693D01*
G75*
G02*
X0278937Y0156102I0000000J-000591D01*
G01*
X0278937Y0151476D01*
G75*
G02*
X0278346Y0150886I-000591J0000000D01*
G01*
G37*
G36*
G01*
X0282087Y0158268D02*
X0280906Y0158268D01*
G75*
G02*
X0280315Y0158858I0000000J0000591D01*
G01*
X0280315Y0163484D01*
G75*
G02*
X0280906Y0164075I0000591J0000000D01*
G01*
X0282087Y0164075D01*
G75*
G02*
X0282677Y0163484I0000000J-000591D01*
G01*
X0282677Y0158858D01*
G75*
G02*
X0282087Y0158268I-000591J0000000D01*
G01*
G37*
G36*
G01*
X0285827Y0150886D02*
X0284646Y0150886D01*
G75*
G02*
X0284055Y0151476I0000000J0000591D01*
G01*
X0284055Y0156102D01*
G75*
G02*
X0284646Y0156693I0000591J0000000D01*
G01*
X0285827Y0156693D01*
G75*
G02*
X0286417Y0156102I0000000J-000591D01*
G01*
X0286417Y0151476D01*
G75*
G02*
X0285827Y0150886I-000591J0000000D01*
G01*
G37*
G36*
G01*
X0065157Y0261811D02*
X0069291Y0261811D01*
G75*
G02*
X0069685Y0261417I0000000J-000394D01*
G01*
X0069685Y0258268D01*
G75*
G02*
X0069291Y0257874I-000394J0000000D01*
G01*
X0065157Y0257874D01*
G75*
G02*
X0064764Y0258268I0000000J0000394D01*
G01*
X0064764Y0261417D01*
G75*
G02*
X0065157Y0261811I0000394J0000000D01*
G01*
G37*
G36*
G01*
X0065157Y0253937D02*
X0069291Y0253937D01*
G75*
G02*
X0069685Y0253543I0000000J-000394D01*
G01*
X0069685Y0250394D01*
G75*
G02*
X0069291Y0250000I-000394J0000000D01*
G01*
X0065157Y0250000D01*
G75*
G02*
X0064764Y0250394I0000000J0000394D01*
G01*
X0064764Y0253543D01*
G75*
G02*
X0065157Y0253937I0000394J0000000D01*
G01*
G37*
D13*
X0212697Y0177461D03*
X0187500Y0177461D03*
X0180020Y0177461D03*
X0163091Y0177461D03*
D21*
X0153642Y0175689D03*
X0149705Y0175689D03*
D13*
X0138484Y0177461D03*
X0214469Y0238484D03*
X0207185Y0238484D03*
X0187697Y0238484D03*
X0140256Y0238484D03*
G36*
G01*
X0271693Y0147244D02*
X0267677Y0147244D01*
G75*
G02*
X0267323Y0147598I0000000J0000354D01*
G01*
X0267323Y0150433D01*
G75*
G02*
X0267677Y0150787I0000354J0000000D01*
G01*
X0271693Y0150787D01*
G75*
G02*
X0272047Y0150433I0000000J-000354D01*
G01*
X0272047Y0147598D01*
G75*
G02*
X0271693Y0147244I-000354J0000000D01*
G01*
G37*
G36*
G01*
X0271693Y0160236D02*
X0267677Y0160236D01*
G75*
G02*
X0267323Y0160591I0000000J0000354D01*
G01*
X0267323Y0163425D01*
G75*
G02*
X0267677Y0163780I0000354J0000000D01*
G01*
X0271693Y0163780D01*
G75*
G02*
X0272047Y0163425I0000000J-000354D01*
G01*
X0272047Y0160591D01*
G75*
G02*
X0271693Y0160236I-000354J0000000D01*
G01*
G37*
D14*
X0227559Y0265374D03*
G36*
G01*
X0225098Y0263583D02*
X0230020Y0263583D01*
G75*
G02*
X0230413Y0263189I0000000J-000394D01*
G01*
X0230413Y0260039D01*
G75*
G02*
X0230020Y0259646I-000394J0000000D01*
G01*
X0225098Y0259646D01*
G75*
G02*
X0224705Y0260039I0000000J0000394D01*
G01*
X0224705Y0263189D01*
G75*
G02*
X0225098Y0263583I0000394J0000000D01*
G01*
G37*
G36*
G01*
X0225098Y0256102D02*
X0230020Y0256102D01*
G75*
G02*
X0230413Y0255709I0000000J-000394D01*
G01*
X0230413Y0252559D01*
G75*
G02*
X0230020Y0252165I-000394J0000000D01*
G01*
X0225098Y0252165D01*
G75*
G02*
X0224705Y0252559I0000000J0000394D01*
G01*
X0224705Y0255709D01*
G75*
G02*
X0225098Y0256102I0000394J0000000D01*
G01*
G37*
X0227559Y0250374D03*
X0238189Y0265374D03*
G36*
G01*
X0235728Y0263583D02*
X0240650Y0263583D01*
G75*
G02*
X0241043Y0263189I0000000J-000394D01*
G01*
X0241043Y0260039D01*
G75*
G02*
X0240650Y0259646I-000394J0000000D01*
G01*
X0235728Y0259646D01*
G75*
G02*
X0235335Y0260039I0000000J0000394D01*
G01*
X0235335Y0263189D01*
G75*
G02*
X0235728Y0263583I0000394J0000000D01*
G01*
G37*
G36*
G01*
X0235728Y0256102D02*
X0240650Y0256102D01*
G75*
G02*
X0241043Y0255709I0000000J-000394D01*
G01*
X0241043Y0252559D01*
G75*
G02*
X0240650Y0252165I-000394J0000000D01*
G01*
X0235728Y0252165D01*
G75*
G02*
X0235335Y0252559I0000000J0000394D01*
G01*
X0235335Y0255709D01*
G75*
G02*
X0235728Y0256102I0000394J0000000D01*
G01*
G37*
X0238189Y0250374D03*
X0217717Y0265374D03*
G36*
G01*
X0215256Y0263583D02*
X0220177Y0263583D01*
G75*
G02*
X0220571Y0263189I0000000J-000394D01*
G01*
X0220571Y0260039D01*
G75*
G02*
X0220177Y0259646I-000394J0000000D01*
G01*
X0215256Y0259646D01*
G75*
G02*
X0214862Y0260039I0000000J0000394D01*
G01*
X0214862Y0263189D01*
G75*
G02*
X0215256Y0263583I0000394J0000000D01*
G01*
G37*
G36*
G01*
X0215256Y0256102D02*
X0220177Y0256102D01*
G75*
G02*
X0220571Y0255709I0000000J-000394D01*
G01*
X0220571Y0252559D01*
G75*
G02*
X0220177Y0252165I-000394J0000000D01*
G01*
X0215256Y0252165D01*
G75*
G02*
X0214862Y0252559I0000000J0000394D01*
G01*
X0214862Y0255709D01*
G75*
G02*
X0215256Y0256102I0000394J0000000D01*
G01*
G37*
X0217717Y0250374D03*
G36*
G01*
X0072047Y0143976D02*
X0072047Y0141220D01*
G75*
G02*
X0071063Y0140236I-000984J0000000D01*
G01*
X0064370Y0140236D01*
G75*
G02*
X0063386Y0141220I0000000J0000984D01*
G01*
X0063386Y0143976D01*
G75*
G02*
X0064370Y0144961I0000984J0000000D01*
G01*
X0071063Y0144961D01*
G75*
G02*
X0072047Y0143976I0000000J-000984D01*
G01*
G37*
G36*
G01*
X0055512Y0162008D02*
X0055512Y0141142D01*
G75*
G02*
X0054528Y0140157I-000984J0000000D01*
G01*
X0031299Y0140157D01*
G75*
G02*
X0030315Y0141142I0000000J0000984D01*
G01*
X0030315Y0162008D01*
G75*
G02*
X0031299Y0162992I0000984J0000000D01*
G01*
X0054528Y0162992D01*
G75*
G02*
X0055512Y0162008I0000000J-000984D01*
G01*
G37*
G36*
G01*
X0072047Y0161929D02*
X0072047Y0159173D01*
G75*
G02*
X0071063Y0158189I-000984J0000000D01*
G01*
X0064370Y0158189D01*
G75*
G02*
X0063386Y0159173I0000000J0000984D01*
G01*
X0063386Y0161929D01*
G75*
G02*
X0064370Y0162913I0000984J0000000D01*
G01*
X0071063Y0162913D01*
G75*
G02*
X0072047Y0161929I0000000J-000984D01*
G01*
G37*
G36*
G01*
X0057283Y0261811D02*
X0061417Y0261811D01*
G75*
G02*
X0061811Y0261417I0000000J-000394D01*
G01*
X0061811Y0258268D01*
G75*
G02*
X0061417Y0257874I-000394J0000000D01*
G01*
X0057283Y0257874D01*
G75*
G02*
X0056890Y0258268I0000000J0000394D01*
G01*
X0056890Y0261417D01*
G75*
G02*
X0057283Y0261811I0000394J0000000D01*
G01*
G37*
G36*
G01*
X0057283Y0253937D02*
X0061417Y0253937D01*
G75*
G02*
X0061811Y0253543I0000000J-000394D01*
G01*
X0061811Y0250394D01*
G75*
G02*
X0061417Y0250000I-000394J0000000D01*
G01*
X0057283Y0250000D01*
G75*
G02*
X0056890Y0250394I0000000J0000394D01*
G01*
X0056890Y0253543D01*
G75*
G02*
X0057283Y0253937I0000394J0000000D01*
G01*
G37*
G36*
G01*
X0281693Y0233287D02*
X0281693Y0234469D01*
G75*
G02*
X0282283Y0235059I0000591J0000000D01*
G01*
X0288780Y0235059D01*
G75*
G02*
X0289370Y0234469I0000000J-000591D01*
G01*
X0289370Y0233287D01*
G75*
G02*
X0288780Y0232697I-000591J0000000D01*
G01*
X0282283Y0232697D01*
G75*
G02*
X0281693Y0233287I0000000J0000591D01*
G01*
G37*
G36*
G01*
X0281693Y0228287D02*
X0281693Y0229469D01*
G75*
G02*
X0282283Y0230059I0000591J0000000D01*
G01*
X0288780Y0230059D01*
G75*
G02*
X0289370Y0229469I0000000J-000591D01*
G01*
X0289370Y0228287D01*
G75*
G02*
X0288780Y0227697I-000591J0000000D01*
G01*
X0282283Y0227697D01*
G75*
G02*
X0281693Y0228287I0000000J0000591D01*
G01*
G37*
G36*
G01*
X0281693Y0223287D02*
X0281693Y0224469D01*
G75*
G02*
X0282283Y0225059I0000591J0000000D01*
G01*
X0288780Y0225059D01*
G75*
G02*
X0289370Y0224469I0000000J-000591D01*
G01*
X0289370Y0223287D01*
G75*
G02*
X0288780Y0222697I-000591J0000000D01*
G01*
X0282283Y0222697D01*
G75*
G02*
X0281693Y0223287I0000000J0000591D01*
G01*
G37*
G36*
G01*
X0281693Y0218287D02*
X0281693Y0219469D01*
G75*
G02*
X0282283Y0220059I0000591J0000000D01*
G01*
X0288780Y0220059D01*
G75*
G02*
X0289370Y0219469I0000000J-000591D01*
G01*
X0289370Y0218287D01*
G75*
G02*
X0288780Y0217697I-000591J0000000D01*
G01*
X0282283Y0217697D01*
G75*
G02*
X0281693Y0218287I0000000J0000591D01*
G01*
G37*
G36*
G01*
X0301181Y0218287D02*
X0301181Y0219469D01*
G75*
G02*
X0301772Y0220059I0000591J0000000D01*
G01*
X0308268Y0220059D01*
G75*
G02*
X0308858Y0219469I0000000J-000591D01*
G01*
X0308858Y0218287D01*
G75*
G02*
X0308268Y0217697I-000591J0000000D01*
G01*
X0301772Y0217697D01*
G75*
G02*
X0301181Y0218287I0000000J0000591D01*
G01*
G37*
G36*
G01*
X0301181Y0223287D02*
X0301181Y0224469D01*
G75*
G02*
X0301772Y0225059I0000591J0000000D01*
G01*
X0308268Y0225059D01*
G75*
G02*
X0308858Y0224469I0000000J-000591D01*
G01*
X0308858Y0223287D01*
G75*
G02*
X0308268Y0222697I-000591J0000000D01*
G01*
X0301772Y0222697D01*
G75*
G02*
X0301181Y0223287I0000000J0000591D01*
G01*
G37*
G36*
G01*
X0301181Y0228287D02*
X0301181Y0229469D01*
G75*
G02*
X0301772Y0230059I0000591J0000000D01*
G01*
X0308268Y0230059D01*
G75*
G02*
X0308858Y0229469I0000000J-000591D01*
G01*
X0308858Y0228287D01*
G75*
G02*
X0308268Y0227697I-000591J0000000D01*
G01*
X0301772Y0227697D01*
G75*
G02*
X0301181Y0228287I0000000J0000591D01*
G01*
G37*
G36*
G01*
X0301181Y0233287D02*
X0301181Y0234469D01*
G75*
G02*
X0301772Y0235059I0000591J0000000D01*
G01*
X0308268Y0235059D01*
G75*
G02*
X0308858Y0234469I0000000J-000591D01*
G01*
X0308858Y0233287D01*
G75*
G02*
X0308268Y0232697I-000591J0000000D01*
G01*
X0301772Y0232697D01*
G75*
G02*
X0301181Y0233287I0000000J0000591D01*
G01*
G37*
G36*
G01*
X0072047Y0173504D02*
X0072047Y0170748D01*
G75*
G02*
X0071063Y0169764I-000984J0000000D01*
G01*
X0064370Y0169764D01*
G75*
G02*
X0063386Y0170748I0000000J0000984D01*
G01*
X0063386Y0173504D01*
G75*
G02*
X0064370Y0174488I0000984J0000000D01*
G01*
X0071063Y0174488D01*
G75*
G02*
X0072047Y0173504I0000000J-000984D01*
G01*
G37*
G36*
G01*
X0055512Y0191535D02*
X0055512Y0170669D01*
G75*
G02*
X0054528Y0169685I-000984J0000000D01*
G01*
X0031299Y0169685D01*
G75*
G02*
X0030315Y0170669I0000000J0000984D01*
G01*
X0030315Y0191535D01*
G75*
G02*
X0031299Y0192520I0000984J0000000D01*
G01*
X0054528Y0192520D01*
G75*
G02*
X0055512Y0191535I0000000J-000984D01*
G01*
G37*
G36*
G01*
X0072047Y0191457D02*
X0072047Y0188701D01*
G75*
G02*
X0071063Y0187717I-000984J0000000D01*
G01*
X0064370Y0187717D01*
G75*
G02*
X0063386Y0188701I0000000J0000984D01*
G01*
X0063386Y0191457D01*
G75*
G02*
X0064370Y0192441I0000984J0000000D01*
G01*
X0071063Y0192441D01*
G75*
G02*
X0072047Y0191457I0000000J-000984D01*
G01*
G37*
G36*
G01*
X0072047Y0084921D02*
X0072047Y0082165D01*
G75*
G02*
X0071063Y0081181I-000984J0000000D01*
G01*
X0064370Y0081181D01*
G75*
G02*
X0063386Y0082165I0000000J0000984D01*
G01*
X0063386Y0084921D01*
G75*
G02*
X0064370Y0085906I0000984J0000000D01*
G01*
X0071063Y0085906D01*
G75*
G02*
X0072047Y0084921I0000000J-000984D01*
G01*
G37*
G36*
G01*
X0055512Y0102953D02*
X0055512Y0082087D01*
G75*
G02*
X0054528Y0081102I-000984J0000000D01*
G01*
X0031299Y0081102D01*
G75*
G02*
X0030315Y0082087I0000000J0000984D01*
G01*
X0030315Y0102953D01*
G75*
G02*
X0031299Y0103937I0000984J0000000D01*
G01*
X0054528Y0103937D01*
G75*
G02*
X0055512Y0102953I0000000J-000984D01*
G01*
G37*
G36*
G01*
X0072047Y0102874D02*
X0072047Y0100118D01*
G75*
G02*
X0071063Y0099134I-000984J0000000D01*
G01*
X0064370Y0099134D01*
G75*
G02*
X0063386Y0100118I0000000J0000984D01*
G01*
X0063386Y0102874D01*
G75*
G02*
X0064370Y0103858I0000984J0000000D01*
G01*
X0071063Y0103858D01*
G75*
G02*
X0072047Y0102874I0000000J-000984D01*
G01*
G37*
G36*
G01*
X0063386Y0198819D02*
X0059252Y0198819D01*
G75*
G02*
X0058858Y0199213I0000000J0000394D01*
G01*
X0058858Y0202362D01*
G75*
G02*
X0059252Y0202756I0000394J0000000D01*
G01*
X0063386Y0202756D01*
G75*
G02*
X0063780Y0202362I0000000J-000394D01*
G01*
X0063780Y0199213D01*
G75*
G02*
X0063386Y0198819I-000394J0000000D01*
G01*
G37*
G36*
G01*
X0063386Y0206693D02*
X0059252Y0206693D01*
G75*
G02*
X0058858Y0207087I0000000J0000394D01*
G01*
X0058858Y0210236D01*
G75*
G02*
X0059252Y0210630I0000394J0000000D01*
G01*
X0063386Y0210630D01*
G75*
G02*
X0063780Y0210236I0000000J-000394D01*
G01*
X0063780Y0207087D01*
G75*
G02*
X0063386Y0206693I-000394J0000000D01*
G01*
G37*
G36*
G01*
X0073031Y0261811D02*
X0077165Y0261811D01*
G75*
G02*
X0077559Y0261417I0000000J-000394D01*
G01*
X0077559Y0258268D01*
G75*
G02*
X0077165Y0257874I-000394J0000000D01*
G01*
X0073031Y0257874D01*
G75*
G02*
X0072638Y0258268I0000000J0000394D01*
G01*
X0072638Y0261417D01*
G75*
G02*
X0073031Y0261811I0000394J0000000D01*
G01*
G37*
G36*
G01*
X0073031Y0253937D02*
X0077165Y0253937D01*
G75*
G02*
X0077559Y0253543I0000000J-000394D01*
G01*
X0077559Y0250394D01*
G75*
G02*
X0077165Y0250000I-000394J0000000D01*
G01*
X0073031Y0250000D01*
G75*
G02*
X0072638Y0250394I0000000J0000394D01*
G01*
X0072638Y0253543D01*
G75*
G02*
X0073031Y0253937I0000394J0000000D01*
G01*
G37*
G36*
G01*
X0300591Y0146102D02*
X0300591Y0149173D01*
G75*
G02*
X0300866Y0149449I0000276J0000000D01*
G01*
X0303071Y0149449D01*
G75*
G02*
X0303346Y0149173I0000000J-000276D01*
G01*
X0303346Y0146102D01*
G75*
G02*
X0303071Y0145827I-000276J0000000D01*
G01*
X0300866Y0145827D01*
G75*
G02*
X0300591Y0146102I0000000J0000276D01*
G01*
G37*
G36*
G01*
X0306890Y0146102D02*
X0306890Y0149173D01*
G75*
G02*
X0307165Y0149449I0000276J0000000D01*
G01*
X0309370Y0149449D01*
G75*
G02*
X0309646Y0149173I0000000J-000276D01*
G01*
X0309646Y0146102D01*
G75*
G02*
X0309370Y0145827I-000276J0000000D01*
G01*
X0307165Y0145827D01*
G75*
G02*
X0306890Y0146102I0000000J0000276D01*
G01*
G37*
D54*
X0266339Y0219724D03*
D56*
X0272736Y0234567D03*
D57*
X0225394Y0240098D03*
D21*
X0261811Y0230315D03*
X0236516Y0237520D03*
X0236516Y0232500D03*
X0236516Y0226004D03*
X0236516Y0222461D03*
G36*
G01*
X0271693Y0125591D02*
X0267677Y0125591D01*
G75*
G02*
X0267323Y0125945I0000000J0000354D01*
G01*
X0267323Y0128780D01*
G75*
G02*
X0267677Y0129134I0000354J0000000D01*
G01*
X0271693Y0129134D01*
G75*
G02*
X0272047Y0128780I0000000J-000354D01*
G01*
X0272047Y0125945D01*
G75*
G02*
X0271693Y0125591I-000354J0000000D01*
G01*
G37*
G36*
G01*
X0271693Y0138583D02*
X0267677Y0138583D01*
G75*
G02*
X0267323Y0138937I0000000J0000354D01*
G01*
X0267323Y0141772D01*
G75*
G02*
X0267677Y0142126I0000354J0000000D01*
G01*
X0271693Y0142126D01*
G75*
G02*
X0272047Y0141772I0000000J-000354D01*
G01*
X0272047Y0138937D01*
G75*
G02*
X0271693Y0138583I-000354J0000000D01*
G01*
G37*
G36*
G01*
X0090118Y0233819D02*
X0087047Y0233819D01*
G75*
G02*
X0086772Y0234094I0000000J0000276D01*
G01*
X0086772Y0236299D01*
G75*
G02*
X0087047Y0236575I0000276J0000000D01*
G01*
X0090118Y0236575D01*
G75*
G02*
X0090394Y0236299I0000000J-000276D01*
G01*
X0090394Y0234094D01*
G75*
G02*
X0090118Y0233819I-000276J0000000D01*
G01*
G37*
G36*
G01*
X0090118Y0240118D02*
X0087047Y0240118D01*
G75*
G02*
X0086772Y0240394I0000000J0000276D01*
G01*
X0086772Y0242598D01*
G75*
G02*
X0087047Y0242874I0000276J0000000D01*
G01*
X0090118Y0242874D01*
G75*
G02*
X0090394Y0242598I0000000J-000276D01*
G01*
X0090394Y0240394D01*
G75*
G02*
X0090118Y0240118I-000276J0000000D01*
G01*
G37*
G36*
G01*
X0079774Y0076033D02*
X0081644Y0076033D01*
G75*
G02*
X0082579Y0075098I0000000J-000935D01*
G01*
X0082579Y0073130D01*
G75*
G02*
X0081644Y0072195I-000935J0000000D01*
G01*
X0079774Y0072195D01*
G75*
G02*
X0078839Y0073130I0000000J0000935D01*
G01*
X0078839Y0075098D01*
G75*
G02*
X0079774Y0076033I0000935J0000000D01*
G01*
G37*
G36*
G01*
X0079774Y0068848D02*
X0081644Y0068848D01*
G75*
G02*
X0082579Y0067913I0000000J-000935D01*
G01*
X0082579Y0065945D01*
G75*
G02*
X0081644Y0065010I-000935J0000000D01*
G01*
X0079774Y0065010D01*
G75*
G02*
X0078839Y0065945I0000000J0000935D01*
G01*
X0078839Y0067913D01*
G75*
G02*
X0079774Y0068848I0000935J0000000D01*
G01*
G37*
G36*
G01*
X0096024Y0076181D02*
X0092953Y0076181D01*
G75*
G02*
X0092677Y0076457I0000000J0000276D01*
G01*
X0092677Y0078661D01*
G75*
G02*
X0092953Y0078937I0000276J0000000D01*
G01*
X0096024Y0078937D01*
G75*
G02*
X0096299Y0078661I0000000J-000276D01*
G01*
X0096299Y0076457D01*
G75*
G02*
X0096024Y0076181I-000276J0000000D01*
G01*
G37*
G36*
G01*
X0096024Y0082480D02*
X0092953Y0082480D01*
G75*
G02*
X0092677Y0082756I0000000J0000276D01*
G01*
X0092677Y0084961D01*
G75*
G02*
X0092953Y0085236I0000276J0000000D01*
G01*
X0096024Y0085236D01*
G75*
G02*
X0096299Y0084961I0000000J-000276D01*
G01*
X0096299Y0082756D01*
G75*
G02*
X0096024Y0082480I-000276J0000000D01*
G01*
G37*
X0135531Y0241437D02*
G01*
G75*
D337*
X0159898Y0196358D02*
D03*
X0142181Y0196358D02*
D03*
D338*
X0184350Y0199685D02*
D03*
X0184350Y0227047D02*
D03*
D339*
X0161122Y0210925D02*
D03*
X0161122Y0227067D02*
D03*
D340*
X0143011Y0209154D02*
D03*
X0143011Y0224902D02*
D03*
D341*
X0204789Y0232093D02*
D03*
X0201049Y0222841D02*
D03*
D341*
X0208529Y0222841D02*
D03*
D342*
X0214468Y0200006D02*
D03*
D342*
X0210728Y0200006D02*
D03*
X0206988Y0200006D02*
D03*
X0206988Y0191542D02*
D03*
X0214468Y0191542D02*
D03*
D343*
X0200467Y0187690D02*
D03*
X0200467Y0200682D02*
D03*
D344*
X0200755Y0205976D02*
D03*
X0200755Y0217394D02*
D03*
D345*
X0168208Y0186791D02*
D03*
X0168208Y0193012D02*
D03*
X0168208Y0197382D02*
D03*
X0168208Y0203602D02*
D03*
D346*
X0145319Y0237468D02*
D03*
X0149453Y0237468D02*
D03*
X0187193Y0186913D02*
D03*
X0191327Y0186913D02*
D03*
X0182480Y0186913D02*
D03*
X0178346Y0186913D02*
D03*
X0162831Y0186021D02*
D03*
X0158697Y0186021D02*
D03*
D347*
X0207038Y0205124D02*
D03*
X0210975Y0205124D02*
D03*
X0207940Y0218799D02*
D03*
X0207940Y0210138D02*
D03*
X0214337Y0218799D02*
D03*
X0214337Y0210138D02*
D03*
D348*
X0214468Y0227172D02*
D03*
X0214468Y0223628D02*
D03*
D349*
X0191130Y0191171D02*
D03*
X0187586Y0191171D02*
D03*
X0182086Y0191171D02*
D03*
X0178543Y0191171D02*
D03*
X0150530Y0186021D02*
D03*
X0154074Y0186021D02*
D03*
D114*
X0153641Y0175689D02*
D03*
X0149704Y0175689D02*
D03*
D115*
X0207184Y0238484D02*
D03*
X0140255Y0238484D02*
D03*
X0187696Y0238484D02*
D03*
X0187499Y0177461D02*
D03*
X0212696Y0177461D02*
D03*
X0163090Y0177461D02*
D03*
X0180019Y0177461D02*
D03*
X0138484Y0177461D02*
D03*
X0214468Y0238484D02*
D03*
X0094587Y0222343D02*
%LPD*%
G01*
D21*
X0121752Y0164075D03*
X0117028Y0164075D03*
X0126477Y0164075D03*
X0131201Y0164075D03*
X0105768Y0220867D03*
X0101831Y0220867D03*
D360*
X0107579Y0188485D03*
X0105611Y0188485D03*
X0103642Y0188485D03*
X0101674Y0188485D03*
X0099705Y0188485D03*
X0099705Y0171162D03*
X0101674Y0171162D03*
X0103642Y0171162D03*
X0105611Y0171162D03*
X0107579Y0171162D03*
G36*
G01*
X0120768Y0180965D02*
X0120768Y0177894D01*
G75*
G02*
X0120493Y0177619I-000276J0000000D01*
G01*
X0118288Y0177619D01*
G75*
G02*
X0118012Y0177894I0000000J0000276D01*
G01*
X0118012Y0180965D01*
G75*
G02*
X0118288Y0181241I0000276J0000000D01*
G01*
X0120493Y0181241D01*
G75*
G02*
X0120768Y0180965I0000000J-000276D01*
G01*
G37*
G36*
G01*
X0114469Y0180965D02*
X0114469Y0177894D01*
G75*
G02*
X0114193Y0177619I-000276J0000000D01*
G01*
X0111989Y0177619D01*
G75*
G02*
X0111713Y0177894I0000000J0000276D01*
G01*
X0111713Y0180965D01*
G75*
G02*
X0111989Y0181241I0000276J0000000D01*
G01*
X0114193Y0181241D01*
G75*
G02*
X0114469Y0180965I0000000J-000276D01*
G01*
G37*
G36*
G01*
X0127422Y0166634D02*
X0124351Y0166634D01*
G75*
G02*
X0124075Y0166910I0000000J0000276D01*
G01*
X0124075Y0169115D01*
G75*
G02*
X0124351Y0169390I0000276J0000000D01*
G01*
X0127422Y0169390D01*
G75*
G02*
X0127697Y0169115I0000000J-000276D01*
G01*
X0127697Y0166910D01*
G75*
G02*
X0127422Y0166634I-000276J0000000D01*
G01*
G37*
G36*
G01*
X0127422Y0172934D02*
X0124351Y0172934D01*
G75*
G02*
X0124075Y0173209I0000000J0000276D01*
G01*
X0124075Y0175414D01*
G75*
G02*
X0124351Y0175689I0000276J0000000D01*
G01*
X0127422Y0175689D01*
G75*
G02*
X0127697Y0175414I0000000J-000276D01*
G01*
X0127697Y0173209D01*
G75*
G02*
X0127422Y0172934I-000276J0000000D01*
G01*
G37*
G36*
G01*
X0120768Y0186871D02*
X0120768Y0183800D01*
G75*
G02*
X0120493Y0183524I-000276J0000000D01*
G01*
X0118288Y0183524D01*
G75*
G02*
X0118012Y0183800I0000000J0000276D01*
G01*
X0118012Y0186871D01*
G75*
G02*
X0118288Y0187146I0000276J0000000D01*
G01*
X0120493Y0187146D01*
G75*
G02*
X0120768Y0186871I0000000J-000276D01*
G01*
G37*
G36*
G01*
X0114469Y0186871D02*
X0114469Y0183800D01*
G75*
G02*
X0114193Y0183524I-000276J0000000D01*
G01*
X0111989Y0183524D01*
G75*
G02*
X0111713Y0183800I0000000J0000276D01*
G01*
X0111713Y0186871D01*
G75*
G02*
X0111989Y0187146I0000276J0000000D01*
G01*
X0114193Y0187146D01*
G75*
G02*
X0114469Y0186871I0000000J-000276D01*
G01*
G37*
G36*
G01*
X0124508Y0197520D02*
X0124508Y0194804D01*
G75*
G02*
X0123603Y0193898I-000906J0000000D01*
G01*
X0118327Y0193898D01*
G75*
G02*
X0117422Y0194804I0000000J0000906D01*
G01*
X0117422Y0197520D01*
G75*
G02*
X0118327Y0198426I0000906J0000000D01*
G01*
X0123603Y0198426D01*
G75*
G02*
X0124508Y0197520I0000000J-000906D01*
G01*
G37*
G36*
G01*
X0124508Y0208938D02*
X0124508Y0206221D01*
G75*
G02*
X0123603Y0205315I-000906J0000000D01*
G01*
X0118327Y0205315D01*
G75*
G02*
X0117422Y0206221I0000000J0000906D01*
G01*
X0117422Y0208938D01*
G75*
G02*
X0118327Y0209843I0000906J0000000D01*
G01*
X0123603Y0209843D01*
G75*
G02*
X0124508Y0208938I0000000J-000906D01*
G01*
G37*
G36*
G01*
X0114666Y0197520D02*
X0114666Y0194804D01*
G75*
G02*
X0113760Y0193898I-000906J0000000D01*
G01*
X0108485Y0193898D01*
G75*
G02*
X0107579Y0194804I0000000J0000906D01*
G01*
X0107579Y0197520D01*
G75*
G02*
X0108485Y0198426I0000906J0000000D01*
G01*
X0113760Y0198426D01*
G75*
G02*
X0114666Y0197520I0000000J-000906D01*
G01*
G37*
G36*
G01*
X0114666Y0208938D02*
X0114666Y0206221D01*
G75*
G02*
X0113760Y0205315I-000906J0000000D01*
G01*
X0108485Y0205315D01*
G75*
G02*
X0107579Y0206221I0000000J0000906D01*
G01*
X0107579Y0208938D01*
G75*
G02*
X0108485Y0209843I0000906J0000000D01*
G01*
X0113760Y0209843D01*
G75*
G02*
X0114666Y0208938I0000000J-000906D01*
G01*
G37*
G36*
G01*
X0120985Y0219587D02*
X0123701Y0219587D01*
G75*
G02*
X0124607Y0218682I0000000J-000906D01*
G01*
X0124607Y0213406D01*
G75*
G02*
X0123701Y0212500I-000906J0000000D01*
G01*
X0120985Y0212500D01*
G75*
G02*
X0120079Y0213406I0000000J0000906D01*
G01*
X0120079Y0218682D01*
G75*
G02*
X0120985Y0219587I0000906J0000000D01*
G01*
G37*
G36*
G01*
X0109567Y0219587D02*
X0112284Y0219587D01*
G75*
G02*
X0113189Y0218682I0000000J-000906D01*
G01*
X0113189Y0213406D01*
G75*
G02*
X0112284Y0212500I-000906J0000000D01*
G01*
X0109567Y0212500D01*
G75*
G02*
X0108662Y0213406I0000000J0000906D01*
G01*
X0108662Y0218682D01*
G75*
G02*
X0109567Y0219587I0000906J0000000D01*
G01*
G37*
G36*
G01*
X0105217Y0204213D02*
X0105217Y0201497D01*
G75*
G02*
X0104311Y0200591I-000906J0000000D01*
G01*
X0099036Y0200591D01*
G75*
G02*
X0098130Y0201497I0000000J0000906D01*
G01*
X0098130Y0204213D01*
G75*
G02*
X0099036Y0205119I0000906J0000000D01*
G01*
X0104311Y0205119D01*
G75*
G02*
X0105217Y0204213I0000000J-000906D01*
G01*
G37*
G36*
G01*
X0105217Y0215630D02*
X0105217Y0212914D01*
G75*
G02*
X0104311Y0212008I-000906J0000000D01*
G01*
X0099036Y0212008D01*
G75*
G02*
X0098130Y0212914I0000000J0000906D01*
G01*
X0098130Y0215630D01*
G75*
G02*
X0099036Y0216536I0000906J0000000D01*
G01*
X0104311Y0216536D01*
G75*
G02*
X0105217Y0215630I0000000J-000906D01*
G01*
G37*
G36*
G01*
X0127092Y0178544D02*
X0125074Y0178544D01*
G75*
G02*
X0124213Y0179405I0000000J0000861D01*
G01*
X0124213Y0181127D01*
G75*
G02*
X0125074Y0181989I0000861J0000000D01*
G01*
X0127092Y0181989D01*
G75*
G02*
X0127953Y0181127I0000000J-000861D01*
G01*
X0127953Y0179405D01*
G75*
G02*
X0127092Y0178544I-000861J0000000D01*
G01*
G37*
G36*
G01*
X0127092Y0184745D02*
X0125074Y0184745D01*
G75*
G02*
X0124213Y0185606I0000000J0000861D01*
G01*
X0124213Y0187328D01*
G75*
G02*
X0125074Y0188189I0000861J0000000D01*
G01*
X0127092Y0188189D01*
G75*
G02*
X0127953Y0187328I0000000J-000861D01*
G01*
X0127953Y0185606D01*
G75*
G02*
X0127092Y0184745I-000861J0000000D01*
G01*
G37*
G36*
G01*
X0120130Y0172599D02*
X0117453Y0172599D01*
G75*
G02*
X0117118Y0172934I0000000J0000335D01*
G01*
X0117118Y0175611D01*
G75*
G02*
X0117453Y0175945I0000335J0000000D01*
G01*
X0120130Y0175945D01*
G75*
G02*
X0120465Y0175611I0000000J-000335D01*
G01*
X0120465Y0172934D01*
G75*
G02*
X0120130Y0172599I-000335J0000000D01*
G01*
G37*
G36*
G01*
X0120130Y0166378D02*
X0117453Y0166378D01*
G75*
G02*
X0117118Y0166713I0000000J0000335D01*
G01*
X0117118Y0169390D01*
G75*
G02*
X0117453Y0169725I0000335J0000000D01*
G01*
X0120130Y0169725D01*
G75*
G02*
X0120465Y0169390I0000000J-000335D01*
G01*
X0120465Y0166713D01*
G75*
G02*
X0120130Y0166378I-000335J0000000D01*
G01*
G37*
G36*
G01*
X0114823Y0166378D02*
X0112146Y0166378D01*
G75*
G02*
X0111811Y0166713I0000000J0000335D01*
G01*
X0111811Y0169390D01*
G75*
G02*
X0112146Y0169725I0000335J0000000D01*
G01*
X0114823Y0169725D01*
G75*
G02*
X0115158Y0169390I0000000J-000335D01*
G01*
X0115158Y0166713D01*
G75*
G02*
X0114823Y0166378I-000335J0000000D01*
G01*
G37*
G36*
G01*
X0114823Y0172599D02*
X0112146Y0172599D01*
G75*
G02*
X0111811Y0172934I0000000J0000335D01*
G01*
X0111811Y0175611D01*
G75*
G02*
X0112146Y0175945I0000335J0000000D01*
G01*
X0114823Y0175945D01*
G75*
G02*
X0115158Y0175611I0000000J-000335D01*
G01*
X0115158Y0172934D01*
G75*
G02*
X0114823Y0172599I-000335J0000000D01*
G01*
G37*
G36*
G01*
X0121024Y0191792D02*
X0121024Y0189115D01*
G75*
G02*
X0120689Y0188780I-000335J0000000D01*
G01*
X0118012Y0188780D01*
G75*
G02*
X0117678Y0189115I0000000J0000335D01*
G01*
X0117678Y0191792D01*
G75*
G02*
X0118012Y0192126I0000335J0000000D01*
G01*
X0120689Y0192126D01*
G75*
G02*
X0121024Y0191792I0000000J-000335D01*
G01*
G37*
G36*
G01*
X0114804Y0191792D02*
X0114804Y0189115D01*
G75*
G02*
X0114469Y0188780I-000335J0000000D01*
G01*
X0111792Y0188780D01*
G75*
G02*
X0111457Y0189115I0000000J0000335D01*
G01*
X0111457Y0191792D01*
G75*
G02*
X0111792Y0192126I0000335J0000000D01*
G01*
X0114469Y0192126D01*
G75*
G02*
X0114804Y0191792I0000000J-000335D01*
G01*
G37*
X0130020Y0244193D02*
G01*
G75*
D306*
X0115315Y0233969D02*
D03*
X0115315Y0241449D02*
D03*
X0123780Y0241449D02*
D03*
X0123780Y0237709D02*
D03*
X0099666Y0233969D02*
D03*
X0099666Y0241449D02*
D03*
X0108130Y0241449D02*
D03*
X0108130Y0237709D02*
D03*
D306*
X0123780Y0233969D02*
D03*
X0108130Y0233969D02*
D03*
D114*
X0094587Y0233957D02*
D03*
X0094587Y0237697D02*
D03*
X0094587Y0241437D02*
D03*
X0128839Y0237500D02*
D03*
X0128839Y0233957D02*
D03*
X0243799Y0019783D02*
G01*
G75*
D380*
X0225709Y0143405D02*
D03*
X0225709Y0150492D02*
D03*
X0235748Y0150492D02*
D03*
X0235748Y0143405D02*
D03*
X0176968Y0031594D02*
D03*
X0176968Y0024507D02*
D03*
X0187008Y0024507D02*
D03*
X0187008Y0031594D02*
D03*
X0170866Y0031594D02*
D03*
X0170866Y0024507D02*
D03*
X0160826Y0024507D02*
D03*
X0160826Y0031594D02*
D03*
D381*
X0229153Y0143405D02*
D03*
X0232303Y0143405D02*
D03*
X0232303Y0150492D02*
D03*
X0229153Y0150492D02*
D03*
X0183563Y0024507D02*
D03*
X0180413Y0024507D02*
D03*
X0180413Y0031594D02*
D03*
X0183563Y0031594D02*
D03*
X0167421Y0031594D02*
D03*
X0164271Y0031594D02*
D03*
X0164271Y0024507D02*
D03*
X0167421Y0024507D02*
D03*
D382*
X0228705Y0139193D02*
D03*
X0226146Y0139193D02*
D03*
X0223586Y0139193D02*
D03*
X0228705Y0131713D02*
D03*
X0223586Y0131713D02*
D03*
X0226146Y0131713D02*
D03*
X0233330Y0131713D02*
D03*
X0238449Y0131713D02*
D03*
X0233330Y0139193D02*
D03*
X0235890Y0139193D02*
D03*
X0238449Y0139193D02*
D03*
X0235890Y0131713D02*
D03*
D180*
X0129429Y0071985D02*
D03*
X0131397Y0071985D02*
D03*
X0133366Y0071985D02*
D03*
X0135334Y0071985D02*
D03*
X0137303Y0071985D02*
D03*
X0139271Y0071985D02*
D03*
X0141240Y0071985D02*
D03*
X0143208Y0071985D02*
D03*
X0145177Y0071985D02*
D03*
X0149114Y0071985D02*
D03*
X0151083Y0071985D02*
D03*
X0153051Y0071985D02*
D03*
X0155020Y0071985D02*
D03*
X0156988Y0071985D02*
D03*
X0158957Y0071985D02*
D03*
X0160925Y0071985D02*
D03*
X0162894Y0071985D02*
D03*
X0164862Y0071985D02*
D03*
X0166831Y0071985D02*
D03*
X0168799Y0071985D02*
D03*
X0170767Y0071985D02*
D03*
X0172736Y0071985D02*
D03*
X0174704Y0071985D02*
D03*
X0176673Y0071985D02*
D03*
X0176673Y0133009D02*
D03*
X0174704Y0133009D02*
D03*
X0172736Y0133009D02*
D03*
X0170767Y0133009D02*
D03*
X0168799Y0133009D02*
D03*
X0166831Y0133009D02*
D03*
X0164862Y0133009D02*
D03*
X0162894Y0133009D02*
D03*
X0160925Y0133009D02*
D03*
X0158957Y0133009D02*
D03*
X0156988Y0133009D02*
D03*
X0155020Y0133009D02*
D03*
X0153051Y0133009D02*
D03*
X0151083Y0133009D02*
D03*
X0149114Y0133009D02*
D03*
X0147146Y0133009D02*
D03*
X0145177Y0133009D02*
D03*
X0143208Y0133009D02*
D03*
X0141240Y0133009D02*
D03*
X0139271Y0133009D02*
D03*
X0137303Y0133009D02*
D03*
X0135334Y0133009D02*
D03*
X0133366Y0133009D02*
D03*
X0129429Y0133009D02*
D03*
X0147146Y0071985D02*
D03*
X0131397Y0133009D02*
D03*
D179*
X0183563Y0078875D02*
D03*
X0183563Y0082812D02*
D03*
X0183563Y0084781D02*
D03*
X0183563Y0086749D02*
D03*
X0183563Y0088718D02*
D03*
X0183563Y0090686D02*
D03*
X0183563Y0092655D02*
D03*
X0183563Y0094623D02*
D03*
X0183563Y0096592D02*
D03*
X0183563Y0098560D02*
D03*
X0183563Y0100529D02*
D03*
X0183563Y0102497D02*
D03*
X0183563Y0104466D02*
D03*
X0183563Y0106434D02*
D03*
X0183563Y0108403D02*
D03*
X0183563Y0110371D02*
D03*
X0183563Y0112340D02*
D03*
X0183563Y0114308D02*
D03*
X0183563Y0116277D02*
D03*
X0183563Y0118245D02*
D03*
X0183563Y0120214D02*
D03*
X0183563Y0122182D02*
D03*
X0183563Y0124151D02*
D03*
X0183563Y0126119D02*
D03*
X0122539Y0126119D02*
D03*
X0122539Y0124151D02*
D03*
X0122539Y0122182D02*
D03*
X0122539Y0120214D02*
D03*
X0122539Y0118245D02*
D03*
X0122539Y0116277D02*
D03*
X0122539Y0114308D02*
D03*
X0122539Y0112340D02*
D03*
X0122539Y0110371D02*
D03*
X0122539Y0108403D02*
D03*
X0122539Y0106434D02*
D03*
X0122539Y0104466D02*
D03*
X0122539Y0102497D02*
D03*
X0122539Y0100529D02*
D03*
X0122539Y0098560D02*
D03*
X0122539Y0096592D02*
D03*
X0122539Y0094623D02*
D03*
X0122539Y0092655D02*
D03*
X0122539Y0090686D02*
D03*
X0122539Y0088718D02*
D03*
X0122539Y0086749D02*
D03*
X0122539Y0084781D02*
D03*
X0122539Y0082812D02*
D03*
X0122539Y0080844D02*
D03*
X0122539Y0078875D02*
D03*
X0183563Y0080844D02*
D03*
D383*
X0200492Y0075492D02*
D03*
X0200492Y0103444D02*
D03*
X0200492Y0047539D02*
D03*
X0205610Y0053051D02*
D03*
X0195374Y0081004D02*
D03*
X0197933Y0081004D02*
D03*
X0200492Y0081004D02*
D03*
X0203051Y0081004D02*
D03*
X0205610Y0081004D02*
D03*
X0208169Y0081004D02*
D03*
X0210728Y0081004D02*
D03*
X0195374Y0103444D02*
D03*
X0197933Y0103444D02*
D03*
X0203051Y0103444D02*
D03*
X0205610Y0103444D02*
D03*
X0208169Y0103444D02*
D03*
X0210728Y0103444D02*
D03*
X0195374Y0025098D02*
D03*
X0197933Y0025098D02*
D03*
X0200492Y0025098D02*
D03*
X0203051Y0025098D02*
D03*
X0205610Y0025098D02*
D03*
X0208169Y0025098D02*
D03*
X0210728Y0025098D02*
D03*
X0195374Y0047539D02*
D03*
X0197933Y0047539D02*
D03*
X0203051Y0047539D02*
D03*
X0205610Y0047539D02*
D03*
X0208169Y0047539D02*
D03*
X0210728Y0047539D02*
D03*
X0195374Y0053051D02*
D03*
X0197933Y0053051D02*
D03*
X0200492Y0053051D02*
D03*
X0203051Y0053051D02*
D03*
X0208169Y0053051D02*
D03*
X0210728Y0053051D02*
D03*
X0195374Y0075492D02*
D03*
X0197933Y0075492D02*
D03*
X0203051Y0075492D02*
D03*
X0205610Y0075492D02*
D03*
X0208169Y0075492D02*
D03*
X0210728Y0075492D02*
D03*
X0210728Y0131397D02*
D03*
X0208169Y0131397D02*
D03*
X0205610Y0131397D02*
D03*
X0203051Y0131397D02*
D03*
X0200492Y0131397D02*
D03*
X0197933Y0131397D02*
D03*
X0195374Y0131397D02*
D03*
X0210728Y0108956D02*
D03*
X0208169Y0108956D02*
D03*
X0205610Y0108956D02*
D03*
X0203051Y0108956D02*
D03*
X0200492Y0108956D02*
D03*
X0197933Y0108956D02*
D03*
X0195374Y0108956D02*
D03*
D182*
X0109606Y0129901D02*
D03*
X0114606Y0129901D02*
D03*
X0109606Y0124901D02*
D03*
X0114606Y0124901D02*
D03*
X0109606Y0119901D02*
D03*
X0114606Y0119901D02*
D03*
D384*
X0108366Y0144192D02*
D03*
X0108366Y0147933D02*
D03*
X0108366Y0140452D02*
D03*
X0117815Y0140452D02*
D03*
X0117815Y0144192D02*
D03*
X0117815Y0147933D02*
D03*
D385*
X0129626Y0145642D02*
D03*
X0124901Y0145642D02*
D03*
X0139173Y0144173D02*
D03*
X0112388Y0057633D02*
D03*
X0188254Y0070945D02*
D03*
X0129626Y0141706D02*
D03*
X0139173Y0148111D02*
D03*
X0176157Y0142811D02*
D03*
X0176157Y0146748D02*
D03*
X0185212Y0142811D02*
D03*
X0185212Y0146748D02*
D03*
X0124901Y0141706D02*
D03*
X0112388Y0061570D02*
D03*
X0129103Y0054493D02*
D03*
X0129103Y0058430D02*
D03*
X0188254Y0074882D02*
D03*
X0183958Y0074901D02*
D03*
X0183958Y0070964D02*
D03*
D186*
X0147808Y0148099D02*
D03*
X0149776Y0148099D02*
D03*
X0145839Y0141800D02*
D03*
X0147808Y0141800D02*
D03*
X0143871Y0141800D02*
D03*
X0149776Y0141800D02*
D03*
X0143871Y0148099D02*
D03*
X0145839Y0148099D02*
D03*
D185*
X0149973Y0145934D02*
D03*
X0149973Y0143965D02*
D03*
X0143674Y0143965D02*
D03*
X0143674Y0145934D02*
D03*
D386*
X0154823Y0143194D02*
D03*
X0171358Y0143194D02*
D03*
D387*
X0227264Y0114665D02*
D03*
X0227264Y0124114D02*
D03*
X0227264Y0119389D02*
D03*
X0227264Y0109941D02*
D03*
X0238681Y0124114D02*
D03*
X0238681Y0114665D02*
D03*
X0238681Y0119389D02*
D03*
X0238681Y0109941D02*
D03*
X0220284Y0103731D02*
D03*
X0216347Y0103731D02*
D03*
X0234744Y0109941D02*
D03*
D03*
X0230807Y0109941D02*
D03*
X0234744Y0114665D02*
D03*
X0230807Y0114665D02*
D03*
X0223327Y0109941D02*
D03*
X0234744Y0119389D02*
D03*
X0230807Y0119389D02*
D03*
X0223327Y0114665D02*
D03*
X0223327Y0119389D02*
D03*
X0234744Y0124114D02*
D03*
X0230807Y0124114D02*
D03*
X0234744Y0124114D02*
D03*
X0223327Y0124114D02*
D03*
X0234744Y0114665D02*
D03*
X0234744Y0119389D02*
D03*
X0232382Y0023917D02*
D03*
X0236319Y0023917D02*
D03*
X0234744Y0048523D02*
D03*
X0238681Y0048523D02*
D03*
X0234744Y0062696D02*
D03*
X0238681Y0062696D02*
D03*
X0230807Y0081594D02*
D03*
X0234744Y0081594D02*
D03*
X0238681Y0081594D02*
D03*
X0234744Y0081594D02*
D03*
X0230807Y0095767D02*
D03*
X0234744Y0095767D02*
D03*
X0215649Y0023917D02*
D03*
X0219586Y0023917D02*
D03*
X0234744Y0029626D02*
D03*
X0230807Y0029626D02*
D03*
X0234744Y0034350D02*
D03*
X0230807Y0034350D02*
D03*
X0234744Y0039074D02*
D03*
X0230807Y0039074D02*
D03*
X0234744Y0043799D02*
D03*
X0230807Y0043799D02*
D03*
X0234744Y0029626D02*
D03*
X0238681Y0029626D02*
D03*
X0234744Y0034350D02*
D03*
X0238681Y0034350D02*
D03*
X0234744Y0039074D02*
D03*
X0238681Y0039074D02*
D03*
X0234744Y0043799D02*
D03*
X0238681Y0043799D02*
D03*
X0234744Y0048523D02*
D03*
X0230807Y0048523D02*
D03*
X0234744Y0053248D02*
D03*
X0230807Y0053248D02*
D03*
X0234744Y0057972D02*
D03*
X0230807Y0057972D02*
D03*
X0234744Y0062696D02*
D03*
X0230807Y0062696D02*
D03*
X0234744Y0053248D02*
D03*
X0238681Y0053248D02*
D03*
X0234744Y0057972D02*
D03*
X0238681Y0057972D02*
D03*
X0230807Y0067421D02*
D03*
X0234744Y0067421D02*
D03*
X0230807Y0072145D02*
D03*
X0234744Y0072145D02*
D03*
X0230807Y0076870D02*
D03*
X0234744Y0076870D02*
D03*
X0238681Y0067421D02*
D03*
X0234744Y0067421D02*
D03*
X0238681Y0072145D02*
D03*
X0234744Y0072145D02*
D03*
X0238681Y0076870D02*
D03*
X0234744Y0076870D02*
D03*
X0230807Y0086319D02*
D03*
X0234744Y0086319D02*
D03*
X0230807Y0091043D02*
D03*
X0234744Y0091043D02*
D03*
X0230807Y0100492D02*
D03*
X0234744Y0100492D02*
D03*
X0238681Y0086319D02*
D03*
X0234744Y0086319D02*
D03*
X0238681Y0091043D02*
D03*
X0234744Y0091043D02*
D03*
X0238681Y0095767D02*
D03*
X0234744Y0095767D02*
D03*
X0238681Y0100492D02*
D03*
X0234744Y0100492D02*
D03*
X0224705Y0023917D02*
D03*
X0228642Y0023917D02*
D03*
D388*
X0221752Y0088681D02*
D03*
X0221752Y0069783D02*
D03*
X0221752Y0050885D02*
D03*
X0221752Y0031988D02*
D03*
X0218012Y0060334D02*
D03*
X0221752Y0060334D02*
D03*
X0225492Y0060334D02*
D03*
X0225492Y0050885D02*
D03*
X0218012Y0050885D02*
D03*
X0218012Y0041437D02*
D03*
X0221752Y0041437D02*
D03*
X0225492Y0041437D02*
D03*
X0225492Y0031988D02*
D03*
X0218012Y0031988D02*
D03*
X0218012Y0079232D02*
D03*
X0221752Y0079232D02*
D03*
X0225492Y0079232D02*
D03*
X0225492Y0069783D02*
D03*
X0218012Y0069783D02*
D03*
X0218012Y0098130D02*
D03*
X0221752Y0098130D02*
D03*
X0225492Y0098130D02*
D03*
X0225492Y0088681D02*
D03*
X0218012Y0088681D02*
D03*
D389*
X0124717Y0054696D02*
D03*
X0114468Y0072618D02*
D03*
D390*
X0149840Y0045374D02*
D03*
X0154840Y0026476D02*
D03*
X0139840Y0026476D02*
D03*
X0144840Y0026476D02*
D03*
X0149840Y0026476D02*
D03*
X0139840Y0045374D02*
D03*
X0144840Y0045374D02*
D03*
X0154840Y0045374D02*
D03*
D391*
X0132199Y0027066D02*
D03*
X0132199Y0045177D02*
D03*
D392*
X0163725Y0061528D02*
D03*
X0164273Y0045319D02*
D03*
X0171885Y0062005D02*
D03*
X0179496Y0062005D02*
D03*
X0171885Y0045319D02*
D03*
X0179496Y0045319D02*
D03*
X0187108Y0062005D02*
D03*
X0187108Y0045319D02*
D03*
X0163725Y0054835D02*
D03*
X0171885Y0055312D02*
D03*
X0179496Y0055312D02*
D03*
X0187108Y0055312D02*
D03*
X0171885Y0038626D02*
D03*
X0164273Y0038626D02*
D03*
X0155748Y0054835D02*
D03*
X0155748Y0061528D02*
D03*
X0148661Y0061528D02*
D03*
X0148661Y0054835D02*
D03*
X0141575Y0054835D02*
D03*
X0141575Y0061528D02*
D03*
X0134488Y0061528D02*
D03*
X0134488Y0054835D02*
D03*
X0179496Y0038626D02*
D03*
X0187108Y0038626D02*
D03*
X0106988Y0061528D02*
D03*
X0106988Y0054835D02*
D03*
D393*
X0134401Y0148202D02*
D03*
X0134401Y0141902D02*
D03*
X0180842Y0140842D02*
D03*
X0180842Y0147142D02*
D03*
D394*
X0111459Y0107577D02*
D03*
X0111459Y0091042D02*
D03*
D389*
X0106988Y0072618D02*
D03*
X0110728Y0081870D02*
D03*
X0117237Y0054696D02*
D03*
X0120977Y0063948D02*
D03*
D395*
X0107789Y0036122D02*
D03*
D396*
X0132199Y0036122D02*
D03*
D198*
X0234744Y0105413D02*
D03*
X0240649Y0024507D02*
D03*
D397*
X0217002Y0142604D02*
D03*
X0199286Y0142604D02*
D03*
D200*
X0189665Y0097696D02*
D03*
X0189665Y0111909D02*
D03*
X0189665Y0081909D02*
D03*
D201*
X0112106Y0134901D02*
D03*
X0116106Y0114901D02*
D03*
X0108106Y0114901D02*
D03*
D13*
X0106397Y0024114D02*
D03*
X0223917Y0240965D02*
G01*
G75*
D428*
X0225393Y0240099D02*
D03*
D429*
X0266338Y0219725D02*
D03*
D430*
X0272736Y0234567D02*
D03*
D345*
X0255905Y0237579D02*
D03*
X0255905Y0231359D02*
D03*
D343*
X0270374Y0234469D02*
D03*
X0270374Y0221477D02*
D03*
X0262204Y0221280D02*
D03*
X0262204Y0234272D02*
D03*
D438*
X0256043Y0227284D02*
D03*
X0256043Y0220985D02*
D03*
D432*
X0248917Y0222441D02*
D03*
X0248917Y0227441D02*
D03*
X0248917Y0232441D02*
D03*
X0248917Y0237441D02*
D03*
X0230020Y0222441D02*
D03*
X0230020Y0227441D02*
D03*
X0230020Y0232441D02*
D03*
X0230020Y0237441D02*
D03*
D114*
X0236515Y0226004D02*
D03*
X0236515Y0222461D02*
D03*
X0236515Y0237520D02*
D03*
X0236515Y0232500D02*
D03*
X0261811Y0230315D02*
D03*
M02*
