G75*
G70*
%OFA0B0*%
%FSLAX25Y25*%
%IPPOS*%
%LPD*%
%AMOC8*
5,1,8,0,0,1.08239X$1,22.5*
%
%AMM100*
21,1,0.033470,0.026770,-0.000000,0.000000,90.000000*
21,1,0.026770,0.033470,-0.000000,0.000000,90.000000*
1,1,0.006690,0.013390,0.013390*
1,1,0.006690,0.013390,-0.013390*
1,1,0.006690,-0.013390,-0.013390*
1,1,0.006690,-0.013390,0.013390*
%
%AMM139*
21,1,0.019680,0.019680,-0.000000,-0.000000,180.000000*
21,1,0.015750,0.023620,-0.000000,-0.000000,180.000000*
1,1,0.003940,-0.007870,0.009840*
1,1,0.003940,0.007870,0.009840*
1,1,0.003940,0.007870,-0.009840*
1,1,0.003940,-0.007870,-0.009840*
%
%AMM140*
21,1,0.019680,0.019680,-0.000000,-0.000000,90.000000*
21,1,0.015750,0.023620,-0.000000,-0.000000,90.000000*
1,1,0.003940,0.009840,0.007870*
1,1,0.003940,0.009840,-0.007870*
1,1,0.003940,-0.009840,-0.007870*
1,1,0.003940,-0.009840,0.007870*
%
%AMM155*
21,1,0.033470,0.026770,-0.000000,-0.000000,90.000000*
21,1,0.026770,0.033470,-0.000000,-0.000000,90.000000*
1,1,0.006690,0.013390,0.013390*
1,1,0.006690,0.013390,-0.013390*
1,1,0.006690,-0.013390,-0.013390*
1,1,0.006690,-0.013390,0.013390*
%
%AMM156*
21,1,0.023620,0.018900,-0.000000,-0.000000,0.000000*
21,1,0.018900,0.023620,-0.000000,-0.000000,0.000000*
1,1,0.004720,0.009450,-0.009450*
1,1,0.004720,-0.009450,-0.009450*
1,1,0.004720,-0.009450,0.009450*
1,1,0.004720,0.009450,0.009450*
%
%AMM170*
21,1,0.035830,0.026770,0.000000,-0.000000,270.000000*
21,1,0.029130,0.033470,0.000000,-0.000000,270.000000*
1,1,0.006690,-0.013390,-0.014570*
1,1,0.006690,-0.013390,0.014570*
1,1,0.006690,0.013390,0.014570*
1,1,0.006690,0.013390,-0.014570*
%
%AMM171*
21,1,0.070870,0.036220,0.000000,-0.000000,0.000000*
21,1,0.061810,0.045280,0.000000,-0.000000,0.000000*
1,1,0.009060,0.030910,-0.018110*
1,1,0.009060,-0.030910,-0.018110*
1,1,0.009060,-0.030910,0.018110*
1,1,0.009060,0.030910,0.018110*
%
%AMM174*
21,1,0.023620,0.018900,0.000000,-0.000000,0.000000*
21,1,0.018900,0.023620,0.000000,-0.000000,0.000000*
1,1,0.004720,0.009450,-0.009450*
1,1,0.004720,-0.009450,-0.009450*
1,1,0.004720,-0.009450,0.009450*
1,1,0.004720,0.009450,0.009450*
%
%AMM175*
21,1,0.019680,0.019680,0.000000,-0.000000,270.000000*
21,1,0.015750,0.023620,0.000000,-0.000000,270.000000*
1,1,0.003940,-0.009840,-0.007870*
1,1,0.003940,-0.009840,0.007870*
1,1,0.003940,0.009840,0.007870*
1,1,0.003940,0.009840,-0.007870*
%
%AMM176*
21,1,0.019680,0.019680,0.000000,-0.000000,180.000000*
21,1,0.015750,0.023620,0.000000,-0.000000,180.000000*
1,1,0.003940,-0.007870,0.009840*
1,1,0.003940,0.007870,0.009840*
1,1,0.003940,0.007870,-0.009840*
1,1,0.003940,-0.007870,-0.009840*
%
%AMM190*
21,1,0.106300,0.050390,0.000000,-0.000000,0.000000*
21,1,0.093700,0.062990,0.000000,-0.000000,0.000000*
1,1,0.012600,0.046850,-0.025200*
1,1,0.012600,-0.046850,-0.025200*
1,1,0.012600,-0.046850,0.025200*
1,1,0.012600,0.046850,0.025200*
%
%AMM191*
21,1,0.033470,0.026770,0.000000,-0.000000,180.000000*
21,1,0.026770,0.033470,0.000000,-0.000000,180.000000*
1,1,0.006690,-0.013390,0.013390*
1,1,0.006690,0.013390,0.013390*
1,1,0.006690,0.013390,-0.013390*
1,1,0.006690,-0.013390,-0.013390*
%
%AMM192*
21,1,0.023620,0.018900,0.000000,-0.000000,90.000000*
21,1,0.018900,0.023620,0.000000,-0.000000,90.000000*
1,1,0.004720,0.009450,0.009450*
1,1,0.004720,0.009450,-0.009450*
1,1,0.004720,-0.009450,-0.009450*
1,1,0.004720,-0.009450,0.009450*
%
%AMM193*
21,1,0.122050,0.075590,0.000000,-0.000000,90.000000*
21,1,0.103150,0.094490,0.000000,-0.000000,90.000000*
1,1,0.018900,0.037800,0.051580*
1,1,0.018900,0.037800,-0.051580*
1,1,0.018900,-0.037800,-0.051580*
1,1,0.018900,-0.037800,0.051580*
%
%AMM194*
21,1,0.118110,0.083460,0.000000,-0.000000,270.000000*
21,1,0.097240,0.104330,0.000000,-0.000000,270.000000*
1,1,0.020870,-0.041730,-0.048620*
1,1,0.020870,-0.041730,0.048620*
1,1,0.020870,0.041730,0.048620*
1,1,0.020870,0.041730,-0.048620*
%
%AMM200*
21,1,0.025590,0.026380,-0.000000,0.000000,0.000000*
21,1,0.020470,0.031500,-0.000000,0.000000,0.000000*
1,1,0.005120,0.010240,-0.013190*
1,1,0.005120,-0.010240,-0.013190*
1,1,0.005120,-0.010240,0.013190*
1,1,0.005120,0.010240,0.013190*
%
%AMM201*
21,1,0.017720,0.027950,-0.000000,0.000000,0.000000*
21,1,0.014170,0.031500,-0.000000,0.000000,0.000000*
1,1,0.003540,0.007090,-0.013980*
1,1,0.003540,-0.007090,-0.013980*
1,1,0.003540,-0.007090,0.013980*
1,1,0.003540,0.007090,0.013980*
%
%AMM204*
21,1,0.027560,0.018900,-0.000000,0.000000,180.000000*
21,1,0.022840,0.023620,-0.000000,0.000000,180.000000*
1,1,0.004720,-0.011420,0.009450*
1,1,0.004720,0.011420,0.009450*
1,1,0.004720,0.011420,-0.009450*
1,1,0.004720,-0.011420,-0.009450*
%
%AMM206*
21,1,0.027560,0.018900,-0.000000,0.000000,270.000000*
21,1,0.022840,0.023620,-0.000000,0.000000,270.000000*
1,1,0.004720,-0.009450,-0.011420*
1,1,0.004720,-0.009450,0.011420*
1,1,0.004720,0.009450,0.011420*
1,1,0.004720,0.009450,-0.011420*
%
%AMM208*
21,1,0.035430,0.030320,-0.000000,0.000000,0.000000*
21,1,0.028350,0.037400,-0.000000,0.000000,0.000000*
1,1,0.007090,0.014170,-0.015160*
1,1,0.007090,-0.014170,-0.015160*
1,1,0.007090,-0.014170,0.015160*
1,1,0.007090,0.014170,0.015160*
%
%AMM211*
21,1,0.027560,0.030710,-0.000000,0.000000,90.000000*
21,1,0.022050,0.036220,-0.000000,0.000000,90.000000*
1,1,0.005510,0.015350,0.011020*
1,1,0.005510,0.015350,-0.011020*
1,1,0.005510,-0.015350,-0.011020*
1,1,0.005510,-0.015350,0.011020*
%
%AMM232*
21,1,0.025590,0.026380,-0.000000,0.000000,90.000000*
21,1,0.020470,0.031500,-0.000000,0.000000,90.000000*
1,1,0.005120,0.013190,0.010240*
1,1,0.005120,0.013190,-0.010240*
1,1,0.005120,-0.013190,-0.010240*
1,1,0.005120,-0.013190,0.010240*
%
%AMM233*
21,1,0.017720,0.027950,-0.000000,0.000000,90.000000*
21,1,0.014170,0.031500,-0.000000,0.000000,90.000000*
1,1,0.003540,0.013980,0.007090*
1,1,0.003540,0.013980,-0.007090*
1,1,0.003540,-0.013980,-0.007090*
1,1,0.003540,-0.013980,0.007090*
%
%AMM234*
21,1,0.078740,0.045670,-0.000000,0.000000,270.000000*
21,1,0.067320,0.057090,-0.000000,0.000000,270.000000*
1,1,0.011420,-0.022840,-0.033660*
1,1,0.011420,-0.022840,0.033660*
1,1,0.011420,0.022840,0.033660*
1,1,0.011420,0.022840,-0.033660*
%
%AMM235*
21,1,0.059060,0.020470,-0.000000,0.000000,270.000000*
21,1,0.053940,0.025590,-0.000000,0.000000,270.000000*
1,1,0.005120,-0.010240,-0.026970*
1,1,0.005120,-0.010240,0.026970*
1,1,0.005120,0.010240,0.026970*
1,1,0.005120,0.010240,-0.026970*
%
%AMM236*
21,1,0.035430,0.030320,-0.000000,0.000000,270.000000*
21,1,0.028350,0.037400,-0.000000,0.000000,270.000000*
1,1,0.007090,-0.015160,-0.014170*
1,1,0.007090,-0.015160,0.014170*
1,1,0.007090,0.015160,0.014170*
1,1,0.007090,0.015160,-0.014170*
%
%AMM237*
21,1,0.012600,0.028980,-0.000000,0.000000,270.000000*
21,1,0.010080,0.031500,-0.000000,0.000000,270.000000*
1,1,0.002520,-0.014490,-0.005040*
1,1,0.002520,-0.014490,0.005040*
1,1,0.002520,0.014490,0.005040*
1,1,0.002520,0.014490,-0.005040*
%
%AMM238*
21,1,0.070870,0.036220,-0.000000,0.000000,90.000000*
21,1,0.061810,0.045280,-0.000000,0.000000,90.000000*
1,1,0.009060,0.018110,0.030910*
1,1,0.009060,0.018110,-0.030910*
1,1,0.009060,-0.018110,-0.030910*
1,1,0.009060,-0.018110,0.030910*
%
%AMM239*
21,1,0.027560,0.049610,-0.000000,0.000000,90.000000*
21,1,0.022050,0.055120,-0.000000,0.000000,90.000000*
1,1,0.005510,0.024800,0.011020*
1,1,0.005510,0.024800,-0.011020*
1,1,0.005510,-0.024800,-0.011020*
1,1,0.005510,-0.024800,0.011020*
%
%AMM240*
21,1,0.027560,0.030710,-0.000000,0.000000,180.000000*
21,1,0.022050,0.036220,-0.000000,0.000000,180.000000*
1,1,0.005510,-0.011020,0.015350*
1,1,0.005510,0.011020,0.015350*
1,1,0.005510,0.011020,-0.015350*
1,1,0.005510,-0.011020,-0.015350*
%
%AMM98*
21,1,0.035830,0.026770,-0.000000,0.000000,90.000000*
21,1,0.029130,0.033470,-0.000000,0.000000,90.000000*
1,1,0.006690,0.013390,0.014570*
1,1,0.006690,0.013390,-0.014570*
1,1,0.006690,-0.013390,-0.014570*
1,1,0.006690,-0.013390,0.014570*
%
%AMM99*
21,1,0.070870,0.036220,-0.000000,0.000000,180.000000*
21,1,0.061810,0.045280,-0.000000,0.000000,180.000000*
1,1,0.009060,-0.030910,0.018110*
1,1,0.009060,0.030910,0.018110*
1,1,0.009060,0.030910,-0.018110*
1,1,0.009060,-0.030910,-0.018110*
%
%ADD208R,0.01378X0.01476*%
%ADD214R,0.01476X0.01378*%
%ADD255M98*%
%ADD256M99*%
%ADD257M100*%
%ADD279O,0.08661X0.01968*%
%ADD29R,0.09055X0.00787*%
%ADD299M139*%
%ADD30R,0.14567X0.00787*%
%ADD300M140*%
%ADD31R,0.01575X0.00787*%
%ADD315M155*%
%ADD316M156*%
%ADD32R,0.06299X0.00787*%
%ADD33R,0.38189X0.00787*%
%ADD330M170*%
%ADD331M171*%
%ADD334M174*%
%ADD335M175*%
%ADD336M176*%
%ADD34R,0.00787X0.05512*%
%ADD35R,0.00787X0.25197*%
%ADD350M190*%
%ADD351M191*%
%ADD352M192*%
%ADD353M193*%
%ADD354M194*%
%ADD36R,0.00787X0.06693*%
%ADD363M200*%
%ADD364M201*%
%ADD368M204*%
%ADD37R,0.00787X0.12992*%
%ADD370M206*%
%ADD372M208*%
%ADD375M211*%
%ADD38R,0.00787X0.03937*%
%ADD39R,0.00787X0.07087*%
%ADD398M232*%
%ADD399M233*%
%ADD40R,0.27559X0.00787*%
%ADD400M234*%
%ADD401M235*%
%ADD402M236*%
%ADD403M237*%
%ADD404O,0.00984X0.04961*%
%ADD405M238*%
%ADD406R,0.06693X0.09449*%
%ADD407M239*%
%ADD408R,0.04331X0.03937*%
%ADD409M240*%
%ADD41R,0.12992X0.00787*%
%ADD42R,0.24803X0.00787*%
X0000000Y0000000D02*
%LPD*%
G01*
D29*
X0239272Y0020177D03*
D30*
X0112500Y0020177D03*
D31*
X0124508Y0020177D03*
D30*
X0136516Y0020177D03*
D32*
X0154035Y0020177D03*
D33*
X0207776Y0020177D03*
D34*
X0243406Y0027264D03*
D35*
X0102461Y0035531D03*
D36*
X0102461Y0059350D03*
D37*
X0102461Y0073130D03*
D38*
X0102461Y0098130D03*
D39*
X0102461Y0110728D03*
D35*
X0243406Y0141043D03*
D40*
X0115846Y0153248D03*
D31*
X0150098Y0153248D03*
D41*
X0208563Y0153248D03*
D42*
X0231398Y0153248D03*
G36*
G01*
X0171693Y0345079D02*
X0174764Y0345079D01*
G75*
G02*
X0175039Y0344803I0000000J-000276D01*
G01*
X0175039Y0342598D01*
G75*
G02*
X0174764Y0342323I-000276J0000000D01*
G01*
X0171693Y0342323D01*
G75*
G02*
X0171417Y0342598I0000000J0000276D01*
G01*
X0171417Y0344803D01*
G75*
G02*
X0171693Y0345079I0000276J0000000D01*
G01*
G37*
G36*
G01*
X0171693Y0338780D02*
X0174764Y0338780D01*
G75*
G02*
X0175039Y0338504I0000000J-000276D01*
G01*
X0175039Y0336299D01*
G75*
G02*
X0174764Y0336024I-000276J0000000D01*
G01*
X0171693Y0336024D01*
G75*
G02*
X0171417Y0336299I0000000J0000276D01*
G01*
X0171417Y0338504D01*
G75*
G02*
X0171693Y0338780I0000276J0000000D01*
G01*
G37*
G36*
G01*
X0154173Y0333524D02*
X0156850Y0333524D01*
G75*
G02*
X0157185Y0333189I0000000J-000335D01*
G01*
X0157185Y0330512D01*
G75*
G02*
X0156850Y0330177I-000335J0000000D01*
G01*
X0154173Y0330177D01*
G75*
G02*
X0153839Y0330512I0000000J0000335D01*
G01*
X0153839Y0333189D01*
G75*
G02*
X0154173Y0333524I0000335J0000000D01*
G01*
G37*
G36*
G01*
X0154173Y0327303D02*
X0156850Y0327303D01*
G75*
G02*
X0157185Y0326968I0000000J-000335D01*
G01*
X0157185Y0324291D01*
G75*
G02*
X0156850Y0323957I-000335J0000000D01*
G01*
X0154173Y0323957D01*
G75*
G02*
X0153839Y0324291I0000000J0000335D01*
G01*
X0153839Y0326968D01*
G75*
G02*
X0154173Y0327303I0000335J0000000D01*
G01*
G37*
G36*
G01*
X0165984Y0333524D02*
X0168661Y0333524D01*
G75*
G02*
X0168996Y0333189I0000000J-000335D01*
G01*
X0168996Y0330512D01*
G75*
G02*
X0168661Y0330177I-000335J0000000D01*
G01*
X0165984Y0330177D01*
G75*
G02*
X0165650Y0330512I0000000J0000335D01*
G01*
X0165650Y0333189D01*
G75*
G02*
X0165984Y0333524I0000335J0000000D01*
G01*
G37*
G36*
G01*
X0165984Y0327303D02*
X0168661Y0327303D01*
G75*
G02*
X0168996Y0326968I0000000J-000335D01*
G01*
X0168996Y0324291D01*
G75*
G02*
X0168661Y0323957I-000335J0000000D01*
G01*
X0165984Y0323957D01*
G75*
G02*
X0165650Y0324291I0000000J0000335D01*
G01*
X0165650Y0326968D01*
G75*
G02*
X0165984Y0327303I0000335J0000000D01*
G01*
G37*
G36*
G01*
X0174764Y0312402D02*
X0171693Y0312402D01*
G75*
G02*
X0171417Y0312677I0000000J0000276D01*
G01*
X0171417Y0314882D01*
G75*
G02*
X0171693Y0315157I0000276J0000000D01*
G01*
X0174764Y0315157D01*
G75*
G02*
X0175039Y0314882I0000000J-000276D01*
G01*
X0175039Y0312677D01*
G75*
G02*
X0174764Y0312402I-000276J0000000D01*
G01*
G37*
G36*
G01*
X0174764Y0318701D02*
X0171693Y0318701D01*
G75*
G02*
X0171417Y0318976I0000000J0000276D01*
G01*
X0171417Y0321181D01*
G75*
G02*
X0171693Y0321457I0000276J0000000D01*
G01*
X0174764Y0321457D01*
G75*
G02*
X0175039Y0321181I0000000J-000276D01*
G01*
X0175039Y0318976D01*
G75*
G02*
X0174764Y0318701I-000276J0000000D01*
G01*
G37*
G36*
G01*
X0160079Y0333524D02*
X0162756Y0333524D01*
G75*
G02*
X0163091Y0333189I0000000J-000335D01*
G01*
X0163091Y0330512D01*
G75*
G02*
X0162756Y0330177I-000335J0000000D01*
G01*
X0160079Y0330177D01*
G75*
G02*
X0159744Y0330512I0000000J0000335D01*
G01*
X0159744Y0333189D01*
G75*
G02*
X0160079Y0333524I0000335J0000000D01*
G01*
G37*
G36*
G01*
X0160079Y0327303D02*
X0162756Y0327303D01*
G75*
G02*
X0163091Y0326968I0000000J-000335D01*
G01*
X0163091Y0324291D01*
G75*
G02*
X0162756Y0323957I-000335J0000000D01*
G01*
X0160079Y0323957D01*
G75*
G02*
X0159744Y0324291I0000000J0000335D01*
G01*
X0159744Y0326968D01*
G75*
G02*
X0160079Y0327303I0000335J0000000D01*
G01*
G37*
G36*
G01*
X0177598Y0345079D02*
X0180669Y0345079D01*
G75*
G02*
X0180945Y0344803I0000000J-000276D01*
G01*
X0180945Y0342598D01*
G75*
G02*
X0180669Y0342323I-000276J0000000D01*
G01*
X0177598Y0342323D01*
G75*
G02*
X0177323Y0342598I0000000J0000276D01*
G01*
X0177323Y0344803D01*
G75*
G02*
X0177598Y0345079I0000276J0000000D01*
G01*
G37*
G36*
G01*
X0177598Y0338780D02*
X0180669Y0338780D01*
G75*
G02*
X0180945Y0338504I0000000J-000276D01*
G01*
X0180945Y0336299D01*
G75*
G02*
X0180669Y0336024I-000276J0000000D01*
G01*
X0177598Y0336024D01*
G75*
G02*
X0177323Y0336299I0000000J0000276D01*
G01*
X0177323Y0338504D01*
G75*
G02*
X0177598Y0338780I0000276J0000000D01*
G01*
G37*
G36*
G01*
X0157087Y0263583D02*
X0157087Y0264370D01*
G75*
G02*
X0157480Y0264764I0000394J0000000D01*
G01*
X0162500Y0264764D01*
G75*
G02*
X0162894Y0264370I0000000J-000394D01*
G01*
X0162894Y0263583D01*
G75*
G02*
X0162500Y0263189I-000394J0000000D01*
G01*
X0157480Y0263189D01*
G75*
G02*
X0157087Y0263583I0000000J0000394D01*
G01*
G37*
G36*
G01*
X0157087Y0266142D02*
X0157087Y0266929D01*
G75*
G02*
X0157480Y0267323I0000394J0000000D01*
G01*
X0162500Y0267323D01*
G75*
G02*
X0162894Y0266929I0000000J-000394D01*
G01*
X0162894Y0266142D01*
G75*
G02*
X0162500Y0265748I-000394J0000000D01*
G01*
X0157480Y0265748D01*
G75*
G02*
X0157087Y0266142I0000000J0000394D01*
G01*
G37*
G36*
G01*
X0157087Y0268701D02*
X0157087Y0269488D01*
G75*
G02*
X0157480Y0269882I0000394J0000000D01*
G01*
X0162500Y0269882D01*
G75*
G02*
X0162894Y0269488I0000000J-000394D01*
G01*
X0162894Y0268701D01*
G75*
G02*
X0162500Y0268307I-000394J0000000D01*
G01*
X0157480Y0268307D01*
G75*
G02*
X0157087Y0268701I0000000J0000394D01*
G01*
G37*
G36*
G01*
X0157087Y0271260D02*
X0157087Y0272047D01*
G75*
G02*
X0157480Y0272441I0000394J0000000D01*
G01*
X0162500Y0272441D01*
G75*
G02*
X0162894Y0272047I0000000J-000394D01*
G01*
X0162894Y0271260D01*
G75*
G02*
X0162500Y0270866I-000394J0000000D01*
G01*
X0157480Y0270866D01*
G75*
G02*
X0157087Y0271260I0000000J0000394D01*
G01*
G37*
G36*
G01*
X0157087Y0273819D02*
X0157087Y0274606D01*
G75*
G02*
X0157480Y0275000I0000394J0000000D01*
G01*
X0162500Y0275000D01*
G75*
G02*
X0162894Y0274606I0000000J-000394D01*
G01*
X0162894Y0273819D01*
G75*
G02*
X0162500Y0273425I-000394J0000000D01*
G01*
X0157480Y0273425D01*
G75*
G02*
X0157087Y0273819I0000000J0000394D01*
G01*
G37*
G36*
G01*
X0157087Y0276378D02*
X0157087Y0277165D01*
G75*
G02*
X0157480Y0277559I0000394J0000000D01*
G01*
X0162500Y0277559D01*
G75*
G02*
X0162894Y0277165I0000000J-000394D01*
G01*
X0162894Y0276378D01*
G75*
G02*
X0162500Y0275984I-000394J0000000D01*
G01*
X0157480Y0275984D01*
G75*
G02*
X0157087Y0276378I0000000J0000394D01*
G01*
G37*
G36*
G01*
X0157087Y0278937D02*
X0157087Y0279724D01*
G75*
G02*
X0157480Y0280118I0000394J0000000D01*
G01*
X0162500Y0280118D01*
G75*
G02*
X0162894Y0279724I0000000J-000394D01*
G01*
X0162894Y0278937D01*
G75*
G02*
X0162500Y0278543I-000394J0000000D01*
G01*
X0157480Y0278543D01*
G75*
G02*
X0157087Y0278937I0000000J0000394D01*
G01*
G37*
G36*
G01*
X0179626Y0278937D02*
X0179626Y0279724D01*
G75*
G02*
X0180020Y0280118I0000394J0000000D01*
G01*
X0185039Y0280118D01*
G75*
G02*
X0185433Y0279724I0000000J-000394D01*
G01*
X0185433Y0278937D01*
G75*
G02*
X0185039Y0278543I-000394J0000000D01*
G01*
X0180020Y0278543D01*
G75*
G02*
X0179626Y0278937I0000000J0000394D01*
G01*
G37*
G36*
G01*
X0179626Y0276378D02*
X0179626Y0277165D01*
G75*
G02*
X0180020Y0277559I0000394J0000000D01*
G01*
X0185039Y0277559D01*
G75*
G02*
X0185433Y0277165I0000000J-000394D01*
G01*
X0185433Y0276378D01*
G75*
G02*
X0185039Y0275984I-000394J0000000D01*
G01*
X0180020Y0275984D01*
G75*
G02*
X0179626Y0276378I0000000J0000394D01*
G01*
G37*
G36*
G01*
X0179626Y0273819D02*
X0179626Y0274606D01*
G75*
G02*
X0180020Y0275000I0000394J0000000D01*
G01*
X0185039Y0275000D01*
G75*
G02*
X0185433Y0274606I0000000J-000394D01*
G01*
X0185433Y0273819D01*
G75*
G02*
X0185039Y0273425I-000394J0000000D01*
G01*
X0180020Y0273425D01*
G75*
G02*
X0179626Y0273819I0000000J0000394D01*
G01*
G37*
G36*
G01*
X0179626Y0271260D02*
X0179626Y0272047D01*
G75*
G02*
X0180020Y0272441I0000394J0000000D01*
G01*
X0185039Y0272441D01*
G75*
G02*
X0185433Y0272047I0000000J-000394D01*
G01*
X0185433Y0271260D01*
G75*
G02*
X0185039Y0270866I-000394J0000000D01*
G01*
X0180020Y0270866D01*
G75*
G02*
X0179626Y0271260I0000000J0000394D01*
G01*
G37*
G36*
G01*
X0179626Y0268701D02*
X0179626Y0269488D01*
G75*
G02*
X0180020Y0269882I0000394J0000000D01*
G01*
X0185039Y0269882D01*
G75*
G02*
X0185433Y0269488I0000000J-000394D01*
G01*
X0185433Y0268701D01*
G75*
G02*
X0185039Y0268307I-000394J0000000D01*
G01*
X0180020Y0268307D01*
G75*
G02*
X0179626Y0268701I0000000J0000394D01*
G01*
G37*
G36*
G01*
X0179626Y0266142D02*
X0179626Y0266929D01*
G75*
G02*
X0180020Y0267323I0000394J0000000D01*
G01*
X0185039Y0267323D01*
G75*
G02*
X0185433Y0266929I0000000J-000394D01*
G01*
X0185433Y0266142D01*
G75*
G02*
X0185039Y0265748I-000394J0000000D01*
G01*
X0180020Y0265748D01*
G75*
G02*
X0179626Y0266142I0000000J0000394D01*
G01*
G37*
G36*
G01*
X0179626Y0263583D02*
X0179626Y0264370D01*
G75*
G02*
X0180020Y0264764I0000394J0000000D01*
G01*
X0185039Y0264764D01*
G75*
G02*
X0185433Y0264370I0000000J-000394D01*
G01*
X0185433Y0263583D01*
G75*
G02*
X0185039Y0263189I-000394J0000000D01*
G01*
X0180020Y0263189D01*
G75*
G02*
X0179626Y0263583I0000000J0000394D01*
G01*
G37*
G36*
G01*
X0175551Y0283602D02*
X0172874Y0283602D01*
G75*
G02*
X0172539Y0283937I0000000J0000335D01*
G01*
X0172539Y0286614D01*
G75*
G02*
X0172874Y0286949I0000335J0000000D01*
G01*
X0175551Y0286949D01*
G75*
G02*
X0175886Y0286614I0000000J-000335D01*
G01*
X0175886Y0283937D01*
G75*
G02*
X0175551Y0283602I-000335J0000000D01*
G01*
G37*
G36*
G01*
X0175551Y0289823D02*
X0172874Y0289823D01*
G75*
G02*
X0172539Y0290157I0000000J0000335D01*
G01*
X0172539Y0292835D01*
G75*
G02*
X0172874Y0293169I0000335J0000000D01*
G01*
X0175551Y0293169D01*
G75*
G02*
X0175886Y0292835I0000000J-000335D01*
G01*
X0175886Y0290157D01*
G75*
G02*
X0175551Y0289823I-000335J0000000D01*
G01*
G37*
G36*
G01*
X0162953Y0312402D02*
X0159882Y0312402D01*
G75*
G02*
X0159606Y0312677I0000000J0000276D01*
G01*
X0159606Y0314882D01*
G75*
G02*
X0159882Y0315157I0000276J0000000D01*
G01*
X0162953Y0315157D01*
G75*
G02*
X0163228Y0314882I0000000J-000276D01*
G01*
X0163228Y0312677D01*
G75*
G02*
X0162953Y0312402I-000276J0000000D01*
G01*
G37*
G36*
G01*
X0162953Y0318701D02*
X0159882Y0318701D01*
G75*
G02*
X0159606Y0318976I0000000J0000276D01*
G01*
X0159606Y0321181D01*
G75*
G02*
X0159882Y0321457I0000276J0000000D01*
G01*
X0162953Y0321457D01*
G75*
G02*
X0163228Y0321181I0000000J-000276D01*
G01*
X0163228Y0318976D01*
G75*
G02*
X0162953Y0318701I-000276J0000000D01*
G01*
G37*
G36*
G01*
X0157047Y0312402D02*
X0153976Y0312402D01*
G75*
G02*
X0153701Y0312677I0000000J0000276D01*
G01*
X0153701Y0314882D01*
G75*
G02*
X0153976Y0315157I0000276J0000000D01*
G01*
X0157047Y0315157D01*
G75*
G02*
X0157323Y0314882I0000000J-000276D01*
G01*
X0157323Y0312677D01*
G75*
G02*
X0157047Y0312402I-000276J0000000D01*
G01*
G37*
G36*
G01*
X0157047Y0318701D02*
X0153976Y0318701D01*
G75*
G02*
X0153701Y0318976I0000000J0000276D01*
G01*
X0153701Y0321181D01*
G75*
G02*
X0153976Y0321457I0000276J0000000D01*
G01*
X0157047Y0321457D01*
G75*
G02*
X0157323Y0321181I0000000J-000276D01*
G01*
X0157323Y0318976D01*
G75*
G02*
X0157047Y0318701I-000276J0000000D01*
G01*
G37*
G36*
G01*
X0180669Y0312402D02*
X0177598Y0312402D01*
G75*
G02*
X0177323Y0312677I0000000J0000276D01*
G01*
X0177323Y0314882D01*
G75*
G02*
X0177598Y0315157I0000276J0000000D01*
G01*
X0180669Y0315157D01*
G75*
G02*
X0180945Y0314882I0000000J-000276D01*
G01*
X0180945Y0312677D01*
G75*
G02*
X0180669Y0312402I-000276J0000000D01*
G01*
G37*
G36*
G01*
X0180669Y0318701D02*
X0177598Y0318701D01*
G75*
G02*
X0177323Y0318976I0000000J0000276D01*
G01*
X0177323Y0321181D01*
G75*
G02*
X0177598Y0321457I0000276J0000000D01*
G01*
X0180669Y0321457D01*
G75*
G02*
X0180945Y0321181I0000000J-000276D01*
G01*
X0180945Y0318976D01*
G75*
G02*
X0180669Y0318701I-000276J0000000D01*
G01*
G37*
G36*
G01*
X0171890Y0333524D02*
X0174567Y0333524D01*
G75*
G02*
X0174902Y0333189I0000000J-000335D01*
G01*
X0174902Y0330512D01*
G75*
G02*
X0174567Y0330177I-000335J0000000D01*
G01*
X0171890Y0330177D01*
G75*
G02*
X0171555Y0330512I0000000J0000335D01*
G01*
X0171555Y0333189D01*
G75*
G02*
X0171890Y0333524I0000335J0000000D01*
G01*
G37*
G36*
G01*
X0171890Y0327303D02*
X0174567Y0327303D01*
G75*
G02*
X0174902Y0326968I0000000J-000335D01*
G01*
X0174902Y0324291D01*
G75*
G02*
X0174567Y0323957I-000335J0000000D01*
G01*
X0171890Y0323957D01*
G75*
G02*
X0171555Y0324291I0000000J0000335D01*
G01*
X0171555Y0326968D01*
G75*
G02*
X0171890Y0327303I0000335J0000000D01*
G01*
G37*
G36*
G01*
X0183465Y0296063D02*
X0182283Y0296063D01*
G75*
G02*
X0181693Y0296654I0000000J0000591D01*
G01*
X0181693Y0300689D01*
G75*
G02*
X0182283Y0301280I0000591J0000000D01*
G01*
X0183465Y0301280D01*
G75*
G02*
X0184055Y0300689I0000000J-000591D01*
G01*
X0184055Y0296654D01*
G75*
G02*
X0183465Y0296063I-000591J0000000D01*
G01*
G37*
G36*
G01*
X0179724Y0296063D02*
X0178543Y0296063D01*
G75*
G02*
X0177953Y0296654I0000000J0000591D01*
G01*
X0177953Y0300689D01*
G75*
G02*
X0178543Y0301280I0000591J0000000D01*
G01*
X0179724Y0301280D01*
G75*
G02*
X0180315Y0300689I0000000J-000591D01*
G01*
X0180315Y0296654D01*
G75*
G02*
X0179724Y0296063I-000591J0000000D01*
G01*
G37*
G36*
G01*
X0175984Y0296063D02*
X0174803Y0296063D01*
G75*
G02*
X0174213Y0296654I0000000J0000591D01*
G01*
X0174213Y0300689D01*
G75*
G02*
X0174803Y0301280I0000591J0000000D01*
G01*
X0175984Y0301280D01*
G75*
G02*
X0176575Y0300689I0000000J-000591D01*
G01*
X0176575Y0296654D01*
G75*
G02*
X0175984Y0296063I-000591J0000000D01*
G01*
G37*
G36*
G01*
X0175984Y0305020D02*
X0174803Y0305020D01*
G75*
G02*
X0174213Y0305610I0000000J0000591D01*
G01*
X0174213Y0309646D01*
G75*
G02*
X0174803Y0310236I0000591J0000000D01*
G01*
X0175984Y0310236D01*
G75*
G02*
X0176575Y0309646I0000000J-000591D01*
G01*
X0176575Y0305610D01*
G75*
G02*
X0175984Y0305020I-000591J0000000D01*
G01*
G37*
G36*
G01*
X0179724Y0305020D02*
X0178543Y0305020D01*
G75*
G02*
X0177953Y0305610I0000000J0000591D01*
G01*
X0177953Y0309646D01*
G75*
G02*
X0178543Y0310236I0000591J0000000D01*
G01*
X0179724Y0310236D01*
G75*
G02*
X0180315Y0309646I0000000J-000591D01*
G01*
X0180315Y0305610D01*
G75*
G02*
X0179724Y0305020I-000591J0000000D01*
G01*
G37*
G36*
G01*
X0183465Y0305020D02*
X0182283Y0305020D01*
G75*
G02*
X0181693Y0305610I0000000J0000591D01*
G01*
X0181693Y0309646D01*
G75*
G02*
X0182283Y0310236I0000591J0000000D01*
G01*
X0183465Y0310236D01*
G75*
G02*
X0184055Y0309646I0000000J-000591D01*
G01*
X0184055Y0305610D01*
G75*
G02*
X0183465Y0305020I-000591J0000000D01*
G01*
G37*
G36*
G01*
X0164232Y0286772D02*
X0164232Y0284094D01*
G75*
G02*
X0163898Y0283760I-000335J0000000D01*
G01*
X0161220Y0283760D01*
G75*
G02*
X0160886Y0284094I0000000J0000335D01*
G01*
X0160886Y0286772D01*
G75*
G02*
X0161220Y0287106I0000335J0000000D01*
G01*
X0163898Y0287106D01*
G75*
G02*
X0164232Y0286772I0000000J-000335D01*
G01*
G37*
G36*
G01*
X0158012Y0286772D02*
X0158012Y0284094D01*
G75*
G02*
X0157677Y0283760I-000335J0000000D01*
G01*
X0155000Y0283760D01*
G75*
G02*
X0154665Y0284094I0000000J0000335D01*
G01*
X0154665Y0286772D01*
G75*
G02*
X0155000Y0287106I0000335J0000000D01*
G01*
X0157677Y0287106D01*
G75*
G02*
X0158012Y0286772I0000000J-000335D01*
G01*
G37*
G36*
G01*
X0153976Y0345079D02*
X0157047Y0345079D01*
G75*
G02*
X0157323Y0344803I0000000J-000276D01*
G01*
X0157323Y0342598D01*
G75*
G02*
X0157047Y0342323I-000276J0000000D01*
G01*
X0153976Y0342323D01*
G75*
G02*
X0153701Y0342598I0000000J0000276D01*
G01*
X0153701Y0344803D01*
G75*
G02*
X0153976Y0345079I0000276J0000000D01*
G01*
G37*
G36*
G01*
X0153976Y0338780D02*
X0157047Y0338780D01*
G75*
G02*
X0157323Y0338504I0000000J-000276D01*
G01*
X0157323Y0336299D01*
G75*
G02*
X0157047Y0336024I-000276J0000000D01*
G01*
X0153976Y0336024D01*
G75*
G02*
X0153701Y0336299I0000000J0000276D01*
G01*
X0153701Y0338504D01*
G75*
G02*
X0153976Y0338780I0000276J0000000D01*
G01*
G37*
G36*
G01*
X0183701Y0333524D02*
X0186378Y0333524D01*
G75*
G02*
X0186713Y0333189I0000000J-000335D01*
G01*
X0186713Y0330512D01*
G75*
G02*
X0186378Y0330177I-000335J0000000D01*
G01*
X0183701Y0330177D01*
G75*
G02*
X0183366Y0330512I0000000J0000335D01*
G01*
X0183366Y0333189D01*
G75*
G02*
X0183701Y0333524I0000335J0000000D01*
G01*
G37*
G36*
G01*
X0183701Y0327303D02*
X0186378Y0327303D01*
G75*
G02*
X0186713Y0326968I0000000J-000335D01*
G01*
X0186713Y0324291D01*
G75*
G02*
X0186378Y0323957I-000335J0000000D01*
G01*
X0183701Y0323957D01*
G75*
G02*
X0183366Y0324291I0000000J0000335D01*
G01*
X0183366Y0326968D01*
G75*
G02*
X0183701Y0327303I0000335J0000000D01*
G01*
G37*
G36*
G01*
X0153980Y0356890D02*
X0157051Y0356890D01*
G75*
G02*
X0157327Y0356614I0000000J-000276D01*
G01*
X0157327Y0354409D01*
G75*
G02*
X0157051Y0354134I-000276J0000000D01*
G01*
X0153980Y0354134D01*
G75*
G02*
X0153705Y0354409I0000000J0000276D01*
G01*
X0153705Y0356614D01*
G75*
G02*
X0153980Y0356890I0000276J0000000D01*
G01*
G37*
G36*
G01*
X0153980Y0350591D02*
X0157051Y0350591D01*
G75*
G02*
X0157327Y0350315I0000000J-000276D01*
G01*
X0157327Y0348110D01*
G75*
G02*
X0157051Y0347835I-000276J0000000D01*
G01*
X0153980Y0347835D01*
G75*
G02*
X0153705Y0348110I0000000J0000276D01*
G01*
X0153705Y0350315D01*
G75*
G02*
X0153980Y0350591I0000276J0000000D01*
G01*
G37*
G36*
G01*
X0174350Y0255551D02*
X0174350Y0258228D01*
G75*
G02*
X0174685Y0258563I0000335J0000000D01*
G01*
X0177362Y0258563D01*
G75*
G02*
X0177697Y0258228I0000000J-000335D01*
G01*
X0177697Y0255551D01*
G75*
G02*
X0177362Y0255217I-000335J0000000D01*
G01*
X0174685Y0255217D01*
G75*
G02*
X0174350Y0255551I0000000J0000335D01*
G01*
G37*
G36*
G01*
X0180571Y0255551D02*
X0180571Y0258228D01*
G75*
G02*
X0180906Y0258563I0000335J0000000D01*
G01*
X0183583Y0258563D01*
G75*
G02*
X0183917Y0258228I0000000J-000335D01*
G01*
X0183917Y0255551D01*
G75*
G02*
X0183583Y0255217I-000335J0000000D01*
G01*
X0180906Y0255217D01*
G75*
G02*
X0180571Y0255551I0000000J0000335D01*
G01*
G37*
G36*
G01*
X0165787Y0345079D02*
X0168858Y0345079D01*
G75*
G02*
X0169134Y0344803I0000000J-000276D01*
G01*
X0169134Y0342598D01*
G75*
G02*
X0168858Y0342323I-000276J0000000D01*
G01*
X0165787Y0342323D01*
G75*
G02*
X0165512Y0342598I0000000J0000276D01*
G01*
X0165512Y0344803D01*
G75*
G02*
X0165787Y0345079I0000276J0000000D01*
G01*
G37*
G36*
G01*
X0165787Y0338780D02*
X0168858Y0338780D01*
G75*
G02*
X0169134Y0338504I0000000J-000276D01*
G01*
X0169134Y0336299D01*
G75*
G02*
X0168858Y0336024I-000276J0000000D01*
G01*
X0165787Y0336024D01*
G75*
G02*
X0165512Y0336299I0000000J0000276D01*
G01*
X0165512Y0338504D01*
G75*
G02*
X0165787Y0338780I0000276J0000000D01*
G01*
G37*
G36*
G01*
X0177795Y0333524D02*
X0180472Y0333524D01*
G75*
G02*
X0180807Y0333189I0000000J-000335D01*
G01*
X0180807Y0330512D01*
G75*
G02*
X0180472Y0330177I-000335J0000000D01*
G01*
X0177795Y0330177D01*
G75*
G02*
X0177461Y0330512I0000000J0000335D01*
G01*
X0177461Y0333189D01*
G75*
G02*
X0177795Y0333524I0000335J0000000D01*
G01*
G37*
G36*
G01*
X0177795Y0327303D02*
X0180472Y0327303D01*
G75*
G02*
X0180807Y0326968I0000000J-000335D01*
G01*
X0180807Y0324291D01*
G75*
G02*
X0180472Y0323957I-000335J0000000D01*
G01*
X0177795Y0323957D01*
G75*
G02*
X0177461Y0324291I0000000J0000335D01*
G01*
X0177461Y0326968D01*
G75*
G02*
X0177795Y0327303I0000335J0000000D01*
G01*
G37*
G36*
G01*
X0159882Y0356890D02*
X0162953Y0356890D01*
G75*
G02*
X0163228Y0356614I0000000J-000276D01*
G01*
X0163228Y0354409D01*
G75*
G02*
X0162953Y0354134I-000276J0000000D01*
G01*
X0159882Y0354134D01*
G75*
G02*
X0159606Y0354409I0000000J0000276D01*
G01*
X0159606Y0356614D01*
G75*
G02*
X0159882Y0356890I0000276J0000000D01*
G01*
G37*
G36*
G01*
X0159882Y0350591D02*
X0162953Y0350591D01*
G75*
G02*
X0163228Y0350315I0000000J-000276D01*
G01*
X0163228Y0348110D01*
G75*
G02*
X0162953Y0347835I-000276J0000000D01*
G01*
X0159882Y0347835D01*
G75*
G02*
X0159606Y0348110I0000000J0000276D01*
G01*
X0159606Y0350315D01*
G75*
G02*
X0159882Y0350591I0000276J0000000D01*
G01*
G37*
G36*
G01*
X0187854Y0292677D02*
X0187854Y0290000D01*
G75*
G02*
X0187520Y0289665I-000335J0000000D01*
G01*
X0184843Y0289665D01*
G75*
G02*
X0184508Y0290000I0000000J0000335D01*
G01*
X0184508Y0292677D01*
G75*
G02*
X0184843Y0293012I0000335J0000000D01*
G01*
X0187520Y0293012D01*
G75*
G02*
X0187854Y0292677I0000000J-000335D01*
G01*
G37*
G36*
G01*
X0181634Y0292677D02*
X0181634Y0290000D01*
G75*
G02*
X0181299Y0289665I-000335J0000000D01*
G01*
X0178622Y0289665D01*
G75*
G02*
X0178287Y0290000I0000000J0000335D01*
G01*
X0178287Y0292677D01*
G75*
G02*
X0178622Y0293012I0000335J0000000D01*
G01*
X0181299Y0293012D01*
G75*
G02*
X0181634Y0292677I0000000J-000335D01*
G01*
G37*
G36*
G01*
X0168858Y0312402D02*
X0165787Y0312402D01*
G75*
G02*
X0165512Y0312677I0000000J0000276D01*
G01*
X0165512Y0314882D01*
G75*
G02*
X0165787Y0315157I0000276J0000000D01*
G01*
X0168858Y0315157D01*
G75*
G02*
X0169134Y0314882I0000000J-000276D01*
G01*
X0169134Y0312677D01*
G75*
G02*
X0168858Y0312402I-000276J0000000D01*
G01*
G37*
G36*
G01*
X0168858Y0318701D02*
X0165787Y0318701D01*
G75*
G02*
X0165512Y0318976I0000000J0000276D01*
G01*
X0165512Y0321181D01*
G75*
G02*
X0165787Y0321457I0000276J0000000D01*
G01*
X0168858Y0321457D01*
G75*
G02*
X0169134Y0321181I0000000J-000276D01*
G01*
X0169134Y0318976D01*
G75*
G02*
X0168858Y0318701I-000276J0000000D01*
G01*
G37*
G36*
G01*
X0178287Y0284094D02*
X0178287Y0286772D01*
G75*
G02*
X0178622Y0287106I0000335J0000000D01*
G01*
X0181299Y0287106D01*
G75*
G02*
X0181634Y0286772I0000000J-000335D01*
G01*
X0181634Y0284094D01*
G75*
G02*
X0181299Y0283760I-000335J0000000D01*
G01*
X0178622Y0283760D01*
G75*
G02*
X0178287Y0284094I0000000J0000335D01*
G01*
G37*
G36*
G01*
X0184508Y0284094D02*
X0184508Y0286772D01*
G75*
G02*
X0184843Y0287106I0000335J0000000D01*
G01*
X0187520Y0287106D01*
G75*
G02*
X0187854Y0286772I0000000J-000335D01*
G01*
X0187854Y0284094D01*
G75*
G02*
X0187520Y0283760I-000335J0000000D01*
G01*
X0184843Y0283760D01*
G75*
G02*
X0184508Y0284094I0000000J0000335D01*
G01*
G37*
G36*
G01*
X0167717Y0296063D02*
X0166535Y0296063D01*
G75*
G02*
X0165945Y0296654I0000000J0000591D01*
G01*
X0165945Y0300689D01*
G75*
G02*
X0166535Y0301280I0000591J0000000D01*
G01*
X0167717Y0301280D01*
G75*
G02*
X0168307Y0300689I0000000J-000591D01*
G01*
X0168307Y0296654D01*
G75*
G02*
X0167717Y0296063I-000591J0000000D01*
G01*
G37*
G36*
G01*
X0163976Y0296063D02*
X0162795Y0296063D01*
G75*
G02*
X0162205Y0296654I0000000J0000591D01*
G01*
X0162205Y0300689D01*
G75*
G02*
X0162795Y0301280I0000591J0000000D01*
G01*
X0163976Y0301280D01*
G75*
G02*
X0164567Y0300689I0000000J-000591D01*
G01*
X0164567Y0296654D01*
G75*
G02*
X0163976Y0296063I-000591J0000000D01*
G01*
G37*
G36*
G01*
X0160236Y0296063D02*
X0159055Y0296063D01*
G75*
G02*
X0158465Y0296654I0000000J0000591D01*
G01*
X0158465Y0300689D01*
G75*
G02*
X0159055Y0301280I0000591J0000000D01*
G01*
X0160236Y0301280D01*
G75*
G02*
X0160827Y0300689I0000000J-000591D01*
G01*
X0160827Y0296654D01*
G75*
G02*
X0160236Y0296063I-000591J0000000D01*
G01*
G37*
G36*
G01*
X0160236Y0305020D02*
X0159055Y0305020D01*
G75*
G02*
X0158465Y0305610I0000000J0000591D01*
G01*
X0158465Y0309646D01*
G75*
G02*
X0159055Y0310236I0000591J0000000D01*
G01*
X0160236Y0310236D01*
G75*
G02*
X0160827Y0309646I0000000J-000591D01*
G01*
X0160827Y0305610D01*
G75*
G02*
X0160236Y0305020I-000591J0000000D01*
G01*
G37*
G36*
G01*
X0163976Y0305020D02*
X0162795Y0305020D01*
G75*
G02*
X0162205Y0305610I0000000J0000591D01*
G01*
X0162205Y0309646D01*
G75*
G02*
X0162795Y0310236I0000591J0000000D01*
G01*
X0163976Y0310236D01*
G75*
G02*
X0164567Y0309646I0000000J-000591D01*
G01*
X0164567Y0305610D01*
G75*
G02*
X0163976Y0305020I-000591J0000000D01*
G01*
G37*
G36*
G01*
X0167717Y0305020D02*
X0166535Y0305020D01*
G75*
G02*
X0165945Y0305610I0000000J0000591D01*
G01*
X0165945Y0309646D01*
G75*
G02*
X0166535Y0310236I0000591J0000000D01*
G01*
X0167717Y0310236D01*
G75*
G02*
X0168307Y0309646I0000000J-000591D01*
G01*
X0168307Y0305610D01*
G75*
G02*
X0167717Y0305020I-000591J0000000D01*
G01*
G37*
G36*
G01*
X0177598Y0356890D02*
X0180669Y0356890D01*
G75*
G02*
X0180945Y0356614I0000000J-000276D01*
G01*
X0180945Y0354409D01*
G75*
G02*
X0180669Y0354134I-000276J0000000D01*
G01*
X0177598Y0354134D01*
G75*
G02*
X0177323Y0354409I0000000J0000276D01*
G01*
X0177323Y0356614D01*
G75*
G02*
X0177598Y0356890I0000276J0000000D01*
G01*
G37*
G36*
G01*
X0177598Y0350591D02*
X0180669Y0350591D01*
G75*
G02*
X0180945Y0350315I0000000J-000276D01*
G01*
X0180945Y0348110D01*
G75*
G02*
X0180669Y0347835I-000276J0000000D01*
G01*
X0177598Y0347835D01*
G75*
G02*
X0177323Y0348110I0000000J0000276D01*
G01*
X0177323Y0350315D01*
G75*
G02*
X0177598Y0350591I0000276J0000000D01*
G01*
G37*
G36*
G01*
X0183504Y0356890D02*
X0186575Y0356890D01*
G75*
G02*
X0186850Y0356614I0000000J-000276D01*
G01*
X0186850Y0354409D01*
G75*
G02*
X0186575Y0354134I-000276J0000000D01*
G01*
X0183504Y0354134D01*
G75*
G02*
X0183228Y0354409I0000000J0000276D01*
G01*
X0183228Y0356614D01*
G75*
G02*
X0183504Y0356890I0000276J0000000D01*
G01*
G37*
G36*
G01*
X0183504Y0350591D02*
X0186575Y0350591D01*
G75*
G02*
X0186850Y0350315I0000000J-000276D01*
G01*
X0186850Y0348110D01*
G75*
G02*
X0186575Y0347835I-000276J0000000D01*
G01*
X0183504Y0347835D01*
G75*
G02*
X0183228Y0348110I0000000J0000276D01*
G01*
X0183228Y0350315D01*
G75*
G02*
X0183504Y0350591I0000276J0000000D01*
G01*
G37*
G36*
G01*
X0159882Y0345079D02*
X0162953Y0345079D01*
G75*
G02*
X0163228Y0344803I0000000J-000276D01*
G01*
X0163228Y0342598D01*
G75*
G02*
X0162953Y0342323I-000276J0000000D01*
G01*
X0159882Y0342323D01*
G75*
G02*
X0159606Y0342598I0000000J0000276D01*
G01*
X0159606Y0344803D01*
G75*
G02*
X0159882Y0345079I0000276J0000000D01*
G01*
G37*
G36*
G01*
X0159882Y0338780D02*
X0162953Y0338780D01*
G75*
G02*
X0163228Y0338504I0000000J-000276D01*
G01*
X0163228Y0336299D01*
G75*
G02*
X0162953Y0336024I-000276J0000000D01*
G01*
X0159882Y0336024D01*
G75*
G02*
X0159606Y0336299I0000000J0000276D01*
G01*
X0159606Y0338504D01*
G75*
G02*
X0159882Y0338780I0000276J0000000D01*
G01*
G37*
G36*
G01*
X0186575Y0312402D02*
X0183504Y0312402D01*
G75*
G02*
X0183228Y0312677I0000000J0000276D01*
G01*
X0183228Y0314882D01*
G75*
G02*
X0183504Y0315157I0000276J0000000D01*
G01*
X0186575Y0315157D01*
G75*
G02*
X0186850Y0314882I0000000J-000276D01*
G01*
X0186850Y0312677D01*
G75*
G02*
X0186575Y0312402I-000276J0000000D01*
G01*
G37*
G36*
G01*
X0186575Y0318701D02*
X0183504Y0318701D01*
G75*
G02*
X0183228Y0318976I0000000J0000276D01*
G01*
X0183228Y0321181D01*
G75*
G02*
X0183504Y0321457I0000276J0000000D01*
G01*
X0186575Y0321457D01*
G75*
G02*
X0186850Y0321181I0000000J-000276D01*
G01*
X0186850Y0318976D01*
G75*
G02*
X0186575Y0318701I-000276J0000000D01*
G01*
G37*
G36*
G01*
X0183504Y0345079D02*
X0186575Y0345079D01*
G75*
G02*
X0186850Y0344803I0000000J-000276D01*
G01*
X0186850Y0342598D01*
G75*
G02*
X0186575Y0342323I-000276J0000000D01*
G01*
X0183504Y0342323D01*
G75*
G02*
X0183228Y0342598I0000000J0000276D01*
G01*
X0183228Y0344803D01*
G75*
G02*
X0183504Y0345079I0000276J0000000D01*
G01*
G37*
G36*
G01*
X0183504Y0338780D02*
X0186575Y0338780D01*
G75*
G02*
X0186850Y0338504I0000000J-000276D01*
G01*
X0186850Y0336299D01*
G75*
G02*
X0186575Y0336024I-000276J0000000D01*
G01*
X0183504Y0336024D01*
G75*
G02*
X0183228Y0336299I0000000J0000276D01*
G01*
X0183228Y0338504D01*
G75*
G02*
X0183504Y0338780I0000276J0000000D01*
G01*
G37*
G36*
G01*
X0165787Y0356890D02*
X0168858Y0356890D01*
G75*
G02*
X0169134Y0356614I0000000J-000276D01*
G01*
X0169134Y0354409D01*
G75*
G02*
X0168858Y0354134I-000276J0000000D01*
G01*
X0165787Y0354134D01*
G75*
G02*
X0165512Y0354409I0000000J0000276D01*
G01*
X0165512Y0356614D01*
G75*
G02*
X0165787Y0356890I0000276J0000000D01*
G01*
G37*
G36*
G01*
X0165787Y0350591D02*
X0168858Y0350591D01*
G75*
G02*
X0169134Y0350315I0000000J-000276D01*
G01*
X0169134Y0348110D01*
G75*
G02*
X0168858Y0347835I-000276J0000000D01*
G01*
X0165787Y0347835D01*
G75*
G02*
X0165512Y0348110I0000000J0000276D01*
G01*
X0165512Y0350315D01*
G75*
G02*
X0165787Y0350591I0000276J0000000D01*
G01*
G37*
G36*
G01*
X0169646Y0283602D02*
X0166969Y0283602D01*
G75*
G02*
X0166634Y0283937I0000000J0000335D01*
G01*
X0166634Y0286614D01*
G75*
G02*
X0166969Y0286949I0000335J0000000D01*
G01*
X0169646Y0286949D01*
G75*
G02*
X0169980Y0286614I0000000J-000335D01*
G01*
X0169980Y0283937D01*
G75*
G02*
X0169646Y0283602I-000335J0000000D01*
G01*
G37*
G36*
G01*
X0169646Y0289823D02*
X0166969Y0289823D01*
G75*
G02*
X0166634Y0290157I0000000J0000335D01*
G01*
X0166634Y0292835D01*
G75*
G02*
X0166969Y0293169I0000335J0000000D01*
G01*
X0169646Y0293169D01*
G75*
G02*
X0169980Y0292835I0000000J-000335D01*
G01*
X0169980Y0290157D01*
G75*
G02*
X0169646Y0289823I-000335J0000000D01*
G01*
G37*
G36*
G01*
X0164232Y0292677D02*
X0164232Y0290000D01*
G75*
G02*
X0163898Y0289665I-000335J0000000D01*
G01*
X0161220Y0289665D01*
G75*
G02*
X0160886Y0290000I0000000J0000335D01*
G01*
X0160886Y0292677D01*
G75*
G02*
X0161220Y0293012I0000335J0000000D01*
G01*
X0163898Y0293012D01*
G75*
G02*
X0164232Y0292677I0000000J-000335D01*
G01*
G37*
G36*
G01*
X0158012Y0292677D02*
X0158012Y0290000D01*
G75*
G02*
X0157677Y0289665I-000335J0000000D01*
G01*
X0155000Y0289665D01*
G75*
G02*
X0154665Y0290000I0000000J0000335D01*
G01*
X0154665Y0292677D01*
G75*
G02*
X0155000Y0293012I0000335J0000000D01*
G01*
X0157677Y0293012D01*
G75*
G02*
X0158012Y0292677I0000000J-000335D01*
G01*
G37*
G36*
G01*
X0171693Y0356890D02*
X0174764Y0356890D01*
G75*
G02*
X0175039Y0356614I0000000J-000276D01*
G01*
X0175039Y0354409D01*
G75*
G02*
X0174764Y0354134I-000276J0000000D01*
G01*
X0171693Y0354134D01*
G75*
G02*
X0171417Y0354409I0000000J0000276D01*
G01*
X0171417Y0356614D01*
G75*
G02*
X0171693Y0356890I0000276J0000000D01*
G01*
G37*
G36*
G01*
X0171693Y0350591D02*
X0174764Y0350591D01*
G75*
G02*
X0175039Y0350315I0000000J-000276D01*
G01*
X0175039Y0348110D01*
G75*
G02*
X0174764Y0347835I-000276J0000000D01*
G01*
X0171693Y0347835D01*
G75*
G02*
X0171417Y0348110I0000000J0000276D01*
G01*
X0171417Y0350315D01*
G75*
G02*
X0171693Y0350591I0000276J0000000D01*
G01*
G37*
X0135531Y0241437D02*
G01*
G75*
D330*
X0211909Y0211522D02*
D03*
X0211909Y0224514D02*
D03*
D331*
X0212303Y0191662D02*
D03*
X0212303Y0203079D02*
D03*
X0204271Y0191662D02*
D03*
X0204271Y0203079D02*
D03*
D334*
X0190255Y0229035D02*
D03*
X0194192Y0229035D02*
D03*
X0204822Y0232382D02*
D03*
X0204822Y0223720D02*
D03*
X0199574Y0233169D02*
D03*
X0199574Y0224508D02*
D03*
D335*
X0146948Y0221282D02*
D03*
X0146948Y0224826D02*
D03*
X0183681Y0211891D02*
D03*
X0183681Y0208347D02*
D03*
X0198786Y0219888D02*
D03*
X0198786Y0216345D02*
D03*
X0146948Y0212664D02*
D03*
X0146948Y0216207D02*
D03*
X0150885Y0233169D02*
D03*
X0150885Y0229626D02*
D03*
D336*
X0200361Y0207684D02*
D03*
X0203905Y0207684D02*
D03*
X0212763Y0228451D02*
D03*
X0209219Y0228451D02*
D03*
X0154446Y0179687D02*
D03*
X0157990Y0179687D02*
D03*
D350*
X0191830Y0192224D02*
D03*
X0191830Y0203248D02*
D03*
D351*
X0187507Y0224902D02*
D03*
X0193727Y0224902D02*
D03*
X0187507Y0210808D02*
D03*
X0193727Y0210808D02*
D03*
X0187507Y0215499D02*
D03*
X0193727Y0215499D02*
D03*
X0187507Y0220191D02*
D03*
X0193727Y0220191D02*
D03*
X0199751Y0211989D02*
D03*
X0205972Y0211989D02*
D03*
D352*
X0150885Y0221479D02*
D03*
X0150885Y0225416D02*
D03*
X0150885Y0216798D02*
D03*
X0150885Y0212861D02*
D03*
X0204822Y0220085D02*
D03*
X0204822Y0216148D02*
D03*
X0183208Y0197152D02*
D03*
X0183208Y0193215D02*
D03*
X0145767Y0189376D02*
D03*
X0145767Y0193314D02*
D03*
D279*
X0157645Y0216365D02*
D03*
X0157645Y0221365D02*
D03*
X0157645Y0226365D02*
D03*
X0157645Y0231365D02*
D03*
X0180282Y0216365D02*
D03*
X0180282Y0221365D02*
D03*
X0180282Y0226365D02*
D03*
X0180282Y0231365D02*
D03*
X0152362Y0193298D02*
D03*
X0152362Y0198298D02*
D03*
X0152362Y0203298D02*
D03*
X0152362Y0208298D02*
D03*
X0175787Y0193298D02*
D03*
X0175787Y0198298D02*
D03*
X0175787Y0203298D02*
D03*
X0175787Y0208298D02*
D03*
D353*
X0168963Y0223865D02*
D03*
D354*
X0164074Y0200798D02*
D03*
X0094587Y0222343D02*
%LPD*%
G01*
X0130020Y0244193D02*
G01*
G75*
D316*
X0102067Y0233957D02*
D03*
X0098130Y0233957D02*
D03*
X0113190Y0233957D02*
D03*
X0117127Y0233957D02*
D03*
X0121556Y0233957D02*
D03*
X0125493Y0233957D02*
D03*
X0102067Y0241240D02*
D03*
X0098130Y0241240D02*
D03*
D300*
X0105452Y0241437D02*
D03*
X0105452Y0237894D02*
D03*
D315*
X0109337Y0234724D02*
D03*
X0109337Y0240945D02*
D03*
D299*
X0121949Y0237894D02*
D03*
X0125492Y0237894D02*
D03*
X0113583Y0241437D02*
D03*
X0117126Y0241437D02*
D03*
X0098721Y0237836D02*
D03*
X0102264Y0237836D02*
D03*
X0125492Y0241437D02*
D03*
X0121949Y0241437D02*
D03*
X0243799Y0019783D02*
G01*
G75*
D38*
X0102460Y0098130D02*
D03*
D37*
X0102460Y0073130D02*
D03*
D36*
X0102460Y0059350D02*
D03*
D41*
X0208563Y0153248D02*
D03*
D39*
X0102460Y0110728D02*
D03*
D35*
X0243405Y0141043D02*
D03*
X0102460Y0035531D02*
D03*
D33*
X0207775Y0020177D02*
D03*
D29*
X0239271Y0020177D02*
D03*
D32*
X0154035Y0020177D02*
D03*
D34*
X0243405Y0027263D02*
D03*
D42*
X0231397Y0153248D02*
D03*
D40*
X0115846Y0153248D02*
D03*
D30*
X0136516Y0020177D02*
D03*
X0112500Y0020177D02*
D03*
D31*
X0124508Y0020177D02*
D03*
X0150098Y0153248D02*
D03*
D363*
X0158760Y0071752D02*
D03*
X0184055Y0071752D02*
D03*
X0168799Y0071752D02*
D03*
X0174015Y0071752D02*
D03*
X0143504Y0064665D02*
D03*
X0143504Y0071752D02*
D03*
X0153543Y0071752D02*
D03*
X0153543Y0064665D02*
D03*
X0184055Y0064665D02*
D03*
X0174015Y0064665D02*
D03*
X0168799Y0064665D02*
D03*
X0158760Y0064665D02*
D03*
D364*
X0162205Y0071752D02*
D03*
X0177460Y0071752D02*
D03*
X0165354Y0071752D02*
D03*
X0180610Y0071752D02*
D03*
X0150098Y0071752D02*
D03*
X0146949Y0071752D02*
D03*
X0146949Y0064665D02*
D03*
X0150098Y0064665D02*
D03*
X0177460Y0064665D02*
D03*
X0180610Y0064665D02*
D03*
X0162205Y0064665D02*
D03*
X0165354Y0064665D02*
D03*
D368*
X0184178Y0104735D02*
D03*
X0184178Y0100798D02*
D03*
X0184178Y0096539D02*
D03*
X0184178Y0092602D02*
D03*
X0151711Y0053217D02*
D03*
X0151711Y0049280D02*
D03*
X0155434Y0053217D02*
D03*
X0155434Y0049280D02*
D03*
X0118602Y0050801D02*
D03*
X0118602Y0054738D02*
D03*
X0107669Y0139435D02*
D03*
X0107908Y0103687D02*
D03*
X0184178Y0118602D02*
D03*
X0130020Y0086318D02*
D03*
X0134350Y0086318D02*
D03*
X0138569Y0082888D02*
D03*
X0126476Y0072145D02*
D03*
X0138514Y0071611D02*
D03*
X0168174Y0092027D02*
D03*
X0168174Y0083238D02*
D03*
X0176659Y0079301D02*
D03*
X0206525Y0144218D02*
D03*
X0188681Y0118602D02*
D03*
X0106456Y0068602D02*
D03*
X0122539Y0068109D02*
D03*
X0138605Y0064271D02*
D03*
X0137207Y0042618D02*
D03*
X0137207Y0028553D02*
D03*
X0141437Y0042618D02*
D03*
X0141437Y0028553D02*
D03*
X0188345Y0068256D02*
D03*
X0190256Y0023720D02*
D03*
X0126476Y0076082D02*
D03*
X0130020Y0090255D02*
D03*
X0168174Y0079301D02*
D03*
X0168174Y0088090D02*
D03*
X0172662Y0088090D02*
D03*
X0172662Y0092027D02*
D03*
X0192618Y0146161D02*
D03*
X0192618Y0142224D02*
D03*
X0206525Y0140281D02*
D03*
X0135701Y0054836D02*
D03*
X0135701Y0050899D02*
D03*
X0137207Y0024615D02*
D03*
X0138605Y0068208D02*
D03*
X0176659Y0083238D02*
D03*
X0138514Y0075548D02*
D03*
X0138569Y0078951D02*
D03*
X0141437Y0038681D02*
D03*
X0188345Y0064319D02*
D03*
X0190256Y0027657D02*
D03*
X0107908Y0099750D02*
D03*
X0106456Y0064665D02*
D03*
X0130634Y0046948D02*
D03*
X0130634Y0043011D02*
D03*
X0137207Y0038681D02*
D03*
X0188681Y0122539D02*
D03*
X0184178Y0122539D02*
D03*
X0134350Y0090255D02*
D03*
X0107669Y0135498D02*
D03*
X0107669Y0126182D02*
D03*
X0107669Y0130119D02*
D03*
X0122539Y0064172D02*
D03*
X0141437Y0032490D02*
D03*
X0186319Y0023720D02*
D03*
X0186319Y0027657D02*
D03*
X0173917Y0023720D02*
D03*
X0173917Y0027657D02*
D03*
X0169783Y0023720D02*
D03*
X0169783Y0027657D02*
D03*
X0161515Y0023720D02*
D03*
X0161515Y0027657D02*
D03*
X0165649Y0023720D02*
D03*
X0165649Y0027657D02*
D03*
X0157382Y0023720D02*
D03*
X0157382Y0027657D02*
D03*
X0178051Y0023720D02*
D03*
X0178051Y0027657D02*
D03*
X0182185Y0023720D02*
D03*
X0182185Y0027657D02*
D03*
D370*
X0154823Y0078710D02*
D03*
X0150590Y0078710D02*
D03*
X0238681Y0124114D02*
D03*
X0238681Y0119389D02*
D03*
X0238681Y0114665D02*
D03*
X0238681Y0109941D02*
D03*
X0110334Y0039862D02*
D03*
X0110334Y0043996D02*
D03*
X0202555Y0135176D02*
D03*
X0198618Y0135176D02*
D03*
X0111516Y0024247D02*
D03*
X0115452Y0024247D02*
D03*
X0146653Y0078710D02*
D03*
X0158760Y0078710D02*
D03*
X0203051Y0131004D02*
D03*
X0199114Y0131004D02*
D03*
X0230827Y0106231D02*
D03*
X0226890Y0106231D02*
D03*
X0226890Y0109941D02*
D03*
X0230827Y0109941D02*
D03*
X0216240Y0109941D02*
D03*
X0220177Y0109941D02*
D03*
X0234744Y0109941D02*
D03*
X0234744Y0114665D02*
D03*
X0234744Y0124114D02*
D03*
X0234744Y0119389D02*
D03*
X0201550Y0025282D02*
D03*
X0197613Y0025282D02*
D03*
X0198523Y0075492D02*
D03*
X0202460Y0075492D02*
D03*
X0208760Y0075492D02*
D03*
X0212697Y0075492D02*
D03*
X0198523Y0047539D02*
D03*
X0202460Y0047539D02*
D03*
X0223917Y0070964D02*
D03*
X0219980Y0070964D02*
D03*
X0223917Y0041634D02*
D03*
X0219980Y0041634D02*
D03*
X0223917Y0028838D02*
D03*
X0219980Y0028838D02*
D03*
X0230827Y0045730D02*
D03*
X0234764Y0045730D02*
D03*
X0231201Y0024114D02*
D03*
X0227264Y0024114D02*
D03*
X0234350Y0024311D02*
D03*
X0238287Y0024311D02*
D03*
X0123042Y0024247D02*
D03*
X0119105Y0024247D02*
D03*
X0106397Y0039862D02*
D03*
X0106397Y0043996D02*
D03*
X0219980Y0047736D02*
D03*
X0223917Y0047736D02*
D03*
X0219980Y0052066D02*
D03*
X0223917Y0052066D02*
D03*
X0219980Y0060531D02*
D03*
X0223917Y0060531D02*
D03*
X0234764Y0064697D02*
D03*
X0230827Y0064697D02*
D03*
X0202460Y0103444D02*
D03*
X0198523Y0103444D02*
D03*
X0219980Y0033169D02*
D03*
X0223917Y0033169D02*
D03*
X0234764Y0083540D02*
D03*
X0230827Y0083540D02*
D03*
X0219980Y0079429D02*
D03*
X0223917Y0079429D02*
D03*
X0219980Y0066634D02*
D03*
X0223917Y0066634D02*
D03*
X0234764Y0102520D02*
D03*
X0230827Y0102520D02*
D03*
X0219980Y0098327D02*
D03*
X0223917Y0098327D02*
D03*
X0219980Y0089862D02*
D03*
X0223917Y0089862D02*
D03*
X0219980Y0085531D02*
D03*
X0223917Y0085531D02*
D03*
X0216240Y0103308D02*
D03*
X0220177Y0103308D02*
D03*
D372*
X0113543Y0059340D02*
D03*
X0123018Y0051600D02*
D03*
X0146388Y0033267D02*
D03*
D375*
X0114960Y0106988D02*
D03*
X0114960Y0100688D02*
D03*
X0113582Y0070374D02*
D03*
X0113582Y0064074D02*
D03*
X0118208Y0070374D02*
D03*
X0118208Y0064074D02*
D03*
D372*
X0150129Y0042519D02*
D03*
X0130498Y0051600D02*
D03*
X0126758Y0060852D02*
D03*
X0106063Y0059340D02*
D03*
X0109803Y0050088D02*
D03*
X0153869Y0033267D02*
D03*
D398*
X0194193Y0097244D02*
D03*
X0201279Y0097244D02*
D03*
X0201279Y0087204D02*
D03*
X0194193Y0087204D02*
D03*
X0201279Y0069291D02*
D03*
X0201279Y0041338D02*
D03*
X0205216Y0059252D02*
D03*
X0230413Y0114370D02*
D03*
X0223327Y0114370D02*
D03*
X0223327Y0124409D02*
D03*
X0230413Y0124409D02*
D03*
X0212303Y0031299D02*
D03*
X0205216Y0031299D02*
D03*
X0205216Y0041338D02*
D03*
X0212303Y0041338D02*
D03*
X0194193Y0041338D02*
D03*
X0201279Y0031299D02*
D03*
X0194193Y0031299D02*
D03*
X0212303Y0059252D02*
D03*
X0205216Y0069291D02*
D03*
X0212303Y0069291D02*
D03*
X0194193Y0069291D02*
D03*
X0201279Y0059252D02*
D03*
X0194193Y0059252D02*
D03*
X0236122Y0060236D02*
D03*
X0229035Y0060236D02*
D03*
X0229035Y0050196D02*
D03*
X0236122Y0050196D02*
D03*
X0236122Y0041338D02*
D03*
X0229035Y0041338D02*
D03*
X0229035Y0031299D02*
D03*
X0236122Y0031299D02*
D03*
X0236122Y0079134D02*
D03*
X0229035Y0079134D02*
D03*
X0229035Y0069094D02*
D03*
X0236122Y0069094D02*
D03*
X0236122Y0098031D02*
D03*
X0229035Y0098031D02*
D03*
X0229035Y0087992D02*
D03*
X0236122Y0087992D02*
D03*
X0212303Y0097244D02*
D03*
X0205216Y0097244D02*
D03*
X0205216Y0087204D02*
D03*
X0212303Y0087204D02*
D03*
X0212303Y0124803D02*
D03*
X0205216Y0124803D02*
D03*
X0205216Y0114763D02*
D03*
X0212303Y0114763D02*
D03*
X0194193Y0114763D02*
D03*
X0201279Y0114763D02*
D03*
X0201279Y0124803D02*
D03*
X0194193Y0124803D02*
D03*
D399*
X0201279Y0090649D02*
D03*
X0201279Y0093799D02*
D03*
X0194193Y0093799D02*
D03*
X0194193Y0090649D02*
D03*
X0201279Y0065846D02*
D03*
X0201279Y0037893D02*
D03*
X0205216Y0062696D02*
D03*
X0223327Y0120964D02*
D03*
X0223327Y0117815D02*
D03*
X0230413Y0117815D02*
D03*
X0230413Y0120964D02*
D03*
X0205216Y0037893D02*
D03*
X0205216Y0034744D02*
D03*
X0212303Y0034744D02*
D03*
X0212303Y0037893D02*
D03*
X0201279Y0034744D02*
D03*
X0194193Y0037893D02*
D03*
X0194193Y0034744D02*
D03*
X0205216Y0065846D02*
D03*
X0212303Y0062696D02*
D03*
X0212303Y0065846D02*
D03*
X0201279Y0062697D02*
D03*
X0194193Y0065846D02*
D03*
X0194193Y0062697D02*
D03*
X0236122Y0056791D02*
D03*
X0236122Y0053641D02*
D03*
X0229035Y0053641D02*
D03*
X0229035Y0056791D02*
D03*
X0236122Y0037894D02*
D03*
X0236122Y0034744D02*
D03*
X0229035Y0034744D02*
D03*
X0229035Y0037894D02*
D03*
X0236122Y0075689D02*
D03*
X0236122Y0072539D02*
D03*
X0229035Y0072539D02*
D03*
X0229035Y0075689D02*
D03*
X0236122Y0094586D02*
D03*
X0236122Y0091437D02*
D03*
X0229035Y0091437D02*
D03*
X0229035Y0094586D02*
D03*
X0212303Y0093799D02*
D03*
X0212303Y0090649D02*
D03*
X0205216Y0090649D02*
D03*
X0205216Y0093799D02*
D03*
X0212303Y0121358D02*
D03*
X0212303Y0118208D02*
D03*
X0205216Y0118208D02*
D03*
X0205216Y0121358D02*
D03*
X0194193Y0118208D02*
D03*
X0194193Y0121358D02*
D03*
X0201279Y0121358D02*
D03*
X0201279Y0118208D02*
D03*
D257*
X0116929Y0129586D02*
D03*
X0111939Y0129586D02*
D03*
X0111939Y0123366D02*
D03*
X0116929Y0123366D02*
D03*
D400*
X0123819Y0142224D02*
D03*
X0123819Y0109547D02*
D03*
X0177952Y0142224D02*
D03*
X0177952Y0109547D02*
D03*
D401*
X0141850Y0131988D02*
D03*
X0133189Y0131988D02*
D03*
X0137519Y0131988D02*
D03*
X0146181Y0131988D02*
D03*
X0150512Y0131988D02*
D03*
X0154842Y0131988D02*
D03*
X0159173Y0131988D02*
D03*
X0163504Y0131988D02*
D03*
D402*
X0222460Y0150295D02*
D03*
X0222460Y0137091D02*
D03*
X0230492Y0142814D02*
D03*
X0230492Y0129611D02*
D03*
X0213208Y0146555D02*
D03*
X0213208Y0133351D02*
D03*
X0239744Y0133351D02*
D03*
X0124823Y0045177D02*
D03*
X0115571Y0041437D02*
D03*
X0239744Y0146555D02*
D03*
D214*
X0196687Y0144218D02*
D03*
X0196687Y0140281D02*
D03*
X0202691Y0144218D02*
D03*
X0202691Y0142250D02*
D03*
X0196687Y0142250D02*
D03*
X0202691Y0140281D02*
D03*
D403*
X0140039Y0053653D02*
D03*
X0140039Y0048535D02*
D03*
X0140039Y0051094D02*
D03*
X0147520Y0053653D02*
D03*
X0147520Y0048535D02*
D03*
D404*
X0159547Y0056870D02*
D03*
X0162106Y0033878D02*
D03*
X0159547Y0033878D02*
D03*
X0182578Y0056870D02*
D03*
X0185137Y0033878D02*
D03*
X0187697Y0033878D02*
D03*
X0182578Y0033878D02*
D03*
X0180019Y0033878D02*
D03*
X0177460Y0033878D02*
D03*
X0174901Y0033878D02*
D03*
X0172342Y0033878D02*
D03*
X0169783Y0033878D02*
D03*
X0167224Y0033878D02*
D03*
X0164665Y0033878D02*
D03*
X0187697Y0056870D02*
D03*
X0185137Y0056870D02*
D03*
X0180019Y0056870D02*
D03*
X0177460Y0056870D02*
D03*
X0174901Y0056870D02*
D03*
X0172342Y0056870D02*
D03*
X0169783Y0056870D02*
D03*
X0167224Y0056870D02*
D03*
X0164665Y0056870D02*
D03*
X0162106Y0056870D02*
D03*
D405*
X0121960Y0030807D02*
D03*
X0110542Y0030807D02*
D03*
D255*
X0119825Y0088897D02*
D03*
X0119825Y0075905D02*
D03*
X0131025Y0024820D02*
D03*
X0131025Y0037812D02*
D03*
D406*
X0145230Y0087672D02*
D03*
X0159797Y0087672D02*
D03*
D208*
X0200673Y0139248D02*
D03*
X0198705Y0139248D02*
D03*
X0198705Y0145252D02*
D03*
X0200673Y0145252D02*
D03*
D407*
X0132707Y0074261D02*
D03*
X0132707Y0080166D02*
D03*
D402*
X0222460Y0142814D02*
D03*
X0222460Y0129611D02*
D03*
X0230492Y0137091D02*
D03*
X0124823Y0037696D02*
D03*
X0230492Y0150295D02*
D03*
D408*
X0183366Y0077064D02*
D03*
X0183366Y0083757D02*
D03*
D256*
X0109829Y0093425D02*
D03*
X0109829Y0082008D02*
D03*
D409*
X0144193Y0024508D02*
D03*
X0150492Y0024508D02*
D03*
M02*
