G04 #@! TF.GenerationSoftware,KiCad,Pcbnew,7.0.7-7.0.7~ubuntu22.04.1*
G04 #@! TF.CreationDate,2023-09-30T00:59:14+00:00*
G04 #@! TF.ProjectId,hellen-112-17,68656c6c-656e-42d3-9131-322d31372e6b,a*
G04 #@! TF.SameCoordinates,Original*
G04 #@! TF.FileFunction,Paste,Bot*
G04 #@! TF.FilePolarity,Positive*
%FSLAX46Y46*%
G04 Gerber Fmt 4.6, Leading zero omitted, Abs format (unit mm)*
G04 Created by KiCad (PCBNEW 7.0.7-7.0.7~ubuntu22.04.1) date 2023-09-30 00:59:14*
%MOMM*%
%LPD*%
G01*
G04 APERTURE LIST*
%ADD10R,2.300000X0.200000*%
%ADD11R,3.700000X0.200000*%
%ADD12R,0.400000X0.200000*%
%ADD13R,1.600000X0.200000*%
%ADD14R,9.700000X0.200000*%
%ADD15R,0.200000X1.400000*%
%ADD16R,0.200000X6.400000*%
%ADD17R,0.200000X1.700000*%
%ADD18R,0.200000X3.300000*%
%ADD19R,0.200000X1.000000*%
%ADD20R,0.200000X1.800000*%
%ADD21R,7.000000X0.200000*%
%ADD22R,3.300000X0.200000*%
%ADD23R,6.300000X0.200000*%
G04 APERTURE END LIST*
D10*
G04 #@! TO.C,M4*
X60775005Y5124990D03*
D11*
X28575005Y5125000D03*
D12*
X31625005Y5125000D03*
D11*
X34675005Y5125000D03*
D13*
X39125005Y5125000D03*
D14*
X52775005Y5125000D03*
D15*
X61825005Y6925000D03*
D16*
X26025005Y9025000D03*
D17*
X26025005Y15075000D03*
D18*
X26025005Y18574990D03*
D19*
X26024995Y24925000D03*
D20*
X26025005Y28125000D03*
D16*
X61825005Y35825000D03*
D21*
X29424995Y38925000D03*
D12*
X38125005Y38925000D03*
D22*
X52975005Y38925000D03*
D23*
X58775005Y38925000D03*
G04 #@! TD*
G04 #@! TO.C,R49*
G36*
G01*
X43610000Y87650000D02*
X44390000Y87650000D01*
G75*
G02*
X44460000Y87580000I0J-70000D01*
G01*
X44460000Y87020000D01*
G75*
G02*
X44390000Y86950000I-70000J0D01*
G01*
X43610000Y86950000D01*
G75*
G02*
X43540000Y87020000I0J70000D01*
G01*
X43540000Y87580000D01*
G75*
G02*
X43610000Y87650000I70000J0D01*
G01*
G37*
G36*
G01*
X43610000Y86050000D02*
X44390000Y86050000D01*
G75*
G02*
X44460000Y85980000I0J-70000D01*
G01*
X44460000Y85420000D01*
G75*
G02*
X44390000Y85350000I-70000J0D01*
G01*
X43610000Y85350000D01*
G75*
G02*
X43540000Y85420000I0J70000D01*
G01*
X43540000Y85980000D01*
G75*
G02*
X43610000Y86050000I70000J0D01*
G01*
G37*
G04 #@! TD*
G04 #@! TO.C,C16*
G36*
G01*
X39160000Y84715001D02*
X39840000Y84715001D01*
G75*
G02*
X39925000Y84630001I0J-85000D01*
G01*
X39925000Y83950001D01*
G75*
G02*
X39840000Y83865001I-85000J0D01*
G01*
X39160000Y83865001D01*
G75*
G02*
X39075000Y83950001I0J85000D01*
G01*
X39075000Y84630001D01*
G75*
G02*
X39160000Y84715001I85000J0D01*
G01*
G37*
G36*
G01*
X39160000Y83134999D02*
X39840000Y83134999D01*
G75*
G02*
X39925000Y83049999I0J-85000D01*
G01*
X39925000Y82369999D01*
G75*
G02*
X39840000Y82284999I-85000J0D01*
G01*
X39160000Y82284999D01*
G75*
G02*
X39075000Y82369999I0J85000D01*
G01*
X39075000Y83049999D01*
G75*
G02*
X39160000Y83134999I85000J0D01*
G01*
G37*
G04 #@! TD*
G04 #@! TO.C,C17*
G36*
G01*
X42160000Y84715001D02*
X42840000Y84715001D01*
G75*
G02*
X42925000Y84630001I0J-85000D01*
G01*
X42925000Y83950001D01*
G75*
G02*
X42840000Y83865001I-85000J0D01*
G01*
X42160000Y83865001D01*
G75*
G02*
X42075000Y83950001I0J85000D01*
G01*
X42075000Y84630001D01*
G75*
G02*
X42160000Y84715001I85000J0D01*
G01*
G37*
G36*
G01*
X42160000Y83134999D02*
X42840000Y83134999D01*
G75*
G02*
X42925000Y83049999I0J-85000D01*
G01*
X42925000Y82369999D01*
G75*
G02*
X42840000Y82284999I-85000J0D01*
G01*
X42160000Y82284999D01*
G75*
G02*
X42075000Y82369999I0J85000D01*
G01*
X42075000Y83049999D01*
G75*
G02*
X42160000Y83134999I85000J0D01*
G01*
G37*
G04 #@! TD*
G04 #@! TO.C,R48*
G36*
G01*
X44390000Y79350000D02*
X43610000Y79350000D01*
G75*
G02*
X43540000Y79420000I0J70000D01*
G01*
X43540000Y79980000D01*
G75*
G02*
X43610000Y80050000I70000J0D01*
G01*
X44390000Y80050000D01*
G75*
G02*
X44460000Y79980000I0J-70000D01*
G01*
X44460000Y79420000D01*
G75*
G02*
X44390000Y79350000I-70000J0D01*
G01*
G37*
G36*
G01*
X44390000Y80950000D02*
X43610000Y80950000D01*
G75*
G02*
X43540000Y81020000I0J70000D01*
G01*
X43540000Y81580000D01*
G75*
G02*
X43610000Y81650000I70000J0D01*
G01*
X44390000Y81650000D01*
G75*
G02*
X44460000Y81580000I0J-70000D01*
G01*
X44460000Y81020000D01*
G75*
G02*
X44390000Y80950000I-70000J0D01*
G01*
G37*
G04 #@! TD*
G04 #@! TO.C,C18*
G36*
G01*
X40660000Y84715001D02*
X41340000Y84715001D01*
G75*
G02*
X41425000Y84630001I0J-85000D01*
G01*
X41425000Y83950001D01*
G75*
G02*
X41340000Y83865001I-85000J0D01*
G01*
X40660000Y83865001D01*
G75*
G02*
X40575000Y83950001I0J85000D01*
G01*
X40575000Y84630001D01*
G75*
G02*
X40660000Y84715001I85000J0D01*
G01*
G37*
G36*
G01*
X40660000Y83134999D02*
X41340000Y83134999D01*
G75*
G02*
X41425000Y83049999I0J-85000D01*
G01*
X41425000Y82369999D01*
G75*
G02*
X41340000Y82284999I-85000J0D01*
G01*
X40660000Y82284999D01*
G75*
G02*
X40575000Y82369999I0J85000D01*
G01*
X40575000Y83049999D01*
G75*
G02*
X40660000Y83134999I85000J0D01*
G01*
G37*
G04 #@! TD*
G04 #@! TO.C,R29*
G36*
G01*
X45110000Y87650000D02*
X45890000Y87650000D01*
G75*
G02*
X45960000Y87580000I0J-70000D01*
G01*
X45960000Y87020000D01*
G75*
G02*
X45890000Y86950000I-70000J0D01*
G01*
X45110000Y86950000D01*
G75*
G02*
X45040000Y87020000I0J70000D01*
G01*
X45040000Y87580000D01*
G75*
G02*
X45110000Y87650000I70000J0D01*
G01*
G37*
G36*
G01*
X45110000Y86050000D02*
X45890000Y86050000D01*
G75*
G02*
X45960000Y85980000I0J-70000D01*
G01*
X45960000Y85420000D01*
G75*
G02*
X45890000Y85350000I-70000J0D01*
G01*
X45110000Y85350000D01*
G75*
G02*
X45040000Y85420000I0J70000D01*
G01*
X45040000Y85980000D01*
G75*
G02*
X45110000Y86050000I70000J0D01*
G01*
G37*
G04 #@! TD*
G04 #@! TO.C,U2*
G36*
G01*
X39900000Y66950000D02*
X39900000Y67150000D01*
G75*
G02*
X40000000Y67250000I100000J0D01*
G01*
X41275000Y67250000D01*
G75*
G02*
X41375000Y67150000I0J-100000D01*
G01*
X41375000Y66950000D01*
G75*
G02*
X41275000Y66850000I-100000J0D01*
G01*
X40000000Y66850000D01*
G75*
G02*
X39900000Y66950000I0J100000D01*
G01*
G37*
G36*
G01*
X39900000Y67600000D02*
X39900000Y67800000D01*
G75*
G02*
X40000000Y67900000I100000J0D01*
G01*
X41275000Y67900000D01*
G75*
G02*
X41375000Y67800000I0J-100000D01*
G01*
X41375000Y67600000D01*
G75*
G02*
X41275000Y67500000I-100000J0D01*
G01*
X40000000Y67500000D01*
G75*
G02*
X39900000Y67600000I0J100000D01*
G01*
G37*
G36*
G01*
X39900000Y68250000D02*
X39900000Y68450000D01*
G75*
G02*
X40000000Y68550000I100000J0D01*
G01*
X41275000Y68550000D01*
G75*
G02*
X41375000Y68450000I0J-100000D01*
G01*
X41375000Y68250000D01*
G75*
G02*
X41275000Y68150000I-100000J0D01*
G01*
X40000000Y68150000D01*
G75*
G02*
X39900000Y68250000I0J100000D01*
G01*
G37*
G36*
G01*
X39900000Y68900000D02*
X39900000Y69100000D01*
G75*
G02*
X40000000Y69200000I100000J0D01*
G01*
X41275000Y69200000D01*
G75*
G02*
X41375000Y69100000I0J-100000D01*
G01*
X41375000Y68900000D01*
G75*
G02*
X41275000Y68800000I-100000J0D01*
G01*
X40000000Y68800000D01*
G75*
G02*
X39900000Y68900000I0J100000D01*
G01*
G37*
G36*
G01*
X39900000Y69550000D02*
X39900000Y69750000D01*
G75*
G02*
X40000000Y69850000I100000J0D01*
G01*
X41275000Y69850000D01*
G75*
G02*
X41375000Y69750000I0J-100000D01*
G01*
X41375000Y69550000D01*
G75*
G02*
X41275000Y69450000I-100000J0D01*
G01*
X40000000Y69450000D01*
G75*
G02*
X39900000Y69550000I0J100000D01*
G01*
G37*
G36*
G01*
X39900000Y70200000D02*
X39900000Y70400000D01*
G75*
G02*
X40000000Y70500000I100000J0D01*
G01*
X41275000Y70500000D01*
G75*
G02*
X41375000Y70400000I0J-100000D01*
G01*
X41375000Y70200000D01*
G75*
G02*
X41275000Y70100000I-100000J0D01*
G01*
X40000000Y70100000D01*
G75*
G02*
X39900000Y70200000I0J100000D01*
G01*
G37*
G36*
G01*
X39900000Y70850000D02*
X39900000Y71050000D01*
G75*
G02*
X40000000Y71150000I100000J0D01*
G01*
X41275000Y71150000D01*
G75*
G02*
X41375000Y71050000I0J-100000D01*
G01*
X41375000Y70850000D01*
G75*
G02*
X41275000Y70750000I-100000J0D01*
G01*
X40000000Y70750000D01*
G75*
G02*
X39900000Y70850000I0J100000D01*
G01*
G37*
G36*
G01*
X45625000Y70850000D02*
X45625000Y71050000D01*
G75*
G02*
X45725000Y71150000I100000J0D01*
G01*
X47000000Y71150000D01*
G75*
G02*
X47100000Y71050000I0J-100000D01*
G01*
X47100000Y70850000D01*
G75*
G02*
X47000000Y70750000I-100000J0D01*
G01*
X45725000Y70750000D01*
G75*
G02*
X45625000Y70850000I0J100000D01*
G01*
G37*
G36*
G01*
X45625000Y70200000D02*
X45625000Y70400000D01*
G75*
G02*
X45725000Y70500000I100000J0D01*
G01*
X47000000Y70500000D01*
G75*
G02*
X47100000Y70400000I0J-100000D01*
G01*
X47100000Y70200000D01*
G75*
G02*
X47000000Y70100000I-100000J0D01*
G01*
X45725000Y70100000D01*
G75*
G02*
X45625000Y70200000I0J100000D01*
G01*
G37*
G36*
G01*
X45625000Y69550000D02*
X45625000Y69750000D01*
G75*
G02*
X45725000Y69850000I100000J0D01*
G01*
X47000000Y69850000D01*
G75*
G02*
X47100000Y69750000I0J-100000D01*
G01*
X47100000Y69550000D01*
G75*
G02*
X47000000Y69450000I-100000J0D01*
G01*
X45725000Y69450000D01*
G75*
G02*
X45625000Y69550000I0J100000D01*
G01*
G37*
G36*
G01*
X45625000Y68900000D02*
X45625000Y69100000D01*
G75*
G02*
X45725000Y69200000I100000J0D01*
G01*
X47000000Y69200000D01*
G75*
G02*
X47100000Y69100000I0J-100000D01*
G01*
X47100000Y68900000D01*
G75*
G02*
X47000000Y68800000I-100000J0D01*
G01*
X45725000Y68800000D01*
G75*
G02*
X45625000Y68900000I0J100000D01*
G01*
G37*
G36*
G01*
X45625000Y68250000D02*
X45625000Y68450000D01*
G75*
G02*
X45725000Y68550000I100000J0D01*
G01*
X47000000Y68550000D01*
G75*
G02*
X47100000Y68450000I0J-100000D01*
G01*
X47100000Y68250000D01*
G75*
G02*
X47000000Y68150000I-100000J0D01*
G01*
X45725000Y68150000D01*
G75*
G02*
X45625000Y68250000I0J100000D01*
G01*
G37*
G36*
G01*
X45625000Y67600000D02*
X45625000Y67800000D01*
G75*
G02*
X45725000Y67900000I100000J0D01*
G01*
X47000000Y67900000D01*
G75*
G02*
X47100000Y67800000I0J-100000D01*
G01*
X47100000Y67600000D01*
G75*
G02*
X47000000Y67500000I-100000J0D01*
G01*
X45725000Y67500000D01*
G75*
G02*
X45625000Y67600000I0J100000D01*
G01*
G37*
G36*
G01*
X45625000Y66950000D02*
X45625000Y67150000D01*
G75*
G02*
X45725000Y67250000I100000J0D01*
G01*
X47000000Y67250000D01*
G75*
G02*
X47100000Y67150000I0J-100000D01*
G01*
X47100000Y66950000D01*
G75*
G02*
X47000000Y66850000I-100000J0D01*
G01*
X45725000Y66850000D01*
G75*
G02*
X45625000Y66950000I0J100000D01*
G01*
G37*
G04 #@! TD*
G04 #@! TO.C,C25*
G36*
G01*
X44590000Y72034999D02*
X43910000Y72034999D01*
G75*
G02*
X43825000Y72119999I0J85000D01*
G01*
X43825000Y72799999D01*
G75*
G02*
X43910000Y72884999I85000J0D01*
G01*
X44590000Y72884999D01*
G75*
G02*
X44675000Y72799999I0J-85000D01*
G01*
X44675000Y72119999D01*
G75*
G02*
X44590000Y72034999I-85000J0D01*
G01*
G37*
G36*
G01*
X44590000Y73615001D02*
X43910000Y73615001D01*
G75*
G02*
X43825000Y73700001I0J85000D01*
G01*
X43825000Y74380001D01*
G75*
G02*
X43910000Y74465001I85000J0D01*
G01*
X44590000Y74465001D01*
G75*
G02*
X44675000Y74380001I0J-85000D01*
G01*
X44675000Y73700001D01*
G75*
G02*
X44590000Y73615001I-85000J0D01*
G01*
G37*
G04 #@! TD*
G04 #@! TO.C,R32*
G36*
G01*
X41390000Y79350000D02*
X40610000Y79350000D01*
G75*
G02*
X40540000Y79420000I0J70000D01*
G01*
X40540000Y79980000D01*
G75*
G02*
X40610000Y80050000I70000J0D01*
G01*
X41390000Y80050000D01*
G75*
G02*
X41460000Y79980000I0J-70000D01*
G01*
X41460000Y79420000D01*
G75*
G02*
X41390000Y79350000I-70000J0D01*
G01*
G37*
G36*
G01*
X41390000Y80950000D02*
X40610000Y80950000D01*
G75*
G02*
X40540000Y81020000I0J70000D01*
G01*
X40540000Y81580000D01*
G75*
G02*
X40610000Y81650000I70000J0D01*
G01*
X41390000Y81650000D01*
G75*
G02*
X41460000Y81580000I0J-70000D01*
G01*
X41460000Y81020000D01*
G75*
G02*
X41390000Y80950000I-70000J0D01*
G01*
G37*
G04 #@! TD*
G04 #@! TO.C,R30*
G36*
G01*
X39890000Y79350000D02*
X39110000Y79350000D01*
G75*
G02*
X39040000Y79420000I0J70000D01*
G01*
X39040000Y79980000D01*
G75*
G02*
X39110000Y80050000I70000J0D01*
G01*
X39890000Y80050000D01*
G75*
G02*
X39960000Y79980000I0J-70000D01*
G01*
X39960000Y79420000D01*
G75*
G02*
X39890000Y79350000I-70000J0D01*
G01*
G37*
G36*
G01*
X39890000Y80950000D02*
X39110000Y80950000D01*
G75*
G02*
X39040000Y81020000I0J70000D01*
G01*
X39040000Y81580000D01*
G75*
G02*
X39110000Y81650000I70000J0D01*
G01*
X39890000Y81650000D01*
G75*
G02*
X39960000Y81580000I0J-70000D01*
G01*
X39960000Y81020000D01*
G75*
G02*
X39890000Y80950000I-70000J0D01*
G01*
G37*
G04 #@! TD*
G04 #@! TO.C,R43*
G36*
G01*
X45890000Y79350000D02*
X45110000Y79350000D01*
G75*
G02*
X45040000Y79420000I0J70000D01*
G01*
X45040000Y79980000D01*
G75*
G02*
X45110000Y80050000I70000J0D01*
G01*
X45890000Y80050000D01*
G75*
G02*
X45960000Y79980000I0J-70000D01*
G01*
X45960000Y79420000D01*
G75*
G02*
X45890000Y79350000I-70000J0D01*
G01*
G37*
G36*
G01*
X45890000Y80950000D02*
X45110000Y80950000D01*
G75*
G02*
X45040000Y81020000I0J70000D01*
G01*
X45040000Y81580000D01*
G75*
G02*
X45110000Y81650000I70000J0D01*
G01*
X45890000Y81650000D01*
G75*
G02*
X45960000Y81580000I0J-70000D01*
G01*
X45960000Y81020000D01*
G75*
G02*
X45890000Y80950000I-70000J0D01*
G01*
G37*
G04 #@! TD*
G04 #@! TO.C,C15*
G36*
G01*
X43660000Y84715001D02*
X44340000Y84715001D01*
G75*
G02*
X44425000Y84630001I0J-85000D01*
G01*
X44425000Y83950001D01*
G75*
G02*
X44340000Y83865001I-85000J0D01*
G01*
X43660000Y83865001D01*
G75*
G02*
X43575000Y83950001I0J85000D01*
G01*
X43575000Y84630001D01*
G75*
G02*
X43660000Y84715001I85000J0D01*
G01*
G37*
G36*
G01*
X43660000Y83134999D02*
X44340000Y83134999D01*
G75*
G02*
X44425000Y83049999I0J-85000D01*
G01*
X44425000Y82369999D01*
G75*
G02*
X44340000Y82284999I-85000J0D01*
G01*
X43660000Y82284999D01*
G75*
G02*
X43575000Y82369999I0J85000D01*
G01*
X43575000Y83049999D01*
G75*
G02*
X43660000Y83134999I85000J0D01*
G01*
G37*
G04 #@! TD*
G04 #@! TO.C,D11*
G36*
G01*
X46600000Y75200000D02*
X46300000Y75200000D01*
G75*
G02*
X46150000Y75350000I0J150000D01*
G01*
X46150000Y76375000D01*
G75*
G02*
X46300000Y76525000I150000J0D01*
G01*
X46600000Y76525000D01*
G75*
G02*
X46750000Y76375000I0J-150000D01*
G01*
X46750000Y75350000D01*
G75*
G02*
X46600000Y75200000I-150000J0D01*
G01*
G37*
G36*
G01*
X45650000Y75200000D02*
X45350000Y75200000D01*
G75*
G02*
X45200000Y75350000I0J150000D01*
G01*
X45200000Y76375000D01*
G75*
G02*
X45350000Y76525000I150000J0D01*
G01*
X45650000Y76525000D01*
G75*
G02*
X45800000Y76375000I0J-150000D01*
G01*
X45800000Y75350000D01*
G75*
G02*
X45650000Y75200000I-150000J0D01*
G01*
G37*
G36*
G01*
X44700000Y75200000D02*
X44400000Y75200000D01*
G75*
G02*
X44250000Y75350000I0J150000D01*
G01*
X44250000Y76375000D01*
G75*
G02*
X44400000Y76525000I150000J0D01*
G01*
X44700000Y76525000D01*
G75*
G02*
X44850000Y76375000I0J-150000D01*
G01*
X44850000Y75350000D01*
G75*
G02*
X44700000Y75200000I-150000J0D01*
G01*
G37*
G36*
G01*
X44700000Y77475000D02*
X44400000Y77475000D01*
G75*
G02*
X44250000Y77625000I0J150000D01*
G01*
X44250000Y78650000D01*
G75*
G02*
X44400000Y78800000I150000J0D01*
G01*
X44700000Y78800000D01*
G75*
G02*
X44850000Y78650000I0J-150000D01*
G01*
X44850000Y77625000D01*
G75*
G02*
X44700000Y77475000I-150000J0D01*
G01*
G37*
G36*
G01*
X45650000Y77475000D02*
X45350000Y77475000D01*
G75*
G02*
X45200000Y77625000I0J150000D01*
G01*
X45200000Y78650000D01*
G75*
G02*
X45350000Y78800000I150000J0D01*
G01*
X45650000Y78800000D01*
G75*
G02*
X45800000Y78650000I0J-150000D01*
G01*
X45800000Y77625000D01*
G75*
G02*
X45650000Y77475000I-150000J0D01*
G01*
G37*
G36*
G01*
X46600000Y77475000D02*
X46300000Y77475000D01*
G75*
G02*
X46150000Y77625000I0J150000D01*
G01*
X46150000Y78650000D01*
G75*
G02*
X46300000Y78800000I150000J0D01*
G01*
X46600000Y78800000D01*
G75*
G02*
X46750000Y78650000I0J-150000D01*
G01*
X46750000Y77625000D01*
G75*
G02*
X46600000Y77475000I-150000J0D01*
G01*
G37*
G04 #@! TD*
G04 #@! TO.C,C23*
G36*
G01*
X41715001Y72840000D02*
X41715001Y72160000D01*
G75*
G02*
X41630001Y72075000I-85000J0D01*
G01*
X40950001Y72075000D01*
G75*
G02*
X40865001Y72160000I0J85000D01*
G01*
X40865001Y72840000D01*
G75*
G02*
X40950001Y72925000I85000J0D01*
G01*
X41630001Y72925000D01*
G75*
G02*
X41715001Y72840000I0J-85000D01*
G01*
G37*
G36*
G01*
X40134999Y72840000D02*
X40134999Y72160000D01*
G75*
G02*
X40049999Y72075000I-85000J0D01*
G01*
X39369999Y72075000D01*
G75*
G02*
X39284999Y72160000I0J85000D01*
G01*
X39284999Y72840000D01*
G75*
G02*
X39369999Y72925000I85000J0D01*
G01*
X40049999Y72925000D01*
G75*
G02*
X40134999Y72840000I0J-85000D01*
G01*
G37*
G04 #@! TD*
G04 #@! TO.C,R25*
G36*
G01*
X39110000Y87650000D02*
X39890000Y87650000D01*
G75*
G02*
X39960000Y87580000I0J-70000D01*
G01*
X39960000Y87020000D01*
G75*
G02*
X39890000Y86950000I-70000J0D01*
G01*
X39110000Y86950000D01*
G75*
G02*
X39040000Y87020000I0J70000D01*
G01*
X39040000Y87580000D01*
G75*
G02*
X39110000Y87650000I70000J0D01*
G01*
G37*
G36*
G01*
X39110000Y86050000D02*
X39890000Y86050000D01*
G75*
G02*
X39960000Y85980000I0J-70000D01*
G01*
X39960000Y85420000D01*
G75*
G02*
X39890000Y85350000I-70000J0D01*
G01*
X39110000Y85350000D01*
G75*
G02*
X39040000Y85420000I0J70000D01*
G01*
X39040000Y85980000D01*
G75*
G02*
X39110000Y86050000I70000J0D01*
G01*
G37*
G04 #@! TD*
G04 #@! TO.C,C19*
G36*
G01*
X46660000Y84715001D02*
X47340000Y84715001D01*
G75*
G02*
X47425000Y84630001I0J-85000D01*
G01*
X47425000Y83950001D01*
G75*
G02*
X47340000Y83865001I-85000J0D01*
G01*
X46660000Y83865001D01*
G75*
G02*
X46575000Y83950001I0J85000D01*
G01*
X46575000Y84630001D01*
G75*
G02*
X46660000Y84715001I85000J0D01*
G01*
G37*
G36*
G01*
X46660000Y83134999D02*
X47340000Y83134999D01*
G75*
G02*
X47425000Y83049999I0J-85000D01*
G01*
X47425000Y82369999D01*
G75*
G02*
X47340000Y82284999I-85000J0D01*
G01*
X46660000Y82284999D01*
G75*
G02*
X46575000Y82369999I0J85000D01*
G01*
X46575000Y83049999D01*
G75*
G02*
X46660000Y83134999I85000J0D01*
G01*
G37*
G04 #@! TD*
G04 #@! TO.C,R21*
G36*
G01*
X39110954Y90650000D02*
X39890954Y90650000D01*
G75*
G02*
X39960954Y90580000I0J-70000D01*
G01*
X39960954Y90020000D01*
G75*
G02*
X39890954Y89950000I-70000J0D01*
G01*
X39110954Y89950000D01*
G75*
G02*
X39040954Y90020000I0J70000D01*
G01*
X39040954Y90580000D01*
G75*
G02*
X39110954Y90650000I70000J0D01*
G01*
G37*
G36*
G01*
X39110954Y89050000D02*
X39890954Y89050000D01*
G75*
G02*
X39960954Y88980000I0J-70000D01*
G01*
X39960954Y88420000D01*
G75*
G02*
X39890954Y88350000I-70000J0D01*
G01*
X39110954Y88350000D01*
G75*
G02*
X39040954Y88420000I0J70000D01*
G01*
X39040954Y88980000D01*
G75*
G02*
X39110954Y89050000I70000J0D01*
G01*
G37*
G04 #@! TD*
G04 #@! TO.C,C21*
G36*
G01*
X44284999Y64910000D02*
X44284999Y65590000D01*
G75*
G02*
X44369999Y65675000I85000J0D01*
G01*
X45049999Y65675000D01*
G75*
G02*
X45134999Y65590000I0J-85000D01*
G01*
X45134999Y64910000D01*
G75*
G02*
X45049999Y64825000I-85000J0D01*
G01*
X44369999Y64825000D01*
G75*
G02*
X44284999Y64910000I0J85000D01*
G01*
G37*
G36*
G01*
X45865001Y64910000D02*
X45865001Y65590000D01*
G75*
G02*
X45950001Y65675000I85000J0D01*
G01*
X46630001Y65675000D01*
G75*
G02*
X46715001Y65590000I0J-85000D01*
G01*
X46715001Y64910000D01*
G75*
G02*
X46630001Y64825000I-85000J0D01*
G01*
X45950001Y64825000D01*
G75*
G02*
X45865001Y64910000I0J85000D01*
G01*
G37*
G04 #@! TD*
G04 #@! TO.C,R26*
G36*
G01*
X42110000Y87650000D02*
X42890000Y87650000D01*
G75*
G02*
X42960000Y87580000I0J-70000D01*
G01*
X42960000Y87020000D01*
G75*
G02*
X42890000Y86950000I-70000J0D01*
G01*
X42110000Y86950000D01*
G75*
G02*
X42040000Y87020000I0J70000D01*
G01*
X42040000Y87580000D01*
G75*
G02*
X42110000Y87650000I70000J0D01*
G01*
G37*
G36*
G01*
X42110000Y86050000D02*
X42890000Y86050000D01*
G75*
G02*
X42960000Y85980000I0J-70000D01*
G01*
X42960000Y85420000D01*
G75*
G02*
X42890000Y85350000I-70000J0D01*
G01*
X42110000Y85350000D01*
G75*
G02*
X42040000Y85420000I0J70000D01*
G01*
X42040000Y85980000D01*
G75*
G02*
X42110000Y86050000I70000J0D01*
G01*
G37*
G04 #@! TD*
G04 #@! TO.C,C28*
G36*
G01*
X45160000Y84715001D02*
X45840000Y84715001D01*
G75*
G02*
X45925000Y84630001I0J-85000D01*
G01*
X45925000Y83950001D01*
G75*
G02*
X45840000Y83865001I-85000J0D01*
G01*
X45160000Y83865001D01*
G75*
G02*
X45075000Y83950001I0J85000D01*
G01*
X45075000Y84630001D01*
G75*
G02*
X45160000Y84715001I85000J0D01*
G01*
G37*
G36*
G01*
X45160000Y83134999D02*
X45840000Y83134999D01*
G75*
G02*
X45925000Y83049999I0J-85000D01*
G01*
X45925000Y82369999D01*
G75*
G02*
X45840000Y82284999I-85000J0D01*
G01*
X45160000Y82284999D01*
G75*
G02*
X45075000Y82369999I0J85000D01*
G01*
X45075000Y83049999D01*
G75*
G02*
X45160000Y83134999I85000J0D01*
G01*
G37*
G04 #@! TD*
G04 #@! TO.C,R23*
G36*
G01*
X40610000Y90650000D02*
X41390000Y90650000D01*
G75*
G02*
X41460000Y90580000I0J-70000D01*
G01*
X41460000Y90020000D01*
G75*
G02*
X41390000Y89950000I-70000J0D01*
G01*
X40610000Y89950000D01*
G75*
G02*
X40540000Y90020000I0J70000D01*
G01*
X40540000Y90580000D01*
G75*
G02*
X40610000Y90650000I70000J0D01*
G01*
G37*
G36*
G01*
X40610000Y89050000D02*
X41390000Y89050000D01*
G75*
G02*
X41460000Y88980000I0J-70000D01*
G01*
X41460000Y88420000D01*
G75*
G02*
X41390000Y88350000I-70000J0D01*
G01*
X40610000Y88350000D01*
G75*
G02*
X40540000Y88420000I0J70000D01*
G01*
X40540000Y88980000D01*
G75*
G02*
X40610000Y89050000I70000J0D01*
G01*
G37*
G04 #@! TD*
G04 #@! TO.C,C26*
G36*
G01*
X47715001Y74340000D02*
X47715001Y73660000D01*
G75*
G02*
X47630001Y73575000I-85000J0D01*
G01*
X46950001Y73575000D01*
G75*
G02*
X46865001Y73660000I0J85000D01*
G01*
X46865001Y74340000D01*
G75*
G02*
X46950001Y74425000I85000J0D01*
G01*
X47630001Y74425000D01*
G75*
G02*
X47715001Y74340000I0J-85000D01*
G01*
G37*
G36*
G01*
X46134999Y74340000D02*
X46134999Y73660000D01*
G75*
G02*
X46049999Y73575000I-85000J0D01*
G01*
X45369999Y73575000D01*
G75*
G02*
X45284999Y73660000I0J85000D01*
G01*
X45284999Y74340000D01*
G75*
G02*
X45369999Y74425000I85000J0D01*
G01*
X46049999Y74425000D01*
G75*
G02*
X46134999Y74340000I0J-85000D01*
G01*
G37*
G04 #@! TD*
G04 #@! TO.C,R31*
G36*
G01*
X42890000Y79350000D02*
X42110000Y79350000D01*
G75*
G02*
X42040000Y79420000I0J70000D01*
G01*
X42040000Y79980000D01*
G75*
G02*
X42110000Y80050000I70000J0D01*
G01*
X42890000Y80050000D01*
G75*
G02*
X42960000Y79980000I0J-70000D01*
G01*
X42960000Y79420000D01*
G75*
G02*
X42890000Y79350000I-70000J0D01*
G01*
G37*
G36*
G01*
X42890000Y80950000D02*
X42110000Y80950000D01*
G75*
G02*
X42040000Y81020000I0J70000D01*
G01*
X42040000Y81580000D01*
G75*
G02*
X42110000Y81650000I70000J0D01*
G01*
X42890000Y81650000D01*
G75*
G02*
X42960000Y81580000I0J-70000D01*
G01*
X42960000Y81020000D01*
G75*
G02*
X42890000Y80950000I-70000J0D01*
G01*
G37*
G04 #@! TD*
G04 #@! TO.C,C24*
G36*
G01*
X45284999Y72160000D02*
X45284999Y72840000D01*
G75*
G02*
X45369999Y72925000I85000J0D01*
G01*
X46049999Y72925000D01*
G75*
G02*
X46134999Y72840000I0J-85000D01*
G01*
X46134999Y72160000D01*
G75*
G02*
X46049999Y72075000I-85000J0D01*
G01*
X45369999Y72075000D01*
G75*
G02*
X45284999Y72160000I0J85000D01*
G01*
G37*
G36*
G01*
X46865001Y72160000D02*
X46865001Y72840000D01*
G75*
G02*
X46950001Y72925000I85000J0D01*
G01*
X47630001Y72925000D01*
G75*
G02*
X47715001Y72840000I0J-85000D01*
G01*
X47715001Y72160000D01*
G75*
G02*
X47630001Y72075000I-85000J0D01*
G01*
X46950001Y72075000D01*
G75*
G02*
X46865001Y72160000I0J85000D01*
G01*
G37*
G04 #@! TD*
G04 #@! TO.C,D10*
G36*
G01*
X42600000Y75200000D02*
X42300000Y75200000D01*
G75*
G02*
X42150000Y75350000I0J150000D01*
G01*
X42150000Y76375000D01*
G75*
G02*
X42300000Y76525000I150000J0D01*
G01*
X42600000Y76525000D01*
G75*
G02*
X42750000Y76375000I0J-150000D01*
G01*
X42750000Y75350000D01*
G75*
G02*
X42600000Y75200000I-150000J0D01*
G01*
G37*
G36*
G01*
X41650000Y75200000D02*
X41350000Y75200000D01*
G75*
G02*
X41200000Y75350000I0J150000D01*
G01*
X41200000Y76375000D01*
G75*
G02*
X41350000Y76525000I150000J0D01*
G01*
X41650000Y76525000D01*
G75*
G02*
X41800000Y76375000I0J-150000D01*
G01*
X41800000Y75350000D01*
G75*
G02*
X41650000Y75200000I-150000J0D01*
G01*
G37*
G36*
G01*
X40700000Y75200000D02*
X40400000Y75200000D01*
G75*
G02*
X40250000Y75350000I0J150000D01*
G01*
X40250000Y76375000D01*
G75*
G02*
X40400000Y76525000I150000J0D01*
G01*
X40700000Y76525000D01*
G75*
G02*
X40850000Y76375000I0J-150000D01*
G01*
X40850000Y75350000D01*
G75*
G02*
X40700000Y75200000I-150000J0D01*
G01*
G37*
G36*
G01*
X40700000Y77475000D02*
X40400000Y77475000D01*
G75*
G02*
X40250000Y77625000I0J150000D01*
G01*
X40250000Y78650000D01*
G75*
G02*
X40400000Y78800000I150000J0D01*
G01*
X40700000Y78800000D01*
G75*
G02*
X40850000Y78650000I0J-150000D01*
G01*
X40850000Y77625000D01*
G75*
G02*
X40700000Y77475000I-150000J0D01*
G01*
G37*
G36*
G01*
X41650000Y77475000D02*
X41350000Y77475000D01*
G75*
G02*
X41200000Y77625000I0J150000D01*
G01*
X41200000Y78650000D01*
G75*
G02*
X41350000Y78800000I150000J0D01*
G01*
X41650000Y78800000D01*
G75*
G02*
X41800000Y78650000I0J-150000D01*
G01*
X41800000Y77625000D01*
G75*
G02*
X41650000Y77475000I-150000J0D01*
G01*
G37*
G36*
G01*
X42600000Y77475000D02*
X42300000Y77475000D01*
G75*
G02*
X42150000Y77625000I0J150000D01*
G01*
X42150000Y78650000D01*
G75*
G02*
X42300000Y78800000I150000J0D01*
G01*
X42600000Y78800000D01*
G75*
G02*
X42750000Y78650000I0J-150000D01*
G01*
X42750000Y77625000D01*
G75*
G02*
X42600000Y77475000I-150000J0D01*
G01*
G37*
G04 #@! TD*
G04 #@! TO.C,R50*
G36*
G01*
X45110000Y90650000D02*
X45890000Y90650000D01*
G75*
G02*
X45960000Y90580000I0J-70000D01*
G01*
X45960000Y90020000D01*
G75*
G02*
X45890000Y89950000I-70000J0D01*
G01*
X45110000Y89950000D01*
G75*
G02*
X45040000Y90020000I0J70000D01*
G01*
X45040000Y90580000D01*
G75*
G02*
X45110000Y90650000I70000J0D01*
G01*
G37*
G36*
G01*
X45110000Y89050000D02*
X45890000Y89050000D01*
G75*
G02*
X45960000Y88980000I0J-70000D01*
G01*
X45960000Y88420000D01*
G75*
G02*
X45890000Y88350000I-70000J0D01*
G01*
X45110000Y88350000D01*
G75*
G02*
X45040000Y88420000I0J70000D01*
G01*
X45040000Y88980000D01*
G75*
G02*
X45110000Y89050000I70000J0D01*
G01*
G37*
G04 #@! TD*
G04 #@! TO.C,R24*
G36*
G01*
X46610000Y90650000D02*
X47390000Y90650000D01*
G75*
G02*
X47460000Y90580000I0J-70000D01*
G01*
X47460000Y90020000D01*
G75*
G02*
X47390000Y89950000I-70000J0D01*
G01*
X46610000Y89950000D01*
G75*
G02*
X46540000Y90020000I0J70000D01*
G01*
X46540000Y90580000D01*
G75*
G02*
X46610000Y90650000I70000J0D01*
G01*
G37*
G36*
G01*
X46610000Y89050000D02*
X47390000Y89050000D01*
G75*
G02*
X47460000Y88980000I0J-70000D01*
G01*
X47460000Y88420000D01*
G75*
G02*
X47390000Y88350000I-70000J0D01*
G01*
X46610000Y88350000D01*
G75*
G02*
X46540000Y88420000I0J70000D01*
G01*
X46540000Y88980000D01*
G75*
G02*
X46610000Y89050000I70000J0D01*
G01*
G37*
G04 #@! TD*
G04 #@! TO.C,R27*
G36*
G01*
X40610000Y87650000D02*
X41390000Y87650000D01*
G75*
G02*
X41460000Y87580000I0J-70000D01*
G01*
X41460000Y87020000D01*
G75*
G02*
X41390000Y86950000I-70000J0D01*
G01*
X40610000Y86950000D01*
G75*
G02*
X40540000Y87020000I0J70000D01*
G01*
X40540000Y87580000D01*
G75*
G02*
X40610000Y87650000I70000J0D01*
G01*
G37*
G36*
G01*
X40610000Y86050000D02*
X41390000Y86050000D01*
G75*
G02*
X41460000Y85980000I0J-70000D01*
G01*
X41460000Y85420000D01*
G75*
G02*
X41390000Y85350000I-70000J0D01*
G01*
X40610000Y85350000D01*
G75*
G02*
X40540000Y85420000I0J70000D01*
G01*
X40540000Y85980000D01*
G75*
G02*
X40610000Y86050000I70000J0D01*
G01*
G37*
G04 #@! TD*
G04 #@! TO.C,R54*
G36*
G01*
X73544999Y70375000D02*
X73544999Y71625000D01*
G75*
G02*
X73644999Y71725000I100000J0D01*
G01*
X74444999Y71725000D01*
G75*
G02*
X74544999Y71625000I0J-100000D01*
G01*
X74544999Y70375000D01*
G75*
G02*
X74444999Y70275000I-100000J0D01*
G01*
X73644999Y70275000D01*
G75*
G02*
X73544999Y70375000I0J100000D01*
G01*
G37*
G36*
G01*
X75445021Y70375000D02*
X75445021Y71625000D01*
G75*
G02*
X75545021Y71725000I100000J0D01*
G01*
X76345021Y71725000D01*
G75*
G02*
X76445021Y71625000I0J-100000D01*
G01*
X76445021Y70375000D01*
G75*
G02*
X76345021Y70275000I-100000J0D01*
G01*
X75545021Y70275000D01*
G75*
G02*
X75445021Y70375000I0J100000D01*
G01*
G37*
G04 #@! TD*
G04 #@! TO.C,R42*
G36*
G01*
X47390000Y79350000D02*
X46610000Y79350000D01*
G75*
G02*
X46540000Y79420000I0J70000D01*
G01*
X46540000Y79980000D01*
G75*
G02*
X46610000Y80050000I70000J0D01*
G01*
X47390000Y80050000D01*
G75*
G02*
X47460000Y79980000I0J-70000D01*
G01*
X47460000Y79420000D01*
G75*
G02*
X47390000Y79350000I-70000J0D01*
G01*
G37*
G36*
G01*
X47390000Y80950000D02*
X46610000Y80950000D01*
G75*
G02*
X46540000Y81020000I0J70000D01*
G01*
X46540000Y81580000D01*
G75*
G02*
X46610000Y81650000I70000J0D01*
G01*
X47390000Y81650000D01*
G75*
G02*
X47460000Y81580000I0J-70000D01*
G01*
X47460000Y81020000D01*
G75*
G02*
X47390000Y80950000I-70000J0D01*
G01*
G37*
G04 #@! TD*
G04 #@! TO.C,R28*
G36*
G01*
X46610000Y87650000D02*
X47390000Y87650000D01*
G75*
G02*
X47460000Y87580000I0J-70000D01*
G01*
X47460000Y87020000D01*
G75*
G02*
X47390000Y86950000I-70000J0D01*
G01*
X46610000Y86950000D01*
G75*
G02*
X46540000Y87020000I0J70000D01*
G01*
X46540000Y87580000D01*
G75*
G02*
X46610000Y87650000I70000J0D01*
G01*
G37*
G36*
G01*
X46610000Y86050000D02*
X47390000Y86050000D01*
G75*
G02*
X47460000Y85980000I0J-70000D01*
G01*
X47460000Y85420000D01*
G75*
G02*
X47390000Y85350000I-70000J0D01*
G01*
X46610000Y85350000D01*
G75*
G02*
X46540000Y85420000I0J70000D01*
G01*
X46540000Y85980000D01*
G75*
G02*
X46610000Y86050000I70000J0D01*
G01*
G37*
G04 #@! TD*
G04 #@! TO.C,R22*
G36*
G01*
X42110000Y90650000D02*
X42890000Y90650000D01*
G75*
G02*
X42960000Y90580000I0J-70000D01*
G01*
X42960000Y90020000D01*
G75*
G02*
X42890000Y89950000I-70000J0D01*
G01*
X42110000Y89950000D01*
G75*
G02*
X42040000Y90020000I0J70000D01*
G01*
X42040000Y90580000D01*
G75*
G02*
X42110000Y90650000I70000J0D01*
G01*
G37*
G36*
G01*
X42110000Y89050000D02*
X42890000Y89050000D01*
G75*
G02*
X42960000Y88980000I0J-70000D01*
G01*
X42960000Y88420000D01*
G75*
G02*
X42890000Y88350000I-70000J0D01*
G01*
X42110000Y88350000D01*
G75*
G02*
X42040000Y88420000I0J70000D01*
G01*
X42040000Y88980000D01*
G75*
G02*
X42110000Y89050000I70000J0D01*
G01*
G37*
G04 #@! TD*
G04 #@! TO.C,C22*
G36*
G01*
X43090000Y72034999D02*
X42410000Y72034999D01*
G75*
G02*
X42325000Y72119999I0J85000D01*
G01*
X42325000Y72799999D01*
G75*
G02*
X42410000Y72884999I85000J0D01*
G01*
X43090000Y72884999D01*
G75*
G02*
X43175000Y72799999I0J-85000D01*
G01*
X43175000Y72119999D01*
G75*
G02*
X43090000Y72034999I-85000J0D01*
G01*
G37*
G36*
G01*
X43090000Y73615001D02*
X42410000Y73615001D01*
G75*
G02*
X42325000Y73700001I0J85000D01*
G01*
X42325000Y74380001D01*
G75*
G02*
X42410000Y74465001I85000J0D01*
G01*
X43090000Y74465001D01*
G75*
G02*
X43175000Y74380001I0J-85000D01*
G01*
X43175000Y73700001D01*
G75*
G02*
X43090000Y73615001I-85000J0D01*
G01*
G37*
G04 #@! TD*
G04 #@! TO.C,C20*
G36*
G01*
X41715001Y74340000D02*
X41715001Y73660000D01*
G75*
G02*
X41630001Y73575000I-85000J0D01*
G01*
X40950001Y73575000D01*
G75*
G02*
X40865001Y73660000I0J85000D01*
G01*
X40865001Y74340000D01*
G75*
G02*
X40950001Y74425000I85000J0D01*
G01*
X41630001Y74425000D01*
G75*
G02*
X41715001Y74340000I0J-85000D01*
G01*
G37*
G36*
G01*
X40134999Y74340000D02*
X40134999Y73660000D01*
G75*
G02*
X40049999Y73575000I-85000J0D01*
G01*
X39369999Y73575000D01*
G75*
G02*
X39284999Y73660000I0J85000D01*
G01*
X39284999Y74340000D01*
G75*
G02*
X39369999Y74425000I85000J0D01*
G01*
X40049999Y74425000D01*
G75*
G02*
X40134999Y74340000I0J-85000D01*
G01*
G37*
G04 #@! TD*
G04 #@! TO.C,R51*
G36*
G01*
X43610000Y90650000D02*
X44390000Y90650000D01*
G75*
G02*
X44460000Y90580000I0J-70000D01*
G01*
X44460000Y90020000D01*
G75*
G02*
X44390000Y89950000I-70000J0D01*
G01*
X43610000Y89950000D01*
G75*
G02*
X43540000Y90020000I0J70000D01*
G01*
X43540000Y90580000D01*
G75*
G02*
X43610000Y90650000I70000J0D01*
G01*
G37*
G36*
G01*
X43610000Y89050000D02*
X44390000Y89050000D01*
G75*
G02*
X44460000Y88980000I0J-70000D01*
G01*
X44460000Y88420000D01*
G75*
G02*
X44390000Y88350000I-70000J0D01*
G01*
X43610000Y88350000D01*
G75*
G02*
X43540000Y88420000I0J70000D01*
G01*
X43540000Y88980000D01*
G75*
G02*
X43610000Y89050000I70000J0D01*
G01*
G37*
G04 #@! TD*
M02*
